<?xml version="1.0" encoding="utf-8"?>
<!-- Generator: Adobe Illustrator 22.1.0, SVG Export Plug-In . SVG Version: 6.00 Build 0)  -->
<svg id="Calque_1" style="enable-background:new 0 0 4388 1002;" version="1.1" viewBox="0 0 4388 1002"
     x="0px"
     xml:space="preserve" xmlns="http://www.w3.org/2000/svg" y="0px">
<style type="text/css">
	.st0 {
    fill: #189D70;
  }

  .st1 {
    fill: #15825B;
  }
</style>
  <g id="XMLID_28_">
	<g id="XMLID_1_">
		<path class="st0" d="M574.8,322.6c37.5,9,71.1,27.2,90,48.8l97.7-85.8c-37-42.2-92.9-73.9-157.4-89.4
			c-26.9-6.5-53.9-9.7-80.2-9.9v130C541.2,316.5,558,318.6,574.8,322.6z" id="XMLID_33_"/>
    <path class="st0" d="M640,738.2c0,14.6-4.5,46.2-21.5,72.2c-19,29.1-49.6,43.9-93.5,45.3v130
			c46.1-0.9,87.2-11,122.4-30.2c32.4-17.6,59.3-42.5,79.8-74c39.6-60.6,42.7-125.1,42.7-143.4c0-79.4-29.5-140.4-87.8-181.4
			c-45.7-32.1-101.9-46.4-151.5-59c-1.9-0.5-3.8-1-5.7-1.5v134.3C609.6,653.7,640,672.6,640,738.2z" id="XMLID_34_"/>
    <path class="st0" d="M989.3,310.2c-25.6-57.9-62.2-109.9-108.7-154.4c-46.3-44.3-100.3-79.1-160.3-103.4
			C658.4,27.3,592.7,14.6,525,14.5v130c206.5,0.1,374.4,159.6,374.4,355.6c0,88.9-34.8,174-97.9,239.7l93.7,90.1
			c86.5-90,134.1-207.1,134.1-329.8C1029.4,434.3,1015.9,370.4,989.3,310.2z" id="XMLID_35_"/>
	</g>
    <g id="XMLID_29_">
		<path class="st1" d="M420.9,203.9c-89.3,33.6-140.5,110.8-140.5,211.7c0,35.3,7.5,66.9,22.3,93.9
			c13.6,24.9,33.6,46.1,59.2,63.1c40.7,26.8,89.5,39.2,136.8,51.2c9.3,2.4,18,4.6,26.3,6.9V496.4c-96.2-24.8-114.6-38.1-114.6-80.7
			c0-47,17.9-75.6,56.3-90c17-6.4,37-9.5,58.3-9.3v-130C488.1,186.1,452.6,192,420.9,203.9z" id="XMLID_36_"/>
      <path class="st1" d="M524.8,14.1c-67.7,0-133.5,12.9-195.5,38c-60,24.3-113.9,59.2-160.3,103.5
			c-46.4,44.6-83,96.6-108.6,154.5c-26.6,60.2-40.1,124.1-40.1,190c0,144.6,66.2,280.6,181.7,373.3c43.9,35.2,93,62.7,146.3,81.9
			c54.3,19.5,111.7,29.8,169.7,30.5l0,0c3,0,4.8,0,7-0.1v-130c-1.3,0-2.6,0.1-3.9,0.1c-87-0.8-171.4-30.6-237.7-83.8
			c-84.6-67.8-133.1-167.1-133.1-272.1c0-196.1,168-355.9,374.5-355.9c0.1,0,0.1,0,0.2,0V14.1C524.9,14.1,524.9,14.1,524.8,14.1z"
            id="XMLID_37_"/>
	</g>
</g>
  <g>
	<path class="st0" d="M1469.6,736.8c-49.4,0-86.9-16.9-112.5-50.6c-25.7-33.7-38.5-82.1-38.5-145.2c0-64.2,13.4-113.6,40.3-148.1
		c26.8-34.5,65.6-51.8,116.4-51.8c34.4,0,65.4,7.5,92.9,22.4l-20.9,65.3c-29.3-13.3-53.5-20-72.6-20c-56.4,0-84.7,43.9-84.7,131.6
		c0,42.8,7,75,21.1,96.5s34.7,32.3,61.8,32.3c30.9,0,60.1-9,87.6-26.9V713c-12.4,8.5-25.6,14.6-39.7,18.3
		C1506.7,734.9,1489.6,736.8,1469.6,736.8z"/>
    <path class="st0" d="M1926.5,538.3c0,62.4-13.7,111.1-41,146.1c-27.3,35-65.4,52.5-114.2,52.5c-30.5,0-57.4-8.1-80.8-24.2
		c-23.4-16.1-41.4-39.2-54-69.4s-18.9-65.1-18.9-105c0-61.9,13.6-110.3,40.7-145c27.1-34.8,65.4-52.1,114.8-52.1
		c47.2,0,84.6,17.8,112.1,53.3C1912.8,430,1926.5,477.9,1926.5,538.3z M1689,538.3c0,88.2,27.8,132.2,83.5,132.2
		c55.1,0,82.6-44.1,82.6-132.2c0-87.2-27.7-130.9-83.2-130.9c-29.1,0-50.2,11.3-63.3,33.8C1695.6,463.8,1689,496.1,1689,538.3z"/>
    <path class="st0" d="M2293.2,729.9h-69.6V495.1c0-29.5-5.1-51.4-15.2-65.9c-10.1-14.5-26.2-21.8-48.2-21.8
		c-29.3,0-50.7,10.1-64.3,30.4s-20.4,54.2-20.4,101.9v190.2h-69.3V348h54.3l9.7,50.1h3.5c9.8-18.2,23.8-32.2,41.9-42.1
		s38.2-14.8,60.2-14.8c78.3,0,117.4,46.6,117.4,139.8L2293.2,729.9L2293.2,729.9z"/>
    <path class="st0" d="M2608.9,621.1c0,37.3-11.6,65.9-34.8,85.8c-23.2,19.9-56.4,29.9-99.7,29.9c-43.5,0-78.4-7.7-104.7-23.1v-70.1
		c38.4,20.7,74,31.1,107.1,31.1c42.7,0,64-15.1,64-45.2c0-9.7-2.4-17.7-7.1-24.2c-4.7-6.4-12.5-13.1-23.3-20s-25.9-14.7-45.1-23.5
		c-37.6-17-63-34.1-76.3-51.1c-13.3-17-19.9-39.1-19.9-66.3c0-32.7,11.3-58.1,33.8-76.1c22.5-18.1,53.1-27.1,91.9-27.1
		c38.4,0,74.6,9.1,108.9,27.3l-22.4,61.1c-35.2-17-64.8-25.6-88.8-25.6c-36.6,0-54.9,12.2-54.9,36.6c0,12,4.8,22.1,14.3,30.4
		s30.3,19.7,62.4,34.2c26.9,12.2,46.5,23.4,58.7,33.5s21.2,21.8,27.1,35C2605.9,586.9,2608.9,602.7,2608.9,621.1z"/>
    <path class="st0" d="M2805.3,671.2c16.9,0,33.8-3.1,50.7-9.3V723c-7.7,3.9-17.6,7.2-29.6,9.8c-12.1,2.6-24.6,4-37.6,4
		c-65.7,0-98.5-40.5-98.5-121.5V409.5h-44.5v-35.9l47.8-29.7l23.6-80.8h42.8V348h92.9v61.5H2760v204.4c0,19.6,4.2,34,12.5,43.3
		S2791.8,671.2,2805.3,671.2z"/>
    <path class="st0" d="M3086.8,341.1c14,0,25.5,1.2,34.5,3.5l-6.8,75.6c-9.8-2.8-20.1-4.1-30.7-4.1c-27.7,0-50.2,10.6-67.4,31.8
		c-17.2,21.2-25.8,48.7-25.8,82.5V730h-69.3V348h54.3l9.1,67.3h3.5c10.8-22.8,24.9-40.9,42.3-54.2
		C3048,347.8,3066.7,341.1,3086.8,341.1z"/>
    <path class="st0" d="M3324.2,736.8c-50.7,0-90.4-17.3-119-52c-28.6-34.6-42.9-82.3-42.9-143.1c0-62.4,13.3-111.4,39.8-147.1
		c26.6-35.7,63-53.5,109.4-53.5c43.1,0,77.1,15.3,102.1,45.9s37.5,72.7,37.5,126.4v43.9h-217.4c1,37.1,9.5,65.5,25.7,85.5
		c16.1,19.9,38.8,29.9,68.1,29.9c19.3,0,37.2-2.1,53.8-6.4c16.6-4.3,34.5-11.3,53.5-21.2V711c-16.9,9.4-34,16.1-51.3,20
		C3366.2,734.8,3346.5,736.8,3324.2,736.8z M3311.6,402.6c-22,0-39.7,8.2-53,24.5s-21.2,40.2-23.7,71.5H3383
		c-0.4-31.5-6.9-55.4-19.5-71.6C3350.9,410.7,3333.6,402.6,3311.6,402.6z"/>
    <path class="st0" d="M3734,729.9l-13.9-53.2h-2.4c-15.7,23.3-31.6,39.1-47.5,47.5s-36.4,12.6-61.4,12.6
		c-32.1,0-57.1-10.1-75.1-30.4c-18-20.3-27-48.9-27-86c0-39.4,12.5-69.1,37.5-89.1s63-31,114.2-32.8l56.3-2.1V476
		c0-24.4-4.9-42.6-14.6-54.7c-9.7-12.1-24.8-18.1-45.3-18.1c-16.7,0-32.7,2.9-48.1,8.6c-15.3,5.8-30.1,12.5-44.2,20.4l-22.4-58
		c17.7-10.8,37.1-19,58.1-24.7c21-5.6,40.9-8.5,59.6-8.5c41.5,0,72.8,10.6,94,31.8c21.1,21.2,31.7,54.4,31.7,99.8v257.2H3734V729.9z
		 M3630.8,674.6c25.2,0,45.4-8.2,60.6-24.7c15.2-16.5,22.9-39.5,22.9-69.2v-33.1l-41.9,2.1c-32.6,1.4-56.4,7.8-71.2,19.2
		c-14.9,11.4-22.3,28.8-22.3,52.3c0,17,4.3,30.2,13,39.5C3600.5,670,3613.4,674.6,3630.8,674.6z"/>
    <path class="st0" d="M4155.3,729.9h-69.6V494.4c0-29.2-4.7-51-14.2-65.4c-9.4-14.4-24.2-21.6-44.3-21.6
		c-26.7,0-46.4,10.2-58.9,30.6s-18.7,54.3-18.7,101.7v190.2h-69.3V348h54.3l9.7,50.1h3.5c9-18.2,22.2-32.2,39.4-42.1
		s36.1-14.8,56.8-14.8c50.2,0,83.4,20,99.7,60.1h4.7c9.6-18.9,23.2-33.6,40.7-44.2s37.6-15.9,60.2-15.9c38.9,0,67.3,11.5,85.1,34.5
		c17.8,23,26.7,58.1,26.7,105.3v248.9h-69.3V494.4c0-29.2-4.8-51-14.3-65.4s-24.3-21.6-44.4-21.6c-26.9,0-46.7,9.8-59.1,29.5
		c-12.5,19.7-18.7,49.9-18.7,90.6L4155.3,729.9L4155.3,729.9z"/>
</g>
</svg>
