<?xml version="1.0" encoding="utf-8"?>
<!-- Generator: Adobe Illustrator 22.1.0, SVG Export Plug-In . SVG Version: 6.00 Build 0)  -->
<svg id="Calque_1" style="enable-background:new 0 0 159 156;" version="1.1" viewBox="0 0 159 156"
     x="0px"
     xml:space="preserve" xmlns="http://www.w3.org/2000/svg" y="0px">
<style type="text/css">
	.st0 {
    fill: #FFFFFF;
  }
</style>
  <g>
	<path class="st0" d="M79.5,0.7C35.6,0.7,0,36.3,0,80.2c0,35.2,22.8,64.9,54.4,75.4c4,0.7,5.5-1.7,5.5-3.8c0-1.9-0.1-8.1-0.1-14.8
		c-20,3.7-25.1-4.9-26.7-9.3c-0.9-2.3-4.8-9.3-8.1-11.2c-2.8-1.5-6.8-5.2-0.1-5.3c6.3-0.1,10.7,5.8,12.2,8.1
		c7.2,12,18.6,8.6,23.2,6.6c0.7-5.2,2.8-8.6,5.1-10.6c-17.7-2-36.2-8.8-36.2-39.3c0-8.6,3.1-15.8,8.1-21.4c-0.8-2-3.6-10.1,0.8-21.1
		c0,0,6.7-2.1,21.9,8.1c6.4-1.8,13.1-2.7,19.9-2.7c6.8,0,13.5,0.9,19.9,2.7c15.2-10.3,21.9-8.1,21.9-8.1c4.4,10.9,1.6,19.1,0.8,21.1
		c5.1,5.6,8.1,12.6,8.1,21.4c0,30.5-18.6,37.3-36.3,39.3c2.9,2.5,5.4,7.3,5.4,14.7c0,10.6-0.1,19.2-0.1,21.9c0,2.1,1.5,4.6,5.5,3.8
		c31.4-10.5,54.2-40.3,54.2-75.4C159,36.3,123.4,0.7,79.5,0.7z"/>
</g>
</svg>
