<?xml version="1.0" encoding="utf-8"?>
<!-- Generator: Adobe Illustrator 22.1.0, SVG Export Plug-In . SVG Version: 6.00 Build 0)  -->
<svg id="Calque_1" style="enable-background:new 0 0 376 373;" version="1.1" viewBox="0 0 376 373"
     x="0px"
     xml:space="preserve" xmlns="http://www.w3.org/2000/svg" y="0px">
<style type="text/css">
	.st0 {
    fill: #FCBDC7;
  }

  .st1 {
    fill: #FB7F87;
  }

  .st2 {
    fill: #FA656C;
  }
</style>
  <g>
	<path class="st0" d="M342.3,80.4l-52.2,49c11.2,12.9,18,29.2,18,49c0,72.3-44,88.2-86,92.9c6.8,5.8,12.8,17.3,12.8,34.9
		c0,25.1-0.3,45.4-0.3,51.7c0,5,3.4,10.9,13,9c74.7-25,128.6-95.5,128.6-178.6C376.3,148.1,363.7,110.9,342.3,80.4z"/>
    <path class="st0" d="M128.6,366.8c9.4,1.7,12.8-4.1,12.8-9c0-4.5-0.2-19.3-0.3-35c-25.2,5.5-40.9,0.5-50.3-6.1l-20,18.8
		C87.9,349.1,107.4,359.8,128.6,366.8z"/>
    <path class="st0" d="M141.8,296.6c1.7-12.1,6.6-20.4,11.9-25.1c-4.3-0.5-8.5-1.1-12.8-1.9l-32.1,30.2
		C121.8,304,135,299.6,141.8,296.6z"/>
    <path class="st1" d="M289.6,29.7L206,92c10,1,19.8,2.8,29.2,5.4c35.9-24.4,51.7-19.3,51.7-19.3c10.3,25.9,3.8,45.1,1.9,49.8
		c0.4,0.5,0.9,1,1.4,1.5l52.2-49C328.2,60.3,310.3,43,289.6,29.7z"/>
    <path class="st1" d="M68.7,194.1L7,240c10.9,38.2,33.5,71.4,63.8,95.5l20-18.8c-10.1-7.1-13.1-16.1-13.1-16.1
		C69.2,278.8,56.9,273,56.9,273c-17.1-11.7,1.3-11.4,1.3-11.4C77.1,262.9,87,281,87,281c6.3,10.7,14,16.3,21.8,18.8l32.1-30.2
		C106.6,263.4,74.1,246.5,68.7,194.1z"/>
    <path class="st2" d="M68,178.4c0-20.6,7.4-37.4,19.4-50.5c-1.9-4.8-8.4-23.9,1.9-49.9c0,0,15.8-5.1,51.8,19.3
		c15-4.2,31.1-6.2,47.1-6.3c6,0,12,0.3,17.9,0.9l83.6-62.2C260.3,10.9,225.5,0,188.1,0C84.1,0-0.2,84.3-0.2,188.2
		c0,17.9,2.5,35.3,7.2,51.8l61.7-45.9C68.2,189.2,68,184,68,178.4z"/>
</g>
</svg>
