<?xml version="1.0" encoding="utf-8"?>
<!-- Generator: Adobe Illustrator 22.1.0, SVG Export Plug-In . SVG Version: 6.00 Build 0)  -->
<svg id="Calque_1" style="enable-background:new 0 0 310 309;" version="1.1" viewBox="0 0 310 309"
     x="0px"
     xml:space="preserve" xmlns="http://www.w3.org/2000/svg" y="0px">
<style type="text/css">
	.st0 {
    fill: #FFFFFF;
  }
</style>
  <g id="XMLID_801_">
	<path class="st0" d="M72.2,99.1H10c-2.8,0-5,2.2-5,5V304c0,2.8,2.2,5,5,5h62.2c2.8,0,5-2.2,5-5V104.1
		C77.2,101.3,75,99.1,72.2,99.1z" id="XMLID_802_"/>
    <path class="st0" d="M41.1-0.3C18.5-0.3,0,18.1,0,40.7s18.4,41,41.1,41c22.6,0,41-18.4,41-41
		C82.2,18.1,63.7-0.3,41.1-0.3z" id="XMLID_803_"/>
    <path class="st0" d="M230.5,94.1c-25,0-43.5,10.7-54.7,23v-13c0-2.8-2.2-5-5-5h-59.6c-2.8,0-5,2.2-5,5V304
		c0,2.8,2.2,5,5,5h62.1c2.8,0,5-2.2,5-5v-98.9c0-33.3,9.1-46.3,32.3-46.3c25.3,0,27.3,20.8,27.3,48V304c0,2.8,2.2,5,5,5H305
		c2.8,0,5-2.2,5-5V194.4C310.1,144.8,300.6,94.1,230.5,94.1z" id="XMLID_804_"/>
</g>
</svg>
