<?xml version="1.0" encoding="utf-8"?>
<!-- Generator: Adobe Illustrator 22.1.0, SVG Export Plug-In . SVG Version: 6.00 Build 0)  -->
<svg id="Calque_1" style="enable-background:new 0 0 153 153;" version="1.1" viewBox="0 0 153 153"
     x="0px"
     xml:space="preserve" xmlns="http://www.w3.org/2000/svg" y="0px">
<style type="text/css">
	.st0 {
    fill: #FF6661;
  }

  .st1 {
    fill: #DB5252;
  }
</style>
  <path class="st0" d="M76.6,0.4C34.4,0.4,0.1,34.7,0.1,76.9s34.3,76.5,76.5,76.5s76.5-34.3,76.5-76.5
	S118.8,0.4,76.6,0.4z M111.1,50.1l14.4-8.3c0.4-0.2,0.8-0.4,1.2-0.4c1.3-0.1,2.5,0.7,2.9,2s-0.2,2.6-1.3,3.2l-14.4,8.3
	c-1.3,0.8-3,0.3-3.8-1C109.3,52.6,109.8,50.9,111.1,50.1z M95,35.9l6.9-11c0.5-0.8,1.3-1.3,2.2-1.3c1,0,2,0.5,2.5,1.4s0.5,2,0,2.9
	L99.7,39c-0.5,0.9-1.4,1.5-2.5,1.5s-2-0.6-2.4-1.5C94.3,37.9,94.4,36.7,95,35.9z M73.8,15.3c0-1.4,1.1-2.4,2.5-2.4l0,0
	c0.1,0,0.3-0.2,0.4-0.2c0.7,0,1.6,0.2,2.1,0.7s1,1.1,1,1.9v16.6c0,1-0.7,1.9-1.6,2.4c-0.4,0.3-1,0.4-1.5,0.4s-1.1-0.1-1.5-0.4
	c-0.7-0.4-1.2-1.1-1.3-1.8c0-0.2-0.1-0.4-0.1-0.6V15.3z M46.6,25c0.4-0.9,1.3-1.4,2.2-1.5c1-0.1,2,0.5,2.5,1.3l6.9,11
	c0.6,0.8,0.7,1.9,0.3,2.9c-0.4,1-1.4,1.6-2.4,1.6s-2-0.6-2.5-1.5l-6.9-11.1C46.2,26.9,46.1,25.9,46.6,25z M23.7,43.6
	c0.3-1.2,1.3-2.1,2.5-2.1c0.6,0,1.1,0.1,1.6,0.4l14.4,8.3c1.3,0.8,1.8,2.5,1,3.8s-2.5,1.8-3.8,1l-14.3-8.3
	C24,46.1,23.4,44.8,23.7,43.6z M23.1,74.7c-0.3-0.4-0.4-0.9-0.4-1.4s0.1-1,0.3-1.4c0.5-0.9,1.3-1.2,2.3-1.3c0.1,0,0.2,0.2,0.3,0.2
	h9.7c1,0,1.9,0.3,2.4,1.1c0.3,0.4,0.4,0.9,0.4,1.3c0,0.5-0.1,0.9-0.4,1.3c-0.5,0.9-1.4,1.2-2.4,1.2h-9.7
	C24.6,75.9,23.7,75.6,23.1,74.7z M42.2,96.3l-14.4,8.3c-1.3,0.8-3,0.3-3.8-1s-0.3-3,1-3.8l14.4-8.3c0.4-0.2,0.8-0.4,1.2-0.4
	c1.3-0.1,2.5,0.7,2.9,2C43.9,94.4,43.3,95.7,42.2,96.3z M106.8,71.8c0,15.7-14.2,25.1-16.1,37.1H79.8v6h11v10.8
	c0,3.1-2.8,5.2-5.8,5.2H68.4c-3.1,0-5.6-2.1-5.6-5.2v-10.8h11v-6H62.6c-2-12-16.3-21.5-16.3-37.1c0-16,13.5-28.9,30.2-28.9
	C93.3,42.8,106.8,55.8,106.8,71.8C106.8,71.7,106.8,71.7,106.8,71.8C106.8,71.7,106.8,71.8,106.8,71.8z M129.2,103.6
	c-0.8,1.3-2.4,1.8-3.8,1l-14.3-8.3c-1.1-0.6-1.6-1.8-1.4-3c0.3-1.2,1.3-2.1,2.6-2.1c0.5,0,1.1,0.1,1.6,0.4l14.4,8.3
	C129.5,100.6,130,102.3,129.2,103.6z M130.1,74.6c-0.5,0.9-1.4,1.3-2.4,1.3h-9.6c-1,0-1.9-0.3-2.5-1.2c-0.3-0.4-0.4-0.9-0.4-1.4
	s0.1-1,0.3-1.4c0.5-0.9,1.3-1.2,2.3-1.3c0.1,0,0.2,0.2,0.3,0.2h9.7c1,0,1.9,0.3,2.4,1.1C130.6,72.9,130.6,73.7,130.1,74.6z"
        id="XMLID_209_"/>
  <path class="st1" d="M76.6,42.9c-16.8,0-30.4,12.9-30.4,28.9c0,15.7,14.4,25.1,16.3,37.1h11.1V78
	c-2-1-2.7-2.7-2.7-4.7c0-3,2.5-5.5,5.5-5.5c0,0,0,0,0.1,0c0,0,0,0,0.1,0c3,0,5.6,2.5,5.6,5.5c0,2-1.6,3.8-2.6,4.7v30.9h10.9
	c2-12,16.3-21.5,16.3-37.2C107,55.8,93.4,42.9,76.6,42.9z" id="XMLID_234_"/>
</svg>
