<?xml version="1.0" encoding="utf-8"?>
<svg style="enable-background:new 32 -104 1024 768;" version="1.1" viewBox="32 -104 1024 768" x="0px"
     xml:space="preserve" xmlns="http://www.w3.org/2000/svg" y="0px">
<g id="Calque_1">
	<g id="Calque_1_1_">
		<g id="svg1">
			<g id="bg">
				<rect height="14784" style="fill:#44C650;" width="16291.8" x="-6570.7" y="-5392.3"/>
			</g>
		</g>
    <g>
			<path d="M768.5,178.2c-1.3-2.7-0.3-5-3.4-7c-1.4-1.4-4.5-0.7-5.8-2.7c-1-1.4,3.2-2.3,0.7-5.1
				c-0.8-1.1-2.5-3-2.9-4.9c-0.3-1.6-2.3-1.4-1.3-3c4.8-4.9,2.2-5.1,3.4-10.3c-0.3-0.7-1.7-0.3-2.1-1.4c-0.3-1.7,1-4.1,0-5.8
				c-0.7-2.1-3.2-1.5-4.1-4.5c-1.5-1.9-0.2-3.9,0.5-5.3c0.6-1.3,1.1-2,0.6-5.4c-0.4-2.5-4.4-4.6-7.5-7.2c-2.9-2.4-6.2-1.7-6.9-3.8
				c-0.6-1.6,1.3-0.9,0.8-4.7c-0.2-1.8,2.3-3.1,3.5-4.5c1.3-1.5,1.9-4.4,2.4-6.3c0.5-1.9,1.1-2.7,0.8-4.8
				c-0.7-3.4-4.8-13.3-5.5-18.8c-0.7,0.1,0.6-2.2-0.5-2.5c-1-0.3-3.1,1.5-5.3,0.2c-2.7-1.6-4.3-2.8-5.1-3.7c0.3-0.1,0.8-0.2,0.9-0.2
				c0.9,0,0.5-1.4,0.9-1c0.4,0.4-0.6,0.8,0.1,0.9c0.7,0.1,1.5-1,2.3-1.5s1.1,0.2,2.5,0c1.5-0.2,2.3,0.1,2.3,0.1l-0.2-1.6l-0.3-0.6
				l0.8-0.6c0,0,0.2,0-1.1-0.9c-1.3-0.9-1.2-1.1-3.5-3.3c-2.3-2.2-2.7-1.7-2.2-0.9c0.6,0.8,1.5,1.6,1.7,2.7c0.2,1.1-0.1,2-0.5,1.5
				c-0.3-0.5-1-0.8-1-0.8s-0.2-0.7-0.9-0.8c-0.7-0.1-1.6,0.7-0.9,1.4c0.6,0.6,0.8,2.5,0.3,3.5c-0.2,0.4-1.1,0.7-2.1,0.9
				c-0.8-2.2,4.7-1.9-2.2-6.5c-2.4-1.6,5.7-2.3,3.4-3.1c-2.9-5-4.7-4.6-4.2-2.6c-2.7-0.7-6.9,0.6-7.3,2.7c-1.5-2.8-4.1-4.5-6.2-6.2
				c-1-1.4-3.4-0.7-4.5-2.1c-1.4-2.1,0-6.9-2.4-6.9c-0.2,0-0.3,0-0.5-0.1c0,0.1-0.1,0.2-0.1,0.2c-0.9,0.8-0.7,0.4-1.7,0.9
				c-1,0.6-0.8,1.1-1,2.1s-1.6,0.9-1.6,0.2c0-0.6-0.3-1-0.9-0.9c-0.6,0.1-1.6,0-2.1-0.7c-0.5-0.7-0.1-0.6-0.7,0
				c-0.6,0.6-1.2,1.1-2.2,1.8c-1,0.8-0.9-1.2-1.4-0.5c-0.4,0.8,0,1.3-0.9,1.6s-0.6,0.8-0.8,1.5c-0.2,0.6-1,0.1-1.6,1.1
				c0,0.5,0.4,1,1.4,1.3s-0.5,0.2-1.7-0.1c-1.2-0.4-0.2-0.6-0.7-1.5c-0.4-0.8,0.1-0.7,0.7-1.5c0.6-0.8,0.4-0.3,0.5-1.3
				c0-1,0-0.9,0.7-1.4s1.7-0.1,3.1-0.6c1.4-0.5,0.1-0.2,0.9-0.8c0.8-0.6,0.9-0.3,1.7-0.3s0.6-0.5,1.4-0.5s1.3,0.2,2.3,0
				s1.6-0.3,2.9-0.3c0.3,0,0.5-0.4,0.7-0.9c-0.2,0-0.3,0-0.6,0c-4.4-0.2-10.4-1.8-11.1-1.1c-2.1,2.4-2.4,6.2-4.5,8.6
				c-2,1.6-2.8,2.3-5,4.6c-0.3,0.3-5.7,2.2-7.1,2.4c-3.4,0.4-4.2-0.1-5.4,0.2c-3.1,1.7-4.1,10.3-5.8,11.3c-3.8-4.9-2.7,2-7.2-5.2
				c-2.7,0-4.7,3-7.4,2.6c-0.6-0.6,0.9-2.2-2.6-2.1c-1.3,0-0.9-3.2,1.1-3.5c2.7-0.5,4.4-3.2,6.8-5.3c-0.1-4.8-0.8-6.8,0.5-8.6
				c0.3,0.4,0.8,0.5,1.3,0c1.1-0.9,1.8-0.9,2.7-0.6c1,0.3,2,0.8,0.8-1.3s-1.9-4.1-4.7-4.5c-0.4-0.1-0.6-0.1-0.9,0
				c-2,0.5-2.3,3.4-2.1,3.9c0.4,0.6,0.7,0.4,1,0.7c1.5-0.6,1.6-0.7,1.5,0.3c0,0.5,0.1,1,0.3,1.3c-1.2,0.2-1.6,0.8-3.1,0.3
				c-1.6-0.6-5.5,3.3-6,3.5c-2.5-0.8-9.7-6.2-11.8-5.8c-2.4,0.3-4.8,5.6-4.8,5.6s1.7-4.5,1.4-6.5c-0.3-3.1-6.4,0.6-8.9,0.1
				c-1.9-2.4,2.5,0.7,4.5-3.9c0.7-1.7,1-3.8,0-5.5c-0.3-0.7-2.1,0.7-2.4,0c-0.7-0.3,0.7-1.1,1.4-1.5c0,0,0.7,0.3,0.7,0
				c0-1-0.3-2.4-1.4-3.1c-0.9-0.5-1.2-0.8-2.9,0c-1-1.5-2.5-2.5-3.9-2.3c-1.9-0.6-2.5-1.3-3.2-2.2c-1.4,0.3-2.1,2.1-3.4,3.1
				c-0.7,0.3-0.7,0-0.3-1c-4.5-0.7-8.9-3.1-13.4-3.8c-1,0-5.1,0.3-7.5,0c0,2.4,0.3,5.1,1.4,7.5c0.4,0.8,3,3.8,5.3,6.5
				c-0.9,2.5-0.4,2.6-1.6,3.3c-1.2,0.7-1,2.9,1,2.3c1.7-0.6,2.2-1.1,3.1-2.5c0.3,0.4,0.8,1,0.8,1.1c-1.1,4.7-6.5,2.9-10.3,4.5
				c0.3,0.3,2.9,0.7,1.7,2.1c-0.3,0.7-3.1-0.5-2.7,0.2c0.3,2.3,0.4,3.9,6.2,2.6c0.9,1,0.8,1.2,1.3,0.9c0.4-0.3,1.2-1.2,1.9-2.2
				c0.2,0,0.5,0,0.6,0.1c-2.5,2.9-4.2,3.3-3.8,8c0.6,0.3,1,0.3,1.5,0.2c1.1-0.2,1.4,0.6,2.3,2.3c0.9,1.7,0.5,2.4-1.1,1.9
				c-1.5-0.4-1.7-0.5-2.4,0c0.4,1.5,0.9,2.9,1.5,4c-0.7,4.8,7.1,2.9,8.1,2.9c6.2,0.7,4.6,6.4,8.6,7.9c1.1,2.5-0.6,5.1,9,7.5
				c-9.5-1.4-8.8-3.8-10.5-6.5c-3.4-2.8-3-6.4-5.4-7.4c-3.1-1.4-6.7,1.5-10.2,0.8c-1.4,0-3.1,0-4.1-0.7c-1-0.3-1.2-2.8-1.7-2.4
				c-7.2,6-5,11.2-3.4,15.9c-4.7-1.2-6.6-6.1-8.2-2.1c-2.2,5.3,3.1,0.5,1.1,7c-0.4,1.2-1.9,2-3.7-0.9c-0.5,0-2.2-0.4-2.1-1.6
				c0.1-1.2,2.9-1.9,1.6-4.2c-1.7-3-2.7-3.7-2.5-5.5c-0.3-0.3-1.4-0.7-1.7-0.7c-7.1-0.2-8.4,0.6-11.8,1.6c-1.8-0.5-6.3-0.9-8,0.1
				c-1,0.5-2.6,2-3.9,4c1.2,1.2,1.9,1.7,1.3,1.7c-0.8,0.1-1.3,0.2-1,0.8c0.2,0.5-0.3,0.2-1.4-0.5c-1.7,3.1-2.8,6.6-1.4,8.4
				c1.4,0.2,3.7,0.8,5.6,0.8c0.2,0.7,1.8,1.5,0.7,3.7c0.3,2.5-0.6,5.8-1.8,9.1c0.1,0.6,0,1.2-0.2,1.9c-0.5,1.5-1.1,3.9-2.5,5.7
				c-1,1.2-1.4,3.2-1.7,5c0.1,2.7,1,5.9-1.1,5.9c-2.4,0-4.5-1-6.9-1c-0.7,0-1.7,0-1.7,0.7c-0.3,1,1.4,2.1,1,3.1
				c0,0.7-1.7-0.3-2.1,0.7c-0.7,1.2-0.5,2,0.1,2.6l-0.3,0.6l7,2.8l0.5-0.8c0,0,0.1,0,0.2,0l0.6-0.7c0,0,0.3,0.8,0.5,1.3
				c0.8,0.5,1.3,1.2,1.3,2.1c0.4,2.7,0,4.6-0.8,6.1c0.1,0.4,0,0.7-0.5,0.9c-1,1.4-2.5,2.5-4.1,3.5c-0.2,0.3-0.4,0.6-0.4,0.8
				c-0.1,0.3-0.8,0.4-1.6,0.4c-0.7,0.4-1.3,0.8-2,1.2c-0.6,1.1-2.5,1.1,0.3,3c1.3,0.9,1.8,1.3,1.9,1.7c0,0.1,0,0.2,0,0.3
				c0,0.1,0.1,0.3,0,0.5c-0.2,0.4-0.6,0.8-1.1,1.2c-0.8,1-1.8,1.8-1.8,1.8l-0.4-0.4c-3.2,1.6-7.8,2.9-9.4,2.7
				c-2.4,0-3.8-2.4-5.8-3.1c-0.7-0.3,0.7,1.7,0,2.1c-2.1,0.7-4.1-0.3-5.8,0.7c-0.4,0.2-0.3,0.7-0.2,1.1l0.9,1.6l-1.1,1.1l2.2,1
				c0,0-0.2,0.3-0.2,1.5c-0.1,1.2,2.2,1.9,2.2,1.9l-0.4,1.4c2.3,3.1,4.4,6.9,2.5,11.5c-1,2.4-3.4,4.1-4.5,6.5
				c-1.4,2.7,3.1,0.7,2.7,2.4l-6.5,5.8c-0.7,0,0.3-1.5-0.8-1.2c-3.1,5.1,5.3,1.6,4.2,8.7c-0.3,1.4-2.7,1.4-3.1,2.7
				c-0.1,0.2,0.3,1,0.6,1.7c0.6,0.7,1.1,1.5,1.6,1.6c1.8,0.2,1.1,0.5,2,2.2c0.9,1.7,2,2.1,3.2,2.3s1,1-0.4,2.3
				c-1.4,1.3-1.5,2.9-0.6,3.6c0.9,0.7,2.9,0,3.9,1.8s-0.6,4.2,0.4,5.1c1,1,0.6,2.6-0.6,2.5c-1.2-0.1-1.8-0.1-1.8,0.7
				c-0.1,0.8-1.1,1.4-2.6,2.1c-0.7,0.3-0.7,1-0.6,1.6c0.1,0.6,0.4,1.1,0,1.3c-0.5,0.3-1.6,1-2.3,1.4c0.1,0.1,0,0.1,0.1,0.2
				c0.7,0.9,0.3,1.1-0.3,1.5c-0.7,0.5,0.1,2.3,0.1,2.4c0.1,1.2,0.3,3.8,1.2,3.4s0.9,0.5,1.4,2c0.4,1.5,1.5,1.4,2.1,2.7
				c0.6,1.3,1.1-0.4,1.8,0.6c0.8,1.1,0.2,1.6,1.7,1.4s1.8-0.3,1.7,1c0,0.6,0.1,1.5,0,2.2c-0.1,0.8-0.4,1.5-1.2,1.9
				c-1.6,0.9-0.7,1.8-1.4,2.6c-0.6,0.8-0.2,1.7-1.2,2.3c-1,0.6-1,2.3-0.5,3.7c0.2,0.7-0.4,1-1,1.7c0.1,0.1,0.2,0.2,0.2,0.3
				c-0.6-0.6-1-1.1-1.1-1.4c-0.1-1-3.6-1.8-4.3-0.7c-0.3,0.5-0.4,0.7-0.6,0.9c-0.6,0.1-1.1,0.3-1.7,0.6c-1.1,0.1-2.6,0.3-2.6-0.7
				c-0.1-1.1-3.5-1.5-3.5-2.2c0.1-0.8-0.6-0.8-1.7-1.1c-0.6-0.2-1.1,0.5-1.4,1.3c-0.7-0.2-1.3-0.4-2-0.4c-2.4-0.3-4.8,2.1-6.9,1
				c-1.7-0.7-0.3-3.8-1.4-5.1c-0.7-1-2.4-0.3-3.4-1c-0.3-0.3,1.4-1,1.4-1.4c-0.3-0.7-0.7-1.4-1.4-1.7c-0.7-0.3-1.7,1-2.1,0.7
				c-0.4-0.3-0.7-0.7-1-1.2c-0.3-0.1-0.6-0.2-0.9-0.4c-0.9-0.5-0.9-1.8-2-2.3c-0.3-0.1-0.6-0.5-1-0.7c-2.1-0.3-4.4-0.1-5.4-1.6
				c-1.4-1.4,1.4-3.4,1.4-5.1c-0.3-1.1-1.6-1.5-2.1-2.3c0.5-1.1,1.1-2.5,0.8-3c-0.5-0.8,2.2-3.7,2.2-3.7l-1.4-0.4l-4.3,4.5l-0.1,3.1
				c0,0-3.2,0.2-4.2,1.1c-0.8,0.7-3,0.7-4.8,0c-4.2-0.1-7.9-1.5-7.3-2.7c1-1.7,2.7-2.7,2.7-4.5c0-1-2.7-1-2.4-2.4
				c0-1.6,1.7-3.1,2.4-4.6l-0.9,0.3l-3-4.8c-0.1,0-0.2-0.1-0.4-0.1c-1.1,0.3-1.8,0.5-2.9,0.9c-2,0.6-1.9-0.7-4-1
				c-2.1-0.3-2,2.2-2.8,1.6c-0.6-0.4-1.1-1.4-0.9-3c-0.1-0.1-0.1-0.2-0.2-0.2c-0.2-0.9,0.1-2,0.3-3c-0.2-0.5-0.4-0.9-0.5-1.3
				c-0.4-1.6-1.7-1.1-3.1-1.1c-1.2,0-1.3-0.3,0-1.7c-0.6,0-1.2,0-1.9,0c-1.6,1.4-2.7,1.7-3.6,0.6c-1-1.1-2.2-2-1.7-3.5
				c-0.4-1.5-0.3-3.8-0.5-5.9c-0.6-0.4-0.7-0.7-1-1.6c-0.5-1.3-0.3-2.1-1.1-2.2c-0.9-0.1-1.7,0.4-2.4,0.3c-0.8-0.1-2,0.6-2.8,1.1
				c-0.9,0.4-0.7,2.1-2,2.3s-3.2-1.4-3.8-3.1c-0.9-0.8-1.6-1.8-2.1-3c-0.2,0-0.3-0.1-0.5-0.1c-1.2,0.3-1.4-1.3-1.6-3.1
				c-0.2-1.6-0.4-2.3,0.4-2.8c-0.5-2.9-0.7-5.7-1-7.4c-3.8,0.7-7.9,1-12,1.4c-3.1,0.3-14.4,1-15.8,5.2c-0.7,1.7-3.4,18.2-3.4,20.6
				c0,1,1.7,1,1.7,1.7s-1.4-0.7-2.1,0s-1,2.4-0.7,3.4c0.2,1.4,1.9,2.4,2.7,3.4c-2.3-0.8-3.3-0.5-5.4,3.5c-0.1,0.3-0.2,0.5-0.2,0.7
				c-0.3,0.1-0.7,0.1-0.9,0.2c-2.4,1.4-4.1,3.4-6.5,4.5c-6.2,3.4-29.2,4.1-32.6,9.6c-3.8,6.6-2.5,9.4,0.1,10.6l1.9,0.3
				c-2.2,0.4-3.8,0.7-5,1.7c-2.5,2.1-8,4.4-11.7,2.1s-6.6-3.4-10.3-3.7c-3.7-0.2-11.9-4.1-13.7-1.8c-1.8,2.3-1.6,0-1.4-1.6
				c0.2-1.6-3.2-3-3.9-5.5s3.4-2.5,2.3-5.7c-1.1-3.2-6.2-1.6-7.6-0.2c-1.4,1.4-4.3-0.2-7.1-1.4c-2.7-1.1-5.9-2.5-7.3-2.5
				c-1.4,0,0.2,2.1,2.1,3c1.8,0.9,1.8,3.4,0.5,4.6c-1.4,1.1,0.7,0.7,0.7,3.7s1.6,2.7,3.4,5.9c1.8,3.2,0.9,3.9,3,5.5
				c2.1,1.6-0.5,0.2-0.7,5c-0.2,4.8,2.1,1.8,0.7,6.9c-1.4,5-2.1,9.6,1.4,10.8c3.4,1.1,3.7,2.5-1.6,2.3s-11,1.8-9.6-1.8
				c1.4-3.7-0.2-4.1-2.7-2.7c-2.5,1.4-3,1.6-3,1.6s-2.3-1.1-3.4,0.2c-1.1,1.4-3.4,1.8-2.5-0.5c0.9-2.3-0.5-3.7-4.8-1.8
				c-4.3,1.8-9.4,5.3-9.4,5.3l-4.1-3.9l0.2-3.2l-3.7-3.4l1.1-1.6c0,0-4.3,1.6-3-0.7c1.4-2.3,2.3-3.9,2.3-3.9s-1.4-0.7-2.1,0.5
				c-0.7,1.1-1.6,1.4-1.6,1.4s1.4-2.7-0.9-2.1c-2.3,0.7-3.4,1.6-3.4,1.6s0.7-3-0.9-2.3s-3.4,3.2-5.9,1.4s-2.7-0.9-2.7-0.9l-2.7,0.9
				c0,0-0.2,2.7,1.4,3c1.6,0.2-2.1-0.2-1.4,1.8c0.7,2.1-1.8-0.9-6.2-1.8c-4.3-0.9-1.6,3.4-1.6,3.4s-1.6,0.2-3.4-3.9
				c-1.8-4.1-1.8-0.5-6,0c-4.1,0.5-5,3-6.4,0.7c-1.4-2.3-8.2,1.6-11.7,2.1c-3.4,0.5-3.2,5.5-2.5,7.5c0.7,2.1,3.9,2.5,7.1,1.4
				c3.2-1.1,8.5-1.6,8.5-1.6s-6.6,1.4-5.5,2.7c0.9,1,3.3,0.8,4.7,0.6c-0.3,0.1-0.2,0.4,0.8,1c2.3,1.4-1.1,2.3-4.6,0.7
				c-3.4-1.6-2.7-3.2-5-1.4s1.8,0.7,0.9,3.2c-0.9,2.5,0.5,1.8,2.3,0.7s2.5,1.4,4.6,1.8c2.1,0.5,3.7,5-1.6,3.7
				c-5.3-1.4-10.8-1.4-11.4,0.5c-0.7,1.8,9.2,2.1,9.6,6c0.4,3.9,2.7,3,0.7,5c-2.1,2.1,2.1,3,5,2.7c3-0.2,0.7-4.6,2.7-2.7
				c2.1,1.8,4.1,2.1,4.6,0.5c0.5-1.6,0.7,1.4,4.1,3.9c3.4,2.5,4.8,1.8,7.3,3c2.5,1.1,2.3,3.4,4.1,3.7c1.7,0.2,1.9-1,3.7-2.3
				c-0.7,0.7-1.4,1.9-0.7,3.2c1.4,2.5,4.8,0.9,4.8-1.1c0-2.1,3.9-0.7,0.9,1.6c-3,2.3-1.1,0.5-1.6,4.3c-0.5,3.9,1.6,5.3,1.6,2.5
				c0-2.7,1.4,0,3.7-1.4c2.3-1.4,2.1-1.8,3.4-0.5c1.4,1.4,3.2-0.7,4.6,0.7c1.4,1.4,0,3.7-3.4,2.3c-3.4-1.4-1.4-0.5-0.2,2.1
				c1.1,2.5,4.8-1.4,7.8,0c3,1.4,4.1,1.6,2.5,3.4c-1.6,1.8,3.9,1.6,0,2.5c-3.9,0.9-2.1,0-2.3,3c-0.2,3,0.9,2.5,3.7,3.7
				c2.7,1.1,3,1.8,5.3,0.2c2.3-1.6,5.3-3.2,9.2,0.5c3.9,3.7,3.9,5,5.5,5c1.6,0-1.6,1.8-6-2.1c-4.3-3.9-6.6-3.9-7.5-0.9
				c-0.9,3,0.5,3.4-2.5,3.2s1.4,0.5,3.7,2.3s4.3,2.7,1.4,5.5c-3,2.7-4.6,4.3-4.1,7.3s5.5,6,6,11.4c0.5,5.5,0.7,5,0.7,5
				s10.1,4.3,9.6,6.9c-0.5,2.5,2.7,0.9,4.1,3.2c1.4,2.3,1.1,3.7,3.4,1.1c2.3-2.5,2.7,1.1,1.4,3c-1.4,1.8-1.8,0.9-3,3
				c-1.1,2.1,0.9,0.2,1.6,2.1c0.7,1.8,2.1,5.3,1.6,6.6c-0.5,1.4-2.7-0.9-2.1,2.1c0.7,3-1.8,3.7-1.8,5.5v2.1c0,0-2.3-2.5-3.4,0.7
				c-1.1,3.2-1.1,1.6,1.4,3.2c2.5,1.6,5.5,6.6,8,10.1c0,0.1,0.1,0.1,0.1,0.1c0.2,0.3,0.4,0.7,0.6,1c1.8,9.6,0,15.3,5.4,21.3
				l-0.6,3.2c-0.2-0.5-0.4-0.9-0.9-1.4c-2.5-2.5-2.5-2.3-2.7-6.6c-0.2-4.3-0.9-6.9-2.3-11.9c-1.4-5-3-2.1-4.1-4.3
				c-1.1-2.3,0.9-5.5-1.4-4.4c-2.3,1.1-2.3,1.4-3,5.3c-0.7,3.9-3.4,12.4-4.6,19c-1.1,6.6-5.5,14.9-3.9,15.1c1.6,0.2,2.1-5.7,3.7-3.7
				c1.6,2.1,3.7,5.3,1.4,5.5c-2.3,0.2-3.4-0.9-4.1,0.7c-0.7,1.6-1.8,3.4-1.8,3.4s-8.9,28.8-12.6,38.4c-3.7,9.6-3.9,3.7-4.3,6.4
				c0,0.1,0,0.2,0,0.2c-1,0.1-2.1,0.2-3.2,0.2c-1.4,0.7-2.7,1-4.8,1.4c2.1,2.1,5.8,5.5,5.8,5.5c0.7,0.3,0.3-1.4,0.7-1.4
				c1.7,0.3,3.8,1,4.8,2.4c3.1,3.4-6.9,7.5-2.4,9.6c2.1,0.7,4.1-3.1,4.8-2.4c0.3,0.7-0.7,2.4,0,3.1c4.8,4.5,12.4,2.7,16.8,6.2
				c0.3,0.3,3.8,8.4,4.1,8.4c4.5,3.4,8.9-2.8,13.7,1.4c2.4,2.1,0.7,6.5,5.2,6.5c2.1,0.3,3.4-1.7,5.5-1.4c2.1,0.3,3.1,2.7,5.2,3.1
				c1,0,1-2.1,2.1-2.1c3.4-0.3,6.5,2.4,10.3,2.7c0,0-1.6-7.9,2.5-7.2c5.8,1,9.3,5.1,13,8.6c0.3,0.3,1.4,0,2.1,0
				c1.7,0.3,3.8,0.3,4.8,1.4c1.7,1.4,0.7,4.5,2.4,5.5v0.3c0.7-1.7,1.7-3.1,2.1-3.1c8.9-0.7,9.6,3.8,6.2,8.2c2.4,1,5.1,1.7,6.9,3.1
				c0.7,0.7,1,4.5,3.1,4.1c2.7-0.3,5.1-2.1,8.2-2.1c3.4,0,9.3,6.9,12.7,5.8c1.4-0.3,0-3.1,1-3.8c5.1-3.4,11.3-0.3,16.8,1h1.4
				c-2.1-1.7-4.1-3.4-4.8-5.5c-2.4-6.9,2.1-5.1,0.3-11.3c-0.3-1-2.7-0.7-2.7-1.7c0.3-3.8,4.8-5.8,5.5-9.3c0-1-1.7-2.4-1-3.1
				c4.1-5.8,11-4.5,14.4-6.2c3.8-2.1,9.3-9,13-11.1c3.4-2.1,6.9,2.4,9.6,3.8c1,0.7,13,2.1,13.4,3.4c0.4,1.3-4.5,8.7,6.5,4.2
				c0.8-0.3,0.7-0.8,0.2-1.3c0.5,0.3,1.1,0.5,1.8,0.6c2.4,0.3,5.1-0.7,6.9-2.4c1-1.4-2.7-5.3-0.7-5.6c2.4-0.3,6.2,1.7,6.2,4.5
				c-0.3,2.7-6.5,1.8-6.9,4.6c-0.3,2.1,3.8,1.4,5.8,1.4c1.4,0,2.7-2.4,3.4-1.4c1.4,1.7-0.3,5.1,1.4,6.9c1.7,1.7,4.5,1.4,6.9,2.1
				c1.4,0,2.4-0.3,3.4,0c4.8,2.4,2.4,4.1,2.4,4.8c0.3,0.7,1.4,0.7,2.4,0.7c1,0.3,2.4,0.3,3.1-0.3c0.7-0.7-4.1-2.7,0.3-2.4
				c6.9,0.3,4.5,5.1,7.5,4.1c2.7-1,4.8-4.1,7.9-4.8c2.1-0.3,5,0.9,6.9,0.1c0.1,0.6-0.2,0.6,0.7,0.2c1.5-0.7,1-1.1,1.4-2.6
				c0.3-1.5,2.1-2.3,0.2-2.2c-1.8,0.1-3-0.3-0.5-1.1c2.1-0.7,2.1-1.7,2.2-3.2c0.4-0.7,0.5-1.5,0.7-2.1c0-0.1,0.2-0.1,0.2-0.1
				c0.7-0.2,1.8,0.3,3.2,0.8c2.3,0.8,2.7-1,3.9-3.2c1.1-2.2-0.3-2.1,2.2-3c0.4-0.1,0.7-0.2,1-0.2h0.1c0.7,0.1,1.3,0,1.8-0.1
				c0.2,0,0.3-0.1,0.5-0.1c0.1,0,0.2-0.1,0.2-0.1c0.2-0.1,0.3-0.1,0.3-0.5v-0.1c0.2-0.5,0.2-1,0.1-1.6c0-0.1,0-0.2,0-0.3
				c0.2-0.6,0.9-1.3,2.4-2.1c2.5-1.3,3.1-1.8,3.8-1.3v0.1c0,0.4,0.1,0.8,0.2,0.9c0.3,0,0.2-0.3,0.1-0.7l0.1,0.1c0.4,0.5,1,0.4,1.8,0
				c0-0.1-0.1-0.3-0.1-0.5c-0.1,0-0.2,0-0.3,0c-1-0.4-0.8-1.3,1-2.5c0.5-0.3,0.9-0.5,1.1-0.6c0.7-0.2,0.7,0.4,0.7,1.3l0.7,0.1
				c0.7-0.6,1.1-0.9,2.1-1.6c-0.1,0-0.2,0-0.2,0c0-0.1,0-0.2-0.1-0.3H547c-0.1,0-0.1,0-0.2-0.1l-0.1-0.1c-0.1-0.1-0.2-0.2-0.2-0.3
				c-0.1-0.2-0.2-0.5-0.3-0.8s-0.2-0.5-0.3-0.7c-0.1-0.3-0.1-0.6-0.1-0.9c0-0.3-0.1-0.5-0.1-0.8c0-0.1,0-0.1,0.1-0.2
				c0-0.1,0-0.3,0.1-0.3c0.1-0.1,0.2-0.2,0.4-0.3c1.6-0.2,2.2-1.1,2.3-2.3c0-0.4,0-0.6,0.1-0.8c0,0,0-0.1,0-0.2
				c0.1-0.1,0.2-0.2,0.5-0.3c0,0,0,0,0.1,0c0.2-0.1,0.4-0.1,0.8-0.2c1-1.5,1.8-2.9,2.4-4.2l2.7-1.8c0,0-1.2,0.2-2-0.2
				c-0.4-0.2-0.8-0.5-0.8-1.3c0-0.4,0.1-0.7,0.2-1.1c-0.2-0.2-0.3-0.4-0.6-0.6c-1.7-1-4.1,0.3-6.2,0.7c-1.6,0-3.4,0.3-5,0.3
				c-0.9-0.7-2.3-1.8-4-2.7c-1.3-0.7-3.1-0.9-4.2-1.2c-3.2-2.5-5.9-5.7-5.7-8.5c0-0.7,1.7-0.7,1.7-1.4c-0.1-0.2-0.3-0.5-0.6-0.7
				c-0.4-0.3-0.8-0.6-1.2-0.9c-0.8-0.7-1.4-1.4-0.9-2.5c1.3-1.3,3-2.4,4-4c-0.1-0.2-0.2-0.4-0.3-0.6s-0.1-0.4-0.1-0.6v-0.1
				c0-0.2,0-0.4,0.1-0.6c0.1-0.2,0.3-0.4,0.5-0.7c0.5-0.5,0.8-0.7,1.1-0.6c0.4,0,0.8,0.3,1.8,0.5c0.2,0,0.3,0.1,0.5,0.1
				c0-0.5-0.1-1-0.1-1.5c-0.2-0.3-0.5-0.5-0.8-0.7c-1.4-0.7-1.2-2.8-0.7-4.7c0.1-0.2,0.1-0.4,0.1-0.5l-0.1-0.1
				c-0.2-0.2-0.4-0.5-0.8-0.8c-0.3,0-0.6,0-1,0c-0.4,0.1-0.7,0.2-1.1,0.3c-1.4,0.5-2.7-0.4-4.3-1.9c-0.6-0.5-0.8-1-0.9-1.4
				c0-0.1-0.1-0.1-0.1-0.2c-0.1-0.4,0-0.9,0-1.4c0.7-1.5,0.3-2,0-3.1c-0.2-1-1.8-0.8-2.9-0.5c-0.7-1-1.1-2.1-1-3.3
				c0-1.7,3.1-1.7,4.8-2.1c0.3,0,0.6,0.2,0.8,0.4c0.2,0.2,0.4,0.4,0.6,0.6s0.4,0.4,0.6,0.6c0.6-0.7,1.4-1.4,1.9-1.7
				c0.9-0.5,2.5-2.1,4.9-2.7c3.1-2.8,5.9-6.2,5-7.9c-1-2.1-4.5-2.4-5.5-4.8c-1-1.4,0.3-3.8-0.3-5.2c-4.8-8.2-13.7-4.1,2.1-13.4
				c-0.7-1-1-2.1-1.4-3.2v-0.1c-0.4-1-0.9-2-1.7-2.8c-0.2-0.3-0.6,0-1,0.3c-0.2,0.2-0.4,0.3-0.6,0.4c-0.2,0.1-0.4,0.1-0.5-0.1
				c-0.3-1,1.4-2.7,0.7-3.8c-0.3-1-2.4,0-3.1-0.7c-2.1-3.4,2.7-3.2,2.4-5.3c-0.1-0.4-0.3-0.8-0.5-1.1c-0.5-0.7-1.2-1.2-1.5-1.9
				c-0.2-0.3-0.3-0.7-0.3-1.1c-0.3-0.9,1.7-2.5,1.4-3.2c-0.1-0.1-0.2-0.2-0.3-0.2c-4.5-2.1-14.1-2.1-17.2,2.7
				c-0.1,0.1-0.2,0.3-0.3,0.4c-0.1,0.1-0.1,0.3-0.1,0.4c0,0.3,0,0.6,0,1l-0.3-0.1c0.2,0.7,0.5,1.3,0.9,1.6c0.1,0.1,0.3,0.2,0.4,0.2
				c0.3,0,0.5,0.1,0.6,0.1c0.4,0.2,0.1,0.6-0.4,1.3c-0.2,0.2-0.4,0.4-0.7,0.5c-0.2,0.1-0.4,0.1-0.7,0.2c-0.1,0-0.1,0-0.2,0.1
				c-0.6,0.1-1.2,0.3-1.6,1.1c-0.4,0.7-1.2,1.1-2.1,1.3c-0.9,0.2-1.9,0.1-2.5-0.2c-0.6-0.2-1.5,0.1-2.3,0.3c-0.4,0.1-0.7,0.2-1,0.2
				c-0.2,0-0.3-0.1-0.3-0.4c0.1-0.3,0.2-0.5,0.4-0.8c0.2-0.2,0.4-0.5,0.5-0.7c0.3-0.4,0.4-0.7,0-1c-0.4-0.2-0.5-0.5-0.2-0.8
				c0.1-0.2,0.3-0.3,0.6-0.4c0.3-0.1,0.6-0.3,0.9-0.4c0.4-0.1,0.8-0.2,1.3-0.2c1.4-0.1,3,0,3,0c-0.2-0.1-0.4-0.3-0.6-0.5
				c-0.3-0.4-0.5-1-0.5-1.5c0-0.3,0.1-0.6,0.3-0.8c0.1-0.1,0.3-0.4,0.5-0.6c0-0.1,0-0.2,0-0.2l1.6-1.6l-3.1-2.7c0,0,0,0,0-0.1
				l0.8-0.8l-0.8-1l3.1-3.2l-1.5-1.7c0,0,1.5-1.5,2.2-1.6c0.2,0,0.4-0.2,0.8-0.5c0.4-0.3,0.8-0.7,1.2-1.1c0.9-0.8,1.9-1.7,2.5-1.9
				c1.2-0.5,3.2-1.6,4.2-2.5c1-0.9,0.8-1.1,0.8-1.1l-0.6-0.9c0,0,1.8-1.3,1.3-2.9c-0.5-1.6-1-2.5-1-2.5l-0.1-0.1
				c0.4-0.6,0.9-1.1,1.6-1.4c0.4-0.2,0.8-0.3,1.2-0.4c1-0.3,1.9-0.5,2.9-0.8c0.2-0.1,0.3-0.1,0.5-0.1c0.7-0.3,1.4-0.7,1.9-1.2
				c1.1-0.9,2.2-2.8,3.4-4.8c0.5-0.1,1-0.1,1.4-0.2c2.3-0.6,1.6-2.6,3.5-3.5c1.3-0.6,0.8-2.2,0.4-3.1c1.6-0.7,3.1,2.2,3.4-2.2
				c0-1.7-5.3,1.7-5.6,0c-0.7-1.7,2.2-3.1,3.2-4.5c0,0,0.7,0.3,0.7,0c0-0.2-0.1-0.5-0.3-0.7c0.5-0.3,0.9-0.7,1.1-1.3
				c0.5-1.5,1.7-0.3,2.2,0.2c0.4,0.4,0.8,0.2,1.5-0.3c0.8,0.5,1.4,1.1,2,1.7c-0.5,0.7-0.2,0.7,0.3,1.3c0.5,0.6,0.6-0.5,1.3,0.2
				c0.6,0.7,2.5-0.3,2.5-0.3l2.2,0.7l1.5-1.6l-1.1-1.1c0.2-0.2,0.5-0.5,0.7-0.7l1.2,1.1c0,0,1.6-0.6,1.1-1.4
				c-0.1-0.1-0.2-0.3-0.4-0.5l0.9-1.4l1.7,0.3l0.5-0.5l0.1-0.1h-0.1c0-0.2,0-0.4-0.1-0.5h0.1c0,0.1,0,0.3,0.1,0.5h0.1l1.5-1.5h1.6
				l-0.8,0.3l0.5,1l-1.2,0.5v0.1c0.1,0,0.1,0,0.2,0c0.1,0.2,0.4,0.4,1,0.5c0.2,0,0.5,0.1,0.9,0.1c0.3,0,0.6,0,0.9-0.1
				c0.5-0.1,0.9-0.4,1.2-0.7c1.3-0.2,2.3-0.3,3.6-0.6c0,0,0,0,0,0.1c0.4,0.9,0.9,1.7,1.6,1.5c1.6-0.5,3.4,0.1,5.7-1.8
				c0.4-0.4,0.8-0.8,1.1-1.2c0.7,0,0.9,0.1,1.4,0.1c0.3,0.9,0.9,2.4,2.1,2.2c1.6-0.2,1.2-0.4,2.2,0c1,0.4,1.8-0.1,2.2-0.4
				s-1.6-0.2-0.9-0.9c0.7-0.8,1.9-1.6,2.5-1.3c0.5,0.3,1.4,0.8,0.9,1.2s1.5,0.3,1.1-0.5s-1-0.6-0.1-1.4s1.4-0.9,0.1-1
				c-1.3-0.1-1.3,0-1.9,0.6c-0.5,0.7-2.1,0.5-2.4,0.3c-0.3-0.3-2.4-0.6-1.3-2.1c1.1-1.5,1.4-3.5,2.5-3.7c0.1,0,0.1,0,0.2,0
				c1.1-0.2,2.6,0.2,2.2-0.4c-0.4-0.7-0.3-1.8,0.6-0.9c0.9,0.9,0.3,2.4,1.2,2.2c0.9-0.2-0.2-1.5,0.7-1.9c0.9-0.4,0.9,2.2,1.6,1.8
				c0.7-0.4,0.5-0.3,1,0.4c0.5,0.6-0.6,0.7-0.1,1.3s-0.9,0.3-0.8,1c0.1,0.7,1.2,0,1.6,0.7c0.4,0.7,1.2,0.7,1,0.3
				c-0.2-0.5,0.6-0.5,0-1.1c-0.6-0.6-0.5-0.5-0.2-1s0.7,0.1,1.3,0.5c0.6,0.3,0.3,0.5,1.1,0.5c0.6,0,0.1,0.2-0.4,0.9
				c0.4,0.6,0.3,1.1,1.3,1.6c0,0,11.3-0.7,11.7-0.7c3.8,1,6.2,4.8,10,6.2c5.5,1.7,5.1-4.5,6.9-3.1c0.7,0.7,0,2.4,0.7,3.1
				c1.4,0.3,2.7-1.4,3.8-0.7c1.4,0.7,2.1,2.4,3.4,3.4c1.7,1.4-0.7,2.7,0,3.8c0.3,0.7,1.4,1,2.1,1c0.7,0,1.7-1.4,2.1-1
				c1,1.4-2.8,3.4-1.4,4.8c2.4,2.4,8.9-5.5,8.9-6.9c0.6-1.9-0.2-5.2,0.3-6.1c3,2.5,12-2.4,13.4,1.9c0.3,0.7-1.7,0.3-1.4,1
				s2.1,0.7,2.4,1.4c0.7,0.7,0,2.4,0.7,3.1c1.4,0.7,13-2.4,13.4-2.7c0.7-0.7-0.7-2.4,0.3-2.7c1.4-1,3.1,0.7,4.5-0.3
				c1.4-0.7,0.7-3.1,2.1-3.8c4.5-1.7,12.3,0.3,17.2-1c1-0.3-2.7-5.8,1.4-6.2c0.7,0-0.7,2.1,0,2.4c1.7,0.7,3.8-1,5.8-0.3
				c1,0.3,0.7,2.7,2.1,3.1c2.7,0.3,5.1-2.1,7.9-2.1c5.1,0.3-3.4,5.8,7.5,8.9c0.7,0,1.4-1,1.4-1.7c3.1-11.3-0.7-6.2-4.5-9.6
				c-1.7-1.4,3.1-5.5,2.7-5.8c0-0.3-8.2-11.7-8.2-11.7c0.3-5.5,14.9-8.9,18-11.3c3.4-2.7,1.4-6.5,2.1-10c0.3-0.7,1-1,1.7-1
				c7.2,1.7,9.3,3.8,9.6-5.5c0.3-8.9-14.5-14.1-20-17.8c-2.4-2.1-2.7-5.8-5.2-8.2c-2.6-2.6-5.8,0-7.9-1.6c-0.6-0.5,0.8-1.2,0.6-1.7
				c-1-1.9-2.1-2.2-3.7-2.3c-3.6-9.2-3.4-11.5-8.2-14.6c0.7-3.8,5.1-2.1,4.1-6.9c-0.3-2.1-2.7-2.5-3.4-2.9c-2.4-1.6-4.7-4-6.4-6.5
				c0-0.8,0-1.5,0-2.1c0.1-1.3-1.2-1.9-2.1-2.5c-0.9-0.6-1-1-1.1-1.4c0.2-0.1,0.5-0.3,0.8-0.5c0.9-0.6-1.2-1.5-0.1-2.3
				c1.4-1,2.4,1.2,3.4,2.5c1.4,1,1.4,5.8,2.1,4.5c2.7-5.5,4.1-12,12.7-13.4c1,0,4.8,3.1,6.2,1.4c1-1,0-3.1,1-3.8
				c1-1,3.1,0.7,4.1-0.3c2.1-1.4,2.5-5.5,5.6-6.2c1-0.3,1.7,2.1,2.4,1.4c1.7-1.4,1-4.1,2.7-5.5c2.1-1.7,5.8,0.3,8.6-1
				c0.7-0.3,0-2.1,0.7-2.4c4.1-2.4,10-2.7,14.1-6.2c1.4-1-4.8-2.4-4.1-4.1c0.6-1.6,1.2-3.2,1.9-3c1.1,0.4,1.6,1.7,2.3,1.6
				c0.8,0,0.9-0.5,1.3-0.6c0.3,0,0.4,0.4,0.6,0.5c0.3,0,0.5,0,0.8,0.1c2.8,0.6,2.8,0.9,2.6,2.1c-0.3,1.2-0.2,1.8,0.2,1.9
				c0.4,0.1,0.7-0.3,1.1-0.6c1.3-0.7,0.9,0.7,0.1,2.1c0.1,0.1,0.2,0.2,0.2,0.2c-0.3,1.6,1,2,2.3,2.2c0.7,0.4,1.4,0.7,1.9,0.6
				c2.1-0.3,2.1-5.1,4.6-13.4C769.3,184.8,770.8,182.8,768.5,178.2z M453,526.9c0.8-1.1-0.1,4.8,2.2,7.4
				C453.3,532.8,449.9,530.5,453,526.9z" style="fill:#36993B;"/>
		</g>
    <g>
			<path d="M562.7,71.4c0.2-0.5-0.4-0.6,1.9-0.6c2.3,0.1,1.5-0.7-1.5-0.7
				c-1.1,0.1-1.1-0.2-1.5,0.7C561.2,71.7,562.6,71.9,562.7,71.4z"
            style="fill:#F4F4F4;stroke:#969696;stroke-width:0.4;"/>
      <path d="M584.9,25.6c0.1-1.1,0.4-3.7,0.7-4.5s0.7-0.6,1.6,0
				c0.9,0.6,1-0.1,2.7-0.6c1.7-0.6,2-1.3,1.4-1.3s-2.5,0.5-4,0.1s-0.4-2.6-0.1-4.1c0.2-1.2,1.4-1.6,1.6-1.7
				c-0.4-0.1-0.6-0.6-0.8-0.7c-0.1,0-0.1,0-0.2,0.1c-0.1,0.1-0.4,0.4-0.6,0.8c-0.8,1.6-1.8,2.8-3.1,10.1
				C584.1,25.5,584.9,26.7,584.9,25.6z" style="fill:#F4F4F4;stroke:#969696;stroke-width:0.4;"/>
      <path d="M593.2,37.1c0.9,1.2,1.6,0.2,2.3-1.5c0.4-0.8,0.4-1.1,0-1.1
				s-1.3,0.3-2.5,0.9C592.2,35.8,592.3,35.9,593.2,37.1z" style="fill:#F4F4F4;stroke:#969696;stroke-width:0.4;"/>
      <path d="M569.2,70.1c1.7-0.4,2.2-0.6,0.5-0.6c-0.8,0-1.4-0.1-1.7,0
				c-0.3,0-0.4,0.2-0.4,0.4C567.6,70.4,568.3,70,569.2,70.1z" style="fill:#F4F4F4;stroke:#969696;stroke-width:0.4;"/>
      <path d="M714.6,37.1c0.2-0.3,0.5-0.3-0.3-0.9c-0.2-0.1-0.4-0.2-0.6-0.2
				c-0.6,0.1-1.2,0.7-1.6,1.6C711.6,38.7,712.9,37.9,714.6,37.1z"
            style="fill:#F4F4F4;stroke:#969696;stroke-width:0.4;"/>
      <path d="M657.2,40.1c1.5-0.6,1.6-0.7,1.5,0.3c-0.1,1.1,0.6,2.4,1.7,1.5
				c1.1-0.9,1.8-0.9,2.7-0.6c1,0.3,2,0.8,0.8-1.3s-1.9-4.1-4.7-4.5c-0.4-0.1-0.6-0.1-0.9,0c-2,0.5-2.3,3.4-2.1,3.9
				C656.6,40,656.9,39.8,657.2,40.1z" style="fill:#F4F4F4;stroke:#969696;stroke-width:0.4;"/>
      <path d="M714.3,35.1c0.6,0,0.9,0,0.7,0.5s-0.3,0.4,0.3,0.6
				c0.6,0.2,1-0.4,0.2,0.5s-1.7,1.3-2.3,1.8c-0.6,0.6,0.2,0.7,0.9,0.7s0.5,0.1,0.9,0.9c0.4,0.8,1.1,1.4-0.3,1.4
				c-1.5,0-2.2-0.6-2.4,0.6c-0.2,1.1,0.3,1.7,0.9,2.3c2.8,2.4,3.3,2.5,4,2.2s0.2-0.4,0.6,0.2c0.3,0.6,1.2,1.5,2.2,1
				s-1.2-1.8,0.2-3.2c1.5-1.4,3.6-2.9,5.3-2.5c1.6,0.4,2.3,1.3,1.4,2.1c-0.9,0.7,1.3,1.9,1.7,0.1c0.4-1.8,1-1.7-0.6-3.3
				c-1.5-1.6-3-0.6-3.9-3.5c-0.9-3,2-1.3,2.3-3.8c0.2-2.4-1.2-2.5-3.7-2.1c-2.4,0.4-3.9,0.3-4-1.4c-0.1-1.7,0.1-1.1,0.8-1.6
				s0.9-1.6-0.7-1.4c-1.6,0.2-3.1,0-4,1.4s-1,2.3-0.1,1.4c0.9-1,2.2-1,1.1,1.4c-1.1,2.3-0.4,1.6,0.7,0.9c1.1-0.7,1.1-0.9,1.4-1.4
				c0.2-0.5,0.3,0,1.1,0.7c0.8,0.7,1.3,1.3,2.1,1.4s0.8-0.2,0.8,1.4c0,1.5,0.2,1.5-0.7,1.8s-1.2,0.3-1.4-0.7s0.3-0.8-0.2-1.4
				c-0.6-0.6,0.1-0.6-0.7-0.1s-1,0.6-0.7-1c0.3-1.6-0.2-1.5-1.1-0.3c-1,1.1-0.3,0.8-0.3,1.5c-0.1,0.7,0,0.1-0.7-0.5s-2.1,0.1-2.9,0
				c-0.8-0.1-0.1,0.3-0.1,1C713.2,35.3,713.7,35.1,714.3,35.1z"
            style="fill:#F4F4F4;stroke:#969696;stroke-width:0.4;"/>
      <path d="M555.6,72.1c2.7-0.3,3.7-1-0.3-1
				C551.3,71.2,553.4,72.4,555.6,72.1z" style="fill:#F4F4F4;stroke:#969696;stroke-width:0.4;"/>
      <path d="M668,61.1c0.1-1.1,0.4-1.5,0.3-0.6c-0.1,0.9-0.1,2.9,0.9-0.2
				c0.5-1.1,1.1-1.8,0.9-1.9c-0.1,0-0.3,0-0.6,0.1c-1.2,0.4-3.8,0.9-3,2.3C667.4,62.1,667.9,62.2,668,61.1z"
            style="fill:#F4F4F4;stroke:#969696;stroke-width:0.4;"/>
      <path d="M588.4,27.9c2.3,1,3.1,1.4,4,0.2c0.9-1.2,1.2-2.8-0.8-2.7
				C589.5,25.5,586.9,26.6,588.4,27.9z" style="fill:#F4F4F4;stroke:#969696;stroke-width:0.4;"/>
      <path d="M771,176.1c-1.3-2.7-0.3-5-3.4-7c-1.4-1.4-4.5-0.7-5.8-2.7
				c-1-1.4,3.2-2.3,0.7-5.1c-0.8-1.1-2.5-3-2.9-4.9c-0.3-1.6-2.3-1.4-1.3-3c4.8-4.9,2.2-5.1,3.4-10.3c-0.3-0.7-1.7-0.3-2.1-1.4
				c-0.3-1.7,1-4.1,0-5.8c-0.7-2.1-3.2-1.5-4.1-4.5c-1.5-1.9-0.2-3.9,0.5-5.3c0.6-1.3,1.1-2,0.6-5.4c-0.4-2.5-4.4-4.6-7.5-7.2
				c-2.9-2.4-6.2-1.7-6.9-3.8c-0.6-1.6,1.3-0.9,0.8-4.7c-0.2-1.8,2.3-3.1,3.5-4.5c1.3-1.5,1.9-4.4,2.4-6.3s1.1-2.7,0.8-4.8
				c-0.7-3.4-4.8-13.3-5.5-18.8c-0.7,0.1,0.6-2.2-0.5-2.5c-1-0.3-3.1,1.5-5.3,0.2c-2.7-1.6-4.3-2.8-5.1-3.7c0.3-0.1,0.8-0.2,0.9-0.2
				c0.9,0,0.5-1.4,0.9-1s-0.6,0.8,0.1,0.9c0.7,0.1,1.5-1,2.3-1.5s1.1,0.2,2.5,0c1.5-0.2,2.3,0.1,2.3,0.1l-0.2-1.6l-0.3-0.6l0.8-0.6
				c0,0,0.2,0-1.1-0.9s-1.2-1.1-3.5-3.3s-2.7-1.7-2.2-0.9c0.6,0.8,1.5,1.6,1.7,2.7c0.2,1.1-0.1,2-0.5,1.5c-0.3-0.5-1-0.8-1-0.8
				s-0.2-0.7-0.9-0.8s-1.6,0.7-0.9,1.4c0.6,0.6,0.8,2.5,0.3,3.5c-0.2,0.4-1.1,0.7-2.1,0.9c-0.8-2.2,4.7-1.9-2.2-6.5
				c-2.4-1.6,5.7-2.3,3.4-3.1c-2.9-5-4.7-4.6-4.2-2.6c-2.7-0.7-6.9,0.6-7.3,2.7c-1.5-2.8-4.1-4.5-6.2-6.2c-1-1.4-3.4-0.7-4.5-2.1
				c-1.4-2.1,0-6.9-2.4-6.9c-0.2,0-0.3,0-0.5-0.1c0,0.1-0.1,0.2-0.1,0.2c-0.9,0.8-0.7,0.4-1.7,0.9c-1,0.6-0.8,1.1-1,2.1
				s-1.6,0.9-1.6,0.2c0-0.6-0.3-1-0.9-0.9c-0.6,0.1-1.6,0-2.1-0.7s-0.1-0.6-0.7,0c-0.6,0.6-1.2,1.1-2.2,1.8c-1,0.8-0.9-1.2-1.4-0.5
				c-0.4,0.8,0,1.3-0.9,1.6s-0.6,0.8-0.8,1.5c-0.2,0.6-1,0.1-1.6,1.1c0,0.5,0.4,1,1.4,1.3s-0.5,0.2-1.7-0.1
				c-1.2-0.4-0.2-0.6-0.7-1.5c-0.4-0.8,0.1-0.7,0.7-1.5c0.6-0.8,0.4-0.3,0.5-1.3c0-1,0-0.9,0.7-1.4s1.7-0.1,3.1-0.6
				c1.4-0.5,0.1-0.2,0.9-0.8c0.8-0.6,0.9-0.3,1.7-0.3s0.6-0.5,1.4-0.5s1.3,0.2,2.3,0s1.6-0.3,2.9-0.3c0.3,0,0.5-0.4,0.7-0.9
				c-0.2,0-0.3,0-0.6,0c-4.4-0.2-10.4-1.8-11.1-1.1c-2.1,2.4-2.4,6.2-4.5,8.6c-2,1.6-2.8,2.3-5,4.6c-0.3,0.3-5.7,2.2-7.1,2.4
				c-3.4,0.4-4.2-0.1-5.4,0.2c-3.1,1.7-4.1,10.3-5.8,11.3c-3.8-4.9-2.7,2-7.2-5.2c-2.7,0-4.7,3-7.4,2.6c-0.6-0.6,0.9-2.2-2.6-2.1
				c-1.3,0-0.9-3.2,1.1-3.5c2.7-0.5,4.4-3.2,6.8-5.3c-0.1-5-0.8-6.9,0.6-8.8c-1.4,0.1-1.7,0.9-3.3,0.3c-1.6-0.6-5.5,3.3-6,3.5
				c-2.5-0.8-9.7-6.2-11.8-5.8c-2.4,0.3-4.8,5.6-4.8,5.6s1.7-4.5,1.4-6.5c-0.3-3.1-6.4,0.6-8.9,0.1c-1.9-2.4,2.5,0.7,4.5-3.9
				c0.7-1.7,1-3.8,0-5.5c-0.3-0.7-2.1,0.7-2.4,0c-0.7-0.3,0.7-1.1,1.4-1.5c0,0,0.7,0.3,0.7,0c0-1-0.3-2.4-1.4-3.1
				c-0.9-0.5-1.2-0.8-2.9,0c-1-1.5-2.5-2.5-3.9-2.3c-1.9-0.6-2.5-1.3-3.2-2.2c-1.4,0.3-2.1,2.1-3.4,3.1c-0.7,0.3-0.7,0-0.3-1
				c-4.5-0.7-8.9-3.1-13.4-3.8c-1,0-5.1,0.3-7.5,0c0,2.4,0.3,5.1,1.4,7.5c0.4,0.8,3,3.8,5.3,6.5c-0.9,2.5-0.4,2.6-1.6,3.3
				c-1.2,0.7-1,2.9,1,2.3c1.7-0.6,2.2-1.1,3.1-2.5c0.3,0.4,0.8,1,0.8,1.1c-1.1,4.7-6.5,2.9-10.3,4.5c0.3,0.3,2.9,0.7,1.7,2.1
				c-0.3,0.7-3.1-0.5-2.7,0.2c0.3,2.3,0.4,3.9,6.2,2.6c0.9,1,0.8,1.2,1.3,0.9c0.4-0.3,1.2-1.2,1.9-2.2c0.2,0,0.5,0,0.6,0.1
				c-2.5,2.9-4.2,3.3-3.8,8c0.6,0.3,1,0.3,1.5,0.2c1.1-0.2,1.4,0.6,2.3,2.3c0.9,1.7,0.5,2.4-1.1,1.9c-1.5-0.4-1.7-0.5-2.4,0
				c0.4,1.5,0.9,2.9,1.5,4c-0.7,4.8,7.1,2.9,8.1,2.9c6.2,0.7,4.6,6.4,8.6,7.9c1.1,2.5-0.6,5.1,9,7.5c-9.5-1.4-8.8-3.8-10.5-6.5
				c-3.4-2.8-3-6.4-5.4-7.4c-3.1-1.4-6.7,1.5-10.2,0.8c-1.4,0-3.1,0-4.1-0.7c-1-0.3-1.2-2.8-1.7-2.4c-7.2,6-5,11.2-3.4,15.9
				c-4.7-1.2-6.6-6.1-8.2-2.1c-2.2,5.3,3.1,0.5,1.1,7c-0.4,1.2-1.9,2-3.7-0.9c-0.5,0-2.2-0.4-2.1-1.6c0.1-1.2,2.9-1.9,1.6-4.2
				c-1.7-3-2.7-3.7-2.5-5.5c-0.3-0.3-1.4-0.7-1.7-0.7c-7.1-0.2-8.4,0.6-11.8,1.6c-1.8-0.5-6.3-0.9-8,0.1c-1,0.5-2.6,2-3.9,4
				c1.2,1.2,1.9,1.7,1.3,1.7c-0.8,0.1-1.3,0.2-1,0.8c0.2,0.5-0.3,0.2-1.4-0.5c-1.7,3.1-2.8,6.6-1.4,8.4c1.4,0.2,3.7,0.8,5.6,0.8
				c0.2,0.7,1.8,1.5,0.7,3.7c0.3,2.5-0.6,5.8-1.8,9.1c0.1,0.6,0,1.2-0.2,1.9c-0.5,1.5-1.1,3.9-2.5,5.7c-1,1.2-1.4,3.2-1.7,5
				c0.1,2.7,1,5.9-1.1,5.9c-2.4,0-4.5-1-6.9-1c-0.7,0-1.7,0-1.7,0.7c-0.3,1,1.4,2.1,1,3.1c0,0.7-1.7-0.3-2.1,0.7
				c-0.7,1.2-0.5,2,0.1,2.6l-0.3,0.6l7,2.8l0.5-0.8c0,0,0.1,0,0.2,0l0.6-0.7c0,0,0.3,0.8,0.5,1.3c0.8,0.5,1.3,1.2,1.3,2.1
				c0.4,2.7,0,4.6-0.8,6.1c0.1,0.4,0,0.7-0.5,0.9c-1,1.4-2.5,2.5-4.1,3.5c-0.2,0.3-0.4,0.6-0.4,0.8c-0.1,0.3-0.8,0.4-1.6,0.4
				c-0.7,0.4-1.3,0.8-2,1.2l0,0c-0.6,1.1-2.5,1.1,0.3,3c1.3,0.9,1.8,1.3,1.9,1.7l0,0l0,0c0,0.1,0,0.2,0,0.3s0.1,0.3,0,0.5
				c-0.2,0.4-0.6,0.8-1.1,1.2c-0.8,1-1.8,1.8-1.8,1.8l-0.4-0.4c-3.2,1.6-7.8,2.9-9.4,2.7c-2.4,0-3.8-2.4-5.8-3.1
				c-0.7-0.3,0.7,1.7,0,2.1c-2.1,0.7-4.1-0.3-5.8,0.7c-0.4,0.2-0.3,0.7-0.2,1.1l0.9,1.6l-1.1,1.1l2.2,1c0,0-0.2,0.3-0.2,1.5
				c-0.1,1.2,2.2,1.9,2.2,1.9l-0.4,1.4c2.3,3.1,4.4,6.9,2.5,11.5c-1,2.4-3.4,4.1-4.5,6.5c-1.4,2.7,3.1,0.7,2.7,2.4l-6.5,5.8
				c-0.7,0,0.3-1.5-0.8-1.2c-3.1,5.1,5.3,1.6,4.2,8.7c-0.3,1.4-2.7,1.4-3.1,2.7c-0.1,0.2,0.3,1,0.6,1.7c0.6,0.7,1.1,1.5,1.6,1.6
				c1.8,0.2,1.1,0.5,2,2.2c0.9,1.7,2,2.1,3.2,2.3s1,1-0.4,2.3c-1.4,1.3-1.5,2.9-0.6,3.6c0.9,0.7,2.9,0,3.9,1.8s-0.6,4.2,0.4,5.1
				c1,1,0.6,2.6-0.6,2.5s-1.8-0.1-1.8,0.7c-0.1,0.8-1.1,1.4-2.6,2.1c-0.7,0.3-0.7,1-0.6,1.6c0.1,0.6,0.4,1.1,0,1.3
				c-0.5,0.3-1.6,1-2.3,1.4c0.1,0.1,0,0.1,0.1,0.2c0.7,0.9,0.3,1.1-0.3,1.5c-0.7,0.5,0.1,2.3,0.1,2.4c0.1,1.2,0.3,3.8,1.2,3.4
				c0.9-0.4,0.9,0.5,1.4,2c0.4,1.5,1.5,1.4,2.1,2.7c0.6,1.3,1.1-0.4,1.8,0.6c0.8,1.1,0.2,1.6,1.7,1.4c1.5-0.2,1.8-0.3,1.7,1
				c0,0.6,0.1,1.5,0,2.2c-0.1,0.8-0.4,1.5-1.2,1.9c-1.6,0.9-0.7,1.8-1.4,2.6c-0.6,0.8-0.2,1.7-1.2,2.3s-1,2.3-0.5,3.7
				c0.2,0.7-0.4,1-1,1.7c0.2,0.2,0.2,0.4,0.5,0.6l0,0c-0.7-0.7-1.3-1.4-1.4-1.7c-0.1-1-3.6-1.8-4.3-0.7c-0.3,0.5-0.4,0.7-0.6,0.9
				c-0.6,0.1-1.1,0.3-1.7,0.6c-1.1,0.1-2.6,0.3-2.6-0.7c-0.1-1.1-3.5-1.5-3.5-2.2c0.1-0.8-0.6-0.8-1.7-1.1c-0.6-0.2-1.1,0.5-1.4,1.3
				c-0.7-0.2-1.3-0.4-2-0.4c-2.4-0.3-4.8,2.1-6.9,1c-1.7-0.7-0.3-3.8-1.4-5.1c-0.7-1-2.4-0.3-3.4-1c-0.3-0.3,1.4-1,1.4-1.4
				c-0.3-0.7-0.7-1.4-1.4-1.7c-0.7-0.3-1.7,1-2.1,0.7s-0.7-0.7-1-1.2c-0.3-0.1-0.6-0.2-0.9-0.4c-0.9-0.5-0.9-1.8-2-2.3
				c-0.3-0.1-0.6-0.5-1-0.7c-2.1-0.3-4.4-0.1-5.4-1.6c-1.4-1.4,1.4-3.4,1.4-5.1c-0.3-1.1-1.6-1.5-2.1-2.3c0.5-1.1,1.1-2.5,0.8-3
				c-0.5-0.8,2.2-3.7,2.2-3.7l-1.4-0.4l-4.3,4.5l-0.1,3.1l0,0c0,0-3.2,0.2-4.2,1.1c-0.8,0.7-3,0.7-4.8,0c-4.2-0.1-7.9-1.5-7.3-2.7
				c1-1.7,2.7-2.7,2.7-4.5c0-1-2.7-1-2.4-2.4c0-1.6,1.7-3.1,2.4-4.6l-0.9,0.3l-3-4.8c-0.1,0-0.2-0.1-0.4-0.1
				c-1.1,0.3-1.8,0.5-2.9,0.9c-2,0.6-1.9-0.7-4-1s-2,2.2-2.8,1.6c-0.6-0.4-1.1-1.4-0.9-3c-0.1-0.1-0.1-0.2-0.2-0.2
				c-0.2-0.9,0.1-2,0.3-3c-0.2-0.5-0.4-0.9-0.5-1.3c-0.4-1.6-1.7-1.1-3.1-1.1c-1.2,0-1.3-0.3,0-1.7c-0.6,0-1.2,0-1.9,0
				c-1.6,1.4-2.7,1.7-3.6,0.6c-1-1.1-2.2-2-1.7-3.5c-0.4-1.5-0.3-3.8-0.5-5.9c-0.6-0.4-0.7-0.7-1-1.6c-0.5-1.3-0.3-2.1-1.1-2.2
				c-0.9-0.1-1.7,0.4-2.4,0.3c-0.8-0.1-2,0.6-2.8,1.1c-0.9,0.4-0.7,2.1-2,2.3s-3.2-1.4-3.8-3.1c-0.9-0.8-1.6-1.8-2.1-3
				c-0.2,0-0.3-0.1-0.5-0.1c-1.2,0.3-1.4-1.3-1.6-3.1c-0.2-1.6-0.4-2.3,0.4-2.8c-0.5-2.9-0.7-5.7-1-7.4l0,0c-3.8,0.7-7.9,1-12,1.4
				c-3.1,0.3-14.4,1-15.8,5.2c-0.7,1.7-3.4,18.2-3.4,20.6c0,1,1.7,1,1.7,1.7s-1.4-0.7-2.1,0s-1,2.4-0.7,3.4c0.2,1.4,1.9,2.4,2.7,3.4
				c-2.3-0.8-3.3-0.5-5.4,3.5c-0.1,0.3-0.2,0.5-0.2,0.7c-0.3,0.1-0.7,0.1-0.9,0.2c-2.4,1.4-4.1,3.4-6.5,4.5
				c-6.2,3.4-29.2,4.1-32.6,9.6c-3.8,6.6-2.5,9.4,0.1,10.6l1.9,0.3c-2.2,0.4-3.8,0.7-5,1.7c-2.5,2.1-8,4.4-11.7,2.1
				c-3.7-2.3-6.6-3.4-10.3-3.7c-3.7-0.2-11.9-4.1-13.7-1.8c-1.8,2.3-1.6,0-1.4-1.6s-3.2-3-3.9-5.5c-0.7-2.5,3.4-2.5,2.3-5.7
				s-6.2-1.6-7.6-0.2c-1.4,1.4-4.3-0.2-7.1-1.4c-2.7-1.1-5.9-2.5-7.3-2.5c-1.4,0,0.2,2.1,2.1,3c1.8,0.9,1.8,3.4,0.5,4.6
				c-1.4,1.1,0.7,0.7,0.7,3.7s1.6,2.7,3.4,5.9s0.9,3.9,3,5.5s-0.5,0.2-0.7,5c-0.2,4.8,2.1,1.8,0.7,6.9c-1.4,5-2.1,9.6,1.4,10.8
				c3.4,1.1,3.7,2.5-1.6,2.3s-11,1.8-9.6-1.8c1.4-3.7-0.2-4.1-2.7-2.7s-3,1.6-3,1.6s-2.3-1.1-3.4,0.2c-1.1,1.4-3.4,1.8-2.5-0.5
				s-0.5-3.7-4.8-1.8c-4.3,1.8-9.4,5.3-9.4,5.3l-4.1-3.9l0.2-3.2l-3.7-3.4l1.1-1.6c0,0-4.3,1.6-3-0.7c1.4-2.3,2.3-3.9,2.3-3.9
				s-1.4-0.7-2.1,0.5c-0.7,1.1-1.6,1.4-1.6,1.4s1.4-2.7-0.9-2.1c-2.3,0.7-3.4,1.6-3.4,1.6s0.7-3-0.9-2.3c-1.6,0.7-3.4,3.2-5.9,1.4
				c-2.5-1.8-2.7-0.9-2.7-0.9l-2.7,0.9c0,0-0.2,2.7,1.4,3c1.6,0.2-2.1-0.2-1.4,1.8c0.7,2.1-1.8-0.9-6.2-1.8
				c-4.3-0.9-1.6,3.4-1.6,3.4s-1.6,0.2-3.4-3.9c-1.8-4.1-1.8-0.5-6,0c-4.1,0.5-5,3-6.4,0.7s-8.2,1.6-11.7,2.1
				c-3.4,0.5-3.2,5.5-2.5,7.5c0.7,2.1,3.9,2.5,7.1,1.4c3.2-1.1,8.5-1.6,8.5-1.6s-6.6,1.4-5.5,2.7c0.9,1,3.3,0.8,4.7,0.6
				c-0.3,0.1-0.2,0.4,0.8,1c2.3,1.4-1.1,2.3-4.6,0.7c-3.4-1.6-2.7-3.2-5-1.4c-2.3,1.8,1.8,0.7,0.9,3.2c-0.9,2.5,0.5,1.8,2.3,0.7
				c1.8-1.1,2.5,1.4,4.6,1.8c2.1,0.5,3.7,5-1.6,3.7c-5.3-1.4-10.8-1.4-11.4,0.5c-0.7,1.8,9.2,2.1,9.6,6s2.7,3,0.7,5
				c-2.1,2.1,2.1,3,5,2.7c3-0.2,0.7-4.6,2.7-2.7c2.1,1.8,4.1,2.1,4.6,0.5s0.7,1.4,4.1,3.9c3.4,2.5,4.8,1.8,7.3,3
				c2.5,1.1,2.3,3.4,4.1,3.7c1.7,0.2,1.9-1,3.7-2.3c-0.7,0.7-1.4,1.9-0.7,3.2c1.4,2.5,4.8,0.9,4.8-1.1c0-2.1,3.9-0.7,0.9,1.6
				c-3,2.3-1.1,0.5-1.6,4.3c-0.5,3.9,1.6,5.3,1.6,2.5c0-2.7,1.4,0,3.7-1.4s2.1-1.8,3.4-0.5c1.4,1.4,3.2-0.7,4.6,0.7
				c1.4,1.4,0,3.7-3.4,2.3c-3.4-1.4-1.4-0.5-0.2,2.1c1.1,2.5,4.8-1.4,7.8,0s4.1,1.6,2.5,3.4c-1.6,1.8,3.9,1.6,0,2.5
				c-3.9,0.9-2.1,0-2.3,3s0.9,2.5,3.7,3.7c2.7,1.1,3,1.8,5.3,0.2c2.3-1.6,5.3-3.2,9.2,0.5s3.9,5,5.5,5s-1.6,1.8-6-2.1
				c-4.3-3.9-6.6-3.9-7.5-0.9s0.5,3.4-2.5,3.2c-3-0.2,1.4,0.5,3.7,2.3c2.3,1.8,4.3,2.7,1.4,5.5c-3,2.7-4.6,4.3-4.1,7.3s5.5,6,6,11.4
				c0.5,5.5,0.7,5,0.7,5s10.1,4.3,9.6,6.9c-0.5,2.5,2.7,0.9,4.1,3.2c1.4,2.3,1.1,3.7,3.4,1.1c2.3-2.5,2.7,1.1,1.4,3
				c-1.4,1.8-1.8,0.9-3,3c-1.1,2.1,0.9,0.2,1.6,2.1c0.7,1.8,2.1,5.3,1.6,6.6c-0.5,1.4-2.7-0.9-2.1,2.1c0.7,3-1.8,3.7-1.8,5.5v2.1
				c0,0-2.3-2.5-3.4,0.7c-1.1,3.2-1.1,1.6,1.4,3.2s5.5,6.6,8,10.1c0,0.1,0.1,0.1,0.1,0.1c0.2,0.3,0.4,0.7,0.6,1
				c1.8,9.6,0,15.3,5.4,21.3l-0.6,3.2c-0.2-0.5-0.4-0.9-0.9-1.4c-2.5-2.5-2.5-2.3-2.7-6.6c-0.2-4.3-0.9-6.9-2.3-11.9s-3-2.1-4.1-4.3
				c-1.1-2.3,0.9-5.5-1.4-4.4c-2.3,1.1-2.3,1.4-3,5.3c-0.7,3.9-3.4,12.4-4.6,19c-1.1,6.6-5.5,14.9-3.9,15.1s2.1-5.7,3.7-3.7
				c1.6,2.1,3.7,5.3,1.4,5.5c-2.3,0.2-3.4-0.9-4.1,0.7c-0.7,1.6-1.8,3.4-1.8,3.4s-8.9,28.8-12.6,38.4c-3.7,9.6-3.9,3.7-4.3,6.4
				c0,0.1,0,0.2,0,0.2c-1,0.1-2.1,0.2-3.2,0.2c-1.4,0.7-2.7,1-4.8,1.4c2.1,2.1,5.8,5.5,5.8,5.5c0.7,0.3,0.3-1.4,0.7-1.4
				c1.7,0.3,3.8,1,4.8,2.4c3.1,3.4-6.9,7.5-2.4,9.6c2.1,0.7,4.1-3.1,4.8-2.4c0.3,0.7-0.7,2.4,0,3.1c4.8,4.5,12.4,2.7,16.8,6.2
				c0.3,0.3,3.8,8.4,4.1,8.4c4.5,3.4,8.9-2.8,13.7,1.4c2.4,2.1,0.7,6.5,5.2,6.5c2.1,0.3,3.4-1.7,5.5-1.4s3.1,2.7,5.2,3.1
				c1,0,1-2.1,2.1-2.1c3.4-0.3,6.5,2.4,10.3,2.7c0,0-1.6-7.9,2.5-7.2c5.8,1,9.3,5.1,13,8.6c0.3,0.3,1.4,0,2.1,0
				c1.7,0.3,3.8,0.3,4.8,1.4c1.7,1.4,0.7,4.5,2.4,5.5v0.3c0.7-1.7,1.7-3.1,2.1-3.1c8.9-0.7,9.6,3.8,6.2,8.2c2.4,1,5.1,1.7,6.9,3.1
				c0.7,0.7,1,4.5,3.1,4.1c2.7-0.3,5.1-2.1,8.2-2.1c3.4,0,9.3,6.9,12.7,5.8c1.4-0.3,0-3.1,1-3.8c5.1-3.4,11.3-0.3,16.8,1h1.4
				c-2.1-1.7-4.1-3.4-4.8-5.5c-2.4-6.9,2.1-5.1,0.3-11.3c-0.3-1-2.7-0.7-2.7-1.7c0.3-3.8,4.8-5.8,5.5-9.3c0-1-1.7-2.4-1-3.1
				c4.1-5.8,11-4.5,14.4-6.2c3.8-2.1,9.3-9,13-11.1c3.4-2.1,6.9,2.4,9.6,3.8c1,0.7,13,2.1,13.4,3.4s-4.5,8.7,6.5,4.2
				c0.8-0.3,0.7-0.8,0.2-1.3c0.5,0.3,1.1,0.5,1.8,0.6c2.4,0.3,5.1-0.7,6.9-2.4c1-1.4-2.7-5.3-0.7-5.6c2.4-0.3,6.2,1.7,6.2,4.5
				c-0.3,2.7-6.5,1.8-6.9,4.6c-0.3,2.1,3.8,1.4,5.8,1.4c1.4,0,2.7-2.4,3.4-1.4c1.4,1.7-0.3,5.1,1.4,6.9c1.7,1.7,4.5,1.4,6.9,2.1
				c1.4,0,2.4-0.3,3.4,0c4.8,2.4,2.4,4.1,2.4,4.8c0.3,0.7,1.4,0.7,2.4,0.7c1,0.3,2.4,0.3,3.1-0.3c0.7-0.7-4.1-2.7,0.3-2.4
				c6.9,0.3,4.5,5.1,7.5,4.1c2.7-1,4.8-4.1,7.9-4.8c2.1-0.3,5,0.9,6.9,0.1c0.1,0.6-0.2,0.6,0.7,0.2c1.5-0.7,1-1.1,1.4-2.6
				c0.3-1.5,2.1-2.3,0.2-2.2c-1.8,0.1-3-0.3-0.5-1.1c2.1-0.7,2.1-1.7,2.2-3.2c0.4-0.7,0.5-1.5,0.7-2.1c0-0.1,0.2-0.1,0.2-0.1
				c0.7-0.2,1.8,0.3,3.2,0.8c2.3,0.8,2.7-1,3.9-3.2c1.1-2.2-0.3-2.1,2.2-3c0.4-0.1,0.7-0.2,1-0.2h0.1c0.7,0.1,1.3,0,1.8-0.1
				c0.2,0,0.3-0.1,0.5-0.1c0.1,0,0.2-0.1,0.2-0.1c0.2-0.1,0.3-0.1,0.3-0.5v-0.1c0.2-0.5,0.2-1,0.1-1.6c0-0.1,0-0.2,0-0.3
				c0.2-0.6,0.9-1.3,2.4-2.1c2.5-1.3,3.1-1.8,3.8-1.3v0.1c0,0.4,0.1,0.8,0.2,0.9c0.3,0,0.2-0.3,0.1-0.7l0.1,0.1c0.4,0.5,1,0.4,1.8,0
				c0-0.1-0.1-0.3-0.1-0.5c-0.1,0-0.2,0-0.3,0c-1-0.4-0.8-1.3,1-2.5c0.5-0.3,0.9-0.5,1.1-0.6c0.7-0.2,0.7,0.4,0.7,1.3l0.7,0.1
				c0.7-0.6,1.1-0.9,2.1-1.6l0,0c-0.1,0-0.2,0-0.2,0c0-0.1,0-0.2-0.1-0.3h-0.1c-0.1,0-0.1,0-0.2-0.1l-0.1-0.1
				c-0.1-0.1-0.2-0.2-0.2-0.3c-0.1-0.2-0.2-0.5-0.3-0.8s-0.2-0.5-0.3-0.7c-0.1-0.3-0.1-0.6-0.1-0.9c0-0.3-0.1-0.5-0.1-0.8
				c0-0.1,0-0.1,0.1-0.2c0-0.1,0-0.3,0.1-0.3c0.1-0.1,0.2-0.2,0.4-0.3c1.6-0.2,2.2-1.1,2.3-2.3c0-0.4,0-0.6,0.1-0.8c0,0,0-0.1,0-0.2
				c0.1-0.1,0.2-0.2,0.5-0.3c0,0,0,0,0.1,0c0.2-0.1,0.4-0.1,0.8-0.2c1-1.5,1.8-2.9,2.4-4.2l2.7-1.8c0,0-1.2,0.2-2-0.2
				c-0.4-0.2-0.8-0.5-0.8-1.3c0-0.4,0.1-0.7,0.2-1.1c-0.2-0.2-0.3-0.4-0.6-0.6c-1.7-1-4.1,0.3-6.2,0.7c-1.6,0-3.4,0.3-5,0.3
				c-0.9-0.7-2.3-1.8-4-2.7c-1.3-0.7-3.1-0.9-4.2-1.2c-3.2-2.5-5.9-5.7-5.7-8.5c0-0.7,1.7-0.7,1.7-1.4c-0.1-0.2-0.3-0.5-0.6-0.7
				c-0.4-0.3-0.8-0.6-1.2-0.9c-0.8-0.7-1.4-1.4-0.9-2.5c1.3-1.3,3-2.4,4-4c-0.1-0.2-0.2-0.4-0.3-0.6s-0.1-0.4-0.1-0.6v-0.1
				c0-0.2,0-0.4,0.1-0.6l0,0c0.1-0.2,0.3-0.4,0.5-0.7c0.5-0.5,0.8-0.7,1.1-0.6l0,0c0.4,0,0.8,0.3,1.8,0.5c0.2,0,0.3,0.1,0.5,0.1
				c0-0.5-0.1-1-0.1-1.5c-0.2-0.3-0.5-0.5-0.8-0.7c-1.4-0.7-1.2-2.8-0.7-4.7c0.1-0.2,0.1-0.4,0.1-0.5l0,0l-0.1-0.1
				c-0.2-0.2-0.4-0.5-0.8-0.8c-0.3,0-0.6,0-1,0c-0.4,0.1-0.7,0.2-1.1,0.3c-1.4,0.5-2.7-0.4-4.3-1.9c-0.6-0.5-0.8-1-0.9-1.4
				c0-0.1-0.1-0.1-0.1-0.2c-0.1-0.4,0-0.9,0-1.4c0.7-1.5,0.3-2,0-3.1c-0.2-1-1.8-0.8-2.9-0.5c-0.7-1-1.1-2.1-1-3.3
				c0-1.7,3.1-1.7,4.8-2.1c0.3,0,0.6,0.2,0.8,0.4l0,0c0.2,0.2,0.4,0.4,0.6,0.6s0.4,0.4,0.6,0.6c0.6-0.7,1.4-1.4,1.9-1.7
				c0.9-0.5,2.5-2.1,4.9-2.7c3.1-2.8,5.9-6.2,5-7.9c-1-2.1-4.5-2.4-5.5-4.8c-1-1.4,0.3-3.8-0.3-5.2c-4.8-8.2-13.7-4.1,2.1-13.4
				c-0.7-1-1-2.1-1.4-3.2l0,0v-0.1c-0.4-1-0.9-2-1.7-2.8c-0.2-0.3-0.6,0-1,0.3l0,0c-0.2,0.2-0.4,0.3-0.6,0.4s-0.4,0.1-0.5-0.1
				c-0.3-1,1.4-2.7,0.7-3.8c-0.3-1-2.4,0-3.1-0.7c-2.1-3.4,2.7-3.2,2.4-5.3c-0.1-0.4-0.3-0.8-0.5-1.1c-0.5-0.7-1.2-1.2-1.5-1.9
				c-0.2-0.3-0.3-0.7-0.3-1.1c-0.3-0.9,1.7-2.5,1.4-3.2c-0.1-0.1-0.2-0.2-0.3-0.2c-4.5-2.1-14.1-2.1-17.2,2.7
				c-0.1,0.1-0.2,0.3-0.3,0.4s-0.1,0.3-0.1,0.4l0,0c0,0.3,0,0.6,0,1l-0.3-0.1c0.2,0.7,0.5,1.3,0.9,1.6c0.1,0.1,0.3,0.2,0.4,0.2
				c0.3,0,0.5,0.1,0.6,0.1c0.4,0.2,0.1,0.6-0.4,1.3c-0.2,0.2-0.4,0.4-0.7,0.5c-0.2,0.1-0.4,0.1-0.7,0.2c-0.1,0-0.1,0-0.2,0.1
				c-0.6,0.1-1.2,0.3-1.6,1.1c-0.4,0.7-1.2,1.1-2.1,1.3c-0.9,0.2-1.9,0.1-2.5-0.2c-0.6-0.2-1.5,0.1-2.3,0.3c-0.4,0.1-0.7,0.2-1,0.2
				c-0.2,0-0.3-0.1-0.3-0.4c0.1-0.3,0.2-0.5,0.4-0.8l0,0c0.2-0.2,0.4-0.5,0.5-0.7c0.3-0.4,0.4-0.7,0-1c-0.4-0.2-0.5-0.5-0.2-0.8
				c0.1-0.2,0.3-0.3,0.6-0.4c0.3-0.1,0.6-0.3,0.9-0.4c0.4-0.1,0.8-0.2,1.3-0.2c1.4-0.1,3,0,3,0c-0.2-0.1-0.4-0.3-0.6-0.5
				c-0.3-0.4-0.5-1-0.5-1.5c0-0.3,0.1-0.6,0.3-0.8c0.1-0.1,0.3-0.4,0.5-0.6c0-0.1,0-0.2,0-0.2l0,0l1.6-1.6l-3.1-2.7l0,0
				c0,0,0,0,0-0.1l0,0l0,0l0.8-0.8l-0.8-1l3.1-3.2l-1.5-1.7c0,0,1.5-1.5,2.2-1.6c0.2,0,0.4-0.2,0.8-0.5c0.4-0.3,0.8-0.7,1.2-1.1
				c0.9-0.8,1.9-1.7,2.5-1.9c1.2-0.5,3.2-1.6,4.2-2.5s0.8-1.1,0.8-1.1l-0.6-0.9c0,0,1.8-1.3,1.3-2.9s-1-2.5-1-2.5l-0.1-0.1
				c0.4-0.6,0.9-1.1,1.6-1.4c0.4-0.2,0.8-0.3,1.2-0.4c1-0.3,1.9-0.5,2.9-0.8c0.2-0.1,0.3-0.1,0.5-0.1l0,0c0.7-0.3,1.4-0.7,1.9-1.2
				c1.1-0.9,2.2-2.8,3.4-4.8c0.5-0.1,1-0.1,1.4-0.2c2.3-0.6,1.6-2.6,3.5-3.5c1.3-0.6,0.8-2.2,0.4-3.1c1.6-0.7,3.1,2.2,3.4-2.2
				c0-1.7-5.3,1.7-5.6,0c-0.7-1.7,2.2-3.1,3.2-4.5c0,0,0.7,0.3,0.7,0c0-0.2-0.1-0.5-0.3-0.7c0.5-0.3,0.9-0.7,1.1-1.3
				c0.5-1.5,1.7-0.3,2.2,0.2c0.4,0.4,0.8,0.2,1.5-0.3c0.8,0.5,1.4,1.1,2,1.7l0,0c-0.5,0.7-0.2,0.7,0.3,1.3c0.5,0.6,0.6-0.5,1.3,0.2
				c0.6,0.7,2.5-0.3,2.5-0.3l2.2,0.7l1.5-1.6l-1.1-1.1c0.2-0.2,0.5-0.5,0.7-0.7l1.2,1.1c0,0,1.6-0.6,1.1-1.4
				c-0.1-0.1-0.2-0.3-0.4-0.5l0.9-1.4l1.7,0.3l0.5-0.5l0.1-0.1H558c0-0.2,0-0.4-0.1-0.5l-0.2-1c-0.2-0.6-0.3-0.9-0.3-1
				c0-0.2-1.5-1.1-1.7-2.4c-0.1-1.3-0.1-1.2,0.6-1.8c0.8-0.6,0.5-1.8,0-2.8s2-2.2,1.4-3.1s0.6-1.5,0.6-2.4s1.2-2.3,1.6-3
				c0.4-0.7-0.8-1.4-2.8-3.3l0,0c-0.3-1.7,0.3-3.4,1-5.1l4.8-7.9c0.1-0.8,0.3-2.7,0.5-4.5l-0.1-0.1c0.3-2.9,0.6-6,1.3-7.5
				c2.7-5.5,9.6-9.6,13.4-16.1c0.1-0.1,0.1-0.3,0-0.4c-1.4-2.2-19.3-4.4-20.5-5.3l0,0l0,0c1.4,1,22,3.4,20.6,5.8
				c-3.8,6.5-10.6,10.6-13.4,16.1c-1,2.4-1.4,10-1.7,12l-4.8,7.9c-0.7,1.7-1.4,3.4-1,5.1l0,0c2,1.9,3.2,2.6,2.8,3.3
				c-0.4,0.7-1.6,2.1-1.6,3s-1.2,1.5-0.6,2.4c0.6,0.9-1.9,2.1-1.4,3.1s0.8,2.3,0,2.8c-0.8,0.6-0.8,0.4-0.6,1.8
				c0.1,1.3,1.7,2.1,1.7,2.4c0,0.1,0.2,0.4,0.3,1l0.2,1c0,0.1,0,0.3,0.1,0.5h0.1l1.5-1.5h1.6l-0.8,0.3l0.5,1l-1.2,0.5v0.1
				c0.1,0,0.1,0,0.2,0c0.1,0.3,0.6,0.5,1.9,0.6c-0.6,0-1.1-0.1-1.4-0.2c0.3,0.1,0.7,0.1,1.4,0.2c0.3,0,0.6,0,0.9-0.1
				c0.5-0.1,0.9-0.4,1.2-0.7c1.3-0.2,2.3-0.3,3.6-0.6c0,0,0,0,0,0.1c0.4,0.9,0.9,1.7,1.6,1.5c1.6-0.5,3.4,0.1,5.7-1.8
				c0.4-0.4,0.8-0.8,1.1-1.2c0.7,0,0.9,0.1,1.4,0.1c0.3,0.9,0.9,2.4,2.1,2.2c1.6-0.2,1.2-0.4,2.2,0s1.8-0.1,2.2-0.4
				s-1.6-0.2-0.9-0.9c0.7-0.8,1.9-1.6,2.5-1.3c0.5,0.3,1.4,0.8,0.9,1.2c-0.5,0.4,1.5,0.3,1.1-0.5s-1-0.6-0.1-1.4s1.4-0.9,0.1-1
				c-1.3-0.1-1.3,0-1.9,0.6c-0.5,0.7-2.1,0.5-2.4,0.3c-0.3-0.3-2.4-0.6-1.3-2.1c1.1-1.5,1.4-3.5,2.5-3.7c0.1,0,0.1,0,0.2,0
				c1.1-0.2,2.6,0.2,2.2-0.4c-0.4-0.7-0.3-1.8,0.6-0.9c0.9,0.9,0.3,2.4,1.2,2.2c0.9-0.2-0.2-1.5,0.7-1.9s0.9,2.2,1.6,1.8
				c0.7-0.4,0.5-0.3,1,0.4c0.5,0.6-0.6,0.7-0.1,1.3c0.5,0.6-0.9,0.3-0.8,1c0.1,0.7,1.2,0,1.6,0.7c0.4,0.7,1.2,0.7,1,0.3
				c-0.2-0.5,0.6-0.5,0-1.1s-0.5-0.5-0.2-1s0.7,0.1,1.3,0.5c0.6,0.3,0.3,0.5,1.1,0.5c0.6,0,0.1,0.2-0.4,0.9c0.4,0.6,0.3,1.1,1.3,1.6
				c0,0,11.3-0.7,11.7-0.7c3.8,1,6.2,4.8,10,6.2c5.5,1.7,5.1-4.5,6.9-3.1c0.7,0.7,0,2.4,0.7,3.1c1.4,0.3,2.7-1.4,3.8-0.7
				c1.4,0.7,2.1,2.4,3.4,3.4c1.7,1.4-0.7,2.7,0,3.8c0.3,0.7,1.4,1,2.1,1c0.7,0,1.7-1.4,2.1-1c1,1.4-2.8,3.4-1.4,4.8
				c2.4,2.4,8.9-5.5,8.9-6.9c0.6-1.9-0.2-5.2,0.3-6.1c3,2.5,12-2.4,13.4,1.9c0.3,0.7-1.7,0.3-1.4,1s2.1,0.7,2.4,1.4
				c0.7,0.7,0,2.4,0.7,3.1c1.4,0.7,13-2.4,13.4-2.7c0.7-0.7-0.7-2.4,0.3-2.7c1.4-1,3.1,0.7,4.5-0.3c1.4-0.7,0.7-3.1,2.1-3.8
				c4.5-1.7,12.3,0.3,17.2-1c1-0.3-2.7-5.8,1.4-6.2c0.7,0-0.7,2.1,0,2.4c1.7,0.7,3.8-1,5.8-0.3c1,0.3,0.7,2.7,2.1,3.1
				c2.7,0.3,5.1-2.1,7.9-2.1c5.1,0.3-3.4,5.8,7.5,8.9c0.7,0,1.4-1,1.4-1.7c3.1-11.3-0.7-6.2-4.5-9.6c-1.7-1.4,3.1-5.5,2.7-5.8
				c0-0.3-8.2-11.7-8.2-11.7c0.3-5.5,14.9-8.9,18-11.3c3.4-2.7,1.4-6.5,2.1-10c0.3-0.7,1-1,1.7-1c7.2,1.7,9.3,3.8,9.6-5.5
				c0.3-8.9-14.5-14.1-20-17.8c-2.4-2.1-2.7-5.8-5.2-8.2c-2.6-2.6-5.8,0-7.9-1.6c-0.6-0.5,0.8-1.2,0.6-1.7c-1-1.9-2.1-2.2-3.7-2.3
				c-3.6-9.2-3.4-11.5-8.2-14.6c0.7-3.8,5.1-2.1,4.1-6.9c-0.3-2.1-2.7-2.5-3.4-2.9c-2.4-1.6-4.7-4-6.4-6.5c0-0.8,0-1.5,0-2.1
				c0.1-1.3-1.2-1.9-2.1-2.5c-0.9-0.6-1-1-1.1-1.4c0.2-0.1,0.5-0.3,0.8-0.5c0.9-0.6-1.2-1.5-0.1-2.3c1.4-1,2.4,1.2,3.4,2.5
				c1.4,1,1.4,5.8,2.1,4.5c2.7-5.5,4.1-12,12.7-13.4c1,0,4.8,3.1,6.2,1.4c1-1,0-3.1,1-3.8c1-1,3.1,0.7,4.1-0.3
				c2.1-1.4,2.5-5.5,5.6-6.2c1-0.3,1.7,2.1,2.4,1.4c1.7-1.4,1-4.1,2.7-5.5c2.1-1.7,5.8,0.3,8.6-1c0.7-0.3,0-2.1,0.7-2.4
				c4.1-2.4,10-2.7,14.1-6.2c1.4-1-4.8-2.4-4.1-4.1c0.6-1.6,1.2-3.2,1.9-3c1.1,0.4,1.6,1.7,2.3,1.6c0.8,0,0.9-0.5,1.3-0.6
				c0.3,0,0.4,0.4,0.6,0.5c0.3,0,0.5,0,0.8,0.1c2.8,0.6,2.8,0.9,2.6,2.1c-0.3,1.2-0.2,1.8,0.2,1.9c0.4,0.1,0.7-0.3,1.1-0.6
				c1.3-0.7,0.9,0.7,0.1,2.1c0.1,0.1,0.2,0.2,0.2,0.2c-0.3,1.6,1,2,2.3,2.2c0.7,0.4,1.4,0.7,1.9,0.6c2.1-0.3,2.1-5.1,4.6-13.4
				C771.8,182.7,773.3,180.7,771,176.1z M455.5,524.8c0.8-1.1-0.1,4.8,2.2,7.4C455.8,530.7,452.4,528.4,455.5,524.8z M542.7,279.2
				L542.7,279.2L542.7,279.2z M534.5,276.3L534.5,276.3L534.5,276.3c-0.5-0.5-0.8-1-1.2-1.5c-2.3-3.3-3.8-8.4-5.8-10.7l0,0
				c-0.3-0.4-0.6-0.6-0.9-0.8c-0.1-0.1-0.2-0.2-0.3-0.2c0.1,0.1,0.2,0.1,0.3,0.2C529.3,265,531.1,272.9,534.5,276.3
				c0.6,0.7,1,0.9,1.2,0.9C535.5,277.2,535.1,277,534.5,276.3z M525.9,262.9c0.1,0,0.2,0.1,0.3,0.1
				C526.1,262.9,526,262.9,525.9,262.9z M542,275.9c-5.1-4.6-5.9-3.4-6-1.6C536,272.5,536.9,271.3,542,275.9
				c0.7,0.7-0.6,2.1-0.3,3.1c0,0,0,0-0.1,0C541.3,277.9,542.6,276.6,542,275.9z M542.4,279.2c-0.1,0-0.2,0-0.2,0
				S542.3,279.2,542.4,279.2z M541.7,279L541.7,279L541.7,279c0.1,0.1,0.2,0.1,0.5,0.2C541.9,279.2,541.8,279.1,541.7,279z
				 M545.6,278.5c0.1,0,0.1,0,0.2-0.1C545.7,278.5,545.6,278.5,545.6,278.5z M556.4,281c-1-1-0.4-3-1.3-4.1
				c-1.1-0.8-5.7,0.6-9.2,1.5c3.5-0.9,8.2-2.4,9.3-1.5C556.1,278,555.5,280,556.4,281L556.4,281z"
            style="fill:#F4F4F4;stroke:#969696;stroke-width:0.4;"/>
      <path d="M541.6,77.8c1.2,0.4,0.9-0.9,2.2-1.6c0.6-0.4,0.5-0.6-0.1-0.6
				c-0.7,0-1.9,0.1-3.4,0.5C539.5,76.5,540.3,77.4,541.6,77.8z"
            style="fill:#F4F4F4;stroke:#969696;stroke-width:0.4;"/>
      <path d="M550.4,73.5c2.9-0.1,2.3-0.4-0.5-0.5c-0.9,0-2.1,0-3.5,0.1
				C544,73.5,546.6,73.6,550.4,73.5z" style="fill:#F4F4F4;stroke:#969696;stroke-width:0.4;"/>
      <path d="M256.9,342.6c0,0-2.5,2.5,0.2,3.2c2.7,0.7,3.9,2.3,2.5,0.5
				C258.3,344.4,261.2,343.5,256.9,342.6z" style="fill:#F4F4F4;stroke:#969696;stroke-width:0.4;"/>
      <path d="M173.8,266.6c1.6,0.2,3.9,0,1.6-2.3
				C173.6,265,172.2,266.4,173.8,266.6z" style="fill:#F4F4F4;stroke:#969696;stroke-width:0.4;"/>
      <path d="M276.8,391.8c-1.6,1.6-0.7,5.7,1.1,8.9c1.8,3.2,3-0.2,2.7-2.7
				C280.5,395.4,279.1,394.5,276.8,391.8z" style="fill:#F4F4F4;stroke:#969696;stroke-width:0.4;"/>
      <path d="M273.6,381.5c-2.3,0-3.9,1.8-0.5,2.3s5.3,3.7,7.5,3.7
				C283,387.4,278.4,381.5,273.6,381.5z" style="fill:#F4F4F4;stroke:#969696;stroke-width:0.4;"/>
      <path d="M225.5,308.7c-0.5-0.3-1-0.5-1.4-0.5c-1.1,0.1-1.3,1.4,0.5,2.3
				C226.9,311.7,228.3,310.8,225.5,308.7z" style="fill:#F4F4F4;stroke:#969696;stroke-width:0.4;"/>
      <path d="M231.7,322c-0.3-0.2-0.6-0.3-0.9-0.3c-0.3,0-0.5-0.1-0.7,0
				c-1.4,0.5-1.3,3.3,2.7,5.4C238.1,329.8,234.5,324,231.7,322z"
            style="fill:#F4F4F4;stroke:#969696;stroke-width:0.4;"/>
      <polygon points="252.3,354.5 250.9,357.2 255.3,357.9 			"
               style="fill:#F4F4F4;stroke:#969696;stroke-width:0.4;"/>
		</g>

    <text style="fill:#FFFFFF; font-family:'Montserrat-Regular'; font-size:39.4199px;"
          transform="matrix(1 0 0 1 212.7744 -3.8434)">Studies:</text>
	</g>
  <g id="path2">
		<path d="M523.4-104C506.1,30.3,540,104.7,564.8,50
			c18.2-40-249.4-32.4-286-28.7c-127,13-106.7,148.2-73.4,200.9c42.5,67.4,178.6,53.7,235.6,34.6s107.8-34.8,161.8-61
			c23.3-11.3,80-42,103.9-34c8.6,2.9,23.7,10.7,23.3,19.8s-23.2,14.5-22.9,1.9c0.3-9.6,15.7-9.5,22.2-1.9s6.1,88.2-111.2,123
			c-120.1,35.6-192.5-38.5-209.7-37.7c-29.7,1.5-84.8,71.7-79,100.8s28,55.6,56,65.6c166.7,59.3,607-86.5,646.4,5.3
			c63.8,148.8-435.3,80.7-434.1,225.3" style="fill:none;stroke:#DBDBDB;stroke-miterlimit:10;"/>
	</g>
  <g id="estp">
		<g>
			<g>
				<circle cx="408.4" cy="267" r="9.4" style="fill:#3498DB;"/>
        <polygon points="544.5,102.5 272.3,102.5 272.3,193.3 392.5,193.3 408.4,253.1 424.3,193.3 544.5,193.3
									" style="fill:#3498DB;"/>
			</g>

      <text style="fill:#FFFFFF; font-family:'Montserrat-Light'; font-size:12.6555px;"
            transform="matrix(1 0 0 1 368.8462 133.4713)">Master’s Degree in </text>

      <text style="fill:#FFFFFF; font-family:'Montserrat-Light'; font-size:12.6555px;"
            transform="matrix(1 0 0 1 368.8462 148.6713)">Civil Engineering -</text>

      <text style="fill:#FFFFFF; font-family:'Montserrat-Light'; font-size:12.6555px;"
            transform="matrix(1 0 0 1 368.8462 163.8713)">Public Works</text>
		</g>
    <g>
			<rect height="38.3" style="fill:#FDFDFD;" width="71.5" x="286.5" y="127.1"/>
      <path d="M322.9,136.4c-0.4,0-0.8,0-1.2,0c-0.3,0-0.5,0-0.8,0c-1.2,0-2.5,0-3.7,0c0-0.5,0-0.9,0-1.4
				c0.1,0,0.3,0,0.4,0c1.4,0,2.7,0,4.1,0c0.4,0,0.8,0,1.2,0c0.1,0,0.3,0,0.4,0c4.8,0,9.5,0,14.3,0c0.2,0,0.4,0,0.5,0
				c0.2,0,0.4,0,0.6,0c3.9,0,7.8,0,11.7,0c1.1,0,2.1,0.2,3,0.7c1.3,0.7,2.2,1.8,2.5,3.2c0.3,1.3,0.3,2.6-0.1,3.9
				c-0.5,1.7-1.7,2.7-3.4,3.1c-1.5,0.4-3.1,0.4-4.7,0.4c-0.9,0-0.9,0-0.9,0.9c0,2.8,0,5.7,0,8.5c0,0.2,0,0.3-0.3,0.3
				c-0.9,0-1.8,0-2.7,0c-0.3,0-0.4-0.1-0.4-0.4c0-5.2,0-10.5,0-15.7c0-0.7,0-1.4-0.1-2c-0.1-0.9-0.5-1.3-1.5-1.4
				c-1.3-0.1-2.6-0.1-3.9-0.1c-2,0-3.9,0-5.9,0c-0.3,0-0.2,0.2-0.2,0.3c0,1.5,0,3,0,4.6c0,1.2,0,2.3,0,3.5c0,0.4,0,0.8,0,1.2
				c0,0.1,0,0.2,0,0.3c0,3.1,0,6.2,0,9.3c0,0.5,0.1,0.4-0.4,0.4c-0.8,0-1.6,0-2.3,0c-0.6,0-0.5,0.1-0.5-0.5c0-3,0-6.1,0-9.1
				c0-0.1,0-0.3,0-0.4c0-0.4,0-0.8,0-1.2c0.1-0.1,0-0.2,0-0.3c0-2.2,0-4.3,0-6.5c0-0.4,0-0.8,0-1.2c0-0.1,0-0.3-0.2-0.3
				C326.6,136.4,324.7,136.4,322.9,136.4z M346.9,140.6c0,1.3,0,2.6,0,3.9c0,0.1,0,0.3,0.2,0.3c0.9,0,1.7,0,2.6-0.1
				c1.6-0.2,2.6-1,3-2.5c0.3-1,0.3-2.1,0.1-3.2c-0.3-1.5-1.1-2.3-2.6-2.5c-1-0.2-2-0.1-3-0.1c-0.3,0-0.3,0.1-0.3,0.3
				C346.9,138,346.9,139.3,346.9,140.6z" style="fill:#E85B13;"/>
      <path d="M328.7,146c0.1,0.1,0,0.3,0,0.4c0,3,0,6.1,0,9.1c0,0.6-0.1,0.5,0.5,0.5c0.8,0,1.6,0,2.3,0
				c0.5,0,0.4,0.1,0.4-0.4c0-3.1,0-6.2,0-9.3c0-0.1,0-0.2,0-0.3c1.9,0,3.8,0,5.8,0c0.2,0,0.3,0,0.3,0.3c0,4.9,0,9.8,0,14.6
				c0,0.2-0.1,0.3-0.3,0.3c-4.9,0-9.8,0-14.7,0c-0.2,0-0.3,0-0.3-0.3c0-4.9,0-9.8,0-14.7c0-0.2,0.1-0.3,0.3-0.3
				C325,146,326.8,146,328.7,146z" style="fill:#041F3D;"/>
      <path d="M306.4,156c-0.1,0-0.3,0-0.4,0c-4.9,0-9.7,0-14.6,0c-0.5,0-0.5,0-0.5-0.5c0-4.8,0-9.5,0-14.3
				c0-1.2,0-2.4,0-3.6c0-1-0.4-1.5-1.4-1.8c-0.4-0.1-0.8-0.2-1.2-0.3c-0.3,0-0.3-0.1-0.3-0.4c0-0.3,0.2-0.2,0.3-0.2c3,0,6.1,0,9.1,0
				c1.5,0,3.1,0,4.6,0c0.3,0,0.4,0.1,0.3,0.4c0,0.3,0,0.6,0,0.8s-0.1,0.3-0.3,0.3c-2,0-4.1,0-6.1,0c-0.3,0-0.6,0-0.8,0.1
				c-0.5,0.1-0.8,0.3-0.9,0.9c0,0.3-0.1,0.6-0.1,0.8c0,2.1,0,4.2,0,6.3c0,0.3,0.1,0.4,0.4,0.4c2.1,0,4.2,0,6.3,0
				c0.3,0,0.4,0.1,0.4,0.3c0,0.3,0,0.5,0,0.8c0,0.2-0.1,0.3-0.3,0.3c-1.2,0-2.3,0-3.5,0c-1,0-1.9,0-2.9,0c-0.2,0-0.3,0-0.3,0.2
				c0,2.3,0,4.6,0,6.8c0,0.1,0,0.2,0,0.3c0.1,0.6,0.3,0.9,0.9,1c0.2,0,0.4,0,0.6,0c3.5,0,6.9,0,10.4,0c0.1,0,0.2,0,0.2,0
				c0.1,0,0.3,0,0.4,0c1.4,0,2.7,0,4.1,0c0,0.5,0,0.9,0,1.4c-0.1,0-0.2,0-0.2,0C309.3,156,307.8,156,306.4,156z"
            style="fill:#E85C14;"/>
      <path d="M321.6,135c-1.4,0-2.7,0-4.1,0c-0.1,0-0.3,0-0.4,0c-1.8,0-3.6-0.2-5.4,0.3c-1.4,0.4-2.7,1-3.5,2.3
				c-1.2,2-0.8,4.9,1,6.5c0.2,0.2,0.5,0.4,0.8,0.7c0,0.1-0.1,0.1-0.2,0.1c-1,0-2.1,0-3.1,0c-0.2,0-0.3,0-0.3-0.3c0-4.9,0-9.8,0-14.7
				c0-0.2,0.1-0.3,0.3-0.3c4.9,0,9.8,0,14.7,0c0.2,0,0.3,0,0.3,0.3C321.6,131.5,321.6,133.3,321.6,135z"
            style="fill:#041F3D;"/>
      <path d="M306.4,156c1.4,0,2.9,0,4.3,0c0.1,0,0.2,0,0.2,0c2,0,3.9,0.1,5.8-0.5s3.3-1.8,3.7-3.9
				c0.5-2.1,0.1-4-1.6-5.5c0.1-0.1,0.2-0.1,0.2-0.1c0.7,0,1.4,0,2.1,0c0.3,0,0.4,0.1,0.4,0.4c0,2.1,0,4.2,0,6.4c0,2.7,0,5.4,0,8.2
				c0,0.3-0.1,0.3-0.3,0.3c-4.9,0-9.7,0-14.6,0c-0.2,0-0.3,0-0.3-0.3C306.4,159.3,306.4,157.6,306.4,156z"
            style="fill:#041F3D;"/>
      <path d="M338.1,135c-0.2,0-0.4,0-0.5,0c-4.8,0-9.5,0-14.3,0c-0.1,0-0.3,0-0.4,0c0-1.7,0-3.4,0-5.2
				c0-0.2,0.1-0.3,0.3-0.3c4.9,0,9.8,0,14.7,0c0.3,0,0.3,0.1,0.3,0.3C338.1,131.6,338.1,133.3,338.1,135z"
            style="fill:#041E3D;"/>
      <path d="M310.9,154.6c-1.4,0-2.7,0-4.1,0c-0.1,0-0.3,0-0.4,0c0-2.8,0-5.5,0-8.3c0-0.2,0.1-0.3,0.3-0.3
				c1.7,0,3.5,0,5.2,0c0.1,0,0.2,0,0.3,0c1.2,0.7,2.5,1.2,3.6,2.1c0.7,0.6,1.3,1.3,1.5,2.2s0.1,1.7-0.3,2.5c-0.5,1-1.3,1.4-2.4,1.6
				c-0.3,0.1-0.7,0.1-1,0.1C312.7,154.6,311.8,154.6,310.9,154.6z" style="fill:#041E3D;"/>
      <path d="M317.1,136.4c1.2,0,2.5,0,3.7,0c0.3,0,0.5,0,0.8,0c0,2.7,0,5.3,0,8c0,0.3-0.1,0.3-0.3,0.3
				c-1.3,0-2.6,0-3.9,0c-0.1,0-0.2,0-0.4-0.1c-1.2-0.7-2.5-1.3-3.7-2c-0.7-0.4-1.3-0.9-1.8-1.5c-0.9-1.1-0.8-2.9,0.1-3.9
				c0.6-0.6,1.4-0.8,2.2-0.9C314.9,136.4,316,136.4,317.1,136.4z" style="fill:#041F3D;"/>
      <path d="M332,144.7c0-1.2,0-2.3,0-3.5c0-1.5,0-3,0-4.6c0-0.2,0-0.3,0.2-0.3c2,0,3.9,0,5.9,0
				c0,2.7,0,5.3,0,8c0,0.3-0.1,0.3-0.4,0.3C335.8,144.7,333.9,144.7,332,144.7z" style="fill:#051F3D;"/>
      <path d="M322.9,136.4c1.9,0,3.7,0,5.6,0c0.2,0,0.2,0.1,0.2,0.3c0,0.4,0,0.8,0,1.2c0,2.2,0,4.3,0,6.5
				c0,0.1,0,0.2,0,0.3c-1.8,0-3.7,0-5.5,0c-0.2,0-0.3,0-0.3-0.3C322.9,141.8,322.9,139.1,322.9,136.4z"
            style="fill:#061F3D;"/>
		</g>
	</g>
  <g id="tud">
		<g>
			<circle cx="729.3" cy="181.7" r="7.7" style="fill:#3498DB;"/>
      <g>
				<polygon points="818.4,141.5 818.4,169 744.7,181.7 818.4,194.4 818.4,221.9 1059.4,221.9 1059.4,141.5
									" style="fill:#3498DB;"/>

        <text style="fill:#FFFFFF; font-family:'Montserrat-Light'; font-size:12.6555px;"
              transform="matrix(1 0 0 1 933.7168 169.5757)">Master’s Degree </text>

        <text style="fill:#FFFFFF; font-family:'Montserrat-Light'; font-size:12.6555px;"
              transform="matrix(1 0 0 1 933.7168 184.7757)">in Constructional </text>

        <text style="fill:#FFFFFF; font-family:'Montserrat-Light'; font-size:12.6555px;"
              transform="matrix(1 0 0 1 933.7168 199.9757)">Engineering</text>
        <g>
					<polygon points="911.3,177.6 911.3,178.9 912.6,178.9 912.6,177.6 					" style="fill:#00305E;"/>
          <polygon points="914.8,177.6 914.8,178.9 916.1,178.9 916.1,177.6 					" style="fill:#00305E;"/>
          <path d="M895.1,186.4l-1.7-3.2c0.7-0.2,1.3-0.9,1.3-2c0-1.2-0.9-2.3-2.4-2.3h-2.9v7.5h1.4v-3h1l1.5,3
						H895.1L895.1,186.4z M893.3,181.3c0,0.6-0.4,1-1,1h-1.4v-2h1.4C892.9,180.3,893.3,180.7,893.3,181.3L893.3,181.3z"
                style="fill:#00305E;"/>
          <path d="M916.9,186.4l-2.7-7.5h-1.1l-2.7,7.5h1.5l0.5-1.3h2.6l0.4,1.3H916.9L916.9,186.4z M914.6,183.9
						h-1.8l0.9-2.7L914.6,183.9L914.6,183.9z" style="fill:#00305E;"/>
          <path d="M864.5,183.9V179h-1.4v4.8c0,0.9-0.5,1.4-1.3,1.4s-1.3-0.5-1.3-1.4V179h-1.4v4.9
						c0,1.6,1.2,2.6,2.7,2.6S864.5,185.5,864.5,183.9L864.5,183.9z" style="fill:#00305E;"/>
          <polygon points="871.9,186.4 871.9,179 870.5,179 870.5,183.5 867.5,179 866.2,179 866.2,186.4
						867.7,186.4 867.7,181.8 870.6,186.4 					" style="fill:#00305E;"/>
          <polygon points="875.2,186.4 875.2,179 873.7,179 873.7,186.4 					" style="fill:#00305E;"/>
          <polygon points="882.1,179 880.6,179 879.1,183.8 877.6,179 876.1,179 878.6,186.4 879.6,186.4 					"
                   style="fill:#00305E;"/>
          <polygon points="888,186.4 888,185.1 884.5,185.1 884.5,183.3 887.5,183.3 887.5,182 884.5,182
						884.5,180.3 888,180.3 888,179 883.1,179 883.1,186.4 					" style="fill:#00305E;"/>
          <path d="M901.2,184.2c0-0.6-0.2-1.2-0.6-1.6c-0.3-0.3-0.7-0.5-1.4-0.6l-0.9-0.1
						c-0.3-0.1-0.5-0.2-0.7-0.3c-0.1-0.1-0.2-0.3-0.2-0.5c0-0.5,0.4-0.9,1.1-0.9c0.5,0,1.1,0.1,1.5,0.5l0.9-0.9
						c-0.6-0.6-1.4-0.9-2.4-0.9c-1.6,0-2.6,0.9-2.6,2.3c0,0.6,0.2,1.1,0.5,1.5c0.3,0.3,0.8,0.5,1.4,0.6l0.9,0.1
						c0.3,0.1,0.5,0.1,0.7,0.2c0.2,0.2,0.2,0.4,0.2,0.6c0,0.6-0.5,0.9-1.3,0.9c-0.7,0-1.3-0.2-1.8-0.6l-0.9,0.9c0.7,0.7,1.6,1,2.7,1
						C899.9,186.5,901.2,185.7,901.2,184.2L901.2,184.2z" style="fill:#00305E;"/>
          <polygon points="904,186.4 904,179 902.6,179 902.6,186.4 					" style="fill:#00305E;"/>
          <polygon points="910.6,180.3 910.6,179 905.3,179 905.3,180.3 907.2,180.3 907.2,186.4 908.7,186.4
						908.7,180.3 					" style="fill:#00305E;"/>
          <polygon points="922.1,180.3 922.1,179 916.7,179 916.7,180.3 918.7,180.3 918.7,186.4 920.1,186.4
						920.1,180.3 					" style="fill:#00305E;"/>
          <path d="M864.5,192.6c0-1.1,0.1-2.1-0.7-3c-0.5-0.5-1.2-0.7-2-0.7h-2.7v7.5h2.7c0.8,0,1.5-0.2,2-0.7
						C864.6,194.8,864.5,193.7,864.5,192.6L864.5,192.6z M863,192.6c0,1.1-0.1,1.7-0.3,2s-0.6,0.5-1.1,0.5h-1.1v-4.8h1.1
						c0.5,0,0.8,0.2,1.1,0.5C863,191,863,191.5,863,192.6L863,192.6z" style="fill:#00305E;"/>
          <path d="M871.7,196.4l-1.7-3.2c0.7-0.3,1.4-0.9,1.4-2c0-1.3-0.9-2.3-2.4-2.3h-2.9v7.5h1.4v-3h1.1l1.4,3
						H871.7L871.7,196.4z M869.9,191.2c0,0.6-0.4,1-1,1h-1.4v-2h1.4C869.5,190.2,869.9,190.6,869.9,191.2L869.9,191.2z"
                style="fill:#00305E;"/>
          <polygon points="877.8,196.4 877.8,195 874.4,195 874.4,193.3 877.3,193.3 877.3,191.9 874.4,191.9
						874.4,190.2 877.8,190.2 877.8,188.9 872.9,188.9 872.9,196.4 					" style="fill:#00305E;"/>
          <path d="M884.1,194.2c0-0.7-0.2-1.2-0.6-1.6c-0.3-0.3-0.7-0.5-1.4-0.6l-0.9-0.1c-0.3,0-0.5-0.2-0.7-0.3
						s-0.2-0.3-0.2-0.5c0-0.5,0.4-0.9,1.1-0.9c0.5,0,1.1,0.1,1.5,0.5l0.9-0.9c-0.6-0.6-1.4-0.9-2.4-0.9c-1.6,0-2.6,0.9-2.6,2.2
						c0,0.6,0.2,1.1,0.5,1.5c0.3,0.3,0.8,0.5,1.5,0.6l0.9,0.1c0.3,0.1,0.5,0.1,0.7,0.3c0.2,0.1,0.2,0.3,0.2,0.6
						c0,0.6-0.5,0.9-1.3,0.9c-0.7,0-1.3-0.2-1.8-0.6l-0.9,0.9c0.7,0.7,1.6,1,2.7,1C882.9,196.4,884.1,195.6,884.1,194.2L884.1,194.2
						z" style="fill:#00305E;"/>
          <path d="M890.9,192.6c0-1.1,0.1-2.1-0.7-3c-0.5-0.5-1.2-0.7-2-0.7h-2.7v7.5h2.7c0.8,0,1.5-0.2,2-0.7
						C891,194.8,890.9,193.7,890.9,192.6L890.9,192.6z M889.5,192.6c0,1.1-0.1,1.7-0.3,2s-0.6,0.5-1.1,0.5H887v-4.8h1.1
						c0.5,0,0.9,0.2,1.1,0.5C889.4,191,889.5,191.5,889.5,192.6L889.5,192.6z" style="fill:#00305E;"/>
          <polygon points="897.4,196.4 897.4,195 893.9,195 893.9,193.3 896.9,193.3 896.9,191.9 893.9,191.9
						893.9,190.2 897.4,190.2 897.4,188.9 892.5,188.9 892.5,196.4 					" style="fill:#00305E;"/>
          <polygon points="904.5,196.4 904.5,188.9 903.1,188.9 903.1,193.5 900.1,188.9 898.8,188.9 898.8,196.4
						900.3,196.4 900.3,191.8 903.2,196.4 					" style="fill:#00305E;"/>
          <polygon points="864.4,170.3 864.4,169 859.1,169 859.1,170.3 861,170.3 861,176.5 862.5,176.5
						862.5,170.3 					" style="fill:#00305E;"/>
          <polygon points="870.7,176.5 870.7,175.2 867.2,175.2 867.2,173.4 870.1,173.4 870.1,172.1 867.2,172.1
						867.2,170.3 870.7,170.3 870.7,169 865.7,169 865.7,176.5 					" style="fill:#00305E;"/>
          <path d="M877.4,174.2h-1.5c-0.2,0.6-0.5,1-1.3,1c-0.4,0-0.7-0.1-0.9-0.4c-0.3-0.3-0.4-0.7-0.4-2.1
						s0.1-1.8,0.4-2.1c0.2-0.2,0.5-0.4,0.9-0.4c0.7,0,1.1,0.5,1.3,1h1.5c-0.3-1.5-1.4-2.4-2.8-2.4c-0.8,0-1.5,0.3-2,0.8
						c-0.7,0.7-0.7,1.7-0.7,3s0,2.2,0.7,3c0.5,0.5,1.2,0.8,2,0.8C876.1,176.6,877.2,175.8,877.4,174.2L877.4,174.2z"
                style="fill:#00305E;"/>
          <polygon points="884.2,176.5 884.2,169 882.8,169 882.8,172.1 880.2,172.1 880.2,169 878.8,169
						878.8,176.5 880.2,176.5 880.2,173.4 882.8,173.4 882.8,176.5 					" style="fill:#00305E;"/>
          <polygon points="891.8,176.5 891.8,169 890.3,169 890.3,173.6 887.4,169 886.1,169 886.1,176.5
						887.5,176.5 887.5,171.9 890.5,176.5 					" style="fill:#00305E;"/>
          <polygon points="895.1,176.5 895.1,169 893.6,169 893.6,176.5 					" style="fill:#00305E;"/>
          <path d="M901.8,174.3c0-0.6-0.2-1.2-0.6-1.6c-0.3-0.3-0.7-0.5-1.4-0.6l-0.9-0.1
						c-0.3-0.1-0.5-0.2-0.7-0.3c-0.1-0.2-0.2-0.3-0.2-0.5c0-0.5,0.4-0.9,1.1-0.9c0.5,0,1.1,0.1,1.5,0.5l0.9-0.9
						c-0.6-0.6-1.4-0.9-2.4-0.9c-1.6,0-2.6,0.9-2.6,2.3c0,0.6,0.2,1.1,0.5,1.5c0.3,0.3,0.8,0.5,1.4,0.6l0.9,0.1
						c0.3,0.1,0.5,0.1,0.7,0.2c0.2,0.2,0.2,0.4,0.2,0.6c0,0.6-0.5,0.9-1.3,0.9c-0.7,0-1.3-0.2-1.8-0.6l-0.9,0.9c0.7,0.7,1.6,1,2.7,1
						C900.6,176.6,901.8,175.7,901.8,174.3L901.8,174.3z" style="fill:#00305E;"/>
          <path d="M908.5,174.2H907c-0.1,0.6-0.5,1-1.3,1c-0.4,0-0.7-0.1-0.9-0.4c-0.3-0.3-0.3-0.7-0.3-2.1
						s0.1-1.8,0.3-2.1c0.2-0.2,0.5-0.4,0.9-0.4c0.7,0,1.1,0.5,1.3,1h1.5c-0.3-1.5-1.3-2.4-2.7-2.4c-0.8,0-1.5,0.3-2,0.8
						c-0.7,0.7-0.7,1.7-0.7,3s0,2.2,0.7,3c0.5,0.5,1.2,0.8,2,0.8C907.1,176.6,908.2,175.8,908.5,174.2L908.5,174.2z"
                style="fill:#00305E;"/>
          <polygon points="915.3,176.5 915.3,169 913.8,169 913.8,172.1 911.3,172.1 911.3,169 909.9,169
						909.9,176.5 911.3,176.5 911.3,173.4 913.8,173.4 913.8,176.5 					" style="fill:#00305E;"/>
          <polygon points="922.1,176.5 922.1,175.2 918.6,175.2 918.6,173.4 921.6,173.4 921.6,172.1 918.6,172.1
						918.6,170.3 922.1,170.3 922.1,169 917.2,169 917.2,176.5 					" style="fill:#00305E;"/>
          <path d="M853.4,180.6h-5.8v8.7h-10.8v-8.7H831v6.5
						l6.8,6.8h8.8l6.8-6.8V180.6L853.4,180.6z M853.2,178.2l-6.6-6.6h-8.8l-6.6,6.6h8.1v8.7h5.8v-8.7H853.2L853.2,178.2z
						 M828.5,177.3V188l8.3,8.3h10.8l8.3-8.3v-10.7l-8.3-8.3h-10.8L828.5,177.3L828.5,177.3z"
                style="fill:none;stroke:#00305E;stroke-width:2;stroke-miterlimit:10;"/>
				</g>
			</g>
		</g>
	</g>
  <g id="escp">
		<g>
			<g>
				<polygon points="272.3,433 544.5,433 544.5,342.1 424.3,342.1 408.4,282.4 392.5,342.1 272.3,342.1
					" style="fill:#3498DB;"/>
			</g>

      <text style="fill:#FFFFFF; font-family:'Montserrat-Light'; font-size:12.6555px;"
            transform="matrix(1 0 0 1 362.0044 375.1094)">Executive Master in Digital </text>

      <text style="fill:#FFFFFF; font-family:'Montserrat-Light'; font-size:12.6555px;"
            transform="matrix(1 0 0 1 362.0044 390.3094)">Innovation and </text>

      <text style="fill:#FFFFFF; font-family:'Montserrat-Light'; font-size:12.6555px;"
            transform="matrix(1 0 0 1 362.0044 405.5095)">Entrepreneurial Leadership</text>
		</g>
    <g>
			<path d="M324,405.5c-15.1,0-30.2,0-45.3,0c-0.3,0-0.3-0.1-0.3-0.3c0-12.6,0-25.3,0-37.9
				c0-0.3,0.1-0.3,0.3-0.3c15.1,0,30.2,0,45.3,0c0,0.1,0,0.2,0,0.4c0,9,0,18.1,0,27.1C324.1,398.2,324.1,401.8,324,405.5z
				 M284.3,382.5c0,1.7,0,3.5,0,5.2c0,0.3,0.1,0.3,0.3,0.3c0.9,0,1.8,0,2.7,0c1.2,0,2.5,0,3.7,0c0.2,0,0.3-0.1,0.3-0.3
				c0-0.3,0-0.6,0-0.8c0-0.3-0.1-0.4-0.4-0.4c-1.5,0-3.1,0-4.6,0c-0.2,0-0.3,0-0.3-0.3c0-0.9,0-1.8,0-2.7c0-0.2,0.1-0.3,0.3-0.3
				c1.3,0,2.6,0,3.9,0c0.3,0,0.4-0.1,0.4-0.4c0-0.2,0-0.5,0-0.7c0-0.3-0.1-0.4-0.4-0.4c-1.3,0-2.6,0-3.8,0c-0.2,0-0.3,0-0.3-0.3
				c0-0.8,0-1.7,0-2.5c0-0.3,0.1-0.3,0.3-0.3c1.6,0,3.2,0,4.7,0c0.2,0,0.3,0,0.3-0.3c0-0.3,0-0.6,0-1c0-0.2-0.1-0.3-0.3-0.3
				c-2.1,0-4.3,0-6.4,0c-0.3,0-0.3,0.1-0.3,0.3C284.3,379.1,284.3,380.8,284.3,382.5z M311.4,382.5c0,1.7,0,3.5,0,5.2
				c0,0.2,0,0.3,0.3,0.3c0.4,0,0.8,0,1.1,0c0.2,0,0.3-0.1,0.3-0.3c0-1.3,0-2.5,0-3.8c0-0.2,0.1-0.3,0.3-0.3c0.8,0,1.7,0,2.5,0
				c3.1-0.2,3.8-3.2,2.7-5.1c-0.7-1.2-1.8-1.6-3.1-1.6c-1.3,0-2.6,0-3.9,0c-0.2,0-0.3,0.1-0.3,0.3
				C311.4,379,311.4,380.8,311.4,382.5z M292.3,386.7c0.4,0.4,0.7,0.7,1.2,0.9c1.5,0.7,3.1,0.8,4.6,0.2c1.2-0.4,1.9-1.3,2-2.5
				c0.2-1.6-0.5-2.9-2.2-3.3c-0.5-0.1-1-0.2-1.5-0.3c-0.3-0.1-0.7-0.1-1-0.2c-0.7-0.3-1.1-0.7-1.1-1.4c0-0.7,0.4-1.3,1.1-1.6
				c0.9-0.3,1.7-0.2,2.6,0.2c0.3,0.1,0.5,0.5,0.8,0.4c0.3-0.1,0.5-0.4,0.7-0.7c0,0,0,0,0,0c0.3-0.2,0.2-0.3,0-0.5
				c-1.3-1-2.8-1.2-4.3-0.9c-1.8,0.4-2.7,1.8-2.5,3.6c0.1,0.9,0.6,1.6,1.4,2.1c0.4,0.2,0.8,0.3,1.2,0.4c0.7,0.1,1.4,0.2,2.1,0.3
				c0.6,0.1,1,0.5,1.1,1c0.2,1-0.2,1.8-1.2,2c-1.3,0.3-2.6,0.2-3.6-0.8c-0.1-0.1-0.2-0.1-0.3,0C293,386,292.6,386.3,292.3,386.7z
				 M301.7,382.5c0,0.6,0,1.2,0,1.8c0,0.9,0.3,1.8,0.9,2.5c0.9,1,2,1.3,3.3,1.3c1.7-0.1,3.3-1.4,3.5-3.1c0-0.2,0-0.3-0.2-0.3
				c-0.3,0-0.6,0-0.9,0c-0.4-0.1-0.6,0.1-0.8,0.5c-0.3,0.9-1.2,1.5-2.2,1.4c-1.1-0.1-1.8-0.7-2-1.8c-0.2-1.5-0.2-3.1,0-4.6
				c0.2-1.5,1.7-2,2.9-1.6c0.7,0.2,1.1,0.8,1.3,1.5c0.1,0.2,0.1,0.3,0.3,0.2c0.4,0,0.8,0,1.2,0c0.2,0,0.2-0.1,0.2-0.2
				c-0.2-0.9-0.6-1.6-1.2-2.2c-0.9-0.8-1.9-1-3.1-0.9c-1.7,0.1-3.1,1.4-3.4,3C301.6,380.8,301.7,381.7,301.7,382.5z M300,396.4
				C300,396.4,300,396.4,300,396.4c-0.4-0.7-0.7-1.4-1.1-2.1c-0.1-0.2-0.2-0.4,0.1-0.5c0.1,0,0.2-0.1,0.3-0.2
				c0.5-0.4,0.6-1.2,0.4-1.8c-0.2-0.6-0.8-1-1.5-1c-0.7,0-1.4,0-2,0c-0.3,0-0.3,0.1-0.3,0.3c0,1.6,0,3.2,0,4.8c0,0.6,0,0.6,0.6,0.6
				c0.2,0,0.2-0.1,0.2-0.2c0-0.5,0-0.9,0-1.4c0-0.8,0-0.8,0.8-0.8c0.2,0,0.3,0.1,0.4,0.3c0.2,0.4,0.5,0.9,0.6,1.3
				C298.9,396.3,299.2,396.7,300,396.4z M305.6,393.6c0-0.4,0-0.8,0-1.1c0-0.6-0.3-1.1-0.8-1.4c-1.2-0.9-3-0.3-3.2,1.1
				c-0.2,0.9-0.2,1.9,0,2.8c0.1,0.9,1,1.5,1.9,1.5c1,0,1.8-0.5,2-1.4C305.7,394.6,305.7,394.1,305.6,393.6z M313.3,393.6
				c0,0.9,0,1.7,0,2.6c0,0.2,0,0.3,0.2,0.3c1.1,0,2.2,0,3.2,0c0.2,0,0.2-0.1,0.2-0.2c0-0.1,0-0.2,0-0.3c0-0.2-0.1-0.3-0.3-0.3
				c-0.7,0-1.5,0-2.2,0c-0.2,0-0.3-0.1-0.3-0.3c0-0.4,0-0.7,0-1.1c0-0.2,0-0.3,0.3-0.3c0.6,0,1.2,0,1.8,0c0.2,0,0.3,0,0.3-0.3
				c0-0.1,0-0.2,0-0.3c0-0.2-0.1-0.3-0.3-0.3c-0.6,0-1.2,0-1.8,0c-0.2,0-0.3,0-0.3-0.3c0-0.4,0-0.8,0-1.1c0-0.2,0-0.3,0.3-0.3
				c0.7,0,1.4,0,2,0c0.5,0,0.5,0,0.5-0.5c0-0.2,0-0.3-0.3-0.3c-1,0-2.1,0-3.1,0c-0.2,0-0.3,0.1-0.3,0.3
				C313.3,391.9,313.3,392.8,313.3,393.6z M284.4,393.6c0,0.9,0,1.8,0,2.6c0,0.2,0,0.3,0.2,0.3c1.1,0,2.1,0,3.2,0
				c0.2,0,0.2,0,0.2-0.2c0-0.1,0-0.2,0-0.3c0-0.2-0.1-0.3-0.3-0.3c-0.7,0-1.5,0-2.2,0c-0.2,0-0.3-0.1-0.3-0.3c0-0.4,0-0.8,0-1.2
				c0-0.2,0.1-0.3,0.3-0.3c0.6,0,1.2,0,1.8,0c0.2,0,0.4,0,0.3-0.3c0-0.1,0-0.1,0-0.2c0-0.2-0.1-0.3-0.3-0.3c-0.6,0-1.2,0-1.8,0
				c-0.2,0-0.3-0.1-0.3-0.3c0-0.4,0-0.7,0-1.1c0-0.2,0-0.3,0.3-0.3c0.7,0,1.5,0,2.2,0c0.2,0,0.3-0.1,0.3-0.3c0-0.1,0-0.2,0-0.3
				c0-0.2-0.1-0.3-0.3-0.3c-1,0-2.1,0-3.1,0c-0.2,0-0.3,0.1-0.3,0.3C284.4,391.9,284.4,392.7,284.4,393.6z M293.8,392.9
				C293.8,392.9,293.8,392.9,293.8,392.9c0-0.5,0-1,0-1.6c0-0.5,0-0.5-0.5-0.5c-0.3,0-0.4,0.1-0.4,0.4c0,1.1,0,2.2,0,3.4
				c0,0.6-0.3,1-0.8,1.2c-0.8,0.3-1.6-0.3-1.6-1.1c0-1.1,0-2.1,0-3.2c0-0.6,0-0.6-0.7-0.6c-0.2,0-0.2,0.1-0.2,0.2c0,1.2,0,2.5,0,3.7
				c0,1.1,0.9,1.8,2,1.8c1.2,0,2-0.8,2.1-1.9C293.8,394.1,293.8,393.5,293.8,392.9z M307.6,393.6c0,0.8,0,1.5,0,2.3
				c0,0.6,0,0.6,0.6,0.6c0.2,0,0.3,0,0.3-0.3c0-0.6,0-1.2,0-1.7c0-0.2,0.1-0.3,0.3-0.3c0.4,0,0.7,0,1.1,0c1,0,1.7-0.7,1.7-1.7
				c0-1.1-0.7-1.8-1.7-1.8c-0.7,0-1.4,0-2,0c-0.2,0-0.3,0.1-0.3,0.3C307.6,391.9,307.6,392.8,307.6,393.6z"
            style="fill:#013570;"/>
      <path d="M324,405.5c0-3.7,0-7.4,0-11c0-9,0-18.1,0-27.1c0-0.1,0-0.2,0-0.4c9.3,0,18.5,0,27.8,0
				c0.3,0,0.3,0.1,0.3,0.3c0,12.6,0,25.3,0,37.9c0,0.3-0.1,0.3-0.3,0.3C342.6,405.5,333.3,405.5,324,405.5z M339.2,386.7
				c0.1,0.1,0.2,0.2,0.2,0.3c1,1.7,2,3.4,3.2,5c1.5,2.1,3.1,4.1,4.4,6.3c0.1,0.1,0.1,0.4,0.4,0.3c0.2-0.1,0-0.3-0.1-0.5
				c-2.5-3.9-4.8-7.9-7.1-11.8c-0.1-0.2-0.1-0.3,0.2-0.3c0.1,0,0.1,0,0.2,0c0.1,0,0.2,0,0.2-0.1c0-0.1,0-0.1-0.1-0.2
				c-0.1-0.1-0.1-0.2-0.2-0.2c-0.2,0-0.1-0.1,0-0.3c0.3-0.4,0.7-0.7,1-1.1c1.7-1.9,3.2-3.9,4.8-5.8c0.4-0.5,0.9-1,1.4-1.5
				c0.1-0.1,0.2-0.2,0-0.3c-0.1,0-0.2,0.1-0.2,0.1c-0.8,0.9-1.7,1.7-2.5,2.6c-1.7,1.8-3.5,3.5-5.1,5.3c-0.3,0.3-0.3,0.3-0.6-0.1
				c-1.8-3.1-3.6-6.1-5.9-8.9c-0.1-0.2-0.2-0.3-0.4-0.5c-0.1-0.1-0.1-0.1-0.2,0c-0.1,0-0.1,0.1-0.1,0.2c0.1,0.2,0.1,0.4,0.2,0.6
				c1.1,1.9,2,3.9,3.2,5.8c0.5,0.9,1,1.8,1.7,2.7c0.1,0.1,0.2,0.2,0.2,0.4c-0.5-0.1-1-0.2-1.6-0.1c-0.4,0.1-0.8,0.1-1.2,0.1
				c-0.8,0-1.5-0.1-2.3,0c-1.3,0.1-2.5,0.4-3.8,0.2c-0.1,0-0.2,0-0.2,0.1c0,0.2,0.1,0.2,0.2,0.2c0.8,0.1,1.5,0.2,2.3,0.3
				c1.8,0.2,3.7,0.3,5.5,0.4c0.5,0,1,0.1,1.5,0.2c-0.3,0.4-0.6,0.7-0.8,1c-1.7,2.3-3.3,4.6-3.9,7.4c-0.1,0.3-0.2,0.7-0.2,1
				c0,0.1,0,0.2,0.1,0.2c0.1,0.1,0.2,0,0.2-0.1c0-0.2,0.2-0.3,0.3-0.4c0.6-1.6,1.6-3,2.5-4.5c0.6-1,1.4-1.9,1.9-2.9
				C338.6,387.4,338.8,387,339.2,386.7z" style="fill:#4C72B2;"/>
      <path d="M284.3,382.5c0-1.7,0-3.5,0-5.2c0-0.2,0.1-0.3,0.3-0.3c2.1,0,4.3,0,6.4,0c0.2,0,0.3,0.1,0.3,0.3
				c0,0.3,0,0.6,0,1c0,0.2-0.1,0.3-0.3,0.3c-1.6,0-3.2,0-4.7,0c-0.3,0-0.3,0.1-0.3,0.3c0,0.8,0,1.7,0,2.5c0,0.3,0.1,0.3,0.3,0.3
				c1.3,0,2.6,0,3.8,0c0.4,0,0.4,0.1,0.4,0.4c0,0.2,0,0.5,0,0.7c0,0.3,0,0.4-0.4,0.4c-1.3,0-2.6,0-3.9,0c-0.3,0-0.3,0.1-0.3,0.3
				c0,0.9,0,1.8,0,2.7c0,0.3,0.1,0.3,0.3,0.3c1.5,0,3.1,0,4.6,0c0.3,0,0.4,0.1,0.4,0.4c0,0.3,0,0.6,0,0.8c0,0.2,0,0.3-0.3,0.3
				c-1.2,0-2.5,0-3.7,0c-0.9,0-1.8,0-2.7,0c-0.2,0-0.3-0.1-0.3-0.3C284.3,386,284.3,384.3,284.3,382.5z"
            style="fill:#FDFDFD;"/>
      <path d="M311.4,382.5c0-1.7,0-3.5,0-5.2c0-0.2,0.1-0.3,0.3-0.3c1.3,0,2.6,0,3.9,0c1.3,0,2.4,0.4,3.1,1.6
				c1.1,1.8,0.4,4.9-2.7,5.1c-0.8,0.1-1.7,0-2.5,0c-0.2,0-0.3,0.1-0.3,0.3c0,1.3,0,2.5,0,3.8c0,0.2,0,0.3-0.3,0.3
				c-0.4,0-0.8,0-1.1,0c-0.2,0-0.3-0.1-0.3-0.3C311.4,386,311.4,384.2,311.4,382.5z M313.1,380.4c0,0.5,0,1,0,1.6
				c0,0.1,0,0.3,0.2,0.2c0.8,0,1.7,0,2.5,0c0.7,0,1.3-0.5,1.5-1.2c0.4-1.3-0.4-2.4-1.7-2.4c-0.8,0-1.6,0-2.3,0
				c-0.2,0-0.2,0.1-0.2,0.3C313.1,379.3,313.1,379.8,313.1,380.4z" style="fill:#FDFDFD;"/>
      <path d="M292.3,386.7c0.3-0.3,0.7-0.6,1-1c0.1-0.1,0.2-0.1,0.3,0c1.1,1,2.3,1.1,3.6,0.8c1-0.2,1.5-1,1.2-2
				c-0.1-0.6-0.5-0.9-1.1-1c-0.7-0.1-1.4-0.2-2.1-0.3c-0.4-0.1-0.8-0.2-1.2-0.4c-0.8-0.4-1.3-1.1-1.4-2.1c-0.2-1.8,0.7-3.2,2.5-3.6
				c1.5-0.3,3-0.1,4.3,0.9c0.2,0.2,0.3,0.3,0,0.5c0,0,0,0,0,0c-0.2,0.2-0.4,0.6-0.7,0.7c-0.3,0.1-0.5-0.3-0.8-0.4
				c-0.9-0.4-1.7-0.5-2.6-0.2c-0.7,0.2-1.1,0.8-1.1,1.6c0,0.7,0.4,1.1,1.1,1.4c0.3,0.1,0.7,0.2,1,0.2c0.5,0.1,1,0.1,1.5,0.3
				c1.7,0.4,2.4,1.7,2.2,3.3c-0.1,1.3-0.8,2.1-2,2.5c-1.6,0.6-3.1,0.5-4.6-0.2C293,387.3,292.7,387,292.3,386.7z"
            style="fill:#FBFCFC;"/>
      <path d="M301.7,382.5c0-0.9-0.1-1.7,0.1-2.6c0.3-1.7,1.7-2.9,3.4-3c1.1-0.1,2.2,0.1,3.1,0.9
				c0.7,0.6,1,1.4,1.2,2.2c0,0.2,0,0.2-0.2,0.2c-0.4,0-0.8,0-1.2,0c-0.2,0-0.3-0.1-0.3-0.2c-0.2-0.7-0.6-1.3-1.3-1.5
				c-1.2-0.4-2.7,0.2-2.9,1.6c-0.2,1.5-0.2,3.1,0,4.6c0.2,1.1,0.9,1.7,2,1.8c0.9,0.1,1.9-0.5,2.2-1.4c0.1-0.4,0.3-0.5,0.8-0.5
				c0.3,0,0.6,0,0.9,0c0.2,0,0.2,0.1,0.2,0.3c-0.3,1.7-1.8,3-3.5,3.1c-1.3,0.1-2.4-0.3-3.3-1.3c-0.7-0.7-0.9-1.6-0.9-2.5
				C301.7,383.8,301.7,383.1,301.7,382.5z" style="fill:#FCFCFD;"/>
      <path d="M300,396.4c-0.8,0.3-1.2-0.1-1.4-0.8c-0.2-0.5-0.4-0.9-0.6-1.3c-0.1-0.2-0.2-0.3-0.4-0.3
				c-0.8,0-0.8,0-0.8,0.8c0,0.5,0,0.9,0,1.4c0,0.2-0.1,0.2-0.2,0.2c-0.6,0-0.6,0-0.6-0.6c0-1.6,0-3.2,0-4.8c0-0.3,0.1-0.3,0.3-0.3
				c0.7,0,1.4,0,2,0c0.7,0,1.3,0.4,1.5,1c0.2,0.6,0.1,1.4-0.4,1.8c-0.1,0.1-0.2,0.2-0.3,0.2c-0.3,0.1-0.3,0.3-0.1,0.5
				C299.3,395,299.6,395.7,300,396.4C300,396.4,300,396.4,300,396.4z M296.8,392.4C296.8,392.4,296.8,392.4,296.8,392.4
				c0,0.2,0,0.5,0,0.7c0,0.1,0,0.2,0.2,0.2c0.4,0,0.8,0,1.2,0c0.5,0,0.8-0.4,0.8-0.9c0-0.5-0.3-0.8-0.9-0.8c-0.2,0-0.3,0-0.5,0
				c-0.3,0-0.7-0.1-0.8,0.1C296.7,391.8,296.8,392.1,296.8,392.4z" style="fill:#F9FAFB;"/>
      <path d="M305.6,393.6c0,0.5,0.1,1-0.1,1.5c-0.2,0.9-1,1.4-2,1.4c-1,0-1.8-0.6-1.9-1.5
				c-0.2-0.9-0.2-1.9,0-2.8c0.2-1.4,2.1-2,3.2-1.1c0.5,0.4,0.7,0.8,0.8,1.4C305.7,392.9,305.6,393.3,305.6,393.6z M304.8,393.6
				c-0.1-0.4,0-0.8-0.1-1.3c-0.1-0.5-0.6-0.9-1.1-0.8c-0.5,0-1,0.4-1.1,0.9c-0.1,0.8-0.1,1.6,0,2.5c0.1,0.5,0.5,0.9,1.1,0.9
				c0.5,0,1-0.3,1.1-0.8C304.8,394.5,304.8,394.1,304.8,393.6z" style="fill:#FAFAFC;"/>
      <path d="M313.3,393.6c0-0.9,0-1.7,0-2.6c0-0.2,0-0.3,0.3-0.3c1,0,2.1,0,3.1,0c0.2,0,0.3,0.1,0.3,0.3
				c0,0.5,0,0.5-0.5,0.5c-0.7,0-1.4,0-2,0c-0.2,0-0.3,0.1-0.3,0.3c0,0.4,0,0.8,0,1.1c0,0.2,0.1,0.3,0.3,0.3c0.6,0,1.2,0,1.8,0
				c0.2,0,0.3,0,0.3,0.3c0,0.1,0,0.2,0,0.3c0,0.2-0.1,0.3-0.3,0.3c-0.6,0-1.2,0-1.8,0c-0.3,0-0.3,0.1-0.3,0.3c0,0.4,0,0.7,0,1.1
				c0,0.2,0,0.3,0.3,0.3c0.7,0,1.5,0,2.2,0c0.2,0,0.3,0,0.3,0.3c0,0.1,0,0.2,0,0.3c0,0.2,0,0.2-0.2,0.2c-1.1,0-2.2,0-3.2,0
				c-0.2,0-0.2-0.1-0.2-0.3C313.3,395.4,313.3,394.5,313.3,393.6z" style="fill:#FAFAFB;"/>
      <path d="M284.4,393.6c0-0.9,0-1.7,0-2.6c0-0.2,0-0.3,0.3-0.3c1,0,2.1,0,3.1,0c0.2,0,0.3,0,0.3,0.3
				c0,0.1,0,0.2,0,0.3c0,0.2-0.1,0.3-0.3,0.3c-0.7,0-1.5,0-2.2,0c-0.2,0-0.3,0.1-0.3,0.3c0,0.4,0,0.7,0,1.1c0,0.2,0.1,0.3,0.3,0.3
				c0.6,0,1.2,0,1.8,0c0.2,0,0.3,0.1,0.3,0.3c0,0.1,0,0.1,0,0.2c0,0.3-0.1,0.3-0.3,0.3c-0.6,0-1.2,0-1.8,0c-0.2,0-0.3,0-0.3,0.3
				c0,0.4,0,0.8,0,1.2c0,0.2,0,0.3,0.3,0.3c0.7,0,1.5,0,2.2,0c0.2,0,0.3,0.1,0.3,0.3c0,0.1,0,0.2,0,0.3c0,0.2-0.1,0.2-0.2,0.2
				c-1.1,0-2.1,0-3.2,0c-0.2,0-0.2-0.1-0.2-0.3C284.4,395.4,284.4,394.5,284.4,393.6z" style="fill:#FAFAFB;"/>
      <path d="M293.8,392.9c0,0.6,0,1.2,0,1.8c0,1.1-0.9,1.9-2.1,1.9c-1.2,0-2-0.8-2-1.8c0-1.2,0-2.5,0-3.7
				c0-0.2,0.1-0.2,0.2-0.2c0.7,0,0.7,0,0.7,0.6c0,1.1,0,2.1,0,3.2c0,0.9,0.7,1.4,1.6,1.1c0.5-0.2,0.8-0.6,0.8-1.2c0-1.1,0-2.2,0-3.4
				c0-0.3,0-0.4,0.4-0.4c0.5,0,0.5,0,0.5,0.5C293.8,391.8,293.8,392.3,293.8,392.9C293.8,392.9,293.8,392.9,293.8,392.9z"
            style="fill:#FBFBFC;"/>
      <path d="M307.6,393.6c0-0.9,0-1.7,0-2.6c0-0.2,0-0.3,0.3-0.3c0.7,0,1.4,0,2,0c1,0,1.7,0.7,1.7,1.8
				c0,1-0.7,1.7-1.7,1.7c-0.4,0-0.7,0-1.1,0c-0.2,0-0.3,0-0.3,0.3c0,0.6,0,1.2,0,1.7c0,0.2-0.1,0.3-0.3,0.3c-0.6,0-0.6,0-0.6-0.6
				C307.6,395.1,307.6,394.4,307.6,393.6z M308.5,392.5c0,0.2,0,0.5,0,0.7c0,0.2,0,0.2,0.2,0.2c0.4,0,0.8,0,1.1,0
				c0.5,0,0.9-0.4,0.9-0.9c0-0.6-0.3-0.9-0.8-1c-0.4,0-0.8,0-1.2,0c-0.2,0-0.2,0.1-0.2,0.2C308.5,392,308.5,392.3,308.5,392.5z"
            style="fill:#FAFAFB;"/>
      <path d="M339.2,386.7c-0.3,0.3-0.6,0.7-0.8,1.1c-0.5,1.1-1.3,1.9-1.9,2.9c-0.9,1.5-1.9,2.8-2.5,4.5
				c-0.1,0.2-0.2,0.3-0.3,0.4c0,0.1-0.1,0.2-0.2,0.1c-0.1,0-0.1-0.1-0.1-0.2c0.1-0.3,0.2-0.7,0.2-1c0.6-2.8,2.2-5.2,3.9-7.4
				c0.3-0.3,0.5-0.7,0.8-1c-0.6-0.1-1-0.1-1.5-0.2c-1.8-0.1-3.7-0.3-5.5-0.4c-0.8-0.1-1.5-0.2-2.3-0.3c-0.1,0-0.2,0-0.2-0.2
				c0-0.1,0.1-0.2,0.2-0.1c1.3,0.2,2.6,0,3.8-0.2c0.8-0.1,1.5,0,2.3,0c0.4,0,0.8,0,1.2-0.1c0.5-0.1,1,0,1.6,0.1
				c0-0.2-0.1-0.3-0.2-0.4c-0.6-0.8-1.1-1.8-1.7-2.7c-1.1-1.9-2.1-3.9-3.2-5.8c-0.1-0.2-0.2-0.4-0.2-0.6c0-0.1,0-0.1,0.1-0.2
				c0.1,0,0.2,0,0.2,0c0.1,0.2,0.2,0.3,0.4,0.5c2.3,2.8,4.1,5.8,5.9,8.9c0.2,0.4,0.2,0.4,0.6,0.1c1.7-1.8,3.4-3.5,5.1-5.3
				c0.8-0.9,1.7-1.7,2.5-2.6c0.1-0.1,0.1-0.2,0.2-0.1c0.2,0.1,0.1,0.2,0,0.3c-0.5,0.5-0.9,1-1.4,1.5c-1.6,1.9-3.1,3.9-4.8,5.8
				c-0.3,0.4-0.7,0.7-1,1.1c-0.1,0.1-0.2,0.2,0,0.3c0.1,0,0.2,0.1,0.2,0.2c0.1,0,0.1,0.1,0.1,0.2c0,0.1-0.1,0.1-0.2,0.1
				c-0.1,0-0.1,0-0.2,0c-0.3,0-0.3,0.1-0.2,0.3c2.3,4,4.6,8,7.1,11.8c0.1,0.1,0.3,0.3,0.1,0.5c-0.2,0.1-0.3-0.1-0.4-0.3
				c-1.4-2.2-2.9-4.2-4.4-6.3c-1.1-1.6-2.1-3.3-3.2-5C339.3,387,339.2,386.9,339.2,386.7z" style="fill:#FAFBFC;"/>
      <path d="M313.1,380.4c0-0.5,0-1,0-1.6c0-0.2,0-0.3,0.2-0.3c0.8,0,1.6,0,2.3,0c1.3,0.1,2.1,1.1,1.7,2.4
				c-0.2,0.7-0.8,1.2-1.5,1.2c-0.8,0-1.7,0-2.5,0c-0.2,0-0.2-0.1-0.2-0.2C313.1,381.4,313.1,380.9,313.1,380.4z"
            style="fill:#023671;"/>
      <path d="M296.8,392.4c0-0.3-0.1-0.6,0-0.8c0.2-0.2,0.5-0.1,0.8-0.1c0.2,0,0.3,0,0.5,0
				c0.5,0,0.8,0.3,0.9,0.8c0,0.5-0.3,0.9-0.8,0.9c-0.4,0-0.8,0-1.2,0c-0.2,0-0.2-0.1-0.2-0.2C296.8,392.9,296.8,392.7,296.8,392.4
				C296.8,392.4,296.8,392.4,296.8,392.4z" style="fill:#053772;"/>
      <path d="M304.8,393.6c-0.1,0.5,0,0.9-0.1,1.3c-0.1,0.5-0.6,0.8-1.1,0.8c-0.5,0-1-0.4-1.1-0.9
				c-0.1-0.8-0.1-1.6,0-2.5c0.1-0.5,0.5-0.9,1.1-0.9c0.5,0,1,0.3,1.1,0.8C304.8,392.8,304.7,393.2,304.8,393.6z"
            style="fill:#033671;"/>
      <path d="M308.5,392.5c0-0.2,0-0.5,0-0.7c0-0.1,0-0.2,0.2-0.2c0.4,0,0.8,0,1.2,0c0.6,0,0.9,0.4,0.8,1
				c0,0.5-0.4,0.9-0.9,0.9c-0.4,0-0.8,0-1.1,0c-0.2,0-0.2-0.1-0.2-0.2C308.5,393,308.5,392.7,308.5,392.5z"
            style="fill:#063873;"/>
		</g>
	</g>
</g>
  <g id="Calque_2">
	<g id="paper-powerpoint-1">

			<rect height="109.6" style="fill:#36993B;" transform="matrix(0.9772 -0.2121 0.2121 0.9772 16.0845 218.7887)"
            width="176.8"
            x="939.5" y="-20.4"/>

    <rect height="109.6" style="fill:#E4EBEF;" transform="matrix(0.9772 -0.2121 0.2121 0.9772 16.8599 219.1193)"
          width="176.8"
          x="941.4" y="-23.8"/>

    <rect height="109.6" style="fill:#F9F9F9;"
          transform="matrix(0.9983 5.758157e-002 -5.758157e-002 0.9983 2.8813 -59.1895)"
          width="176.8" x="940.1" y="-34.4"/>

    <rect height="40.3" style="fill:#3498DB;"
          transform="matrix(0.9983 5.758157e-002 -5.758157e-002 0.9983 1.4189 -56.6634)"
          width="69.7" x="949.1" y="-23.9"/>

    <rect height="4.8" style="fill:#BFBFBF;"
          transform="matrix(0.9983 5.758157e-002 -5.758157e-002 0.9983 2.1195 -61.7917)"
          width="69.7" x="1038.4" y="3.5"/>

    <rect height="19.1" style="fill:#D8D8D8;"
          transform="matrix(0.9983 5.758157e-002 -5.758157e-002 0.9983 1.3161 -61.8613)"
          width="69.7" x="1039.2" y="-17.7"/>

    <rect height="4.8" style="fill:#BFBFBF;"
          transform="matrix(0.9983 5.758157e-002 -5.758157e-002 0.9983 3.4851 -56.1038)"
          width="56.6" x="947" y="30"/>

    <rect height="4.8" style="fill:#D8D8D8;"
          transform="matrix(0.9983 5.758157e-002 -5.758157e-002 0.9983 2.7893 -60.6462)"
          width="32.1" x="1037.7" y="15.7"/>

    <rect height="4.8" style="fill:#D8D8D8;"
          transform="matrix(0.9983 5.758157e-002 -5.758157e-002 0.9983 2.9764 -62.805)"
          width="32.1" x="1075.2" y="17.8"/>

    <rect height="4.8" style="fill:#D8D8D8;"
          transform="matrix(0.9983 5.758157e-002 -5.758157e-002 0.9983 3.283 -60.6034)"
          width="32.1" x="1037.2" y="24.2"/>

    <rect height="4.8" style="fill:#D8D8D8;"
          transform="matrix(0.9983 5.758157e-002 -5.758157e-002 0.9983 3.4701 -62.7622)"
          width="32.1" x="1074.7" y="26.4"/>

    <rect height="4.8" style="fill:#D8D8D8;"
          transform="matrix(0.9983 5.758157e-002 -5.758157e-002 0.9983 3.7768 -60.5606)"
          width="32.1" x="1036.7" y="32.8"/>

    <rect height="4.8" style="fill:#D8D8D8;"
          transform="matrix(0.9983 5.758157e-002 -5.758157e-002 0.9983 3.9638 -62.7195)"
          width="32.1" x="1074.3" y="35"/>

    <rect height="13.4" style="fill:#36993B;"
          transform="matrix(0.9983 5.758157e-002 -5.758157e-002 0.9983 4.5174 -60.4965)"
          width="32.1" x="1036" y="41.4"/>

    <rect height="4.8" style="fill:#D8D8D8;"
          transform="matrix(0.9983 5.758157e-002 -5.758157e-002 0.9983 4.4575 -62.6767)"
          width="32.1" x="1073.8" y="43.6"/>

    <rect height="4.8" style="fill:#D8D8D8;"
          transform="matrix(0.9983 5.758157e-002 -5.758157e-002 0.9983 4.9513 -62.6339)"
          width="32.1" x="1073.3" y="52.2"/>

    <rect height="4.8" style="fill:#D8D8D8;"
          transform="matrix(0.9983 5.758157e-002 -5.758157e-002 0.9983 5.258 -60.4323)"
          width="32.1" x="1035.2" y="58.6"/>

    <rect height="4.8" style="fill:#D8D8D8;"
          transform="matrix(0.9983 5.758157e-002 -5.758157e-002 0.9983 5.445 -62.5911)"
          width="32.1" x="1072.8" y="60.8"/>

    <rect height="4.8" style="fill:#D8D8D8;"
          transform="matrix(0.9983 5.758157e-002 -5.758157e-002 0.9983 4.3974 -55.8771)"
          width="51.5" x="946.1" y="45.9"/>

    <rect height="4.8" style="fill:#D8D8D8;"
          transform="matrix(0.9983 5.758157e-002 -5.758157e-002 0.9983 4.9053 -56.3613)"
          width="69.7" x="945.6" y="54.5"/>
	</g>
    <g id="classeur">
		<path d="M61.2,108.8l85.4,121.4c1.9,2.7,1.2,6.5-1.5,8.4L-40.9,369.5c-2.7,1.9-6.5,1.2-8.4-1.5l-85.4-121.4
			c-1.9-2.7-1.2-6.5,1.5-8.4L52.9,107.3C55.6,105.4,59.3,106.1,61.2,108.8z" style="fill:#129BE0;"/>
      <g>

				<rect height="109.8" style="fill:#E5E5E5;" transform="matrix(0.5944 0.8042 -0.8042 0.5944 204.6088 147.5247)"
              width="150.4" x="-119.1" y="221.7"/>

        <rect height="109.8" style="fill:#D9D9E2;" transform="matrix(0.5501 0.8351 -0.8351 0.5501 208.6716 159.8522)"
              width="150.4" x="-119.2" y="218.7"/>

        <rect height="109.8" style="fill:#FFFFFF;" transform="matrix(0.5755 0.8178 -0.8178 0.5755 203.747 152.3253)"
              width="150.4"
              x="-120" y="217.5"/>
        <polygon points="-33.8,173.9 52.8,296.8 142.6,233.7 62,119.2 49.1,115.5 			" style="fill:#FFFFFF;"/>
        <polygon points="62,119.2 55.1,124 49.1,115.5 			" style="fill:#898989;"/>

        <rect height="10.5" style="fill:#36993B;" transform="matrix(0.8178 -0.5755 0.5755 0.8178 -142.4064 -7.407)"
              width="95.4" x="-130.6" y="215.9"/>

        <rect height="42.4" style="fill:#BFBFBF;" transform="matrix(0.8178 -0.5755 0.5755 0.8178 -153.4055 7.0313)"
              width="95.4" x="-113.3" y="224.6"/>

        <rect height="6.9" style="fill:#D8D8D8;" transform="matrix(0.8178 -0.5755 0.5755 0.8178 -177.4507 11.6719)"
              width="41.4"
              x="-91" y="282.7"/>

        <rect height="6.9" style="fill:#D8D8D8;" transform="matrix(0.8178 -0.5755 0.5755 0.8178 -151.4944 31.4455)"
              width="41.4" x="-46.8" y="251.5"/>

        <rect height="6.9" style="fill:#BFBFBF;" transform="matrix(0.8178 -0.5755 0.5755 0.8178 -181.3934 16.8472)"
              width="41.4" x="-84.8" y="291.5"/>

        <rect height="6.9" style="fill:#E74C3C;" transform="matrix(0.8178 -0.5755 0.5755 0.8178 -155.437 36.6209)"
              width="41.4" x="-40.6" y="260.4"/>

        <rect height="6.9" style="fill:#D8D8D8;" transform="matrix(0.8178 -0.5755 0.5755 0.8178 -185.336 22.0226)"
              width="41.4" x="-78.6" y="300.3"/>

        <rect height="6.9" style="fill:#BFBFBF;" transform="matrix(0.8178 -0.5755 0.5755 0.8178 -159.3796 41.7963)"
              width="41.4" x="-34.4" y="269.2"/>

        <rect height="6.9" style="fill:#D8D8D8;" transform="matrix(0.8178 -0.5755 0.5755 0.8178 -189.2786 27.198)"
              width="41.4" x="-72.4" y="309.1"/>

        <rect height="6.9" style="fill:#BFBFBF;" transform="matrix(0.8178 -0.5755 0.5755 0.8178 -192.5476 36.4696)"
              width="41.4" x="-59.4" y="318.9"/>

        <rect height="32.6" style="fill:#D8D8D8;" transform="matrix(0.8178 -0.5755 0.5755 0.8178 -184.727 48.1462)"
              width="95.4"
              x="-64" y="299.5"/>

        <rect height="6.9" style="fill:#E74C3C;" transform="matrix(0.8178 -0.5755 0.5755 0.8178 -163.3223 46.9717)"
              width="41.4"
              x="-28.2" y="278"/>

        <rect height="7" style="fill:#BFBFBF;" transform="matrix(0.8178 -0.5755 0.5755 0.8178 -83.0281 36.4944)"
              width="69.5" x="-18.6" y="145.9"/>

        <rect height="5.9" style="fill:#D8D8D8;" transform="matrix(0.8178 -0.5755 0.5755 0.8178 -89.2523 42.0548)"
              width="86.8"
              x="-21.6" y="159"/>

        <rect height="5.9" style="fill:#D8D8D8;" transform="matrix(0.8178 -0.5755 0.5755 0.8178 -94.1138 45.9463)"
              width="81.8" x="-15.4" y="168.7"/>

        <rect height="5.9" style="fill:#D8D8D8;" transform="matrix(0.8178 -0.5755 0.5755 0.8178 -95.4342 52.5354)"
              width="91.5" x="-10.5" y="174.1"/>

        <rect height="5.9" style="fill:#BFBFBF;" transform="matrix(0.8178 -0.5755 0.5755 0.8178 -113.1402 46.6418)"
              width="33"
              x="0.6" y="199.1"/>

        <rect height="5.9" style="fill:#129BE0;" transform="matrix(0.8178 -0.5755 0.5755 0.8178 -107.2466 61.9401)"
              width="79.3"
              x="4.6" y="197.4"/>

        <rect height="5.9" style="fill:#129BE0;" transform="matrix(0.8178 -0.5755 0.5755 0.8178 -113.4286 64.8256)"
              width="68.8" x="11.3" y="208.6"/>

        <rect height="36.2" style="fill:#D8D8D8;" transform="matrix(0.8178 -0.5755 0.5755 0.8178 -117.1914 81.0613)"
              width="91.4" x="23.7" y="207.5"/>

        <rect height="5.9" style="fill:#BFBFBF;" transform="matrix(0.8178 -0.5755 0.5755 0.8178 -129.527 92.4322)"
              width="81.8"
              x="40.3" y="247.8"/>

        <rect height="5.9" style="fill:#D8D8D8;" transform="matrix(0.8178 -0.5755 0.5755 0.8178 -135.787 95.3785)"
              width="71.2"
              x="47.2" y="259.2"/>
		</g>
      <g>
			<path d="M-35.5,197.6L-35.5,197.6c-0.3-0.4-0.2-1,0.2-1.3l14.2-10c0.4-0.3,1-0.2,1.3,0.2h0
				c0.3,0.4,0.2,1-0.2,1.3l-14.2,10C-34.6,198.1-35.2,198-35.5,197.6z" style="fill:#999999;"/>
        <path d="M-19.5,220.4L-19.5,220.4c-0.3-0.4-0.2-1,0.2-1.3l14.2-10c0.4-0.3,1-0.2,1.3,0.2h0
				c0.3,0.4,0.2,1-0.2,1.3l-14.2,10C-18.5,220.9-19.1,220.8-19.5,220.4z" style="fill:#999999;"/>
        <path d="M-3.4,243.2L-3.4,243.2c-0.3-0.4-0.2-1,0.2-1.3l14.2-10c0.4-0.3,1-0.2,1.3,0.2h0
				c0.3,0.4,0.2,1-0.2,1.3l-14.2,10C-2.5,243.8-3.1,243.7-3.4,243.2z" style="fill:#999999;"/>
        <path d="M12.7,266.1L12.7,266.1c-0.3-0.4-0.2-1,0.2-1.3l14.2-10c0.4-0.3,1-0.2,1.3,0.2h0
				c0.3,0.4,0.2,1-0.2,1.3l-14.2,10C13.6,266.6,13,266.5,12.7,266.1z" style="fill:#999999;"/>
        <path d="M28.8,288.9L28.8,288.9c-0.3-0.4-0.2-1,0.2-1.3l14.2-10c0.4-0.3,1-0.2,1.3,0.2v0
				c0.3,0.4,0.2,1-0.2,1.3l-14.2,10C29.7,289.4,29.1,289.3,28.8,288.9z" style="fill:#999999;"/>
		</g>
	</g>
    <g id="brouillon">

			<rect height="109.8" style="fill:#36993B;"
            transform="matrix(-2.601122e-002 0.9997 -0.9997 -2.601122e-002 594.9568 448.1257)"
            width="150.4" x="4" y="459"/>

      <rect height="109.8" style="fill:#F2F2F9;"
            transform="matrix(-2.601122e-002 0.9997 -0.9997 -2.601122e-002 594.9871 444.8131)"
            width="150.4" x="5.6" y="457.4"/>

      <rect height="109.8" style="fill:#EDEFF4;"
            transform="matrix(-4.999754e-002 0.9987 -0.9987 -4.999754e-002 583.5955 465.2534)"
            width="150.4" x="-4.7" y="455.3"/>

      <rect height="109.8" style="fill:#EFEFEF;"
            transform="matrix(7.157408e-002 0.9974 -0.9974 7.157408e-002 584.448 395.2452)"
            width="150.4" x="4.7" y="456.7"/>

      <rect height="109.8" style="fill:#FFFFFF;" transform="matrix(-0.6157 0.788 -0.788 -0.6157 526.4359 769.8939)"
            width="150.4"
            x="0.3" y="458.4"/>
      <path d="M159.1,486.8l-78.2-61.1l-1.6-1.2l-1.2,1.6L-8.5,537l-0.6,0.8l-0.6,0.8l81.4,63.6l0.6-0.8l0.6-0.8
			l86.7-110.9l1.2-1.6L159.1,486.8z M79.7,427.3l78.2,61.1L85.6,581l-37.5-29.3l-1.6-1.2l-1.2,1.6l-13.1,16.8L-7,538.2L79.7,427.3z
			 M33.7,570l13.1-16.8l37.5,29.3l-13.1,16.8L33.7,570z" style="fill:#EDEDED;"/>

      <rect height="4" style="fill:#D8D8D8;" transform="matrix(0.788 0.6156 -0.6156 0.788 365.4305 82.751)" width="41.5"
            x="41.8" y="570"/>

      <rect height="4" style="fill:#D8D8D8;" transform="matrix(0.788 0.6156 -0.6156 0.788 364.5862 87.5777)"
            width="31.3"
            x="39.5" y="571.2"/>

      <rect height="4" style="fill:#D8D8D8;" transform="matrix(0.788 0.6156 -0.6156 0.788 363.987 92.0346)" width="22.3"
            x="37.2" y="572.6"/>

      <rect height="4" style="fill:#D8D8D8;" transform="matrix(0.788 0.6156 -0.6156 0.788 376.3076 84.0331)"
            width="15.6"
            x="58.3" y="586.5"/>
      <polyline points="31.1,511 90.4,557.3 105.1,538.6 		" style="fill:none;stroke:#D5D5E2;stroke-miterlimit:10;"/>
      <polyline points="31.1,511 61.4,472.1 80.9,447.1 140.3,493.5
			105.1,538.6 102,480.3 78.3,461.7 81.4,457.8 		" style="fill:none;stroke:#D5D5E2;stroke-miterlimit:10;"/>
      <polyline points="55.2,529.8 70.5,510.2 59.8,501.8 70.4,488.2
			92.4,505.4 66.5,538.6 		" style="fill:none;stroke:#D5D5E2;stroke-miterlimit:10;"/>
      <path d="M70.4,488.2" style="fill:none;stroke:#D5D5E2;stroke-miterlimit:10;"/>

      <rect height="1.6" style="fill:#D8D8D8;" transform="matrix(0.788 0.6156 -0.6156 0.788 355.8427 70.3931)"
            width="31"
            x="60.2" y="551.1"/>

      <rect height="1.6" style="fill:#D8D8D8;" transform="matrix(0.788 0.6156 -0.6156 0.788 331.3169 86.3212)"
            width="31"
            x="24.8" y="523.5"/>

      <rect height="1.6" style="fill:#D8D8D8;" transform="matrix(-0.6156 0.788 -0.788 -0.6156 450.0253 777.5638)"
            width="24.9"
            x="22.9" y="497.7"/>

      <rect height="1.6" style="fill:#D8D8D8;" transform="matrix(-0.6156 0.788 -0.788 -0.6156 466.8676 698.3166)"
            width="30.8"
            x="47.7" y="462.2"/>

      <rect height="1.6" style="fill:#D8D8D8;" transform="matrix(0.788 0.6156 -0.6156 0.788 345.8406 81.8383)"
            width="75.9"
            x="16.1" y="542.3"/>

      <rect height="2" style="fill:#BFBFBF;" transform="matrix(0.788 0.6156 -0.6156 0.788 356.7367 71.7696)" width="6.6"
            x="70.8" y="552.9"/>

      <rect height="2" style="fill:#BFBFBF;" transform="matrix(0.788 0.6156 -0.6156 0.788 332.2109 87.6978)" width="6.6"
            x="35.4" y="525.3"/>

      <rect height="2" style="fill:#BFBFBF;" transform="matrix(0.788 0.6156 -0.6156 0.788 347.4024 83.137)" width="6.6"
            x="49.7" y="545"/>

      <rect height="2" style="fill:#BFBFBF;" transform="matrix(-0.6156 0.788 -0.788 -0.6156 443.669 776.2129)"
            width="6.6"
            x="29.2" y="495.3"/>

      <rect height="2" style="fill:#BFBFBF;" transform="matrix(-0.6156 0.788 -0.788 -0.6156 460.5113 696.9656)"
            width="6.6"
            x="57" y="459.8"/>
	</g>
    <g id="calculator">
		<g>
			<path d="M1001.8,365.9l-25.2,9.5c-2.7,1-5.8-0.4-6.9-3.1l-15.3-40.7c-1-2.7,0.4-5.8,3.1-6.9l25.2-9.5
				c2.7-1,5.8,0.4,6.9,3.1l15.3,40.7C1005.9,361.7,1004.5,364.8,1001.8,365.9z" style="fill:#36993B;"/>
      <g>
				<g>

						<rect height="7.1" style="fill:#36993B;" transform="matrix(0.9359 -0.3522 0.3522 0.9359 -53.4211 363.9485)"
                  width="30.2" x="958.3" y="325.2"/>
          <g>

							<rect height="5.4" style="fill:#36993B;"
                    transform="matrix(0.9359 -0.3522 0.3522 0.9359 -59.4622 362.3884)"
                    width="5.4" x="963.4" y="341.9"/>

            <rect height="5.4" style="fill:#36993B;" transform="matrix(0.9359 -0.3522 0.3522 0.9359 -57.9162 364.9323)"
                  width="5.4" x="971.2" y="338.9"/>

            <rect height="5.4" style="fill:#36993B;" transform="matrix(0.9359 -0.3522 0.3522 0.9359 -56.4115 367.4774)"
                  width="5.4" x="978.9" y="336.1"/>

            <rect height="5.4" style="fill:#36993B;" transform="matrix(0.9359 -0.3522 0.3522 0.9359 -54.8655 370.0214)"
                  width="5.4" x="986.7" y="333.1"/>
					</g>
          <g>

							<rect height="5.4" style="fill:#36993B;"
                    transform="matrix(0.9359 -0.3522 0.3522 0.9359 -61.8801 363.8515)"
                    width="5.4" x="966.2" y="349.3"/>

            <rect height="5.4" style="fill:#36993B;" transform="matrix(0.9359 -0.3522 0.3522 0.9359 -60.3754 366.3966)"
                  width="5.4" x="974" y="346.4"/>

            <rect height="5.4" style="fill:#36993B;" transform="matrix(0.9359 -0.3522 0.3522 0.9359 -58.8294 368.9406)"
                  width="5.4" x="981.7" y="343.5"/>

            <rect height="5.4" style="fill:#36993B;" transform="matrix(0.9359 -0.3522 0.3522 0.9359 -57.3064 371.4747)"
                  width="5.4" x="989.5" y="340.5"/>
					</g>
          <g>

							<rect height="5.4" style="fill:#36993B;" transform="matrix(0.9359 -0.3522 0.3522 0.9359 -64.337 365.3304)"
                    width="5.4" x="969.1" y="356.8"/>

            <rect height="5.4" style="fill:#36993B;" transform="matrix(0.9359 -0.3522 0.3522 0.9359 -62.814 367.8646)"
                  width="5.4" x="976.8" y="353.9"/>

            <rect height="5.4" style="fill:#36993B;" transform="matrix(0.9359 -0.3522 0.3522 0.9359 -61.3093 370.4097)"
                  width="5.4" x="984.5" y="351"/>

            <rect height="5.4" style="fill:#36993B;" transform="matrix(0.9359 -0.3522 0.3522 0.9359 -59.7633 372.9536)"
                  width="5.4" x="992.3" y="348"/>
					</g>
          <g>

							<rect height="5.4" style="fill:#36993B;"
                    transform="matrix(0.9359 -0.3522 0.3522 0.9359 -66.7779 366.7838)"
                    width="5.4" x="971.8" y="364.2"/>

            <rect height="5.4" style="fill:#36993B;" transform="matrix(0.9359 -0.3522 0.3522 0.9359 -65.2502 369.3386)"
                  width="5.4" x="979.6" y="361.3"/>

            <rect height="5.4" style="fill:#36993B;" transform="matrix(0.9359 -0.3522 0.3522 0.9359 -62.9967 373.1428)"
                  width="13.6" x="987.1" y="357"/>
					</g>
				</g>
        <g>

						<rect height="4.7" style="fill:#36993B;" transform="matrix(0.9359 -0.3522 0.3522 0.9359 -53.6917 363.53)"
                  width="2.4" x="970.9" y="327"/>

          <rect height="4.7" style="fill:#36993B;" transform="matrix(0.9359 -0.3522 0.3522 0.9359 -54.9898 361.3089)"
                width="2.4" x="964.1" y="329.4"/>

          <rect height="4.7" style="fill:#36993B;" transform="matrix(0.9359 -0.3522 0.3522 0.9359 -54.3292 362.4244)"
                width="2.4" x="967.5" y="328.2"/>

          <rect height="4.7" style="fill:#36993B;" transform="matrix(0.9359 -0.3522 0.3522 0.9359 -55.6685 360.2043)"
                width="2.4" x="960.8" y="330.7"/>
				</g>
			</g>
		</g>
      <g>
			<path d="M1003.5,365.1l-25.2,9.5c-2.7,1-5.8-0.4-6.9-3.1L956,330.8c-1-2.7,0.4-5.8,3.1-6.9l25.2-9.5
				c2.7-1,5.8,0.4,6.9,3.1l15.3,40.7C1007.6,360.9,1006.2,364.1,1003.5,365.1z" style="fill:#FFFFFF;"/>
        <g>
				<g>

						<rect height="7.1" style="fill:#2C3E50;" transform="matrix(0.9359 -0.3522 0.3522 0.9359 -53.0431 364.5087)"
                  width="30.2" x="960" y="324.4"/>
          <g>

							<rect height="5.4" style="fill:#E74C3C;"
                    transform="matrix(0.9359 -0.3522 0.3522 0.9359 -59.0452 362.9328)"
                    width="5.4" x="965.1" y="341"/>

            <rect height="5.4" style="fill:#E74C3C;" transform="matrix(0.9359 -0.3522 0.3522 0.9359 -57.5405 365.4779)"
                  width="5.4" x="972.9" y="338.2"/>

            <rect height="5.4" style="fill:#E74C3C;" transform="matrix(0.9359 -0.3522 0.3522 0.9359 -55.9944 368.0219)"
                  width="5.4" x="980.6" y="335.2"/>

            <rect height="5.4" style="fill:#E74C3C;" transform="matrix(0.9359 -0.3522 0.3522 0.9359 -54.5104 370.5718)"
                  width="5.4" x="988.4" y="332.4"/>
					</g>
          <g>

							<rect height="5.4" style="fill:#E74C3C;"
                    transform="matrix(0.9359 -0.3522 0.3522 0.9359 -61.5021 364.4117)"
                    width="5.4" x="967.9" y="348.5"/>

            <rect height="5.4" style="fill:#E74C3C;" transform="matrix(0.9359 -0.3522 0.3522 0.9359 -59.979 366.9459)"
                  width="5.4" x="975.7" y="345.6"/>

            <rect height="5.4" style="fill:#E74C3C;" transform="matrix(0.9359 -0.3522 0.3522 0.9359 -58.4743 369.491)"
                  width="5.4" x="983.4" y="342.8"/>

            <rect height="5.4" style="fill:#E74C3C;" transform="matrix(0.9359 -0.3522 0.3522 0.9359 -56.9283 372.0349)"
                  width="5.4" x="991.2" y="339.8"/>
					</g>
          <g>

							<rect height="5.4" style="fill:#E74C3C;" transform="matrix(0.9359 -0.3522 0.3522 0.9359 -63.943 365.8651)"
                    width="5.4" x="970.7" y="356"/>

            <rect height="5.4" style="fill:#E74C3C;" transform="matrix(0.9359 -0.3522 0.3522 0.9359 -62.4383 368.4102)"
                  width="5.4" x="978.5" y="353.1"/>

            <rect height="5.4" style="fill:#E74C3C;" transform="matrix(0.9359 -0.3522 0.3522 0.9359 -60.8922 370.9541)"
                  width="5.4" x="986.2" y="350.1"/>

            <rect height="5.4" style="fill:#E74C3C;" transform="matrix(0.9359 -0.3522 0.3522 0.9359 -59.3875 373.4992)"
                  width="5.4" x="994" y="347.3"/>
					</g>
          <g>

							<rect height="5.4" style="fill:#E74C3C;"
                    transform="matrix(0.9359 -0.3522 0.3522 0.9359 -66.3999 367.3439)"
                    width="5.4" x="973.6" y="363.5"/>

            <rect height="5.4" style="fill:#E74C3C;" transform="matrix(0.9359 -0.3522 0.3522 0.9359 -64.8769 369.8781)"
                  width="5.4" x="981.3" y="360.5"/>

            <rect height="5.4" style="fill:#656D78;" transform="matrix(0.9359 -0.3522 0.3522 0.9359 -62.5796 373.6873)"
                  width="13.6" x="988.8" y="356.1"/>
					</g>
				</g>
          <g>

						<rect height="4.7" style="fill:#ECF0F1;" transform="matrix(0.9359 -0.3522 0.3522 0.9359 -53.2746 364.0745)"
                  width="2.4" x="972.6" y="326.1"/>

            <rect height="4.7" style="fill:#ECF0F1;" transform="matrix(0.9359 -0.3522 0.3522 0.9359 -54.6117 361.869)"
                  width="2.4" x="965.9" y="328.7"/>

            <rect height="4.7" style="fill:#ECF0F1;" transform="matrix(0.9359 -0.3522 0.3522 0.9359 -53.9742 362.9748)"
                  width="2.4" x="969.2" y="327.5"/>

            <rect height="4.7" style="fill:#ECF0F1;" transform="matrix(0.9359 -0.3522 0.3522 0.9359 -55.2722 360.7536)"
                  width="2.4" x="962.5" y="329.9"/>
				</g>
			</g>
		</g>
	</g>
</g>
</svg>
