<?xml version="1.0" encoding="utf-8"?>
<svg style="enable-background:new 32 -104 1024 768;" version="1.1" viewBox="32 -104 1024 768" x="0px"
     xml:space="preserve" xmlns="http://www.w3.org/2000/svg" y="0px">
<g id="background">
	<g id="Calque_1_1_">
		<rect height="14784" style="fill:#E74C3C;" width="16291.8" x="-6462.5" y="-5804.2"/>
	</g>
</g>
  <g id="path4">
	<path d="M678.4-104c32.9,27.8-57.5,55.2-98,61.8
		c-15.6,2.6-31.6,1.4-47.3,3.8c-15.6,2.4-31.8,9.4-39.4,23.3c-11.8,21.4,3.6,50,26.1,59.5s48.5,4.5,71.3-4.3
		c13.4-5.2,26.4-11.6,38.1-19.9c10-7.1,19-15.5,28.5-23.3c31.9-26.4,70.7-46.6,112.1-48c41.4-1.4,85,19.4,102.4,56.9
		c7.1,15.2,9.6,33.3,3.4,49c-10.7,27-34.3,37.6-62.2,45.8" style="fill:none;stroke:#DBDBDB;stroke-miterlimit:10;"/>
</g>
  <g id="item">
	<g>
		<g id="scrapy">
			<path d="M262.4,529.5h-66.1c-3.9,0-7-3.1-7-7v-66.1c0-3.9,3.1-7,7-7h66.1c3.9,0,7,3.1,7,7v66.1
				C269.4,526.4,266.3,529.5,262.4,529.5z" style="fill:#FFFFFF;"/>
      <g>
				<path d="M229.4,459.9c-16.3,0-29.6,13.2-29.6,29.6c0,16.3,13.2,29.6,29.6,29.6s29.6-13.2,29.6-29.6
					C259,473.2,245.7,459.9,229.4,459.9z M229.4,514c-13.5,0-24.5-11-24.5-24.5c0-13.5,11-24.5,24.5-24.5c13.5,0,24.5,11,24.5,24.5
					C253.9,503,242.9,514,229.4,514z" style="fill:#30AC40;"/>
        <path d="M225.7,498c-1.6,1.5-3.2,2.8-5,4.1c-0.4,0.3-0.6,0.3-0.9-0.1c-2.4-3.6-4.8-7.2-7.2-10.8
					c-0.4-0.5-0.1-0.7,0.3-0.9c1.9-1.2,3.9-2.1,6-2.8c4-1.4,8.1-2.3,12.4-2.8c0.4,0.5,0.7,1.1,1.2,1.6c0.5,0.6,0.6,1.2,0.3,1.9
					c-0.8,2.3-2.1,4.4-3.7,6.2C227.9,495.5,226.8,496.7,225.7,498z" style="fill:#C5C7C6;"/>
        <path d="M225.7,498c1.1-1.2,2.3-2.4,3.3-3.7c1.6-1.9,2.9-3.9,3.7-6.2c0.2-0.7,0.2-1.3-0.3-1.9
					c-0.4-0.5-0.8-1.1-1.2-1.6c2.6-2.1,5.1-4.1,7.7-6.2c1.1-0.9,2.2-1.8,3.5-2.4c0.4-0.2,0.8-0.3,1.2-0.4c1.2-0.3,2.1,0,2.7,0.9
					c0.7,1,0.6,2.3-0.1,3.2c-0.6,0.8-1.4,1.3-2.2,1.8c-3.2,2-6.5,3.6-9.8,5.4c-0.6,0.3-1,0.7-1.2,1.4c-0.8,2.9-2.6,5.2-4.7,7.3
					C227.6,496.4,226.9,497.4,225.7,498z M244,477.6c0-0.4-0.3-0.6-0.6-0.6c-0.3,0-0.6,0.2-0.7,0.5c0,0.4,0.2,0.6,0.6,0.6
					C243.7,478.2,243.9,478,244,477.6z M239.9,480.3c-0.1-0.3-0.3-0.6-0.6-0.6c-0.3,0-0.6,0.2-0.6,0.6c0,0.3,0.3,0.6,0.5,0.6
					C239.5,481,239.9,480.8,239.9,480.3z M235.3,483.6c0.4-0.1,0.6-0.2,0.6-0.6c0-0.3-0.3-0.5-0.6-0.5c-0.3,0-0.6,0.2-0.6,0.6
					C234.7,483.5,234.9,483.6,235.3,483.6z" style="fill:#A06644;"/>
        <path d="M247.3,495.9c1.6,0,2.6,1.4,2,2.8c-0.1,0.2-0.3,0.4-0.1,0.6c0.2,0.2,0.4,0.3,0.7,0.1
					c0.2-0.2,0.3-0.3,0.6-0.1c0.2,0.2,0,0.4-0.1,0.6c-0.1,0.3-0.3,0.6-0.4,0.8c-0.1,0.2-0.2,0.5-0.4,0.5c-0.3,0-0.3-0.3-0.4-0.5
					c-0.1-0.3-0.3-0.4-0.6-0.5c-0.7-0.4-1.5-0.8-2.2-1.1c-0.2-0.1-0.3-0.2-0.5-0.2c-0.3,0-0.6,0.5-0.8,0c-0.2-0.3,0.1-0.7,0.3-0.9
					c0.3-0.4,0.4-0.7,0.5-1.1C246.1,496.2,246.6,495.9,247.3,495.9z M248.6,498.2c0-0.5-0.7-1.1-1.4-1.1c-0.4,0-0.7,0.2-0.7,0.6
					c0.1,0.8,0.9,0.9,1.5,1.1C248.5,498.9,248.5,498.4,248.6,498.2z" style="fill:#2EA43D;"/>
        <path d="M234.2,510.4c-0.9,0.2-0.9-0.5-0.9-1c0-0.5,0.4-0.5,0.7-0.2c0.2,0.2,0.4,0.3,0.7,0.3
					c0.4-0.1,0.8-0.1,0.8-0.6c0-0.4-0.4-0.4-0.7-0.5c-0.2-0.1-0.5-0.1-0.8-0.1c-0.7-0.1-1.2-0.5-1.3-1.3c-0.1-0.8,0.4-1.2,1-1.5
					c0.4-0.2,0.9-0.2,1.4-0.3c0.4,0,0.6,0.2,0.6,0.5c0,0.2,0.2,0.5,0,0.7c-0.3,0.2-0.5-0.1-0.7-0.2c-0.3-0.2-0.7-0.1-1,0.1
					c-0.2,0.1-0.3,0.3-0.2,0.5c0.2,0.3,0.5,0.3,0.8,0.3c0.3,0,0.6,0.1,0.8,0.1c0.6,0.1,1,0.5,1.1,1c0.1,0.6-0.1,1.1-0.5,1.5
					C235.5,510.2,234.9,510.4,234.2,510.4z" style="fill:#2EA43D;"/>
        <path d="M249.4,493.8c-0.5-0.3-0.8-1-1.6-0.7c-0.2,0.1-0.4-0.1-0.4-0.4c0.1-0.4,0.2-0.7,0.3-1.1
					c0.1-0.3,0.4-0.4,0.6-0.2c0.6,1,1.8,1.3,2.7,2c0.5,0.4,1,0.7,1.2,1.3c0.2,0.4,0.2,0.7,0,1.1c-0.1,0.2-0.1,0.4-0.4,0.4
					c-0.2-0.1-0.3-0.2-0.4-0.5c-0.2-1.2-0.3-1.3-1.5-1.1c-0.9,0.1-1.8,0.1-2.6,0.5c-0.3,0.2-0.5,0-0.5-0.3c0.1-0.4,0.2-0.8,0.3-1.2
					c0.1-0.2,0.3-0.3,0.4-0.2C248.2,494.3,248.8,493.7,249.4,493.8z" style="fill:#2EA43D;"/>
        <path d="M247.4,501.7C247.4,501.7,247.4,501.7,247.4,501.7c-0.7,0.8-1.2,1.6-1.9,2.3
					c-0.3,0.3-0.8,0.1-1.1-0.2c-0.3-0.3-0.5-0.7-0.3-1.1c0.1-0.2,0.2-0.4,0.4-0.7c0.1-0.2,0.5-0.4,0.2-0.7c-0.1-0.2-0.3-0.3-0.5-0.1
					c-0.3,0.2-0.5,0.4-0.5,0.7c0.1,0.3,0,0.6-0.3,0.6c-0.3,0-0.7-0.2-0.7-0.6c0.1-0.4,0.3-0.7,0.5-1c0.7-1,1.2-1,2.2-0.3
					c0.5,0.4,0.8,1.1,1.7,0.8C247.3,501.3,247.4,501.5,247.4,501.7z M245.2,503c0.3,0,0.4-0.2,0.5-0.5c0-0.3,0-0.6-0.3-0.6
					c-0.3,0-0.4,0.3-0.5,0.6C244.9,502.8,245,503,245.2,503z" style="fill:#2EA43D;"/>
        <path d="M238.9,508.7c-1,0-1.9-1.1-1.8-2.2c0-0.9,1.1-1.9,2-1.8c0.6,0,0.6,0.5,0.7,0.9
					c0,0.3-0.3,0.4-0.6,0.2c-0.4-0.3-0.8,0-0.9,0.3c-0.3,0.5,0,1,0.4,1.4c0.3,0.4,0.7,0.3,1.1,0.1c0.3-0.2,0.5-1,1-0.4
					c0.3,0.5-0.3,0.9-0.7,1.1C239.6,508.6,239.3,508.7,238.9,508.7z" style="fill:#2EA43D;"/>
        <path d="M242.2,503.5c-0.3-0.1-0.4,0.1-0.5,0.4c0,0.4,0.9,1.4,1.4,1.4c0.2,0,0.4-0.1,0.5,0.1
					c0.1,0.3-0.1,0.4-0.3,0.5c-0.2,0.2-0.4,0.4-0.7,0.5c-0.2,0.2-0.4,0.5-0.7,0.4c-0.4-0.1,0-0.5-0.1-0.7c-0.4-0.7-0.6-1.6-1.6-1.7
					c-0.4,0-0.6-0.3-0.2-0.6c0.6-0.5,1.3-0.7,1.8-1.5c0.1-0.2,0.4-0.2,0.6,0.1c0.2,0.3,0.6,0.5,0.5,0.9
					C242.7,503.6,242.5,503.7,242.2,503.5z" style="fill:#2EA43D;"/>
        <path d="M244,477.6c-0.1,0.3-0.3,0.5-0.7,0.5c-0.3,0-0.6-0.2-0.6-0.6c0-0.3,0.3-0.5,0.7-0.5
					C243.7,477.1,244,477.3,244,477.6z" style="fill:#C5C7C6;"/>
        <path d="M239.9,480.3c-0.1,0.4-0.4,0.6-0.7,0.6c-0.3,0-0.5-0.3-0.5-0.6c0-0.4,0.3-0.6,0.6-0.6
					C239.7,479.8,239.9,480,239.9,480.3z" style="fill:#C5C7C6;"/>
        <path d="M235.3,483.6c-0.4,0-0.6-0.2-0.6-0.6c0-0.4,0.3-0.6,0.6-0.6c0.3,0,0.5,0.2,0.6,0.5
					C235.9,483.4,235.6,483.6,235.3,483.6z" style="fill:#C5C7C6;"/>
			</g>
		</g>
    <g id="python">
			<path d="M171.9,529.5h-66.1c-3.9,0-7-3.1-7-7v-66.1c0-3.9,3.1-7,7-7h66.1c3.9,0,7,3.1,7,7v66.1
				C178.9,526.4,175.7,529.5,171.9,529.5z" style="fill:#FFFFFF;"/>
      <g>
				<path d="M108.3,489c0-2.1,0.2-4.3,0.8-6.3c0.4-1.5,1-2.9,1.9-4.1c1.2-1.7,2.7-2.8,4.7-3.4
					c0.9-0.2,1.7-0.4,2.6-0.3c0.1,0,0.1,0,0.2,0c6.8,0,13.6,0,20.4,0c0.2,0,0.2,0,0.2-0.2c0-0.6,0-1.1,0-1.7c0-0.1,0-0.2-0.2-0.2
					c-4.8,0-9.6,0-14.4,0c-0.2,0-0.2,0-0.2-0.2c0-2.2,0-4.4,0-6.6c0-0.7,0.1-1.3,0.3-1.9c0.4-1,1.1-1.7,1.9-2.3
					c0.9-0.7,2-1.1,3.1-1.5c1.2-0.4,2.5-0.7,3.8-0.8c2.1-0.3,4.2-0.4,6.3-0.3c1.4,0,2.9,0.1,4.3,0.3c1.8,0.3,3.5,0.7,5.1,1.4
					c1.4,0.6,2.6,1.4,3.5,2.6c0.7,1,1.2,2.1,1.2,3.3c0,4.7,0,9.4,0,14.1c0,1.4-0.3,2.8-1.1,4.1c-0.7,1.2-1.7,2-2.9,2.6
					c-1.4,0.7-2.9,1-4.4,1c-5,0-9.9,0-14.9,0c-1.5,0-3,0.3-4.3,1.1c-1.5,0.9-2.5,2.1-3.2,3.7c-0.5,1.2-0.7,2.5-0.7,3.9
					c0,2.4,0,4.7,0,7.1c0,0.1,0,0.2-0.2,0.2c-1.7,0-3.4,0-5.1,0c-1,0-2-0.3-2.9-0.8c-1.5-0.8-2.5-1.9-3.4-3.3
					c-0.8-1.4-1.4-3-1.7-4.6c-0.3-1.5-0.5-2.9-0.6-4.4c0-0.5,0-1-0.1-1.5C108.3,489.6,108.3,489.3,108.3,489z M127.9,466.4
					c0,1.5,1.2,2.7,2.7,2.7c1.5,0,2.7-1.2,2.7-2.7c0-1.5-1.2-2.7-2.7-2.7C129.1,463.8,127.9,465,127.9,466.4z"
              style="fill:#3770A1;"/>
        <path d="M140.1,490.4c2.5,0,5.1,0,7.6,0c1.7,0,3.2-0.5,4.6-1.5c1-0.7,1.8-1.7,2.3-2.9c0.5-1,0.7-2,0.9-3
					c0.1-0.5,0.1-1,0.1-1.5c0-2.3,0-4.6,0-6.9c0-0.1,0-0.2,0.2-0.2c1.7,0,3.4,0,5.1,0c1,0,1.9,0.3,2.7,0.7c1.5,0.7,2.5,1.9,3.4,3.2
					c0.8,1.3,1.3,2.8,1.7,4.3c0.2,0.9,0.4,1.8,0.5,2.7c0,0.1,0,0.1,0,0.2c0,2.6,0,5.2,0,7.8c0,0.5-0.1,1-0.2,1.5
					c-0.2,1.2-0.6,2.4-1.1,3.5c-0.5,1.3-1.3,2.4-2.2,3.4c-1.2,1.2-2.7,2-4.4,2.3c-0.6,0.1-1.2,0.2-1.9,0.1c0,0-0.1,0-0.1,0
					c-6.8,0-13.5,0-20.3,0c-0.2,0-0.2,0-0.2,0.2c0,0.6,0,1.1,0,1.7c0,0.2,0,0.2,0.2,0.2c4.3,0,8.5,0,12.8,0c0.5,0,1.1,0,1.6,0
					c0.2,0,0.2,0,0.2,0.2c0,2.2,0,4.5,0,6.7c0,0.7-0.1,1.3-0.4,1.9c-0.4,0.8-1,1.5-1.7,2c-0.8,0.7-1.8,1.1-2.8,1.5
					c-1,0.4-2,0.6-3,0.8c-0.7,0.1-1.4,0.2-2.1,0.3c-0.8,0.1-1.6,0.1-2.4,0.2c-1.2,0.1-2.4,0.1-3.6,0c-0.9,0-1.8-0.1-2.7-0.2
					c-1.9-0.2-3.7-0.5-5.5-1.2c-1.3-0.5-2.5-1.1-3.5-2.1c-0.9-0.8-1.5-1.9-1.8-3.1c-0.1-0.5-0.2-1.1-0.1-1.6c0-0.1,0-0.1,0-0.2
					c0-4.5,0-9,0-13.5c0-1.2,0.3-2.4,0.8-3.6c0.7-1.4,1.8-2.4,3.2-3.1c1-0.5,2.1-0.8,3.2-0.9c0.4-0.1,0.9-0.1,1.4-0.1
					C135.2,490.4,137.7,490.4,140.1,490.4C140.1,490.4,140.1,490.4,140.1,490.4z M144.7,512.6c0,1.3,1.2,2.8,3,2.6
					c1.2-0.1,2.4-1.1,2.3-2.7c0-1.5-1.2-2.7-2.7-2.6C145.7,509.9,144.6,511.2,144.7,512.6z" style="fill:#FED142;"/>
			</g>
		</g>
    <g id="d3js">
			<path d="M353,436.5H287c-3.9,0-7-3.1-7-7v-66.1c0-3.9,3.1-7,7-7H353c3.9,0,7,3.1,7,7v66.1
				C360,433.4,356.9,436.5,353,436.5z" style="fill:#FFFFFF;"/>
      <g>
				<path d="M287.5,413.7c2.2,0,4.4,0.1,6.5,0c3.8-0.2,7.1-1.6,10-4c1.9-1.6,3.4-3.6,4.5-5.8
					c0-0.1,0.1-0.1,0.1-0.2c0.1,0.1,0.1,0.2,0.2,0.2c0.7,0.7,1.5,1.5,2.2,2.2c2.4,2.4,4.8,4.8,7.2,7.2c0.1,0.1,0.1,0.2,0.3,0.2
					c-0.6,1-1.3,1.9-2.1,2.8c-3.3,3.9-7.4,6.9-12.2,8.8c-2.3,0.9-4.6,1.5-7,1.9c-1.6,0.2-3.1,0.3-4.7,0.3c-1.6,0-3.2,0-4.8,0
					c-0.1,0-0.2,0-0.3,0C287.5,422.7,287.5,418.2,287.5,413.7z" style="fill:#F79D41;"/>
        <path d="M303.4,382.8c-1-0.7-2-1.3-3-1.9c-2.1-1-4.2-1.5-6.5-1.7c-1.6-0.1-3.1,0-4.7,0
					c-0.6,0-1.1,0-1.7,0c0-4.4,0-8.8,0-13.2c0-0.2,0-0.3,0.3-0.3c2.3,0,4.5,0,6.8,0c0.3,0.1,0.6,0.1,0.9,0.1
					c6.9,0.6,12.9,3.2,18,7.8c0.4,0.3,0.7,0.7,1.1,1c-0.1,0.2-0.3,0.3-0.4,0.4c-1.3,0.9-2.6,1.9-3.9,2.8c-1.8,1.3-3.5,2.5-5.3,3.8
					C304.4,382,303.9,382.3,303.4,382.8z" style="fill:#F27354;"/>
        <path d="M335,365.7c0.3,0.1,0.5,0.1,0.8,0.1c0.1,0,0.2,0,0.3,0.1c0,0.2-0.1,0.3-0.1,0.4
					c-0.5,0.9-1.1,1.8-1.7,2.7c-1.8,3.1-3.7,6.1-5.5,9.2c-0.2,0.3-0.5,0.6-0.5,1c-1.2,0-2.4,0-3.6,0c-0.1,0-0.2,0-0.2-0.1
					c-0.5-0.9-1-1.7-1.5-2.5c0.1-0.1,0.2-0.2,0.3-0.4c1.9-3.2,3.8-6.3,5.7-9.5c0.2-0.3,0.5-0.6,0.5-1
					C331.4,365.7,333.2,365.7,335,365.7z" style="fill:#C55C4F;"/>
        <path d="M329.5,365.7c0,0.4-0.3,0.7-0.5,1c-1.9,3.2-3.8,6.3-5.7,9.5c-0.1,0.1-0.2,0.3-0.3,0.4
					c-0.5-0.6-0.9-1.3-1.4-1.9c-0.6-0.8-1.3-1.6-2-2.4c0.1-0.1,0.2-0.2,0.2-0.3c1-1.7,2.1-3.4,3.1-5.2c0.2-0.3,0.5-0.7,0.6-1.1
					C325.5,365.7,327.5,365.7,329.5,365.7z" style="fill:#BF5550;"/>
        <path d="M323.5,365.7c-0.1,0.4-0.4,0.7-0.6,1.1c-1,1.7-2.1,3.4-3.1,5.2c-0.1,0.1-0.2,0.2-0.2,0.3
					c-0.7-0.7-1.4-1.5-2.2-2.2c-1.7-1.6-3.5-3-5.5-4.2c-0.1,0-0.2-0.1-0.2-0.2C315.6,365.7,319.6,365.7,323.5,365.7z"
              style="fill:#B84F51;"/>
        <path d="M352.4,410.1c-0.2,2.7-1,5.2-2.3,7.5c-1.9,3.4-4.6,5.9-8,7.7c-2,1-4.2,1.6-6.5,1.9
					c-1.2,0.1-2.4,0.1-3.6,0.1c-6.6,0-13.2,0-19.8,0c-0.1,0-0.2,0-0.3-0.1c0.1-0.1,0.3-0.2,0.4-0.3c4.8-3.1,8.6-7.1,11.6-12
					c0.2-0.3,0.4-0.6,0.6-1c0.1-0.2,0.2-0.3,0.4-0.3c2.9,0,5.8,0,8.7,0c2.5,0,4.7-1.7,5.2-4.1c0.4-1.8-0.1-3.3-1.3-4.7
					c-0.1-0.1-0.1-0.1-0.2-0.2c0.2-0.1,0.4-0.2,0.6-0.4c1.5-1.1,2.9-2.1,4.4-3.2c0.3-0.2,0.3-0.2,0.7,0.1c0.2,0.2,0.4,0.5,0.8,0.5
					c0.9,0.8,1.7,1.7,2.6,2.5c0.7,0.7,1.4,1.4,2.1,2c0.1,0.1,0.1,0.2,0.2,0.2c1,0.9,1.9,1.9,2.9,2.8
					C351.8,409.5,352.1,409.8,352.4,410.1z" style="fill:#F79B40;"/>
        <path d="M303.4,382.8c0.4-0.4,1-0.7,1.5-1.1c1.8-1.3,3.5-2.6,5.3-3.8c1.3-0.9,2.6-1.9,3.9-2.8
					c0.2-0.1,0.4-0.2,0.4-0.4c1.2,1.1,2.2,2.3,3.2,3.6c2.8,3.9,4.7,8.2,5.5,12.9c0,0.1,0,0.2,0,0.3c-0.1,0-0.2,0.1-0.2,0.1
					c-1,0.7-2,1.5-3,2.2c-1.8,1.3-3.7,2.6-5.5,4c-1.4,1-2.7,2-4.1,2.9c-0.3,0.2-0.5,0.5-0.9,0.5c0.2-0.8,0.3-1.5,0.5-2.3
					c0.4-3.2,0-6.3-1.3-9.3c-1.2-2.7-2.9-4.9-5.2-6.7C303.5,382.9,303.5,382.8,303.4,382.8z" style="fill:#F4824C;"/>
        <path d="M309.6,401.1c0.4-0.1,0.6-0.3,0.9-0.5c1.4-1,2.7-1.9,4.1-2.9c1.8-1.3,3.7-2.6,5.5-4
					c1-0.7,2-1.5,3-2.2c0.1-0.1,0.2-0.1,0.2-0.1c0.2,0.6,0.2,1.3,0.3,2c0.1,1.3,0.2,2.6,0.1,3.9c-0.1,4.2-1,8.2-2.8,12
					c-0.7,1.5-1.4,2.9-2.3,4.2c-0.1,0-0.2-0.1-0.3-0.2c-2.4-2.4-4.8-4.8-7.2-7.2c-0.7-0.7-1.5-1.5-2.2-2.2c-0.1-0.1-0.1-0.2-0.2-0.2
					C309,402.9,309.3,402,309.6,401.1z" style="fill:#F58C47;"/>
        <path d="M343.8,401.6c-0.3,0-0.5-0.3-0.8-0.5c-0.3-0.3-0.3-0.3-0.7-0.1c-1.5,1.1-2.9,2.1-4.4,3.2
					c-0.2,0.1-0.3,0.3-0.6,0.4c-0.7-0.6-1.5-1.1-2.4-1.3c-0.5-0.1-0.9-0.2-1.4-0.2c-1.7,0-3.3,0-5,0c-0.2,0-0.3,0-0.2-0.3
					c0.4-2,0.6-4,0.6-6c0-1.7-0.1-3.4-0.3-5.1c-0.1-0.7-0.2-1.3-0.3-2c0-0.2,0-0.2,0.2-0.2c1.1,0,2.1,0,3.2,0c0,0,0,0.1,0,0.1
					c1.1,1.1,2.3,2.2,3.4,3.4c0,0,0,0,0,0c0,0,0,0.1,0,0.1c1.1,1.1,2.2,2.2,3.3,3.3c0,0,0,0,0.1,0c0,0,0.1,0.1,0.1,0.1
					c1.2,1.2,2.4,2.3,3.6,3.5c0,0,0,0,0.1,0c0.1,0.1,0.1,0.2,0.2,0.2C343,400.8,343.4,401.2,343.8,401.6z"
              style="fill:#F68F45;"/>
        <path d="M335.2,393.1C335.2,393.1,335.2,393.1,335.2,393.1c-1.2-1.1-2.3-2.2-3.4-3.4c0,0,0-0.1,0-0.1
					c0.7,0,1.3,0,2,0c2.5,0,4.8-1.8,5.2-4.3c0.4-2.6-1-5.1-3.5-5.9c-0.1,0-0.1-0.1-0.2-0.1c0-0.1,0-0.1,0.1-0.2
					c0.7-1.2,1.5-2.5,2.2-3.7c1.4-2.2,2.7-4.5,4.1-6.7c0.2-0.3,0.5-0.7,0.6-1.1c1.5,0.7,2.8,1.7,4.1,2.8c0.7,0.6,1.3,1.2,1.8,1.9
					c-0.6,1-1.2,2-1.8,3.1c-1.2,2-2.4,4.1-3.7,6.1c-1.2,2-2.4,4-3.6,6.1c-1.1,1.8-2.1,3.5-3.2,5.3
					C335.6,393.1,335.5,393.2,335.2,393.1z" style="fill:#D46B4D;"/>
        <path d="M335.2,393.1c0.3,0.1,0.4,0,0.5-0.2c1-1.8,2.1-3.5,3.2-5.3c1.2-2,2.4-4,3.6-6.1
					c1.2-2,2.4-4.1,3.7-6.1c0.6-1,1.2-2,1.8-3.1c0.8,0.9,1.5,1.9,2.1,3c0.3,0.5,0.6,1.1,0.8,1.7c-0.1,0-0.2,0.2-0.2,0.2
					c-0.7,1.1-1.3,2.2-2,3.3c-0.9,1.6-1.9,3.1-2.8,4.7c-1.1,1.8-2.2,3.6-3.3,5.5c-1.1,1.9-2.2,3.7-3.3,5.6c-0.1,0.2-0.3,0.5-0.6,0.2
					c0,0-0.1,0-0.1,0c0,0,0,0-0.1,0C337.5,395.4,336.4,394.3,335.2,393.1C335.2,393.2,335.2,393.2,335.2,393.1z"
              style="fill:#DB734C;"/>
        <path d="M338.7,396.5c0,0,0.1,0,0.1,0c0.3,0.3,0.4,0.1,0.6-0.2c1.1-1.9,2.2-3.7,3.3-5.6
					c1.1-1.8,2.2-3.6,3.3-5.5c0.9-1.6,1.9-3.1,2.8-4.7c0.7-1.1,1.3-2.2,2-3.3c0.1-0.1,0.1-0.2,0.2-0.2c0.5,1,0.8,2,1,3.1
					c0.2,0.8,0.3,1.7,0.4,2.5c0,0.4,0.1,0.9,0.1,1.3c-0.1,0-0.2,0.1-0.3,0.2c-1.6,2.6-3.1,5.2-4.7,7.8c-1.6,2.6-3.2,5.3-4.8,7.9
					c-0.1,0.2-0.2,0.2-0.4,0.2c0,0-0.1,0-0.1,0c-1.2-1.2-2.4-2.3-3.6-3.5C338.7,396.6,338.7,396.5,338.7,396.5z"
              style="fill:#E1794B;"/>
        <path d="M342.1,367.7c-0.1,0.4-0.4,0.7-0.6,1.1c-1.3,2.3-2.7,4.5-4.1,6.7c-0.7,1.2-1.5,2.5-2.2,3.7
					c0,0.1-0.1,0.1-0.1,0.2c-0.7-0.2-1.3-0.2-2-0.2c-1.6,0-3.3,0-4.9,0c0-0.4,0.3-0.7,0.5-1c1.8-3.1,3.7-6.1,5.5-9.2
					c0.5-0.9,1.1-1.8,1.7-2.7c0.1-0.1,0.2-0.3,0.1-0.4c1.1,0.1,2.1,0.4,3.1,0.7C340.3,366.8,341.2,367.2,342.1,367.7z"
              style="fill:#CC634E;"/>
        <path d="M342.4,400.2c0.2,0,0.3-0.1,0.4-0.2c1.6-2.6,3.2-5.3,4.8-7.9c1.6-2.6,3.1-5.2,4.7-7.8
					c0.1-0.1,0.1-0.2,0.3-0.2c0.1,0.6,0,1.3,0,1.9c-0.2,2.2-0.7,4.4-1.7,6.4c-0.7,1.4-1.5,2.8-2.6,4c-0.1,0.1-0.1,0.1,0,0.2
					c1.1,1.3,1.9,2.6,2.6,4.1c0.3,0.6,0.5,1.2,0.7,1.9c-0.3,0.3-0.4,0.6-0.6,0.9c-0.6,0.9-1.1,1.9-1.7,2.8c-0.1,0.2-0.2,0.3-0.4,0.1
					c-0.1-0.1-0.2-0.2-0.4-0.2c-0.7-0.7-1.4-1.4-2.1-2c-0.9-0.8-1.7-1.7-2.6-2.5c-0.4-0.4-0.8-0.8-1.2-1.2
					C342.5,400.3,342.5,400.3,342.4,400.2z" style="fill:#E77F4A;"/>
        <path d="M348.4,406.1c0.2,0,0.3,0.1,0.4,0.2c0.2,0.2,0.3,0.1,0.4-0.1c0.6-0.9,1.1-1.9,1.7-2.8
					c0.2-0.3,0.3-0.7,0.6-0.9c0.4,1.1,0.6,2.2,0.8,3.4c0.2,1.3,0.2,2.7,0.1,4c0,0.1,0,0.1,0,0.2c-0.3-0.3-0.6-0.6-0.9-0.9
					c-1-0.9-1.9-1.9-2.9-2.8C348.6,406.3,348.5,406.2,348.4,406.1z" style="fill:#F58C47;"/>
			</g>
		</g>
    <g id="angular2">
			<path d="M262.4,436.4h-66.1c-3.9,0-7-3.1-7-7v-66.1c0-3.9,3.1-7,7-7h66.1c3.9,0,7,3.1,7,7v66.1
				C269.4,433.3,266.3,436.4,262.4,436.4z" style="fill:#FFFFFF;"/>
      <g>
				<path d="M229.3,362.8L197.7,374l5,41.3l26.6,14.6l26.7-14.8l5-41.3L229.3,362.8z" style="fill:#B3B3B3;"/>
        <path d="M257.9,376.1l-28.7-9.8v60.1l24-13.3L257.9,376.1L257.9,376.1z" style="fill:#A6120D;"/>
        <path d="M201.3,376.3l4.3,37l23.7,13.1v-60.1L201.3,376.3L201.3,376.3z" style="fill:#DD1B16;"/>
        <path d="M237.1,398.3l-7.9,3.7h-8.3l-3.9,9.8l-7.3,0.1l19.5-43.4L237.1,398.3L237.1,398.3z M236.4,396.5
					l-7.1-14l-5.8,13.8h5.8L236.4,396.5L236.4,396.5z" style="fill:#F2F2F2;"/>
        <path d="M229.2,368.5l0.1,13.9l6.6,13.8h-6.6l0,5.8l9.2,0l4.3,9.9l7,0.1L229.2,368.5L229.2,368.5z"
              style="fill:#B3B3B3;"/>
			</g>
		</g>
    <g id="nodejs">
			<path d="M171.9,436.4h-66.1c-3.9,0-7-3.1-7-7v-66.1c0-3.9,3.1-7,7-7h66.1c3.9,0,7,3.1,7,7v66.1
				C178.9,433.3,175.7,436.4,171.9,436.4z" style="fill:#FFFFFF;"/>
      <g>
				<path d="M136.1,363.8c1.6-0.9,3.8-0.9,5.4,0c8.3,4.7,16.6,9.4,24.9,14.1c1.6,0.9,2.6,2.6,2.6,4.4v28.2
					c0,1.9-1.1,3.6-2.8,4.5c-8.3,4.7-16.5,9.3-24.8,14c-1.7,1-3.9,0.9-5.5-0.2c-2.5-1.4-5-2.9-7.4-4.3c-0.5-0.3-1.1-0.5-1.4-1
					c0.3-0.4,0.9-0.5,1.3-0.7c1-0.3,2-0.9,2.9-1.4c0.2-0.2,0.5-0.1,0.8,0c2.1,1.2,4.2,2.5,6.3,3.7c0.5,0.3,0.9-0.1,1.3-0.3
					c8.1-4.6,16.2-9.2,24.3-13.7c0.3-0.1,0.5-0.5,0.4-0.8c0-9.3,0-18.6,0-27.9c0-0.4-0.2-0.7-0.5-0.9c-8.2-4.6-16.5-9.3-24.7-13.9
					c-0.3-0.2-0.7-0.2-1,0c-8.2,4.6-16.5,9.3-24.7,13.9c-0.3,0.2-0.6,0.5-0.5,0.9c0,9.3,0,18.6,0,27.9c0,0.3,0.1,0.6,0.4,0.8
					c2.2,1.2,4.4,2.5,6.6,3.7c1.2,0.7,2.8,1.1,4.1,0.6c1.2-0.4,2-1.7,2-2.9c0-9.2,0-18.5,0-27.7c0-0.4,0.4-0.7,0.8-0.7
					c1.1,0,2.1,0,3.2,0c0.4,0,0.7,0.4,0.7,0.8c0,9.3,0,18.6,0,27.9c0,2.5-1,5.2-3.3,6.4c-2.8,1.5-6.3,1.2-9.1-0.3
					c-2.4-1.2-4.7-2.6-7.1-3.9c-1.6-0.9-2.8-2.6-2.8-4.5v-28.2c0-1.8,1.1-3.6,2.7-4.5C119.6,373.2,127.8,368.5,136.1,363.8z"
              style="fill:#8CC84B;"/>
        <path d="M143.3,383.4c3.6-0.2,7.5-0.1,10.7,1.6c2.5,1.4,3.9,4.2,3.9,7c-0.1,0.4-0.5,0.6-0.8,0.6
					c-1,0-2.1,0-3.1,0c-0.4,0-0.7-0.4-0.8-0.8c-0.3-1.3-1-2.7-2.3-3.3c-1.9-1-4.2-0.9-6.3-0.9c-1.5,0.1-3.2,0.2-4.5,1.1
					c-1,0.7-1.3,2.1-0.9,3.2c0.3,0.8,1.3,1.1,2,1.3c4.3,1.1,8.9,1,13.2,2.5c1.8,0.6,3.5,1.8,4.1,3.6c0.8,2.5,0.4,5.4-1.3,7.4
					c-1.4,1.6-3.5,2.5-5.6,3c-2.8,0.6-5.6,0.6-8.4,0.4c-2.6-0.3-5.4-1-7.4-2.8c-1.7-1.5-2.6-3.9-2.5-6.1c0-0.4,0.4-0.7,0.8-0.6
					c1.1,0,2.1,0,3.2,0c0.4,0,0.7,0.3,0.8,0.7c0.2,1.3,0.7,2.6,1.8,3.4c2.1,1.4,4.8,1.3,7.3,1.3c2-0.1,4.3-0.1,6-1.5
					c0.9-0.8,1.1-2,0.9-3.1c-0.3-0.9-1.2-1.4-2.1-1.6c-4.3-1.4-8.9-0.9-13.2-2.4c-1.7-0.6-3.4-1.8-4.1-3.5c-0.9-2.5-0.5-5.6,1.4-7.5
					C138,384.4,140.7,383.6,143.3,383.4L143.3,383.4z" style="fill:#8CC84B;"/>
			</g>
		</g>
    <g id="js-more-global">
			<path d="M448.1,436.4H382c-3.9,0-7-3.1-7-7v-66.1c0-3.9,3.1-7,7-7h66.1c3.9,0,7,3.1,7,7v66.1
				C455.1,433.3,452,436.4,448.1,436.4z" id="js-more" style="fill:#FFFFFF;"/>
      <g id="js-more-dash">
				<circle cx="393.6" cy="396.4" id="js-more-dash-1" r="6.9" style="fill:#E74C3C;"/>
        <circle cx="415" cy="396.4" id="js-more-dash-2" r="6.9" style="fill:#E74C3C;"/>
        <circle cx="436.5" cy="396.4" id="js-more-dash-3" r="6.9" style="fill:#E74C3C;"/>
			</g>
		</g>
    <g id="python-more-global">
			<path d="M353,529.5H287c-3.9,0-7-3.1-7-7v-66.1c0-3.9,3.1-7,7-7H353c3.9,0,7,3.1,7,7
				v66.1C360,526.4,356.9,529.5,353,529.5z" id="python-more" style="fill:#FFFFFF;"/>
      <g id="python-more-dash">
				<circle cx="298.6" cy="491.3" id="python-more-dash-1" r="6.9" style="fill:#E74C3C;"/>
        <circle cx="320" cy="491.3" id="python-more-dash-2" r="6.9" style="fill:#E74C3C;"/>
        <circle cx="341.4" cy="491.3" id="python-more-dash-3" r="6.9" style="fill:#E74C3C;"/>
			</g>
		</g>
	</g>
</g>
  <g id="Calque_5">

		<text style="fill:#FFFFFF; font-family:'Montserrat-Regular'; font-size:39.4199px;"
          transform="matrix(1 0 0 1 82.8499 -13.3312)">Development:</text>
</g>
  <g id="computer">
	<g id="screen">

			<radialGradient cx="784.4728" cy="81.9285"
                      gradientTransform="matrix(-0.8963 -0.4435 6.851944e-002 -0.1385 1488.77 501.6452)"
                      gradientUnits="userSpaceOnUse"
                      id="light-laptop_1_"
                      r="174.6276">
			<stop offset="0.2674" style="stop-color:#FFFFFF"/>
        <stop offset="1" style="stop-color:#FFFFFF;stop-opacity:0"/>
		</radialGradient>
    <path d="M1009.3,250.3c-16.1,32.6-126.8,10.7-247.2-48.9
			S557.1,67.1,573.3,34.5s126.8-10.7,247.2,48.9S1025.4,217.7,1009.3,250.3z" id="light-laptop"
          style="opacity:0.61;fill:url(#light-laptop_1_);"/>
    <g>
			<path d="M824,169.3l-74-36.6c-4.7-2.3-6.7-8.1-4.4-12.9v0c2.3-4.7,8.1-6.7,12.9-4.4l74,36.6
				c4.7,2.3,6.7,8.1,4.4,12.9l0,0C834.6,169.7,828.8,171.6,824,169.3z" style="fill:#BFBFBF;"/>
      <path d="M815.7,139.9l-37.2-18.4c-7.4-3.7-10.5-12.7-6.8-20.1l2.3-4.7c3.7-7.4,12.7-10.5,20.1-6.8
				l37.2,18.4c7.4,3.7,10.5,12.7,6.8,20.1l-2.3,4.7C832.1,140.5,823.1,143.5,815.7,139.9z" style="fill:#6B6B70;"/>
      <path d="M825.9,105.7l-26.5-13.1c-7.4-3.7-16.4-0.6-20.1,6.8l-3.1,6.3c-3.7,7.4-0.6,16.4,6.8,20.1
				l26.5,13.1c7.4,3.7,16.4,0.6,20.1-6.8l3.1-6.3C836.4,118.4,833.3,109.3,825.9,105.7z" style="fill:#939393;"/>
      <g>

					<rect height="21.2" style="fill:#E8E3E3;" transform="matrix(0.8963 0.4435 -0.4435 0.8963 141.2959 -339.4242)"
                width="330.5" x="631" y="121.8"/>
        <path d="M949.1,196.1l-148.5-72.6l-147.8-74c0,0,88.1,28.9,116.6,40.9c19.2,8.1,56.8,26.5,74.8,37
					C871.3,143.3,949.1,196.1,949.1,196.1z" style="fill:#6B6B70;"/>
			</g>
		</g>
	</g>

    <rect height="76.9" style="fill:#F2F2F2;" transform="matrix(0.974 0.2266 -0.2266 0.974 86.4873 -158.8133)"
          width="239.6"
          x="615.3" y="258.9"/>
    <g id="clavier">

			<rect height="10.8" style="fill:#D3D4DD;" transform="matrix(0.974 0.2266 -0.2266 0.974 72.2363 -137.357)"
            width="9.5"
            x="629.7" y="240.6"/>

      <rect height="10.8" style="fill:#D3D4DD;" transform="matrix(0.974 0.2266 -0.2266 0.974 73.5047 -140.9104)"
            width="9.5"
            x="645.8" y="244.3"/>

      <rect height="10.8" style="fill:#D3D4DD;" transform="matrix(0.974 0.2266 -0.2266 0.974 74.773 -144.4638)"
            width="9.5"
            x="661.9" y="248.1"/>

      <rect height="10.8" style="fill:#D3D4DD;" transform="matrix(0.974 0.2266 -0.2266 0.974 78.5781 -155.124)"
            width="9.5"
            x="710.3" y="259.3"/>

      <rect height="10.8" style="fill:#D3D4DD;" transform="matrix(0.974 0.2266 -0.2266 0.974 77.3097 -151.5706)"
            width="9.5"
            x="694.1" y="255.6"/>

      <rect height="10.8" style="fill:#D3D4DD;" transform="matrix(0.974 0.2266 -0.2266 0.974 82.3832 -165.7843)"
            width="9.5"
            x="758.6" y="270.6"/>

      <rect height="10.8" style="fill:#D3D4DD;" transform="matrix(0.974 0.2266 -0.2266 0.974 79.8464 -158.6774)"
            width="9.5"
            x="726.4" y="263.1"/>

      <rect height="10.8" style="fill:#D3D4DD;" transform="matrix(0.974 0.2266 -0.2266 0.974 84.9199 -172.8911)"
            width="9.5"
            x="790.8" y="278.1"/>

      <rect height="10.8" style="fill:#D3D4DD;" transform="matrix(0.974 0.2266 -0.2266 0.974 87.4566 -179.9979)"
            width="9.5"
            x="823" y="285.6"/>

      <rect height="10.8" style="fill:#D3D4DD;" transform="matrix(0.974 0.2266 -0.2266 0.974 83.6515 -169.3377)"
            width="9.5"
            x="774.7" y="274.3"/>

      <rect height="10.8" style="fill:#D3D4DD;" transform="matrix(0.974 0.2266 -0.2266 0.974 81.1148 -162.2309)"
            width="9.5"
            x="742.5" y="266.8"/>

      <rect height="10.8" style="fill:#D3D4DD;" transform="matrix(0.974 0.2266 -0.2266 0.974 86.1882 -176.4445)"
            width="9.5"
            x="806.9" y="281.8"/>

      <rect height="10.8" style="fill:#D3D4DD;" transform="matrix(0.974 0.2266 -0.2266 0.974 88.7789 -183.7024)"
            width="16.5"
            x="836.4" y="289.5"/>

      <rect height="10.8" style="fill:#D3D4DD;" transform="matrix(0.974 0.2266 -0.2266 0.974 76.0414 -148.0172)"
            width="9.5"
            x="678" y="251.8"/>

      <rect height="10.8" style="fill:#D3D4DD;" transform="matrix(0.974 0.2266 -0.2266 0.974 81.2153 -134.152)"
            width="9.5"
            x="620.2" y="281.3"/>

      <rect height="10.8" style="fill:#D3D4DD;" transform="matrix(0.974 0.2266 -0.2266 0.974 82.4531 -137.62)"
            width="9.5"
            x="635.9" y="284.9"/>

      <rect height="10.8" style="fill:#D3D4DD;" transform="matrix(0.974 0.2266 -0.2266 0.974 83.691 -141.088)"
            width="9.5"
            x="651.7" y="288.6"/>

      <rect height="10.8" style="fill:#D3D4DD;" transform="matrix(0.974 0.2266 -0.2266 0.974 87.4045 -151.4918)"
            width="9.5"
            x="698.8" y="299.6"/>

      <rect height="10.8" style="fill:#D3D4DD;" transform="matrix(0.974 0.2266 -0.2266 0.974 86.1667 -148.0239)"
            width="9.5"
            x="683.1" y="295.9"/>

      <rect height="10.8" style="fill:#D3D4DD;" transform="matrix(0.974 0.2266 -0.2266 0.974 91.1181 -161.8957)"
            width="9.5"
            x="746" y="310.6"/>

      <rect height="10.8" style="fill:#D3D4DD;" transform="matrix(0.974 0.2266 -0.2266 0.974 88.6424 -154.9598)"
            width="9.5"
            x="714.6" y="303.2"/>

      <rect height="10.8" style="fill:#D3D4DD;" transform="matrix(0.974 0.2266 -0.2266 0.974 93.5938 -168.8317)"
            width="9.5"
            x="777.5" y="317.9"/>

      <rect height="10.8" style="fill:#D3D4DD;" transform="matrix(0.974 0.2266 -0.2266 0.974 96.0695 -175.7676)"
            width="9.5"
            x="808.9" y="325.2"/>

      <rect height="10.8" style="fill:#D3D4DD;" transform="matrix(0.974 0.2266 -0.2266 0.974 97.595 -180.0413)"
            width="20.7"
            x="822.7" y="329.7"/>

      <rect height="10.8" style="fill:#D3D4DD;" transform="matrix(0.974 0.2266 -0.2266 0.974 92.356 -165.3637)"
            width="9.5"
            x="761.7" y="314.2"/>

      <rect height="10.8" style="fill:#D3D4DD;" transform="matrix(0.974 0.2266 -0.2266 0.974 89.8803 -158.4278)"
            width="9.5"
            x="730.3" y="306.9"/>

      <rect height="10.8" style="fill:#D3D4DD;" transform="matrix(0.974 0.2266 -0.2266 0.974 94.8317 -172.2996)"
            width="9.5"
            x="793.2" y="321.5"/>

      <rect height="10.8" style="fill:#D3D4DD;" transform="matrix(0.974 0.2266 -0.2266 0.974 84.9288 -144.5559)"
            width="9.5"
            x="667.4" y="292.3"/>

      <rect height="10.8" style="fill:#D3D4DD;" transform="matrix(0.974 0.2266 -0.2266 0.974 75.4046 -136.7798)"
            width="14.1"
            x="626.5" y="254.7"/>

      <rect height="10.8" style="fill:#D3D4DD;" transform="matrix(0.974 0.2266 -0.2266 0.974 76.7095 -140.4356)"
            width="9.5"
            x="645.3" y="258.5"/>

      <rect height="10.8" style="fill:#D3D4DD;" transform="matrix(0.974 0.2266 -0.2266 0.974 77.9818 -144)" width="9.5"
            x="661.5" y="262.3"/>

      <rect height="10.8" style="fill:#D3D4DD;" transform="matrix(0.974 0.2266 -0.2266 0.974 81.7986 -154.6931)"
            width="9.5"
            x="710" y="273.6"/>

      <rect height="10.8" style="fill:#D3D4DD;" transform="matrix(0.974 0.2266 -0.2266 0.974 80.5263 -151.1287)"
            width="9.5"
            x="693.8" y="269.8"/>

      <rect height="10.8" style="fill:#D3D4DD;" transform="matrix(0.974 0.2266 -0.2266 0.974 85.6154 -165.3862)"
            width="9.5"
            x="758.5" y="284.8"/>

      <rect height="10.8" style="fill:#D3D4DD;" transform="matrix(0.974 0.2266 -0.2266 0.974 83.0708 -158.2575)"
            width="9.5"
            x="726.1" y="277.3"/>

      <rect height="10.8" style="fill:#D3D4DD;" transform="matrix(0.974 0.2266 -0.2266 0.974 88.1599 -172.5149)"
            width="9.5"
            x="790.8" y="292.4"/>

      <rect height="10.8" style="fill:#D3D4DD;" transform="matrix(0.974 0.2266 -0.2266 0.974 90.7045 -179.6437)"
            width="9.5"
            x="823.1" y="299.9"/>

      <rect height="10.8" style="fill:#D3D4DD;" transform="matrix(0.974 0.2266 -0.2266 0.974 86.8876 -168.9506)"
            width="9.5"
            x="774.6" y="288.6"/>

      <rect height="10.8" style="fill:#D3D4DD;" transform="matrix(0.974 0.2266 -0.2266 0.974 84.3431 -161.8218)"
            width="9.5"
            x="742.3" y="281.1"/>

      <rect height="10.8" style="fill:#D3D4DD;" transform="matrix(0.974 0.2266 -0.2266 0.974 89.4322 -176.0793)"
            width="9.5"
            x="807" y="296.1"/>

      <rect height="10.8" style="fill:#D3D4DD;" transform="matrix(0.974 0.2266 -0.2266 0.974 79.254 -147.5644)"
            width="9.5"
            x="677.7" y="266"/>
      <polygon points="838.4,301.9 836,312.5 839,313.2 835.8,327 845.1,329.2 848.3,315.3 848.9,312.8
			850.8,304.8 		" style="fill:#D3D4DD;"/>

      <rect height="10.8" style="fill:#D3D4DD;" transform="matrix(0.974 0.2266 -0.2266 0.974 78.2843 -135.3941)"
            width="11.2"
            x="623.3" y="267.9"/>

      <rect height="10.8" style="fill:#D3D4DD;" transform="matrix(0.974 0.2266 -0.2266 0.974 79.4351 -138.6183)"
            width="9.5"
            x="638.8" y="271.3"/>

      <rect height="10.8" style="fill:#D3D4DD;" transform="matrix(0.974 0.2266 -0.2266 0.974 80.648 -142.0162)"
            width="9.5"
            x="654.2" y="274.9"/>

      <rect height="10.8" style="fill:#D3D4DD;" transform="matrix(0.974 0.2266 -0.2266 0.974 84.2865 -152.2099)"
            width="9.5"
            x="700.4" y="285.6"/>

      <rect height="10.8" style="fill:#D3D4DD;" transform="matrix(0.974 0.2266 -0.2266 0.974 83.0737 -148.812)"
            width="9.5"
            x="685" y="282.1"/>

      <rect height="10.8" style="fill:#D3D4DD;" transform="matrix(0.974 0.2266 -0.2266 0.974 87.9251 -162.4036)"
            width="9.5"
            x="746.6" y="296.4"/>

      <rect height="10.8" style="fill:#D3D4DD;" transform="matrix(0.974 0.2266 -0.2266 0.974 85.4994 -155.6078)"
            width="9.5"
            x="715.8" y="289.2"/>

      <rect height="10.8" style="fill:#D3D4DD;" transform="matrix(0.974 0.2266 -0.2266 0.974 90.3508 -169.1995)"
            width="9.5"
            x="777.5" y="303.6"/>

      <rect height="10.8" style="fill:#D3D4DD;" transform="matrix(0.974 0.2266 -0.2266 0.974 92.7765 -175.9953)"
            width="9.5"
            x="808.3" y="310.7"/>

      <rect height="10.8" style="fill:#D3D4DD;" transform="matrix(0.974 0.2266 -0.2266 0.974 93.9894 -179.3932)"
            width="9.5"
            x="823.7" y="314.3"/>

      <rect height="10.8" style="fill:#D3D4DD;" transform="matrix(0.974 0.2266 -0.2266 0.974 89.138 -165.8016)"
            width="9.5"
            x="762" y="300"/>

      <rect height="10.8" style="fill:#D3D4DD;" transform="matrix(0.974 0.2266 -0.2266 0.974 86.7122 -159.0057)"
            width="9.5"
            x="731.2" y="292.8"/>

      <rect height="10.8" style="fill:#D3D4DD;" transform="matrix(0.974 0.2266 -0.2266 0.974 91.5637 -172.5974)"
            width="9.5"
            x="792.9" y="307.1"/>

      <rect height="10.8" style="fill:#D3D4DD;" transform="matrix(0.974 0.2266 -0.2266 0.974 81.8608 -145.4141)"
            width="9.5"
            x="669.6" y="278.5"/>

      <rect height="10.8" style="fill:#D3D4DD;" transform="matrix(0.974 0.2266 -0.2266 0.974 84.2082 -133.0837)"
            width="9.5"
            x="617.1" y="294.9"/>

      <rect height="10.8" style="fill:#D3D4DD;" transform="matrix(0.974 0.2266 -0.2266 0.974 85.5011 -136.7058)"
            width="9.5"
            x="633.5" y="298.7"/>

      <rect height="10.8" style="fill:#D3D4DD;" transform="matrix(0.974 0.2266 -0.2266 0.974 86.794 -140.3279)"
            width="9.5"
            x="649.9" y="302.5"/>

      <rect height="10.8" style="fill:#D3D4DD;" transform="matrix(0.974 0.2266 -0.2266 0.974 91.8829 -154.585)"
            width="112.9"
            x="662.9" y="317.5"/>

      <rect height="10.8" style="fill:#D3D4DD;" transform="matrix(0.974 0.2266 -0.2266 0.974 97.1369 -169.3044)"
            width="9.5"
            x="781.3" y="333.1"/>

      <rect height="10.8" style="fill:#D3D4DD;" transform="matrix(0.974 0.2266 -0.2266 0.974 99.7226 -176.5486)"
            width="9.5"
            x="814.2" y="340.7"/>

      <rect height="10.8" style="fill:#D3D4DD;" transform="matrix(0.974 0.2266 -0.2266 0.974 98.4298 -172.9265)"
            width="9.5"
            x="797.7" y="336.9"/>

      <rect height="10.8" style="fill:#D3D4DD;" transform="matrix(0.974 0.2266 -0.2266 0.974 101.0155 -180.1707)"
            width="9.5"
            x="830.6" y="344.5"/>
	</g>
    <g id="mouse">
		<path d="M914.4,379.2c-0.2-1.4-0.5-2.8-0.9-4.2c-0.4-1.5-0.8-2.9-1-4.5c-0.1-0.8-0.2-1.6-0.3-2.4
			c-0.1-0.9-0.2-1.7-0.2-2.6c-0.1-0.8-0.1-1.6-0.1-2.3c-0.1-1.1-0.2-2.2-0.2-3.3c-0.1-1-0.2-2-0.3-3c-0.2-1.3-0.6-2.6-0.9-4
			c-0.2-0.8-0.3-1.5-0.6-2.3c-0.4-0.9-0.8-1.8-1.4-2.5c-0.2-0.2-0.4-0.4-0.7-0.5c0.2,0.4,0.3,0.8,0.5,1.3c0.6,1.7,1.1,3.5,1.4,5.3
			c-0.3-1.8-0.8-3.6-1.4-5.3c-0.1-0.4-0.3-0.8-0.5-1.3c-0.2-0.2-0.4-0.5-0.6-0.6c-1.1-0.8-2.4-1.5-3.7-2c-1.1-0.4-2.2-0.7-3.4-0.9
			c-0.7-0.1-1.4-0.2-2.1-0.2c0.1,0.6,0.3,1.1,0.4,1.7c0.3,1.3,0.6,2.6,0.8,3.9c0.2,1,0.3,1.9,0.4,2.9c0.1,0.6,0.1,1.2,0.2,1.8
			c0.1,1.1,0.1,2.2,0.1,3.4c0,1.4-0.1,2.9-0.2,4.3c-0.1,1.3-0.3,2.6-0.6,3.9c-0.3,1.2-0.5,2.3-0.9,3.4c0,0.1-0.1,0.2-0.2,0.4
			c-0.1,0.1-0.1,0.3,0,0.4h0c-0.2,0.2-0.4,0.4-0.5,0.6c-0.2,0.3-0.4,0.6-0.7,0.8c-0.6,0.6-1.8,0.6-2.4,0c-0.4-0.4-0.6-0.8-1-1.2
			c-0.1-0.1-0.1-0.1-0.2-0.2c0,0-0.1,0-0.1,0c0,0,0.1,0,0.1,0c0.1-0.1,0.1-0.3,0-0.4c-0.5-1-0.7-2-0.9-3.1c-0.3-1.2-0.5-2.4-0.7-3.7
			c-0.1-0.8-0.2-1.5-0.2-2.3c-0.2-1.6-0.1-3.1-0.1-4.7c0-1,0.1-2,0.2-3c0.1-0.7,0.2-1.5,0.3-2.2c0.1-0.9,0.3-1.8,0.5-2.7
			c0.2-1.3,0.5-2.6,0.9-3.8c0,0,0-0.1,0-0.2c-0.5,0-1,0.1-1.5,0.2c-0.8,0.1-1.6,0.3-2.4,0.5c-1.5,0.4-3,1.1-4.4,1.9
			c-0.5,0.3-1,0.7-1.4,1.2c0,0.4-0.3,0.7-0.4,1c-0.5,1.5-0.9,3-1.3,4.5c-0.2,1-0.3,2.1-0.5,3.1c-0.1,0.6-0.1,1.3-0.1,1.9
			c-0.1,1-0.1,1.9-0.1,2.9c0,0.8,0.1,1.7,0.1,2.5c0,0.6,0.1,1.1,0.1,1.7c0,0.8,0.1,1.6,0.2,2.5c0,0,0,0,0,0
			c-0.1-0.8-0.1-1.6-0.2-2.5c0-0.6-0.1-1.1-0.1-1.7c-0.1-0.8-0.1-1.7-0.1-2.5c0-1,0-1.9,0.1-2.9c0.1-0.6,0.1-1.3,0.1-1.9
			c0.1-1,0.3-2.1,0.5-3.1c0.3-1.5,0.7-3,1.3-4.5c0.1-0.3,0.4-0.7,0.4-1c-0.2,0.1-0.4,0.3-0.6,0.5c-0.6,0.7-0.9,1.5-1.4,2.3
			c-0.1,0.3-0.3,0.6-0.3,0.9c-0.1,0.6-0.3,1.3-0.5,1.9c-0.7,2.7-1.2,5.4-1.3,8.2c-0.1,1.3-0.2,2.7-0.2,4c-0.1,1.6-0.3,3.3-0.5,4.9
			c-0.2,1.5-0.5,2.9-0.9,4.3c-0.7,2.4-1.2,4.8-1.3,7.2c0,1.1,0,2.2,0,3.2c0.1,1.4,0.2,2.8,0.5,4.1c0.3,1.7,0.8,3.3,1.6,4.9
			c0.5,1,1.1,1.9,1.7,2.9c0.1,0.2,0.2,0.5,0.5,0.5c0-0.1,0-0.1,0-0.2c0,0.1,0,0.1,0,0.2c0,0.1,0.1,0.2,0.1,0.2
			c0.4,0.6,0.8,1.1,1.4,1.6c0.9,0.8,1.8,1.5,2.9,2c2.7,1.5,5.6,2.1,8.7,2.2c2.3,0.1,4.6,0.1,6.9-0.4c1.5-0.3,3-0.7,4.4-1.3
			c1.3-0.6,2.5-1.4,3.7-2.3c0.7-0.6,1.3-1.2,1.8-2.1c0,0,0,0,0,0c0,0,0,0,0,0c0,0,0,0,0,0c0.3-0.2,0.5-0.5,0.7-0.8
			c1-1.4,1.8-2.9,2.3-4.5c0.9-2.5,1.2-5.1,1.3-7.7C914.7,382.6,914.7,380.9,914.4,379.2z M881.5,370.6c0,0.4,0.1,0.8,0.1,1.1
			c0,0.1,0,0.2,0,0.2c0-0.1,0-0.2,0-0.2C881.6,371.4,881.6,371,881.5,370.6c-0.1-0.9-0.2-1.9-0.2-2.8c0,0,0,0,0,0
			C881.4,368.8,881.5,369.7,881.5,370.6z M881.7,389.4c-0.3,1.8-0.6,3.5-1.2,5.2c-0.2,0.6-0.3,1.1-0.2,1.7c-0.1-0.6,0-1.2,0.2-1.7
			C881.1,392.9,881.5,391.1,881.7,389.4c0.2-1.6,0.3-3.2,0.4-4.8c0-0.1,0-0.2,0-0.2c0,0.1,0,0.2,0,0.3
			C882,386.2,881.9,387.8,881.7,389.4z M909.1,389.7C909.1,389.7,909.1,389.7,909.1,389.7c0.2,1.5,0.5,2.9,0.9,4.3
			c0.1,0.5,0.3,1,0.4,1.5c-0.1-0.5-0.2-1-0.4-1.5C909.6,392.6,909.3,391.1,909.1,389.7z" style="fill:#FFFFFF;"/>
      <path d="M881,356.1c0.1-1,0.3-2.1,0.5-3.1c0.3-1.5,0.7-3,1.3-4.5c0.1-0.3,0.4-0.7,0.4-1
			c-0.2,0.1-0.4,0.3-0.6,0.5c-0.6,0.7-0.9,1.5-1.4,2.3c-0.1,0.3-0.3,0.6-0.3,0.9c-0.1,0.6-0.3,1.3-0.5,1.9c-0.7,2.7-1.2,5.4-1.3,8.2
			c-0.1,1.3-0.2,2.7-0.2,4c-0.1,1.6-0.3,3.3-0.5,4.9c-0.2,1.5-0.5,2.9-0.9,4.3c-0.7,2.4-1.2,4.8-1.3,7.2c0,1.1,0,2.2,0,3.2
			c0.1,1.4,0.2,2.8,0.5,4.1c0.3,1.7,0.8,3.3,1.6,4.9c0.5,1,1.1,1.9,1.7,2.9c0.1,0.2,0.2,0.5,0.5,0.5c0-0.1,0-0.2,0-0.3
			c-0.3-0.8-0.2-1.5,0.1-2.3c0.5-1.7,0.9-3.5,1.2-5.2c0.2-1.6,0.3-3.2,0.4-4.8c0-1.3,0.1-2.6,0-3.9c-0.1-1.3-0.4-7.7-0.5-9
			c0-0.4,0-0.8-0.1-1.1c-0.1-0.9-0.2-1.8-0.2-2.8c-0.1-0.1-0.1-0.2-0.1-0.3c-0.1-0.8-0.1-1.6-0.2-2.5c0-0.6-0.1-1.1-0.1-1.7
			c-0.1-0.8-0.1-1.7-0.1-2.5c0-1,0-1.9,0.1-2.9C880.9,357.4,880.9,356.7,881,356.1z" style="fill:#D3D4DD;"/>
      <path d="M909.4,367.9c0.2-0.2,0.2-0.5,0.2-0.7c0-0.5,0.1-1,0.1-1.5c0.1-1,0.2-2.1,0.2-3.1c0,0,0-0.1,0-0.1
			c0-1.2,0.1-2.3,0.1-3.5c-0.1-1-0.1-2.1-0.2-3.1c-0.3-2.4-0.8-4.8-1.6-7.1c-0.1-0.4-0.3-0.8-0.5-1.3c0.3,0.1,0.5,0.3,0.7,0.5
			c0.6,0.8,1.1,1.6,1.4,2.5c0.3,0.7,0.4,1.5,0.6,2.3c0.3,1.3,0.7,2.6,0.9,4c0.2,1,0.3,2,0.3,3c0.1,1.1,0.2,2.2,0.2,3.3
			c0.1,0.8,0.1,1.6,0.1,2.3c0.1,0.9,0.1,1.7,0.2,2.6c0.1,0.8,0.2,1.6,0.3,2.4c0.2,1.5,0.6,3,1,4.5c0.4,1.4,0.7,2.8,0.9,4.2
			c0.2,1.7,0.3,3.4,0.2,5.1c-0.1,2.6-0.4,5.2-1.3,7.7c-0.6,1.6-1.3,3.1-2.3,4.5c-0.2,0.3-0.4,0.6-0.7,0.8c0,0,0,0,0,0c0,0,0,0,0,0
			c0-0.4,0.2-0.8,0.2-1.2c0-0.7-0.2-1.4-0.4-2.1c-0.4-1.4-0.7-2.9-0.9-4.4c-0.2-1.5-0.3-3.1-0.4-4.6c-0.1-1.3,0-2.6,0-3.9
			c0-1,0.1-2.1,0.1-3.1c0-1.1,0.1-2.3,0.2-3.4c0.1-1.3,0.2-2.6,0.2-3.8C909.3,369.8,909.4,368.8,909.4,367.9z"
            style="fill:#D3D4DD;"/>
      <path d="M897.9,343.8c0.1,0.6,0.3,1.1,0.4,1.7c0.3,1.3,0.6,2.6,0.8,3.9c0.2,1,0.3,1.9,0.4,2.9
			c0.1,0.6,0.1,1.2,0.2,1.8c0.1,1.1,0.1,2.2,0.1,3.4c0,1.4-0.1,2.9-0.2,4.3c-0.1,1.3-0.3,2.6-0.6,3.9c-0.3,1.2-0.5,2.3-0.9,3.4
			c0,0.1-0.1,0.2-0.2,0.4c-0.1,0.1-0.1,0.3,0,0.4c-0.2,0.2-0.4,0.4-0.5,0.6c-0.2,0.3-0.4,0.6-0.7,0.8c-0.6,0.6-1.8,0.6-2.4,0
			c-0.4-0.4-0.6-0.8-1-1.2c-0.1-0.1-0.1-0.1-0.2-0.2c0.1-0.1,0.1-0.3,0-0.4c-0.5-1-0.7-2-0.9-3.1c-0.3-1.2-0.5-2.4-0.7-3.7
			c-0.1-0.8-0.2-1.5-0.2-2.3c-0.2-1.6-0.1-3.1-0.1-4.7c0-1,0.1-2,0.2-3c0.1-0.7,0.2-1.5,0.3-2.2c0.1-0.9,0.3-1.8,0.5-2.7
			c0.2-1.3,0.5-2.6,0.9-3.8c0,0,0-0.1,0-0.2C894.6,343.7,896.2,343.7,897.9,343.8z M893.2,355.2c0,1.1-0.1,2.4,0,3.6
			c0.1,1,0.7,1.8,1.6,2c0.3,0,0.6,0,0.9,0c0.6,0,1.1-0.3,1.4-0.8c0.4-0.6,0.5-1.2,0.5-1.8c0-1.3,0-2.6,0-3.9c0-1.1,0.1-2.1-0.1-3.2
			c-0.1-0.9-0.4-1.6-1.3-2c-0.3-0.1-0.6-0.1-0.9-0.1c-0.6,0-1.1,0.2-1.5,0.7c-0.5,0.6-0.6,1.3-0.6,2
			C893.2,352.8,893.2,353.9,893.2,355.2z" style="fill:#D3D4DD;"/>
      <path d="M893.2,355.2c0-1.3,0-2.4,0-3.5c0-0.7,0.1-1.4,0.6-2c0.4-0.5,0.9-0.7,1.5-0.7c0.3,0,0.6,0,0.9,0.1
			c0.9,0.4,1.2,1.1,1.3,2c0.1,1.1,0.1,2.1,0.1,3.2c0,1.3,0,2.6,0,3.9c0,0.6-0.1,1.3-0.5,1.8c-0.3,0.5-0.8,0.7-1.4,0.8
			c-0.3,0-0.6,0-0.9,0c-0.9-0.2-1.5-1-1.6-2C893.2,357.6,893.2,356.3,893.2,355.2z" style="fill:#F2F2F2;"/>
	</g>
</g>
  <g id="Calque_6">
	<g>
		<text style="fill:#FFFFFF; font-family:'Montserrat-Regular'; font-size:24px;"
          transform="matrix(1 0 0 1 78.5157 132.3431)">I’m passionate about programming.</text>
	</g>
    <g>
		<text style="fill:#FFFFFF; font-family:'Montserrat-Regular'; font-size:24px;"
          transform="matrix(1 0 0 1 78 176.2512)">I love discovering new technologies.</text>
	</g>
    <g id="more-code-love">
		<g id="text-love-code">
			<path d="M467,260.4c0,0,10.6,26.7,9,35.7c-1.9,10.6-23.7,34.7-23.7,34.7l-6.7-6.5l-5.1,29.1l26.3-14
				l-9.3-5.6c0,0,24.5-24.3,25.1-36.4C483.2,286.1,467,260.4,467,260.4" style="fill:#FFFFFF;"/>
      <g>
				<text style="fill:#FFFFFF; font-family:'Montserrat-Regular'; font-size:24px;"
              transform="matrix(1 0 0 1 77.244 251.8123)">I like this  languages and libraries</text>
			</g>
		</g>
	</g>
</g>
</svg>
