<?xml version="1.0" encoding="utf-8"?>
<svg style="enable-background:new 32 -104 1024 768;" version="1.1" viewBox="32 -104 1024 768" x="0px"
     xml:space="preserve" xmlns="http://www.w3.org/2000/svg" y="0px">
<g id="Calque_1">
	<g id="svg1">
		<g id="bg">
			<rect height="14784" style="fill:#44C650;" width="16291.8" x="-6333.6" y="-5441.3"/>
		</g>
	</g>
  <text style="enable-background:new    ;" transform="matrix(1 0 0 1 716.4636 -29.939)"><tspan style="fill:#FFFFFF; font-family:'Montserrat-Regular'; font-size:39.4199px;" x="0" y="0">Startup</tspan>
    <tspan style="fill:#FFFFFF; font-family:'Montserrat-Regular'; font-size:39.4199px;" x="0"
           y="47.3">and projects</tspan></text>
</g>
  <g id="path3">
	<path d="M597.7-104c1.6,70.3,34.2,181.4-30.7,234.3
		c-41.7,34-112.2,23-116.7-38.4C445.7,29.2,533.7-13,569.8,46.5c42.2,69.7-60.2,118.8-111.2,73.6C332.2,8.1,642.4-59.4,613.8,89.9
		c-10.3,54-87,82.3-129.5,102.6c-71.2,34-149.9,51.1-220.2,86.2C185,318.2,89.3,354.7,106,485.9c7.7,60.8,147.1,95.3,201.6,66.6
		c64.4-33.8,66.3-49.9,73.7-109.2c12.5-99.7,94.7-267.9,221.7-210.5C677.1,266.2,770.2,474,862,470c167-7.3,144-176.8,103.3-216
		C910.3,201,650.7,134,756,458.7C784,544.9,622,475,609,563c-12.4,83.9,131.3,98.6,65,149"
        style="fill:none;stroke:#DBDBDB;stroke-miterlimit:10;"/>
</g>
  <g id="helmet-3">
	<g>
		<circle cx="549" cy="363.5" r="116.8" style="fill:#3498DB;"/>
    <g>
			<g id="helmet">
				<g>
					<path d="M581.6,298.5l-6.8,1.2l-19.6,5.7l-23,10.8c-0.2,0.1-0.3,0.1-0.4,0.2l-0.7,0.3l0,0
						c-2.3,1.1-4.4,2.5-6.5,4.1c-22.2,17.2-34.8,41.6-19.3,69.6l0,0l0,0l0,0l0,0c15.6,28,42.9,30.2,69.3,20.5c2.5-0.9,4.8-2,6.9-3.4
						l0,0l0.6-0.4c0.1-0.1,0.3-0.2,0.4-0.3l21.3-13.8l15.2-13.6l4.7-5.1c16.7-16.8,13.6-31,2.5-51
						C615.1,303.3,604.7,293.2,581.6,298.5z M571.3,319L571.3,319L571.3,319L571.3,319L571.3,319z M603.7,374.2L603.7,374.2
						C603.7,374.2,603.6,374.1,603.7,374.2L603.7,374.2L603.7,374.2z" style="fill:#FDEF2C;"/>
          <path d="M610,332.5c12.2,24.1,0.7,55.6-27.6,71.3c-28.4,15.7-62,9.4-75.1-14.3
						c-13.1-23.7-5-54.5,27.6-71.3C563.7,303.3,598.3,309.3,610,332.5z" style="fill:#FEE125;"/>
          <path d="M604,321.8c-0.8-1.5-5.9-6.5-9.5-4.9l-51,26.6c-0.4,0.2-0.8,0.5-1.2,0.7l-40.5,24
						c-0.4,0.2-0.7,0.6-0.8,1.1c-0.2,1.1-0.5,3.1,0.1,4.2l6.7,15.7l9.8,14c0.6,1.1,2.4,2,3.5,2.3c0.4,0.1,0.9,0.1,1.3-0.1l41.8-21.6
						c0.4-0.2,0.8-0.5,1.2-0.7l49.6-29.2c3.3-2.3,1.7-9.1,0.9-10.7l-6-10.7L604,321.8z" style="fill:#FDD803;"/>
          <path d="M610.5,333.6l-1.3-2.3l0,0c-1.2-2.2-7.5-14.7-9.1-13.3c-3.7,3.1-14.9,20.3-31.6,30.7l-5.6,3.1
						l0,0l-55.8,30.9c-2.2,1.2-3,4-1.8,6.1l0,0l1.3,2.3l0,0c1.2,2.2,4,3,6.1,1.8l55.8-30.9l0,0l5.6-3.1c17.7-8.7,38.1-9.1,42.7-10.6
						C619,347.7,611.8,335.8,610.5,333.6L610.5,333.6z" style="fill:#FCF3A2;"/>
          <path d="M568.2,314c-0.8-1.5-10.2,0.8-12,1.6c-29.1,13.8-29.9,17.1-42.3,24.1c-3.8,2.7-5.4,6.6-5,9.2
						c0.1,0.7,2.7,2,4.2,1.2l55.2-30.6c1.5-0.8,2-2.7,1.2-4.2L568.2,314z" style="fill:#FCF3A2;"/>
          <path d="M603.5,377.5c0.8,1.5-6,8.3-7.7,9.3c-27.1,17.4-30.3,16.3-42.9,23.2c-4.2,1.8-8.5,1.1-10.5-0.6
						c-0.6-0.5-0.3-3.4,1.2-4.2l55.2-30.6c1.5-0.8,3.4-0.3,4.2,1.2L603.5,377.5z" style="fill:#FCF3A2;"/>
				</g>
			</g>
		</g>
	</g>
    <g id="iot-helmet">
		<g>
			<path d="M507.5,390l-0.6-1.1c-1.2-2.2-0.7-5,1.2-6.6l-3.8-6.5l-8.6,5.1c-0.9,0.5-1.2,1.6-0.6,2.5l11,18.6
				c0.5,0.9,1.6,1.2,2.5,0.6l8.6-5.1l-3.1-5.3C511.6,393.2,508.8,392.3,507.5,390z" style="fill:#515148;"/>
		</g>
	</g>
    <g id="signal-helmet">
		<g>
			<path d="M470.3,413.1c-6.3-9.3-9-20.9-7.2-31.2c0.3-1.4,1.7-2.1,3-1.5c1.4,0.4,2.4,2.1,2.1,3.5
				c-1.4,8.7,0.9,18.5,6.2,26.3c4.4,6.5,10.7,11.6,17.6,14.1c0.6,0.2,1.3,0.6,1.7,1.2c1.1,1.5,0.5,3.8-1,4.3
				c-0.5,0.2-1.2,0.1-1.7-0.2C482.8,426.8,475.4,420.8,470.3,413.1z" style="fill:#FFFFFF;"/>
      <path d="M478.5,408.6c-5-7-7.2-16-5.8-23.8c0.3-1.3,1.7-1.9,2.9-1.5c1.4,0.3,2.4,1.9,2.2,3.3
				c-0.9,5,0,10.6,2.5,15.4c2.9,5.9,8.2,10.6,14,12.6c1.4,0.4,2.3,2.2,1.9,3.6c-0.2,1.3-1.5,2.2-2.8,1.8
				C487.7,418.1,482.3,414,478.5,408.6z" style="fill:#FFFFFF;"/>
      <path d="M485.8,402.8c-3.1-4.4-4.4-10.1-3.5-15c0.3-1.3,1.7-2,3-1.5c1.4,0.3,2.4,2,2.2,3.4
				c-0.5,2.8-0.1,5.9,1.4,8.6c1.6,3.1,4.3,5.5,7.4,6.5c0.8,0.2,1.6,0.8,1.9,1.6c1,1.9-0.4,4.4-2.4,3.9
				C491.9,409.1,488.3,406.4,485.8,402.8z" style="fill:#FFFFFF;"/>
		</g>
	</g>
</g>
  <g id="bim">
	<g>
		<circle cx="244.5" cy="435.7" r="116.8" style="fill:#FFC86E;"/>
    <g>
			<path d="M286.2,409.2h-1c-4.7-7.1-14.1-12.1-24.9-12.6c-5.2-9.1-15-15.3-26.3-15.3
				c-15.9,0-28.9,12.3-30.1,27.9h-1c-10.2,0-18.5,8.3-18.5,18.5v1.1c0,10.2,8.3,18.5,18.5,18.5h83.3c10.2,0,18.5-8.3,18.5-18.5v-1.1
				C304.7,417.5,296.4,409.2,286.2,409.2z" style="fill:#FFFFFE;"/>
      <path d="M271.2,418.3l-28.6-24.8l0,0c0,0,0,0-0.1-0.1l0,0c0,0,0,0,0,0c-0.1,0-0.1-0.1-0.2-0.1
				c0,0,0,0-0.1,0c0,0-0.1,0-0.1,0c0,0-0.1,0-0.1,0c0,0,0,0-0.1,0c-0.1,0-0.1,0.1-0.2,0.1c0,0,0,0,0,0l0,0c0,0-0.1,0-0.1,0.1l0,0
				l-12.1,10.5v-6.1c0-0.3-0.3-0.6-0.6-0.6h-3.4c-0.3,0-0.6,0.3-0.6,0.6v10c0,0,0,0,0,0l-12,10.4c-0.3,0.2-0.3,0.6-0.1,0.9l1.5,1.7
				c0.2,0.3,0.6,0.3,0.9,0.1l26.9-23.3l26.9,23.3c0.3,0.2,0.6,0.2,0.9-0.1l1.5-1.7C271.5,418.9,271.4,418.5,271.2,418.3z"
            style="fill:#FFC86E;"/>
      <path d="M266.3,440.1h-0.5v-19.7l-22.3-20.3c-0.7-0.6-1.8-0.6-2.5,0l-22.3,20.3v19.7h-1
				c-0.3,0-0.6,0.3-0.6,0.6v2.1c0,0.3,0.3,0.6,0.6,0.6h48.7c0.3,0,0.6-0.3,0.6-0.6v-2.1C266.9,440.4,266.6,440.1,266.3,440.1z
				 M241.6,431c0,0.3-0.3,0.6-0.6,0.6h-5.4c-0.3,0-0.6-0.3-0.6-0.6v-6.6c0-0.3,0.3-0.6,0.6-0.6h5.4c0.3,0,0.6,0.3,0.6,0.6V431z
				 M241.6,422.5c0,0.3-0.3,0.6-0.6,0.6h-5.4c-0.3,0-0.6-0.3-0.6-0.6v-6.6c0-0.3,0.3-0.6,0.6-0.6h5.4c0.3,0,0.6,0.3,0.6,0.6V422.5z
				 M249,431c0,0.3-0.3,0.6-0.6,0.6h-5.4c-0.3,0-0.6-0.3-0.6-0.6v-6.6c0-0.3,0.3-0.6,0.6-0.6h5.4c0.3,0,0.6,0.3,0.6,0.6V431z
				 M249,422.5c0,0.3-0.3,0.6-0.6,0.6h-5.4c-0.3,0-0.6-0.3-0.6-0.6v-6.6c0-0.3,0.3-0.6,0.6-0.6h5.4c0.3,0,0.6,0.3,0.6,0.6V422.5z"
            style="fill:#A3F290;"/>
		</g>
    <g>
			<path d="M286.9,345.2c5.4,0,10.8,0,16.2,0c0.2,0,0.4,0,0.6,0c0.9,0,0.9,0,0.9,0.9c0,7.7,0,15.4,0,23.1
				c0,0.1,0,0.1,0,0.2c0,0.9,0,0.9-1,0.9c-7,0-13.9,0-20.9,0c-4.1,0-8.2,0-12.3,0c-0.3,0-0.6,0-0.8,0c-0.5,0-0.6-0.1-0.6-0.6
				c0-0.2,0-0.4,0-0.6c0-7.6,0-15.1,0-22.7c0-0.3,0-0.6,0-0.8c0-0.3,0.2-0.4,0.4-0.4c0.3,0,0.6,0,1,0
				C275.9,345.2,281.4,345.2,286.9,345.2z M283,347.3c-3.6,0-7.1,0-10.7,0c-0.3,0-0.6,0-0.8,0c-0.2,0-0.2,0.1-0.3,0.3
				c0,0.1,0,0.3,0,0.4c0,5.4,0,10.9,0,16.3c0,0.2,0,0.4,0,0.5c0,0.1,0.1,0.2,0.2,0.2c0.2,0,0.5,0,0.7,0c7.2,0,14.4,0,21.6,0
				c0.2,0,0.4,0,0.6,0c0.2,0,0.3-0.1,0.3-0.3c0-0.2,0-0.4,0-0.5c0-5.4,0-10.7,0-16.1c0-0.2,0-0.4,0-0.5c0-0.2-0.1-0.3-0.3-0.3
				c-0.3,0-0.6,0-0.8,0C290.1,347.3,286.5,347.3,283,347.3z M299.5,351.8C299.5,351.8,299.5,351.7,299.5,351.8c0.9,0,1.8,0,2.6,0
				c0.2,0,0.4-0.1,0.4-0.4c0-0.6,0-1.1,0-1.7c0-0.5-0.1-0.6-0.6-0.6c-1.6,0-3.2,0-4.7,0c0,0-0.1,0-0.1,0c-0.4,0-0.6,0.2-0.6,0.6
				c0,0.5,0,1.1,0,1.6c0,0.4,0.2,0.6,0.6,0.6C297.9,351.8,298.7,351.8,299.5,351.8z" style="fill:#EFEFEF;"/>
      <path d="M283,347.3c3.5,0,7.1,0,10.6,0c0.3,0,0.6,0,0.8,0c0.2,0,0.3,0.1,0.3,0.3c0,0.2,0,0.4,0,0.5
				c0,5.4,0,10.7,0,16.1c0,0.2,0,0.4,0,0.5c0,0.2-0.1,0.3-0.3,0.3c-0.2,0-0.4,0-0.6,0c-7.2,0-14.4,0-21.6,0c-0.2,0-0.5,0-0.7,0
				c-0.1,0-0.2-0.1-0.2-0.2c0-0.2,0-0.4,0-0.5c0-5.4,0-10.9,0-16.3c0-0.1,0-0.3,0-0.4c0-0.2,0.1-0.3,0.3-0.3c0.3,0,0.6,0,0.8,0
				C275.8,347.3,279.4,347.3,283,347.3z M292.7,349c-0.3,0-0.6,0-0.8,0c-6.1,0-12.1,0-18.2,0c-0.2,0-0.4,0-0.5,0
				c-0.4,0-0.5,0.1-0.5,0.5c0,0.2,0,0.4,0,0.5c0,3.8,0,7.6,0,11.4c0,0.2,0,0.4,0,0.6c0,0.2,0.2,0.2,0.3,0.2c0.3-0.2,0.7-0.4,1-0.6
				c6-4,11.9-8,17.9-11.9C292.1,349.6,292.4,349.5,292.7,349z" style="fill:#020202;"/>
      <path d="M299.5,351.8c-0.8,0-1.6,0-2.4,0c-0.4,0-0.6-0.2-0.6-0.6c0-0.5,0-1.1,0-1.6c0-0.4,0.2-0.5,0.6-0.6
				c0,0,0.1,0,0.1,0c1.6,0,3.2,0,4.7,0c0.5,0,0.6,0.1,0.6,0.6c0,0.6,0,1.1,0,1.7c0,0.2-0.2,0.4-0.4,0.4
				C301.3,351.8,300.4,351.7,299.5,351.8C299.5,351.7,299.5,351.8,299.5,351.8z" style="fill:#A3F290;"/>
      <path d="M292.7,349c-0.3,0.4-0.6,0.6-0.8,0.7c-6,4-11.9,8-17.9,11.9c-0.3,0.2-0.7,0.4-1,0.6
				c-0.1,0.1-0.3,0-0.3-0.2c0-0.2,0-0.4,0-0.6c0-3.8,0-7.6,0-11.4c0-0.2,0-0.4,0-0.5c0-0.4,0.1-0.5,0.5-0.5c0.2,0,0.4,0,0.5,0
				c6.1,0,12.1,0,18.2,0C292.2,349,292.4,349,292.7,349z" style="fill:#5C6C6B;"/>
		</g>
    <g>
			<path d="M191.3,350.4c2.6,0,5.2,0,7.8,0c0.2,0,0.5,0,0.7,0c0.8,0,1.5,0.6,1.6,1.6c0,0.2,0,0.3,0,0.5
				c0,3.5,0,7.1,0,10.6c0,0.2,0,0.3,0,0.5c-0.1,0.9-0.7,1.5-1.6,1.6c-0.2,0-0.4,0-0.6,0c-5.3,0-10.5,0-15.8,0c-0.2,0-0.4,0-0.6,0
				c-0.9-0.1-1.5-0.7-1.5-1.6c0-0.1,0-0.3,0-0.4c0-3.6,0-7.1,0-10.7c0-0.2,0-0.4,0-0.5c0.1-0.8,0.7-1.4,1.5-1.5c0.2,0,0.5,0,0.7,0
				C186.1,350.4,188.7,350.4,191.3,350.4z M190.3,363.1c2.3,0,4.6,0,6.9,0c0.2,0,0.4,0,0.6,0c0.1,0,0.2-0.1,0.3-0.2
				c0-0.2,0-0.4,0-0.5c0-3.2,0-6.4,0-9.7c0-0.2,0-0.4,0-0.5c0-0.2-0.1-0.2-0.2-0.2c-0.2,0-0.3,0-0.5,0c-4.7,0-9.4,0-14.1,0
				c-0.8,0-0.7,0-0.7,0.7c0,3.3,0,6.6,0,9.8c0,0.2,0,0.3,0,0.5c0,0.1,0.1,0.2,0.2,0.2c0.2,0,0.4,0,0.6,0
				C185.7,363.1,188,363.1,190.3,363.1z M199.6,359.1c0.5,0,0.8-0.4,0.8-0.8c0-0.5-0.4-0.8-0.9-0.8c-0.4,0-0.8,0.4-0.8,0.9
				C198.7,358.8,199.1,359.1,199.6,359.1z" style="fill:#5C6C6B;"/>
      <path d="M190.3,363.1c-2.3,0-4.6,0-6.9,0c-0.2,0-0.4,0-0.6,0c-0.1,0-0.2-0.1-0.2-0.2c0-0.2,0-0.3,0-0.5
				c0-3.3,0-6.6,0-9.8c0-0.7,0-0.7,0.7-0.7c4.7,0,9.4,0,14.1,0c0.2,0,0.3,0,0.5,0c0.1,0,0.2,0.1,0.2,0.2c0,0.2,0,0.4,0,0.5
				c0,3.2,0,6.4,0,9.7c0,0.2,0,0.4,0,0.5c0,0.1-0.1,0.2-0.3,0.2c-0.2,0-0.4,0-0.6,0C194.9,363.1,192.6,363.1,190.3,363.1z"
            style="fill:#EFEFEF;"/>
      <path d="M199.6,359.1c-0.5,0-0.9-0.3-0.9-0.8c0-0.4,0.4-0.9,0.8-0.9c0.5,0,0.8,0.4,0.9,0.8
				C200.4,358.7,200.1,359.1,199.6,359.1z" style="fill:#EFEFEF;"/>
		</g>
    <g>
			<path d="M165.9,440h-27.7c-0.6,0-1-0.4-1-1v-38.9c0-0.6,0.4-1,1-1h27.7c0.6,0,1,0.4,1,1V439
				C166.9,439.6,166.5,440,165.9,440z" style="fill:#FFFFFE;"/>
      <g>
				<path d="M162.3,410h-20.4c-0.6,0-1-0.4-1-1v-4.4c0-0.6,0.4-1,1-1h20.4c0.6,0,1,0.4,1,1v4.4
					C163.3,409.5,162.8,410,162.3,410z" style="fill:#EFEFEF;"/>
        <path d="M148.6,407.6h-5.7c-0.6,0-1-0.4-1-1v-1.5c0-0.6,0.4-1,1-1h5.7c0.6,0,1,0.4,1,1v1.5
					C149.6,407.2,149.1,407.6,148.6,407.6z" style="fill:#A3F290;"/>
        <path d="M161.3,405.9h-7.5c-0.3,0-0.5-0.2-0.5-0.5l0,0c0-0.3,0.2-0.5,0.5-0.5h7.5c0.3,0,0.5,0.2,0.5,0.5
					l0,0C161.9,405.7,161.6,405.9,161.3,405.9z" style="fill:#FFFFFE;"/>
        <circle cx="154" cy="407.5" r="0.7" style="fill:#A3F290;"/>
        <circle cx="156.4" cy="407.5" r="0.7" style="fill:#A3F290;"/>
        <circle cx="158.8" cy="407.5" r="0.7" style="fill:#A3F290;"/>
        <circle cx="161.1" cy="407.5" r="0.7" style="fill:#FFC86E;"/>
			</g>
      <g>
				<g>
					<path d="M159.7,426.2c0-1.5,1.1-2.8,2.6-3.3c-1.4-4.2-5.3-7.3-10-7.3c-5.8,0-10.5,4.7-10.5,10.5
						s4.7,10.5,10.5,10.5c4.7,0,8.6-3.1,10-7.3C160.8,429,159.7,427.8,159.7,426.2z" style="fill:#FFFFFE;"/>
				</g>
        <path d="M162.4,429.5c-1.4,4.2-5.3,7.3-10,7.3
					c-5.8,0-10.5-4.7-10.5-10.5s4.7-10.5,10.5-10.5c4.7,0,8.6,3,10,7.3"
              style="fill:none;stroke:#5C6C6B;stroke-width:3;stroke-miterlimit:10;"/>
			</g>
		</g>
    <g>
			<path d="M328,406.5c1.6,2.2,4.9,2.2,6.5,0c0.8,0,1.4-0.3,1.8-1.1c0.2-0.5,0.1-0.9,0.1-1.4
				c0.5-0.2,0.9-0.4,0.8-1c-0.1-0.5-0.4-0.6-0.8-0.7c0-0.5,0-1.1,0-1.6c0.4-0.2,0.9-0.4,0.8-1c0-0.5-0.4-0.7-0.8-0.8
				c0-0.8,0.2-1.7,0.5-2.4c0.6-1.5,1.6-2.6,2.4-4c1.1-1.8,1.5-3.8,1.2-5.8c-0.8-5.8-6.9-9.8-12.8-7.5c-3.5,1.4-5.9,4.9-5.9,8.6
				c0,1.9,0.6,3.6,1.7,5.2c0.9,1.3,1.8,2.6,2.3,4.1c0.2,0.8,0.1,1.7,0.4,2.6c0,0.3,0,0.5,0,0.8c-0.5,0.2-0.9,0.4-0.8,1
				c0.1,0.5,0.4,0.6,0.8,0.7c0,0.5,0,1.1,0,1.6c-0.5,0.2-1,0.5-0.8,1.1c0.1,0.5,0.6,0.6,1.1,0.6C326.7,406.2,327.3,406.4,328,406.5z
				" style="fill:#FEFEFE;"/>
      <path d="M326.1,399.6c-0.2-0.8-0.1-1.7-0.4-2.6c-0.4-1.5-1.4-2.8-2.3-4.1c-1.1-1.6-1.7-3.3-1.7-5.2
				c0-3.7,2.5-7.2,5.9-8.6c5.9-2.4,11.9,1.6,12.8,7.5c0.3,2.1-0.1,4-1.2,5.8c-0.8,1.3-1.8,2.5-2.4,4c-0.3,0.8-0.5,1.6-0.5,2.4
				c-1.4,0.2-2.8,0.4-4.2,0.7c0-2.3,0-4.7,0-7c0-0.7,0.1-1.2,0.7-1.6c0.8-0.7,1.6-1.5,2.4-2.4c0.5-0.5,0.5-1,0.1-1.4
				c-0.4-0.3-0.9-0.2-1.4,0.2c-0.7,0.7-1.5,1.5-2.2,2.2c-0.3,0.3-0.5,0.3-0.8,0c-0.8-0.8-1.6-1.6-2.4-2.4c-0.4-0.4-0.8-0.4-1.2-0.1
				c-0.4,0.3-0.4,0.7-0.1,1.1c0.1,0.2,0.3,0.4,0.4,0.5c0.8,0.8,1.5,1.5,2.3,2.3c0.4,0.3,0.5,0.7,0.5,1.2c0,2.5,0,5,0,7.4
				C328.9,399.6,327.5,399.6,326.1,399.6z" style="fill:#F9EEDC;"/>
      <path d="M326.4,405.6c-0.5,0-0.9-0.1-1.1-0.6c-0.2-0.7,0.3-0.9,0.8-1.1c1.3-0.2,2.6-0.4,4-0.6
				c2.1-0.3,4.2-0.7,6.3-1c0.4,0.1,0.8,0.2,0.8,0.7c0.1,0.6-0.4,0.9-0.8,1c-1.2,0.2-2.4,0.4-3.5,0.5
				C330.7,404.8,328.5,405.2,326.4,405.6z" style="fill:#CAD4DB;"/>
      <path d="M332.1,399.4c1.4-0.2,2.8-0.4,4.2-0.7c0.4,0.1,0.8,0.3,0.8,0.8c0,0.6-0.4,0.8-0.8,1
				c-1.3,0.2-2.6,0.4-4,0.6c-2.1,0.3-4.2,0.7-6.3,1c-0.4-0.1-0.8-0.2-0.8-0.7c-0.1-0.6,0.4-0.9,0.8-1c1.6-0.3,3.3-0.5,4.9-0.8
				C331.4,399.5,331.7,399.5,332.1,399.4z" style="fill:#CBD5DB;"/>
      <path d="M326.1,402.2c2.1-0.3,4.2-0.7,6.3-1c1.3-0.2,2.6-0.4,4-0.6c0,0.5,0,1.1,0,1.6
				c-2.1,0.3-4.2,0.7-6.3,1c-1.3,0.2-2.6,0.4-4,0.6C326.1,403.3,326.1,402.7,326.1,402.2z" style="fill:#99AAB5;"/>
      <path d="M326.4,405.6c2.1-0.4,4.3-0.7,6.5-1.1c1.2-0.2,2.4-0.4,3.5-0.5c0,0.5,0.1,0.9-0.1,1.4
				c-0.3,0.8-1,1.1-1.8,1.1c-2.2-0.1-4.3-0.1-6.5,0C327.3,406.4,326.7,406.2,326.4,405.6z" style="fill:#99AAB5;"/>
      <path d="M328,406.5c2.2-0.1,4.3-0.1,6.5,0C332.9,408.7,329.6,408.7,328,406.5z" style="fill:#CBD5DB;"/>
      <path d="M331,399.6c-1.6,0.3-3.3,0.5-4.9,0.8c0-0.3,0-0.5,0-0.8c1.4,0,2.8,0,4.2,0
				C330.6,399.6,330.8,399.6,331,399.6z" style="fill:#99AAB5;"/>
      <path d="M331,399.6c-0.2,0-0.5,0-0.7,0c0-2.5,0-5,0-7.4c0-0.5-0.1-0.9-0.5-1.2c-0.8-0.7-1.5-1.5-2.3-2.3
				c-0.2-0.2-0.3-0.3-0.4-0.5c-0.3-0.4-0.3-0.8,0.1-1.1c0.4-0.3,0.8-0.3,1.2,0.1c0.8,0.8,1.6,1.6,2.4,2.4c0.3,0.3,0.5,0.3,0.8,0
				c0.7-0.8,1.5-1.5,2.2-2.2c0.5-0.5,1-0.6,1.4-0.2c0.4,0.3,0.4,0.9-0.1,1.4c-0.8,0.8-1.5,1.6-2.4,2.4c-0.5,0.5-0.7,0.9-0.7,1.6
				c0,2.3,0,4.7,0,7C331.7,399.5,331.4,399.5,331,399.6z" style="fill:#FECC4E;"/>
		</g>
    <g>
			<g>

					<line style="fill:none;stroke:#FFFFFE;stroke-width:2;stroke-linecap:round;stroke-miterlimit:10;" x1="306.4"
                x2="306.4" y1="428.7" y2="428.7"/>

        <line
          style="fill:none;stroke:#FFFFFE;stroke-width:2;stroke-linecap:round;stroke-miterlimit:10;stroke-dasharray:0.1042,4.1673;"
          x1="310.6" x2="329.9" y1="428.7" y2="428.7"/>
        <polyline points="332,428.7
					332,428.7 332,428.6 				"
                  style="fill:none;stroke:#FFFFFE;stroke-width:2;stroke-linecap:round;stroke-miterlimit:10;"/>

        <line
          style="fill:none;stroke:#FFFFFE;stroke-width:2;stroke-linecap:round;stroke-miterlimit:10;stroke-dasharray:0.1093,4.3716;"
          x1="332" x2="332" y1="424.3" y2="422"/>

        <line style="fill:none;stroke:#FFFFFE;stroke-width:2;stroke-linecap:round;stroke-miterlimit:10;" x1="332"
              x2="332" y1="419.8" y2="419.7"/>
        <g>
					<polygon points="335.3,422 332,409.8 328.8,422 					" style="fill:#FFFFFE;"/>
				</g>
			</g>
		</g>
    <g>
			<g>

					<line style="fill:none;stroke:#FFFFFF;stroke-width:2;stroke-linecap:round;stroke-miterlimit:10;" x1="279.3"
                x2="279.3" y1="400.5" y2="400.5"/>

        <line
          style="fill:none;stroke:#FFFFFF;stroke-width:2;stroke-linecap:round;stroke-miterlimit:10;stroke-dasharray:8.661202e-002,3.4645;"
          x1="282.8" x2="288.2" y1="400.5" y2="400.5"/>
        <polyline points="289.9,400.5
					289.9,400.5 289.9,400.5 				"
                  style="fill:none;stroke:#FFFFFF;stroke-width:2;stroke-linecap:round;stroke-miterlimit:10;"/>

        <line
          style="fill:none;stroke:#FFFFFF;stroke-width:2;stroke-linecap:round;stroke-miterlimit:10;stroke-dasharray:9.623783e-002,3.8495;"
          x1="289.9" x2="289.9" y1="396.6" y2="386.7"/>

        <line style="fill:none;stroke:#FFFFFF;stroke-width:2;stroke-linecap:round;stroke-miterlimit:10;" x1="289.9"
              x2="289.9" y1="384.8" y2="384.7"/>
        <g>
					<polygon points="293.2,387 289.9,374.8 286.7,387 					" style="fill:#FFFFFF;"/>
				</g>
			</g>
		</g>
    <g>
			<polyline points="230.8,378.4 230.8,358.3 204.6,358.3 			" style="fill:#FFC86E;"/>
      <g>

					<line style="fill:none;stroke:#FFFFFF;stroke-width:2;stroke-linecap:round;stroke-miterlimit:10;" x1="230.8"
                x2="230.8" y1="378.4" y2="378.3"/>

        <line
          style="fill:none;stroke:#FFFFFF;stroke-width:2;stroke-linecap:round;stroke-miterlimit:10;stroke-dasharray:9.795593e-002,3.9182;"
          x1="230.8" x2="230.8" y1="374.4" y2="360.3"/>
        <polyline points="230.8,358.3
					230.8,358.3 230.7,358.3 				"
                  style="fill:none;stroke:#FFFFFF;stroke-width:2;stroke-linecap:round;stroke-miterlimit:10;"/>

        <line
          style="fill:none;stroke:#FFFFFF;stroke-width:2;stroke-linecap:round;stroke-miterlimit:10;stroke-dasharray:9.904400e-002,3.9618;"
          x1="226.8" x2="216.6" y1="358.3" y2="358.3"/>

        <line style="fill:none;stroke:#FFFFFF;stroke-width:2;stroke-linecap:round;stroke-miterlimit:10;" x1="214.6"
              x2="214.5" y1="358.3" y2="358.3"/>
        <g>
					<polygon points="216.7,355 204.6,358.3 216.7,361.5 					" style="fill:#FFFFFF;"/>
				</g>
			</g>
		</g>
    <g style="display:none;">
			<polyline points="204.6,449.6 204.6,459.1 153.3,459.1 153.3,443.4 			" style="display:inline;fill:#FFC86E;"/>
      <g style="display:inline;">

					<line style="fill:none;stroke:#FFFFFF;stroke-width:2;stroke-linecap:round;stroke-miterlimit:10;" x1="204.6"
                x2="204.6" y1="449.6" y2="449.7"/>

        <line
          style="fill:none;stroke:#FFFFFF;stroke-width:2;stroke-linecap:round;stroke-miterlimit:10;stroke-dasharray:0.116,4.642;"
          x1="204.6" x2="204.6" y1="454.3" y2="456.8"/>
        <polyline points="204.6,459.1
					204.6,459.1 204.5,459.1 				"
                  style="fill:none;stroke:#FFFFFF;stroke-width:2;stroke-linecap:round;stroke-miterlimit:10;"/>

        <line
          style="fill:none;stroke:#FFFFFF;stroke-width:2;stroke-linecap:round;stroke-miterlimit:10;stroke-dasharray:9.622405e-002,3.849;"
          x1="200.7" x2="155.3" y1="459.1" y2="459.1"/>
        <polyline points="153.4,459.1
					153.3,459.1 153.3,459.1 				"
                  style="fill:none;stroke:#FFFFFF;stroke-width:2;stroke-linecap:round;stroke-miterlimit:10;"/>

        <line
          style="fill:none;stroke:#FFFFFF;stroke-width:2;stroke-linecap:round;stroke-miterlimit:10;stroke-dasharray:7.079188e-002,2.8317;"
          x1="153.3" x2="153.3" y1="456.3" y2="454.8"/>

        <line style="fill:none;stroke:#FFFFFF;stroke-width:2;stroke-linecap:round;stroke-miterlimit:10;" x1="153.3"
              x2="153.3" y1="453.4" y2="453.3"/>
        <g>
					<polygon points="156.6,455.5 153.3,443.4 150.1,455.5 					" style="fill:#FFFFFF;"/>
				</g>
			</g>
		</g>
    <g id="text-fleche">
			<g id="liaison-bim_1_">
				<line style="fill:#FFFFFF;" x1="241.9" x2="241.9" y1="487.3" y2="452.6"/>
        <g>
					<line style="fill:none;stroke:#FFFFFF;stroke-width:2;stroke-miterlimit:10;" x1="241.9" x2="241.9" y1="487.3"
                y2="467"/>
          <g>
						<polygon points="251.9,469.9 241.9,452.6 232,469.9 						" style="fill:#FFFFFF;"/>
					</g>
				</g>
			</g>
      <g id="text-bim_1_">
				<path d="M170,492.9c0.6-0.1,1.4-0.2,2.2-0.2c0.9,0,1.9,0.1,2.6,0.7c0.5,0.5,0.8,1.1,0.8,1.8
					c0,0.9-0.5,1.8-1.5,2.2v0.1c1.2,0.3,1.8,1.3,1.8,2.4c0,0.8-0.3,1.5-0.8,2c-0.6,0.7-1.6,1-3.3,1c-0.8,0-1.4,0-1.8-0.1V492.9z
					 M172,496.9h0.4c0.7,0,1.3-0.6,1.3-1.4c0-0.7-0.3-1.3-1.2-1.3c-0.2,0-0.4,0-0.5,0.1V496.9z M172,501.4c0.1,0,0.3,0,0.4,0
					c0.8,0,1.5-0.5,1.5-1.5c0-1-0.7-1.5-1.5-1.6H172V501.4z" style="fill:#353432;"/>
        <path d="M182.5,500.6c0,0.8,0,1.6,0.1,2.2h-1.7l-0.1-0.8h0c-0.3,0.5-0.9,0.9-1.7,0.9c-1.4,0-2-1-2-3v-4.5
					h2v4.3c0,1,0.2,1.6,0.7,1.6c0.3,0,0.5-0.3,0.6-0.5c0.1-0.2,0.1-0.4,0.1-0.6v-4.7h2V500.6z"
              style="fill:#353432;"/>
        <path d="M185.9,493.6c0,0.6-0.4,1.1-1,1.1c-0.5,0-1-0.4-1-1.1c0-0.7,0.5-1.1,1-1.1
					C185.5,492.5,185.9,492.9,185.9,493.6z M183.9,502.9v-7.4h2v7.4H183.9z" style="fill:#353432;"/>
        <path d="M187.3,492.5h2v10.4h-2V492.5z" style="fill:#353432;"/>
        <path d="M196,492.5v8.2c0,0.7,0,1.5,0.1,2.2h-1.7l-0.1-0.8h0c-0.3,0.5-0.9,1-1.5,1
					c-1.6,0-2.3-1.7-2.3-3.8c0-2.6,1.1-3.8,2.4-3.8c0.6,0,1.1,0.3,1.2,0.7h0v-3.7H196z M194.1,498.3c0-0.1,0-0.3,0-0.4
					c-0.1-0.5-0.3-0.9-0.7-0.9c-0.7,0-0.9,1-0.9,2.2c0,1.4,0.4,2.1,0.9,2.1c0.2,0,0.5-0.1,0.7-0.6c0-0.1,0.1-0.3,0.1-0.5V498.3z"
              style="fill:#353432;"/>
        <path d="M199.4,493.6c0,0.6-0.4,1.1-1,1.1c-0.5,0-1-0.4-1-1.1c0-0.7,0.5-1.1,1-1.1
					C199,492.5,199.4,492.9,199.4,493.6z M197.4,502.9v-7.4h2v7.4H197.4z" style="fill:#353432;"/>
        <path d="M200.8,497.7c0-0.8,0-1.5-0.1-2.2h1.7l0.1,0.8h0c0.4-0.6,1-1,1.8-1c1.4,0,2,1.1,2,2.8v4.7h-2
					v-4.6c0-0.6-0.2-1.2-0.7-1.2c-0.3,0-0.6,0.2-0.7,0.7c-0.1,0.2-0.1,0.4-0.1,0.7v4.5h-2V497.7z"
              style="fill:#353432;"/>
        <path d="M213.1,495.5c0,0.7-0.1,1.4-0.1,2.3v4.2c0,1.6-0.3,2.5-0.9,3c-0.5,0.5-1.3,0.8-2.4,0.8
					c-0.7,0-1.3-0.1-1.8-0.3l0.4-1.5c0.4,0.2,0.8,0.3,1.4,0.3c1,0,1.4-0.7,1.4-1.8v-0.5h0c-0.3,0.5-0.8,0.7-1.3,0.7
					c-1.7,0-2.3-1.8-2.3-3.6c0-2.5,1.1-3.9,2.5-3.9c0.6,0,1.1,0.3,1.4,0.9h0l0.1-0.7H213.1z M211.1,498.2c0-0.2,0-0.4-0.1-0.5
					c-0.1-0.3-0.3-0.6-0.6-0.6c-0.7,0-1,1-1,2.2c0,1.4,0.4,2.1,0.9,2.1c0.3,0,0.5-0.1,0.7-0.5c0.1-0.2,0.1-0.4,0.1-0.6V498.2z"
              style="fill:#353432;"/>
        <path d="M219,492.7v10.2h-2v-10.2H219z" style="fill:#353432;"/>
        <path d="M220.6,497.7c0-0.8,0-1.5-0.1-2.2h1.7l0.1,0.8h0c0.4-0.6,1-1,1.8-1c1.4,0,2,1.1,2,2.8v4.7h-2
					v-4.6c0-0.6-0.2-1.2-0.7-1.2c-0.3,0-0.6,0.2-0.7,0.7c-0.1,0.2-0.1,0.4-0.1,0.7v4.5h-2V497.7z"
              style="fill:#353432;"/>
        <path d="M227.8,502.9v-6h-1v-1.4h1v-0.3c0-0.8,0.2-1.6,0.8-2.2c0.4-0.5,1.1-0.7,1.8-0.7
					c0.5,0,0.9,0.1,1.2,0.2l-0.2,1.5c-0.2-0.1-0.4-0.1-0.6-0.1c-0.7,0-0.9,0.6-0.9,1.2v0.3h1.3v1.4h-1.3v6H227.8z"
              style="fill:#353432;"/>
        <path d="M237,499.2c0,3.1-1.7,3.8-2.8,3.8c-1.8,0-2.8-1.4-2.8-3.8c0-2.7,1.4-3.8,2.8-3.8
					C236,495.4,237,496.9,237,499.2z M233.4,499.2c0,1.3,0.2,2.3,0.9,2.3c0.6,0,0.8-1.2,0.8-2.3c0-1-0.2-2.3-0.8-2.3
					C233.5,496.9,233.4,498.2,233.4,499.2z" style="fill:#353432;"/>
        <path d="M238.1,497.7c0-0.7,0-1.5-0.1-2.2h1.7l0.1,1.1h0c0.3-0.8,0.9-1.2,1.5-1.2c0.2,0,0.3,0,0.4,0v2
					c-0.1,0-0.3,0-0.4,0c-0.4,0-1,0.3-1.2,1.1c0,0.2-0.1,0.4-0.1,0.7v3.7h-2V497.7z" style="fill:#353432;"/>
        <path d="M242.6,497.7c0-0.8,0-1.5-0.1-2.2h1.7l0.1,0.9h0c0.4-0.6,1-1,1.8-1c0.8,0,1.4,0.4,1.6,1h0
					c0.2-0.3,0.5-0.6,0.7-0.7c0.3-0.2,0.7-0.3,1-0.3c1.3,0,1.9,1,1.9,2.8v4.7h-2v-4.3c0-0.8-0.1-1.5-0.7-1.5c-0.3,0-0.6,0.2-0.7,0.7
					c0,0.1-0.1,0.3-0.1,0.5v4.7h-2v-4.6c0-0.5-0.1-1.2-0.7-1.2c-0.3,0-0.6,0.2-0.7,0.7c0,0.1-0.1,0.3-0.1,0.6v4.6h-2V497.7z"
              style="fill:#353432;"/>
        <path d="M256.1,502.9l-0.1-0.7h0c-0.4,0.6-1,0.8-1.6,0.8c-1.1,0-1.9-0.9-1.9-2.2c0-1.9,1.7-2.7,3.4-2.7
					v-0.2c0-0.6-0.3-1-1-1c-0.6,0-1.1,0.2-1.5,0.4l-0.4-1.3c0.4-0.2,1.3-0.6,2.3-0.6c2.2,0,2.6,1.6,2.6,3.1v2.7c0,0.6,0,1.2,0.1,1.7
					H256.1z M255.9,499.3c-0.7,0-1.6,0.2-1.6,1.3c0,0.7,0.4,1,0.7,1c0.3,0,0.7-0.2,0.8-0.6c0-0.1,0-0.2,0-0.3V499.3z"
              style="fill:#353432;"/>
        <path d="M261.4,493.5v2h1.4v1.4h-1.4v3.4c0,0.9,0.4,1.1,0.8,1.1c0.2,0,0.3,0,0.5,0l0,1.5
					c-0.3,0.1-0.7,0.1-1.2,0.1c-0.6,0-1.1-0.1-1.4-0.5c-0.4-0.4-0.6-0.9-0.6-2.1v-3.5h-0.9v-1.4h0.9V494L261.4,493.5z"
              style="fill:#353432;"/>
        <path d="M265.7,493.6c0,0.6-0.4,1.1-1,1.1c-0.5,0-1-0.4-1-1.1c0-0.7,0.5-1.1,1-1.1
					C265.3,492.5,265.7,492.9,265.7,493.6z M263.7,502.9v-7.4h2v7.4H263.7z" style="fill:#353432;"/>
        <path d="M272.5,499.2c0,3.1-1.7,3.8-2.8,3.8c-1.8,0-2.8-1.4-2.8-3.8c0-2.7,1.4-3.8,2.8-3.8
					C271.4,495.4,272.5,496.9,272.5,499.2z M268.8,499.2c0,1.3,0.2,2.3,0.9,2.3c0.6,0,0.8-1.2,0.8-2.3c0-1-0.2-2.3-0.8-2.3
					C268.9,496.9,268.8,498.2,268.8,499.2z" style="fill:#353432;"/>
        <path d="M273.6,497.7c0-0.8,0-1.5-0.1-2.2h1.7l0.1,0.8h0c0.4-0.6,1-1,1.8-1c1.4,0,2,1.1,2,2.8v4.7h-2
					v-4.6c0-0.6-0.2-1.2-0.7-1.2c-0.3,0-0.6,0.2-0.7,0.7c-0.1,0.2-0.1,0.4-0.1,0.7v4.5h-2V497.7z"
              style="fill:#353432;"/>
        <path d="M289.3,499.3c0-1-0.1-2.3-0.1-3.4h0c-0.2,1.1-0.5,2.3-0.6,3.1l-0.9,3.6h-1.4l-0.8-3.6
					c-0.2-0.8-0.5-2.1-0.6-3.2h0c0,1.1-0.1,2.4-0.2,3.4l-0.2,3.5h-1.7l0.7-10.2h2.1l0.8,3.7c0.3,1.3,0.5,2.4,0.7,3.6h0
					c0.2-1.1,0.4-2.3,0.6-3.6l0.8-3.7h2.1l0.6,10.2h-1.8L289.3,499.3z" style="fill:#353432;"/>
        <path d="M297.9,499.2c0,3.1-1.7,3.8-2.8,3.8c-1.8,0-2.8-1.4-2.8-3.8c0-2.7,1.4-3.8,2.8-3.8
					C296.8,495.4,297.9,496.9,297.9,499.2z M294.2,499.2c0,1.3,0.2,2.3,0.9,2.3c0.6,0,0.8-1.2,0.8-2.3c0-1-0.2-2.3-0.8-2.3
					C294.3,496.9,294.2,498.2,294.2,499.2z" style="fill:#353432;"/>
        <path d="M304.3,492.5v8.2c0,0.7,0,1.5,0.1,2.2h-1.7l-0.1-0.8h0c-0.3,0.5-0.9,1-1.5,1
					c-1.6,0-2.3-1.7-2.3-3.8c0-2.6,1.1-3.8,2.4-3.8c0.6,0,1.1,0.3,1.2,0.7h0v-3.7H304.3z M302.4,498.3c0-0.1,0-0.3,0-0.4
					c-0.1-0.5-0.3-0.9-0.7-0.9c-0.7,0-0.9,1-0.9,2.2c0,1.4,0.4,2.1,0.9,2.1c0.2,0,0.5-0.1,0.7-0.6c0-0.1,0.1-0.3,0.1-0.5V498.3z"
              style="fill:#353432;"/>
        <path d="M307.4,499.9c0,1.1,0.7,1.6,1.6,1.6c0.6,0,1.1-0.1,1.4-0.2l0.3,1.4c-0.5,0.2-1.3,0.3-2,0.3
					c-2,0-3.1-1.3-3.1-3.6c0-2.5,1.3-3.9,3-3.9c1.6,0,2.5,1.3,2.5,3.5c0,0.5,0,0.8-0.1,1H307.4z M309.1,498.5c0-0.9-0.2-1.7-0.8-1.7
					c-0.6,0-0.9,1-0.9,1.7H309.1z" style="fill:#353432;"/>
        <path d="M312,492.5h2v10.4h-2V492.5z" style="fill:#353432;"/>
        <path d="M232.5,511c0.6-0.1,1.4-0.2,2.2-0.2c0.9,0,1.9,0.1,2.6,0.7c0.5,0.5,0.8,1.1,0.8,1.8
					c0,0.9-0.5,1.8-1.5,2.2v0.1c1.2,0.3,1.8,1.3,1.8,2.4c0,0.8-0.3,1.5-0.8,2c-0.6,0.7-1.6,1-3.3,1c-0.8,0-1.4,0-1.8-0.1V511z
					 M234.5,515h0.4c0.7,0,1.3-0.6,1.3-1.4c0-0.7-0.3-1.3-1.2-1.3c-0.2,0-0.4,0-0.5,0.1V515z M234.5,519.5c0.1,0,0.3,0,0.4,0
					c0.8,0,1.5-0.5,1.5-1.5c0-1-0.7-1.5-1.5-1.6h-0.4V519.5z" style="fill:#353432;"/>
        <path d="M241.8,510.8V521h-2v-10.2H241.8z" style="fill:#353432;"/>
        <path d="M249.7,517.4c0-1-0.1-2.3-0.1-3.4h0c-0.2,1.1-0.5,2.3-0.6,3.1l-0.9,3.6h-1.4l-0.8-3.6
					c-0.2-0.8-0.5-2.1-0.6-3.2h0c0,1.1-0.1,2.4-0.2,3.4l-0.2,3.5h-1.7l0.7-10.2h2.1l0.8,3.7c0.3,1.3,0.5,2.4,0.7,3.6h0
					c0.2-1.1,0.4-2.3,0.6-3.6l0.8-3.7h2.1l0.6,10.2h-1.8L249.7,517.4z" style="fill:#353432;"/>
			</g>
		</g>
	</g>
</g>
  <g id="roadware">
	<g>
		<circle cx="867.1" cy="335.8" r="116.8" style="fill:#FFFFFF;"/>
    <g>
			<g>
				<path d="M866.9,289.2h-95.4c-2.2,0-4,1.8-4,4v41.2v4.1v13.8h103.3v-13.8v-4.1v-41.2
					C870.8,291,869.1,289.2,866.9,289.2z" style="fill:#9B9B9B;"/>
        <path d="M767.5,352.2v6.8v1.5v1.5c0,1.5,1.2,2.6,2.6,2.6h44.3c-0.2,0.5-0.3,1.1-0.3,1.7v4.7
					c0,0.8-1.7,2.1-6.8,2.2h-15.9c-1.2,0-2.4,0.8-2.6,2c-0.3,1.5,0.9,2.9,2.4,2.9h27.2h1.1h27.2c1.5,0,2.7-1.3,2.4-2.9
					c-0.2-1.2-1.4-2-2.6-2h-15.9c-5-0.2-6.8-1.4-6.8-2.2v-4.7c0-0.6-0.1-1.2-0.3-1.7h44.3c1.5,0,2.6-1.2,2.6-2.6v-1.5V359v-6.8
					H767.5z" style="fill:#EFEFEF;"/>
        <path d="M863.8,347.7h-89.2c-1.1,0-2-0.9-2-2v-48.9c0-1.1,0.9-2,2-2h89.2c1.1,0,2,0.9,2,2v48.9
					C865.8,346.8,864.9,347.7,863.8,347.7z" style="fill:#FFC86E;"/>
			</g>
      <rect height="48.3" style="fill:#FFFFFF;" width="87.8" x="776" y="297.1"/>
      <rect height="2.7" style="fill:#E0E0E0;" width="82.3" x="778.5" y="298.8"/>
      <rect height="1.3" style="fill:#5E5E5E;" width="12.9" x="779.5" y="299.5"/>
      <g>
				<rect height="28.2" style="fill:#F2F2F2;" width="37.5" x="780" y="311.4"/>
        <g>
					<rect height="1.3" style="fill:#5E5E5E;" width="18.4" x="781.3" y="313.7"/>
          <rect height="1.3" style="fill:#5E5E5E;" width="18.4" x="781.3" y="316.3"/>
          <rect height="1.3" style="fill:#5E5E5E;" width="18.4" x="781.3" y="318.8"/>
          <rect height="1.3" style="fill:#5E5E5E;" width="18.4" x="781.3" y="321.3"/>
          <rect height="1.3" style="fill:#5E5E5E;" width="18.4" x="781.3" y="323.8"/>
          <rect height="1.3" style="fill:#5E5E5E;" width="18.4" x="781.3" y="326.3"/>
          <rect height="1.3" style="fill:#5E5E5E;" width="18.4" x="781.3" y="328.8"/>
          <rect height="1.3" style="fill:#5E5E5E;" width="18.4" x="781.3" y="331.4"/>
          <rect height="1.3" style="fill:#5E5E5E;" width="18.4" x="781.3" y="333.9"/>
          <rect height="1.3" style="fill:#5E5E5E;" width="18.4" x="781.3" y="336.4"/>
				</g>
        <g>
					<rect height="1.3" style="fill:#5E5E5E;" width="5" x="801.2" y="313.7"/>
          <rect height="1.3" style="fill:#5E5E5E;" width="5" x="801.2" y="316.3"/>
          <rect height="1.3" style="fill:#5E5E5E;" width="5" x="801.2" y="318.8"/>
          <rect height="1.3" style="fill:#5E5E5E;" width="5" x="801.2" y="321.3"/>
          <rect height="1.3" style="fill:#5E5E5E;" width="5" x="801.2" y="323.8"/>
          <rect height="1.3" style="fill:#5E5E5E;" width="5" x="801.2" y="326.3"/>
          <rect height="1.3" style="fill:#5E5E5E;" width="5" x="801.2" y="328.8"/>
          <rect height="1.3" style="fill:#5E5E5E;" width="5" x="801.2" y="331.4"/>
          <rect height="1.3" style="fill:#5E5E5E;" width="5" x="801.2" y="333.9"/>
          <rect height="1.3" style="fill:#5E5E5E;" width="5" x="801.2" y="336.4"/>
				</g>
        <g>
					<rect height="1.3" style="fill:#5E5E5E;" width="5" x="810.9" y="313.7"/>
          <rect height="1.3" style="fill:#5E5E5E;" width="5" x="810.9" y="316.3"/>
          <rect height="1.3" style="fill:#5E5E5E;" width="5" x="810.9" y="318.8"/>
          <rect height="1.3" style="fill:#5E5E5E;" width="5" x="810.9" y="321.3"/>
          <rect height="1.3" style="fill:#5E5E5E;" width="5" x="810.9" y="323.8"/>
          <rect height="1.3" style="fill:#5E5E5E;" width="5" x="810.9" y="326.3"/>
          <rect height="1.3" style="fill:#5E5E5E;" width="5" x="810.9" y="328.8"/>
          <rect height="1.3" style="fill:#5E5E5E;" width="5" x="810.9" y="331.4"/>
          <rect height="1.3" style="fill:#5E5E5E;" width="5" x="810.9" y="333.9"/>
          <rect height="1.3" style="fill:#5E5E5E;" width="5" x="810.9" y="336.4"/>
				</g>
        <g>
					<rect height="1.3" style="fill:#5E5E5E;" width="1.5" x="807.8" y="313.7"/>
          <rect height="1.3" style="fill:#5E5E5E;" width="1.5" x="807.8" y="316.3"/>
          <rect height="1.3" style="fill:#5E5E5E;" width="1.5" x="807.8" y="318.8"/>
          <rect height="1.3" style="fill:#5E5E5E;" width="1.5" x="807.8" y="321.3"/>
          <rect height="1.3" style="fill:#5E5E5E;" width="1.5" x="807.8" y="323.8"/>
          <rect height="1.3" style="fill:#5E5E5E;" width="1.5" x="807.8" y="326.3"/>
          <rect height="1.3" style="fill:#5E5E5E;" width="1.5" x="807.8" y="328.8"/>
          <rect height="1.3" style="fill:#5E5E5E;" width="1.5" x="807.8" y="331.4"/>
          <rect height="1.3" style="fill:#5E5E5E;" width="1.5" x="807.8" y="333.9"/>
          <rect height="1.3" style="fill:#5E5E5E;" width="1.5" x="807.8" y="336.4"/>
				</g>
			</g>
      <g id="visibleGroup" transform="scale(12) translate(-1270,-252.5)">
				<g>
					<g id="France">
						<path d="M1338.8,279.2c0,0,0.1-0.2,0.2-0.2c0.1,0,0.4,0,0.4,0c0,0,0.2-0.2,0.2-0.2
							c0,0,0.2,0,0.2,0c0,0,0.2-0.1,0.2-0.1c0,0,0.1-0.2,0.1-0.2c0,0,0.1-0.1,0.2,0c0,0,0.1,0.1,0.1,0.1c0,0,0.2,0.1,0.2,0.1
							c0,0,0.4,0.2,0.5,0.2c0,0,0.3,0.1,0.3,0.1c0,0-0.1,0.3-0.1,0.3c0,0-0.3,0.3-0.3,0.3c0,0,0.2,0.4,0.2,0.4c0,0-0.1,0.3-0.1,0.3
							c0,0-0.3-0.1-0.4-0.1c0,0-0.1,0-0.2,0c0,0-0.1,0.2-0.1,0.2c0,0-0.3,0-0.3,0c0,0-0.4,0-0.4-0.1c0,0-0.3-0.1-0.3-0.2
							c0.1,0,0.2-0.4,0.2-0.5c0,0-0.1-0.1-0.1-0.1c0,0-0.2-0.4-0.2-0.4" id="FrancePath" style="fill:#FFC86E;"/>
					</g>
				</g>
			</g>
      <g id="pin">
				<g>
					<path d="M850.5,307.3c0.1,0,0.3,0,0.4,0c0,0,0.1,0,0.1,0c0.5,0.1,0.9,0.2,1.3,0.5c0.6,0.4,0.9,1,1,1.7
						c0.1,0.3,0.1,0.6,0,0.8c-0.1,0.3-0.1,0.6-0.2,0.9c-0.2,0.8-0.6,1.5-0.9,2.3c-0.5,1.1-0.9,2.1-1.5,3.2c-0.1,0.1-0.1,0.2-0.2,0.3
						c0,0,0,0,0,0c-0.5-1-1-2.1-1.4-3.1c-0.4-0.8-0.7-1.7-1-2.6c-0.1-0.3-0.2-0.7-0.3-1.1c0,0,0-0.1,0-0.1c0-0.1,0-0.2,0-0.4
						c0,0,0,0,0,0c0-0.1,0-0.3,0.1-0.4c0.2-1.1,1.2-1.9,2.3-2.1C850.4,307.3,850.5,307.3,850.5,307.3z M850.7,311.3
						c0.7,0,1.2-0.5,1.2-1.2c0-0.7-0.6-1.2-1.2-1.2c-0.7,0-1.2,0.5-1.2,1.2C849.5,310.7,850.1,311.3,850.7,311.3z"
                style="fill:#3498DB;"/>
				</g>
        <g>
					<path d="M838.4,308.8c0.1,0,0.3,0,0.4,0c0,0,0.1,0,0.1,0c0.5,0.1,0.9,0.2,1.3,0.5c0.6,0.4,0.9,1,1,1.7
						c0.1,0.3,0.1,0.6,0,0.8c-0.1,0.3-0.1,0.6-0.2,0.9c-0.2,0.8-0.6,1.5-0.9,2.3c-0.5,1.1-0.9,2.1-1.5,3.2c-0.1,0.1-0.1,0.2-0.2,0.3
						c0,0,0,0,0,0c-0.5-1-1-2.1-1.4-3.1c-0.4-0.8-0.7-1.7-1-2.6c-0.1-0.3-0.2-0.7-0.3-1.1c0,0,0-0.1,0-0.1c0-0.1,0-0.2,0-0.4
						c0,0,0,0,0,0c0-0.1,0-0.3,0.1-0.4c0.2-1.1,1.2-1.9,2.3-2.1C838.3,308.9,838.4,308.9,838.4,308.8z M838.6,312.8
						c0.7,0,1.2-0.5,1.2-1.2c0-0.7-0.6-1.2-1.2-1.2c-0.7,0-1.2,0.5-1.2,1.2C837.4,312.3,838,312.8,838.6,312.8z"
                style="fill:#3498DB;"/>
				</g>
        <g>
					<path d="M849,319.4c0.1,0,0.3,0,0.4,0c0,0,0.1,0,0.1,0c0.5,0.1,0.9,0.2,1.3,0.5c0.6,0.4,0.9,1,1,1.7
						c0.1,0.3,0.1,0.6,0,0.8c-0.1,0.3-0.1,0.6-0.2,0.9c-0.2,0.8-0.6,1.5-0.9,2.3c-0.5,1.1-0.9,2.1-1.5,3.2c-0.1,0.1-0.1,0.2-0.2,0.3
						c0,0,0,0,0,0c-0.5-1-1-2.1-1.4-3.1c-0.4-0.8-0.7-1.7-1-2.6c-0.1-0.3-0.2-0.7-0.3-1.1c0,0,0-0.1,0-0.1c0-0.1,0-0.2,0-0.4
						c0,0,0,0,0,0c0-0.1,0-0.3,0.1-0.4c0.2-1.1,1.2-1.9,2.3-2.1C848.9,319.4,848.9,319.4,849,319.4z M849.2,323.3
						c0.7,0,1.2-0.5,1.2-1.2c0-0.7-0.6-1.2-1.2-1.2c-0.7,0-1.2,0.5-1.2,1.2C848,322.8,848.5,323.3,849.2,323.3z"
                style="fill:#3498DB;"/>
				</g>
        <g>
					<path d="M839.7,326.1c0.1,0,0.3,0,0.4,0c0,0,0.1,0,0.1,0c0.5,0.1,0.9,0.2,1.3,0.5c0.6,0.4,0.9,1,1,1.7
						c0.1,0.3,0.1,0.6,0,0.8c-0.1,0.3-0.1,0.6-0.2,0.9c-0.2,0.8-0.6,1.5-0.9,2.3c-0.5,1.1-0.9,2.1-1.5,3.2c-0.1,0.1-0.1,0.2-0.2,0.3
						c0,0,0,0,0,0c-0.5-1-1-2.1-1.4-3.1c-0.4-0.8-0.7-1.7-1-2.6c-0.1-0.3-0.2-0.7-0.3-1.1c0,0,0-0.1,0-0.1c0-0.1,0-0.2,0-0.4
						c0,0,0,0,0,0c0-0.1,0-0.3,0.1-0.4c0.2-1.1,1.2-1.9,2.3-2.1C839.5,326.1,839.6,326.1,839.7,326.1z M839.9,330
						c0.7,0,1.2-0.5,1.2-1.2c0-0.7-0.6-1.2-1.2-1.2c-0.7,0-1.2,0.5-1.2,1.2C838.6,329.5,839.2,330,839.9,330z"
                style="fill:#3498DB;"/>
				</g>
			</g>
		</g>
    <g id="path1-roadware">
			<g>

					<line style="fill:none;stroke:#FFC86E;stroke-width:3;stroke-linecap:round;stroke-miterlimit:10;" x1="817.4"
                x2="817.5" y1="384.8" y2="384.9"/>

        <line
          style="fill:none;stroke:#FFC86E;stroke-width:3;stroke-linecap:round;stroke-miterlimit:10;stroke-dasharray:0.4175,6.2622;"
          x1="821.8" x2="838.1" y1="389.4" y2="406.5"/>
        <polyline points="840.3,408.8
					840.4,408.9 840.6,408.9 				"
                  style="fill:none;stroke:#FFC86E;stroke-width:3;stroke-linecap:round;stroke-miterlimit:10;"/>

        <line
          style="fill:none;stroke:#FFC86E;stroke-width:3;stroke-linecap:round;stroke-miterlimit:10;stroke-dasharray:0.3814,5.721;"
          x1="846.1" x2="867" y1="407.5" y2="402"/>

        <line style="fill:none;stroke:#FFC86E;stroke-width:3;stroke-linecap:round;stroke-miterlimit:10;" x1="869.8"
              x2="870" y1="401.3" y2="401.3"/>
        <g>
					<polygon points="868.5,405.2 880.3,398.6 866.8,398.5 					" style="fill:#FFC86E;"/>
				</g>
			</g>
		</g>
    <g id="lora">
			<path d="M943.6,395.9c-0.8,0-1.7,0-2.5,0c-0.5,0-1,0.1-1.2-0.7c-0.1-0.6-0.5-0.2-0.8,0
				c-1.5,1.1-3,1.4-4.8,0.9c-1.7-0.5-2.8-1.6-3-3.4c-0.1-1.5,0.4-3,2-3.9c1.6-0.9,3.3-1.2,5.1-1.4c0.4-0.1,1,0,1.1-0.5
				c0.1-0.6,0.2-1.2-0.3-1.7c-0.8-0.9-2.7-0.7-3.2,0.4c-0.4,0.8-0.9,1-1.6,0.9c-0.3,0-0.7,0-1.1,0c-1.5,0-1.6-0.2-1.1-1.6
				c0.7-1.8,2.3-2.4,3.9-2.6c1.5-0.2,2.9-0.1,4.4,0.3c1.3,0.4,2.3,1,2.6,2.5c0,0.2,0.1,0.4,0.4,0.4c0,0.3,0,0.6,0,0.8
				c-0.2,0.1-0.2,0.2-0.2,0.4c0,2.6,0,5.2,0,7.8c0,0.2,0,0.3,0.2,0.5C943.6,395.4,943.6,395.6,943.6,395.9z M936.9,393.4
				c1.9,0,3.1-1.7,2.7-3.4c-0.1-0.4-0.3-0.4-0.6-0.3c-0.9,0.3-1.8,0.5-2.6,0.8c-0.8,0.3-1.4,0.9-1.2,1.9
				C935.4,393.3,936.2,393.4,936.9,393.4z" style="fill:#040608;"/>
      <path d="M902.5,408.6c-1.9-0.3-3.8-0.8-5.5-1.6c-0.8-0.4-1.6-0.8-2.4-1.3c-0.4-0.2-0.6-0.4-0.2-0.9
				c1.2-1.4,0.5-1.5,2.3-0.5c5.6,2.9,11.2,2.9,16.7-0.2c1.2-0.7,1.3,0.2,1.7,0.8c0.6,0.8-0.2,0.9-0.6,1.2c-2.2,1.2-4.5,2.1-7.1,2.4
				C907.1,408.5,904.4,408.9,902.5,408.6z" style="fill:#27ABE1;"/>
      <path d="M904.3,370c3.6,0,7,0.9,10.1,2.7c0.4,0.2,1.2,0.4,0.7,1.1c-0.4,0.6-0.7,1.5-1.8,0.9
				c-2.5-1.6-5.3-2.4-8.3-2.5c-2.6-0.1-5,0.4-7.4,1.5c-0.6,0.3-1.2,0.6-1.8,0.9c-0.4,0.2-0.7,0.1-1-0.2c-1-1.2-1-1.3,0.4-2
				c2.1-1.1,4.3-1.9,6.7-2.2C902.1,370.2,903.9,370,904.3,370z" style="fill:#27ABE1;"/>
      <path d="M914.3,379.2c0-0.7,0.2-1,0.9-1c3,0,6,0,9,0c2.7,0,4.6,1.5,5.2,4.1c0.6,2.8-0.3,4.9-2.9,6.1
				c-0.6,0.3-0.5,0.5-0.3,1c1.1,1.8,2.1,3.7,3.2,5.5c0.4,0.7,0.4,1-0.5,0.9c-1.1,0-2.1,0-3.2,0c-0.6,0-0.9-0.2-1.2-0.7
				c-0.9-1.7-1.8-3.4-2.7-5c-0.3-0.6-2.5-1-3-0.5c-0.2,0.2-0.1,0.5-0.1,0.8c0,1.6,0,3.1,0,4.7c0,0.6-0.2,0.8-0.8,0.8
				c-1.2-0.1-2.6,0.5-3.4-0.2c-0.8-0.6-0.2-2.1-0.2-3.2C914.3,390.7,914.4,381.9,914.3,379.2z M918.8,383.9c0,0.6,0,1.2,0,1.8
				c0,0.4,0.1,0.7,0.6,0.7c1.4-0.1,2.7,0.2,4.1-0.1c1.2-0.3,1.8-1.2,1.7-2.6c-0.1-1.3-0.8-2-2.1-2.1c-0.6,0-1.3,0-1.9,0
				C918.8,381.5,918.8,381.5,918.8,383.9z" style="fill:#040608;"/>
      <path d="M904.7,382.3c4.3,0.1,7,2.6,7,7c0,4.2-2.3,6.8-7.1,7c-4.2,0.1-7.1-2.8-7.1-7
				C897.6,385.1,900.3,382.3,904.7,382.3z M907.8,389.3c0,0-0.1-0.6-0.1-1c-0.1-1.6-1.2-2.8-2.6-3c-1.8-0.2-3,0.6-3.4,2.4
				c-0.3,1-0.3,2-0.1,3c0.4,1.7,1.4,2.6,3,2.6c1.6,0,2.6-0.8,3-2.5C907.8,390.3,907.8,389.8,907.8,389.3z"
            style="fill:#040608;"/>
      <path d="M884.8,379.3c0-0.9,0.3-1.1,1.1-1.1c0.8,0.1,1.6,0.1,2.3,0c0.8-0.1,1.1,0.2,1.1,1.1
				c0,3.9,0,7.8,0,11.8c0,1,0.3,1.3,1.2,1.2c1.6-0.1,3.2,0,4.8,0c0.6,0,0.8,0.2,0.9,0.8c0.1,2.8,0.1,2.8-2.7,2.8c-2.5,0-5,0-7.5,0
				c-0.8,0-1.1-0.2-1.1-1.1C884.9,392.3,884.9,381.9,884.8,379.3z" style="fill:#040608;"/>
      <path d="M905.2,404.4c-3.2,0-5.7-0.7-8.1-2.1c-0.3-0.2-0.9-0.3-0.5-0.9c0.3-0.4,0.5-1.2,1.4-0.7
				c1.6,0.9,3.3,1.5,5.2,1.7c2.8,0.4,5.4-0.2,7.9-1.4c0.4-0.2,0.8-0.6,1.3,0c0.5,0.7,0.6,1-0.3,1.5
				C909.7,403.8,907.3,404.5,905.2,404.4z" style="fill:#27ABE1;"/>
      <path d="M904.6,374.3c2.7,0,5.1,0.7,7.4,2c0.3,0.2,1,0.3,0.6,1c-0.4,0.5-0.6,1.1-1.5,0.6
				c-4.2-2.5-8.5-2.5-12.9-0.2c-0.5,0.2-0.9,0.5-1.4-0.2c-0.4-0.6-0.5-0.9,0.3-1.3C899.5,374.9,902,374.2,904.6,374.3z"
            style="fill:#27ABE1;"/>
      <path d="M904.8,400.4c-1.9-0.1-3.7-0.5-5.4-1.4c-0.4-0.2-0.7-0.3-0.4-0.9c0.3-0.4,0.6-0.6,1-0.3
				c3,1.6,6.1,1.7,9.1,0.1c0.6-0.3,0.8,0,1.1,0.4c0.4,0.6-0.1,0.7-0.4,0.8C908.3,399.9,906.6,400.3,904.8,400.4z"
            style="fill:#27ABE1;"/>
      <path d="M910.4,380.3c0,0.5-0.7,0.9-1.3,0.6c-1.5-0.8-3.1-1.1-4.8-1.1c-1.5,0-2.9,0.3-4.3,1
				c-0.5,0.3-0.8,0.1-1.1-0.3c-0.4-0.6,0.1-0.7,0.4-0.8c3.4-1.7,6.8-1.7,10.3,0C910.3,379.9,910.4,380.1,910.4,380.3z"
            style="fill:#27ABE1;"/>
		</g>
    <g id="path2-roadware">
			<g>

					<line style="fill:none;stroke:#FFC86E;stroke-width:3;stroke-linecap:round;stroke-miterlimit:10;" x1="929.8"
                x2="929.9" y1="367.6" y2="367.4"/>

        <line
          style="fill:none;stroke:#FFC86E;stroke-width:3;stroke-linecap:round;stroke-miterlimit:10;stroke-dasharray:0.4186,6.2791;"
          x1="933.5" x2="939.4" y1="362.3" y2="353.9"/>
        <polyline points="941.2,351.3
					941.3,351.1 941.2,351 				"
                  style="fill:none;stroke:#FFC86E;stroke-width:3;stroke-linecap:round;stroke-miterlimit:10;"/>

        <line
          style="fill:none;stroke:#FFC86E;stroke-width:3;stroke-linecap:round;stroke-miterlimit:10;stroke-dasharray:0.3625,5.4373;"
          x1="939.6" x2="935.1" y1="345.8" y2="331.8"/>

        <line style="fill:none;stroke:#FFC86E;stroke-width:3;stroke-linecap:round;stroke-miterlimit:10;" x1="934.3"
              x2="934.2" y1="329.2" y2="329"/>
        <g>
					<polygon points="938.3,330.2 931,318.9 931.6,332.3 					" style="fill:#FFC86E;"/>
				</g>
			</g>
		</g>
    <g>
			<g id="warning-sign">
				<polygon points="891.7,311.3
					925.2,253.3 958.6,311.3 				"
                 style="fill:none;stroke:#D61212;stroke-width:3;stroke-linejoin:round;stroke-miterlimit:10;"/>
        <g>
					<path d="M922.2,298.3c0-2,1.4-3.3,3-3.3c1.7,0,3,1.3,3,3.3c0,1.8-1.2,3.2-3,3.2C923.5,301.5,922.2,300.1,922.2,298.3z
						 M922.9,292.4l-0.6-18.3h5.7l-0.6,18.3H922.9z"/>
				</g>
			</g>
      <g id="warning">
				<g id="warning-light_1_" style="opacity:0.4;">
					<g>
						<g>
							<polyline points="
								891.8,311.3 891.7,311.3 891.7,311.2 							"
                        style="fill:none;stroke:#FFCE00;stroke-width:9;stroke-linecap:round;stroke-linejoin:round;"/>

              <line
                style="fill:none;stroke:#FFCE00;stroke-width:9;stroke-linecap:round;stroke-linejoin:round;stroke-dasharray:9.972521e-002,5.9835;"
                x1="894.7" x2="923.6" y1="306.1" y2="256"/>
              <polyline points="
								925.1,253.4 925.2,253.3 925.2,253.4 							"
                        style="fill:none;stroke:#FFCE00;stroke-width:9;stroke-linecap:round;stroke-linejoin:round;"/>

              <line
                style="fill:none;stroke:#FFCE00;stroke-width:9;stroke-linecap:round;stroke-linejoin:round;stroke-dasharray:9.972521e-002,5.9835;"
                x1="928.2" x2="957.1" y1="258.6" y2="308.6"/>
              <polyline points="
								958.6,311.2 958.6,311.3 958.6,311.3 							"
                        style="fill:none;stroke:#FFCE00;stroke-width:9;stroke-linecap:round;stroke-linejoin:round;"/>

              <line
                style="fill:none;stroke:#FFCE00;stroke-width:9;stroke-linecap:round;stroke-linejoin:round;stroke-dasharray:9.972521e-002,5.9835;"
                x1="952.6" x2="894.8" y1="311.3" y2="311.3"/>
						</g>
					</g>
				</g>
        <g id="warning-light">
					<g>
						<g>
							<polyline points="
								891.8,311.3 891.7,311.3 891.7,311.2 							"
                        style="fill:none;stroke:#FFF800;stroke-width:2;stroke-linecap:round;stroke-linejoin:round;"/>

              <line
                style="fill:none;stroke:#FFF800;stroke-width:2;stroke-linecap:round;stroke-linejoin:round;stroke-dasharray:9.972521e-002,5.9835;"
                x1="894.7" x2="923.6" y1="306.1" y2="256"/>
              <polyline points="
								925.1,253.4 925.2,253.3 925.2,253.4 							"
                        style="fill:none;stroke:#FFF800;stroke-width:2;stroke-linecap:round;stroke-linejoin:round;"/>

              <line
                style="fill:none;stroke:#FFF800;stroke-width:2;stroke-linecap:round;stroke-linejoin:round;stroke-dasharray:9.972521e-002,5.9835;"
                x1="928.2" x2="957.1" y1="258.6" y2="308.6"/>
              <polyline points="
								958.6,311.2 958.6,311.3 958.6,311.3 							"
                        style="fill:none;stroke:#FFF800;stroke-width:2;stroke-linecap:round;stroke-linejoin:round;"/>

              <line
                style="fill:none;stroke:#FFF800;stroke-width:2;stroke-linecap:round;stroke-linejoin:round;stroke-dasharray:9.972521e-002,5.9835;"
                x1="952.6" x2="894.8" y1="311.3" y2="311.3"/>
						</g>
					</g>
				</g>
			</g>
		</g>
	</g>
</g>
  <g id="mercipublic">
	<g>
		<circle cx="513.1" cy="80.2" r="58.5" style="fill:#FCFBFB;"/>
    <path d="M476.4,80.5c-0.4-1-0.4-2.2-0.4-3.3c0.1-8.2,0.3-16.5,0.3-24.7c0-1.3,0.4-1.8,1.8-1.8
			c3.4,0.1,3.4,0,4.5,3.4c1,3.2,2,6.3,3.5,9.5c1-3.3,2-6.6,3-9.9c0.9-3,2.1-3.8,5.1-3c1.3,0.3,0.9,1.4,0.9,2.2
			c0.2,7.3,0.4,14.5,0.4,21.8c0,1.9,0.2,3.8-0.2,5.7c-1.8,0-3.7,0-5.5,0c-0.5-3.5,0.2-7.1-0.5-10.7c-0.5,3.5-1.1,7.1-1.6,10.6
			c-1.4,0-2.7,0-4.1,0c-1-3.5-0.9-7.1-2.1-10.6c0,3.5,0,7.1,0,10.6C479.9,80.5,478.2,80.5,476.4,80.5z"
          style="fill:#A71804;"/>
    <path d="M523.8,61.6c0,1.6,0.1,3.2-1.5,4.2c-0.4,0.2-0.6,0.8-0.1,1.2c2.3,2.1,2.3,4.8,2.4,7.6
			c0,1.4,0,2.9,0,4.3c0.1,1.2-0.2,1.8-1.5,1.7c-1.1-0.1-2.1,0-3.2,0c-0.7-2.6-0.4-5.3-0.6-7.9c-0.1-1.2,0.2-3.2-1.5-3.1
			c-1.5,0.1-0.6,1.9-0.7,2.9c-0.2,2.3-0.1,4.5-0.1,6.8c0,1.3-0.5,1.7-1.7,1.7c-3.2,0.2-3.3,0.2-3.3-2.2c0-8.7,0-17.4,0-26.1
			c0-1.6,0.4-2,2-1.9c1.8,0.1,3.7-0.1,5.5,0.1c2,0.2,3.7,0.9,4.3,3.1C523.9,56.6,523.9,59.1,523.8,61.6z M517.2,59.7
			c0,0.9,0,1.8,0,2.7c0,0.5-0.1,1,0.6,1c0.5,0,0.9-0.2,1.1-0.7c0.6-1.9,0.5-3.9,0.4-5.9c-0.1-0.7-0.6-0.9-1.2-0.8
			c-0.7,0-0.9,0.5-0.9,1.1C517.2,57.9,517.2,58.8,517.2,59.7z" style="fill:#A71804;"/>
    <path d="M532.4,81c-3.1-1.2-3.8-4-3.9-6.9c-0.2-6-0.2-11.9-0.1-17.9c0.1-3.6,2.9-6.1,6.1-6.1
			c3.5,0.1,5.9,2.8,6.3,6.9c0,0.3,0,0.7,0,1c0,2.4-1.5,3.6-3.9,3.1c-1.3-0.2-1-1.2-1.2-2.1c-0.2-1.1,0.5-3-1.2-3
			c-1.7,0-1,1.8-1.2,2.9c-0.6,4.6-0.2,9.3-0.3,14c0,0.1,0,0.1,0,0.2c0.3,0.9,0,2.3,1.2,2.3c1.5,0.1,1.1-1.4,1.4-2.3
			c0.2-0.5,0.2-1.1,0.1-1.6c-0.3-1.9,0.4-2.3,2.2-2.2c2.8,0.2,2.8,0.1,2.8,2.9c0,3.4-0.4,6.6-4,8.3C535.3,80.7,533.8,80.2,532.4,81z
			" style="fill:#A71804;"/>
    <path d="M499.2,81c-0.6-0.6-0.5-1.4-0.5-2.1c0-8.8,0-17.6,0-26.3c0-1.5,0.5-1.9,1.9-1.8
			c2.3,0.1,4.5,0.1,6.8,0c1.3,0,1.9,0.4,1.9,1.7c0,0.1,0,0.3,0,0.4c0.1,3.3,0.1,3.4-3.2,3.3c-1.9-0.1-2.7,0.6-2.4,2.5
			c0,0.3,0,0.5,0,0.8c0,3,0,3,3,3.1c1.2,0,1.7,0.4,1.6,1.6c-0.1,1.4,0,2.8-0.3,4.2c-0.2,0.9-1.3,0.9-2.2,0.8
			c-1.4-0.2-1.9,0.4-1.8,1.7c0,0.2,0,0.4,0,0.6c-0.1,3.9-0.1,3.9,3.8,4.1c0.5,0,1.1-0.1,1.2,0.7c0,0.4,0,0.8-0.1,1.2
			c-0.1,3.3,0.6,3-3.2,3.2C503.5,80.7,501.3,80.2,499.2,81z" style="fill:#A71804;"/>
    <path d="M500.3,97.7c0-3.4,0-6.9,0-10.3c0-1.1,0.3-1.6,1.5-1.5c1.4,0.1,2.9,0,4.3,0
			c2.4,0.1,4.4,2.1,4.4,4.5c0,2.3,0.5,4.8-1.4,6.8c-0.7,0.7,0,0.9,0.3,1.3c2.5,2.7,1.6,6,1.2,9c-0.3,1.7-2.1,1.9-3.7,2.2
			c-5.9,1.1-6.6,0.5-6.6-5.2C500.3,102.3,500.3,100,500.3,97.7z M505.6,100.3c-0.7-0.4-1.5-0.6-1.5,0.4c0,1.5-0.6,3.1,0.4,4.5
			c0.9,0.3,1.6,0,1.7-0.9C506.4,103,507.1,101.5,505.6,100.3z M504.4,92.6c0,0.5,0,1.1,0,1.6c0,0.4-0.3,1.1,0.5,1.1
			c0.5,0,1-0.3,1.1-0.8c0.4-1.3,0.4-2.7,0.1-4.1c-0.1-0.5-0.6-0.7-1.1-0.7c-0.8,0-0.6,0.6-0.6,1C504.4,91.4,504.4,92,504.4,92.6z"
          style="fill:#A71804;"/>
    <path d="M497.4,105.5c0.2,2-1.8,4.3-4,4.4c-3.7,0.2-6.3-0.7-6.2-5.5c0-5.3,0.1-10.7,0-16
			c0-1.9,0.5-2.7,2.4-2.3c0.6,0.1,1.2-0.2,1.7,0.4c0,5.6,0,11.2,0,16.8c0,0.6-0.2,1.4,0.6,1.8c1.4,1,1.4-0.1,1.5-1
			c0.1-1.8,0-3.7,0-5.5c0-3.4,0.1-6.8-0.1-10.2c-0.1-2,0.7-2.5,2.4-2.2c0.6,0.1,1.2-0.2,1.7,0.4C497.4,92.7,497.4,99.1,497.4,105.5z
			" style="fill:#A71804;"/>
    <path d="M544.1,80.6c-0.6-0.8-0.4-1.7-0.4-2.6c0-8,0-15.9,0-23.9c0-3.8-0.4-3.3,3.5-3.3
			c0.7,0,1.6-0.2,1.8,0.9c0,9.6,0,19.2,0,28.9l0,0C547.4,81.2,545.7,80.7,544.1,80.6z" style="fill:#A71804;"/>
    <path d="M485.3,98c-0.7,1.7-2.2,2.4-3.8,3c-1,0.3-1.2,0.8-1.2,1.8c0,1.9-0.1,3.7,0,5.6
			c0,1.2-0.3,1.8-1.6,1.6c-1.2-0.1-2.6,0.3-2.5-1.7c0.1-2.6,0-5.2,0-7.8c0-4.2,0.1-8.4-0.1-12.6c0-1.6,0.5-2,2-1.9
			c2.3,0.1,4.6-0.1,6.4,1.7c0.4,0.5,0.8,1,0.9,1.6C484.8,92.1,484.9,95.1,485.3,98z M481.2,90.1c-0.7-0.6-1.4-0.6-1.4,0.3
			c0,2.1-0.5,4.2,0.3,6.2c0.9,0.3,1.4-0.2,1.5-0.9C481.7,93.8,482.1,91.9,481.2,90.1z" style="fill:#A71804;"/>
    <path d="M534.5,104.4c0.3,0.4,0.4,1.1,1.1,1c0.6-0.1,0.6-0.7,0.7-1.2c0.1-0.5,0.3-1,0.2-1.4
			c-0.3-1.8,0.4-2.3,2.2-2.2c1.9,0.1,1.9,1.1,1.8,2.4c-0.1,2.1-0.4,4-2,5.5c-2.5,2.3-6.1,1.5-7.2-1.7c-0.3-0.9-0.5-1.9-0.5-2.8
			c-0.1-4.4-0.1-8.8-0.1-13.2c0.1-3.9,3.2-6.1,6.5-4.9c2.5,0.9,4.3,5.1,3.2,7.5c-0.6,1.2-1.7,0.4-2.6,0.6c-0.8,0.2-1.2-0.2-1.3-0.9
			c-0.1-0.5,0-1-0.1-1.4c-0.1-0.6,0.1-1.6-0.8-1.6c-1-0.1-1,0.9-1.1,1.6c-0.7,1-0.4,2.1-0.4,3.2C534.3,98.1,533.7,101.3,534.5,104.4
			z" style="fill:#A71804;"/>
    <path d="M517.5,104.1c-0.1,1.6,1.1,1.3,2,1.2c1.8-0.2,2.6,0.3,2.6,2.3c0,2.1-1,2.4-2.7,2.3
			c-1.5-0.1-3,0-4.5,0c-1.2,0-1.8-0.5-1.8-1.7c0-6.9,0-13.9-0.1-20.8c0-1.1,0.3-1.6,1.4-1.4c0.9,0.2,1.9-0.4,2.7,0.4
			c0,5.5,0,11.1-0.1,16.6C517.2,103.3,517.2,103.8,517.5,104.1z" style="fill:#A71804;"/>
    <path d="M523.7,97.9c0-3.4,0-6.9,0-10.3c0-1.2,0.2-1.9,1.6-1.6c1.2,0.2,2.8-0.5,2.7,1.7
			c-0.1,4.5,0,8.9,0,13.4c0,2.3-0.2,4.5,0,6.8c0.2,2.5-1.9,1.7-2.9,2c-1.5,0.4-1.4-1-1.4-2.1C523.7,104.5,523.7,101.2,523.7,97.9
			C523.7,97.9,523.7,97.9,523.7,97.9z" style="fill:#A71804;"/>
    <path d="M544.4,92.4c0-1.7,0.1-3.1,0-4.5c-0.1-1.5,0.3-2.2,1.9-2c1.4,0.1,2.9-0.4,2.8,2
			c-0.1,4.1,0.4,8.2-0.3,12.3c-0.1,0.8-0.4,1.7-0.8,2.5c-0.4,0.7-1.2,0.5-1.9,0.4c-0.9-0.1-1-0.8-1.1-1.5
			C544.7,98.5,544.2,95.3,544.4,92.4z" style="fill:#A71804;"/>
    <path d="M546.9,105.2c1.8-0.4,2.7,0.1,2.5,2c-0.1,1.2,0.7,3-1.8,2.7c-1.5-0.2-3.2,0.5-3.2-2.2
			C544.4,105.7,544.8,104.7,546.9,105.2z" style="fill:#A71804;"/>
    <path d="M549,80.6c0-9.6,0-19.2,0-28.9c0.5,0.4,0.3,1,0.3,1.5c0,8.7,0,17.4,0,26.1
			C549.3,79.8,549.6,80.4,549,80.6z" style="fill:#482622;"/>
    <path d="M499.2,81c2.1-0.8,4.3-0.3,6.5-0.4c3.9-0.1,3.2,0.2,3.2-3.2c0-0.4,0-0.8,0.1-1.2
			c0.6,1.3,0.2,2.7,0.3,4c0.1,0.7-0.3,1.1-0.9,1.1C505.3,81.3,502.2,81.9,499.2,81z" style="fill:#482622;"/>
    <path d="M497.4,105.5c0-6.4,0-12.8,0-19.2c0.6,0.1,0.5,0.6,0.5,1c0,5.7,0,11.4,0,17.1
			C497.8,104.8,497.9,105.3,497.4,105.5z" style="fill:#482622;"/>
    <path d="M491.8,104.9c-0.8-0.4-0.6-1.1-0.6-1.8c0-5.6,0-11.2,0-16.8c0.9,0.5,0.5,1.3,0.5,2
			C491.7,93.9,491.8,99.4,491.8,104.9z" style="fill:#482622;"/>
    <path d="M517.5,104.1c-0.4-0.3-0.3-0.7-0.3-1.1c0-5.5,0-11.1,0.1-16.6c0.6,0.4,0.3,1,0.3,1.5
			C517.6,93.3,517.6,98.7,517.5,104.1z" style="fill:#482622;"/>
    <path d="M534.5,104.4c-0.8-3.2-0.2-6.4-0.3-9.6c0-1.1-0.4-2.2,0.4-3.2C534.5,95.9,534.5,100.2,534.5,104.4z
			" style="fill:#482622;"/>
    <path d="M519.9,80.7c1.1,0,2.1-0.1,3.2,0c1.3,0.1,1.7-0.5,1.5-1.7c0.7,2.5,0.7,2.5-1.9,2.4
			C521.8,81.3,520.6,82.1,519.9,80.7z" style="fill:#482622;"/>
    <path d="M490,80.5c1.8,0,3.7,0,5.5,0C494.4,81.7,491.1,81.7,490,80.5z" style="fill:#482622;"/>
    <path d="M476.4,80.5c1.8,0,3.5,0,5.3,0C480.6,81.8,477.5,81.8,476.4,80.5z" style="fill:#482622;"/>
    <path d="M485.3,98c-0.4-2.9-0.4-5.9,0-8.8C485.5,92.1,485.6,95.1,485.3,98z" style="fill:#482622;"/>
    <path d="M483.8,80.5c1.4,0,2.7,0,4.1,0C486.6,81.8,484.9,81.8,483.8,80.5z" style="fill:#482622;"/>
    <path d="M523.8,61.6c0-2.5,0-5.1,0-7.6C524.4,56.6,524.5,59.1,523.8,61.6z" style="fill:#482622;"/>
    <path d="M532.4,81c1.4-0.8,2.9-0.2,4.3-0.4C535.4,81.9,533.9,81.4,532.4,81z" style="fill:#482622;"/>
    <path d="M544.1,80.6c1.6,0.1,3.3,0.6,4.9,0C547.9,81.8,545.5,81.8,544.1,80.6z" style="fill:#482622;"/>
    <path d="M517.2,59.7c0-0.9,0-1.8,0-2.7c0-0.6,0.1-1.1,0.9-1.1c0.6,0,1.1,0.2,1.2,0.8c0.2,2,0.2,4-0.4,5.9
			c-0.2,0.6-0.6,0.8-1.1,0.7c-0.7,0-0.6-0.6-0.6-1C517.2,61.5,517.2,60.6,517.2,59.7z" style="fill:#FCFBFB;"/>
    <path d="M504.4,92.6c0-0.6,0-1.2,0-1.9c0-0.4-0.1-1,0.6-1c0.5,0,1,0.2,1.1,0.7c0.3,1.4,0.2,2.7-0.1,4.1
			c-0.1,0.5-0.6,0.8-1.1,0.8c-0.8,0-0.4-0.7-0.5-1.1C504.4,93.7,504.4,93.2,504.4,92.6z" style="fill:#FCFBFB;"/>
    <path d="M505.6,100.3c1.5,1.2,0.8,2.7,0.6,4.1c-0.1,0.9-0.9,1.1-1.7,0.9c0-1.2,0.1-2.5,0-3.7
			C504.5,100.7,504.7,100.3,505.6,100.3z" style="fill:#FCFBFB;"/>
    <path d="M505.6,100.3c-0.9,0-1.1,0.4-1.1,1.3c0.1,1.2,0,2.5,0,3.7c-0.9-1.4-0.4-3-0.4-4.5
			C504.1,99.7,504.9,99.9,505.6,100.3z" style="fill:#482622;"/>
    <path d="M481.2,90.1c0.9,1.8,0.5,3.7,0.3,5.6c-0.1,0.7-0.6,1.2-1.5,0.9c0-1.8,0.1-3.6,0-5.4
			C480,90.3,480.4,90,481.2,90.1z" style="fill:#FCFBFB;"/>
    <path d="M481.2,90.1c-0.8-0.1-1.2,0.2-1.2,1.1c0.1,1.8,0,3.6,0,5.4c-0.8-2-0.3-4.2-0.3-6.2
			C479.8,89.4,480.6,89.5,481.2,90.1z" style="fill:#482622;"/>
	</g>
    <g id="bulle">
		<path d="M438.1,78.3L379.2,8.7c0.2-1.7,0.2-3.3,0.2-5v-24.8c0-29.1-23.9-53-53-53H142.3
			c-29.2,0-53,23.9-53,53V3.7c0,29.1,23.8,53,53,53h173.3L438.1,78.3z" style="fill:#FFFFFF;"/>
      <g id="people">
			<g id="svg_20">
				<path d="M128.9-51c1.4,0,2.5-1.1,2.5-2.5c0-1.4-1.1-2.5-2.5-2.5c-1.4,0-2.5,1.1-2.5,2.5
					C126.5-52.1,127.6-51,128.9-51z" id="svg_21" style="stroke:#000000;"/>
        <path d="M126.4-50.4c-1.8,0-3.2,1.4-3.2,3.2v7.6c0,1.5,2.2,1.5,2.2,0v-6.9h0.5v19
					c0,2,2.9,1.9,2.9,0v-11h0.5v11c0,1.9,2.9,2,2.9,0v-19h0.5v6.9c0,1.5,2.2,1.5,2.1,0v-7.6c0-1.6-1.3-3.3-3.2-3.3L126.4-50.4z"
              id="svg_22" style="stroke:#000000;"/>
			</g>
        <g id="svg_20_1_">
				<path d="M146.7-51c1.4,0,2.5-1.1,2.5-2.5c0-1.4-1.1-2.5-2.5-2.5c-1.4,0-2.5,1.1-2.5,2.5
					C144.2-52.1,145.4-51,146.7-51z" id="svg_21_1_" style="stroke:#000000;"/>
          <path d="M144.2-50.4c-1.8,0-3.2,1.4-3.2,3.2v7.6c0,1.5,2.2,1.5,2.2,0v-6.9h0.5v19
					c0,2,2.9,1.9,2.9,0v-11h0.5v11c0,1.9,2.9,2,2.9,0v-19h0.5v6.9c0,1.5,2.2,1.5,2.1,0v-7.6c0-1.6-1.3-3.3-3.2-3.3L144.2-50.4z"
                id="svg_22_1_" style="stroke:#000000;"/>
			</g>
        <g id="svg_20_2_">
				<path d="M164.5-51c1.4,0,2.5-1.1,2.5-2.5c0-1.4-1.1-2.5-2.5-2.5c-1.4,0-2.5,1.1-2.5,2.5
					C162-52.1,163.1-51,164.5-51z" id="svg_21_2_" style="stroke:#000000;"/>
          <path d="M162-50.4c-1.8,0-3.2,1.4-3.2,3.2v7.6c0,1.5,2.2,1.5,2.2,0v-6.9h0.5v19
					c0,2,2.9,1.9,2.9,0v-11h0.5v11c0,1.9,2.9,2,2.9,0v-19h0.5v6.9c0,1.5,2.2,1.5,2.1,0v-7.6c0-1.6-1.3-3.3-3.2-3.3L162-50.4z"
                id="svg_22_2_" style="stroke:#000000;"/>
			</g>
        <g id="svg_20_3_">
				<path d="M182.3-51c1.4,0,2.5-1.1,2.5-2.5c0-1.4-1.1-2.5-2.5-2.5c-1.4,0-2.5,1.1-2.5,2.5
					C179.8-52.1,180.9-51,182.3-51z" id="svg_21_3_" style="stroke:#000000;"/>
          <path d="M179.8-50.4c-1.8,0-3.2,1.4-3.2,3.2v7.6c0,1.5,2.2,1.5,2.2,0v-6.9h0.5v19
					c0,2,2.9,1.9,2.9,0v-11h0.5v11c0,1.9,2.9,2,2.9,0v-19h0.5v6.9c0,1.5,2.2,1.5,2.1,0v-7.6c0-1.6-1.3-3.3-3.2-3.3L179.8-50.4z"
                id="svg_22_3_" style="stroke:#000000;"/>
			</g>
        <g id="svg_20_4_">
				<path d="M200.1-51c1.4,0,2.5-1.1,2.5-2.5c0-1.4-1.1-2.5-2.5-2.5c-1.4,0-2.5,1.1-2.5,2.5
					C197.6-52.1,198.7-51,200.1-51z" id="svg_21_4_" style="stroke:#000000;"/>
          <path d="M197.6-50.4c-1.8,0-3.2,1.4-3.2,3.2v7.6c0,1.5,2.2,1.5,2.2,0v-6.9h0.5v19
					c0,2,2.9,1.9,2.9,0v-11h0.5v11c0,1.9,2.9,2,2.9,0v-19h0.5v6.9c0,1.5,2.2,1.5,2.1,0v-7.6c0-1.6-1.3-3.3-3.2-3.3L197.6-50.4z"
                id="svg_22_4_" style="stroke:#000000;"/>
			</g>
        <g id="svg_20_5_">
				<path d="M217.9-51c1.4,0,2.5-1.1,2.5-2.5c0-1.4-1.1-2.5-2.5-2.5c-1.4,0-2.5,1.1-2.5,2.5
					C215.4-52.1,216.5-51,217.9-51z" id="svg_21_5_" style="stroke:#000000;"/>
          <path d="M215.4-50.4c-1.8,0-3.2,1.4-3.2,3.2v7.6c0,1.5,2.2,1.5,2.2,0v-6.9h0.5v19
					c0,2,2.9,1.9,2.9,0v-11h0.5v11c0,1.9,2.9,2,2.9,0v-19h0.5v6.9c0,1.5,2.2,1.5,2.1,0v-7.6c0-1.6-1.3-3.3-3.2-3.3L215.4-50.4z"
                id="svg_22_5_" style="stroke:#000000;"/>
			</g>
        <g id="svg_20_6_">
				<path d="M120-25c1.4,0,2.5-1.1,2.5-2.5c0-1.4-1.1-2.5-2.5-2.5c-1.4,0-2.5,1.1-2.5,2.5
					C117.5-26.1,118.6-25,120-25z" id="svg_21_6_" style="stroke:#000000;"/>
          <path d="M117.4-24.4c-1.8,0-3.2,1.4-3.2,3.2v7.6c0,1.5,2.2,1.5,2.2,0v-6.9h0.5v19
					c0,2,2.9,1.9,2.9,0v-11h0.5v11c0,1.9,2.9,2,2.9,0v-19h0.5v6.9c0,1.5,2.2,1.5,2.1,0v-7.6c0-1.6-1.3-3.3-3.2-3.3L117.4-24.4z"
                id="svg_22_6_" style="stroke:#000000;"/>
			</g>
        <g id="svg_20_7_">
				<path d="M137.8-25c1.4,0,2.5-1.1,2.5-2.5c0-1.4-1.1-2.5-2.5-2.5c-1.4,0-2.5,1.1-2.5,2.5
					C135.3-26.1,136.4-25,137.8-25z" id="svg_21_7_" style="stroke:#000000;"/>
          <path d="M135.3-24.4c-1.8,0-3.2,1.4-3.2,3.2v7.6c0,1.5,2.2,1.5,2.2,0v-6.9h0.5v19
					c0,2,2.9,1.9,2.9,0v-11h0.5v11c0,1.9,2.9,2,2.9,0v-19h0.5v6.9c0,1.5,2.2,1.5,2.1,0v-7.6c0-1.6-1.3-3.3-3.2-3.3L135.3-24.4z"
                id="svg_22_7_" style="stroke:#000000;"/>
			</g>
        <g id="svg_20_8_">
				<path d="M155.6-25c1.4,0,2.5-1.1,2.5-2.5c0-1.4-1.1-2.5-2.5-2.5c-1.4,0-2.5,1.1-2.5,2.5
					C153.1-26.1,154.2-25,155.6-25z" id="svg_21_8_" style="stroke:#000000;"/>
          <path d="M153.1-24.4c-1.8,0-3.2,1.4-3.2,3.2v7.6c0,1.5,2.2,1.5,2.2,0v-6.9h0.5v19
					c0,2,2.9,1.9,2.9,0v-11h0.5v11c0,1.9,2.9,2,2.9,0v-19h0.5v6.9c0,1.5,2.2,1.5,2.1,0v-7.6c0-1.6-1.3-3.3-3.2-3.3L153.1-24.4z"
                id="svg_22_8_" style="stroke:#000000;"/>
			</g>
        <g id="svg_20_9_">
				<path d="M173.4-25c1.4,0,2.5-1.1,2.5-2.5c0-1.4-1.1-2.5-2.5-2.5c-1.4,0-2.5,1.1-2.5,2.5
					C170.9-26.1,172-25,173.4-25z" id="svg_21_9_" style="stroke:#000000;"/>
          <path d="M170.9-24.4c-1.8,0-3.2,1.4-3.2,3.2v7.6c0,1.5,2.2,1.5,2.2,0v-6.9h0.5v19
					c0,2,2.9,1.9,2.9,0v-11h0.5v11c0,1.9,2.9,2,2.9,0v-19h0.5v6.9c0,1.5,2.2,1.5,2.1,0v-7.6c0-1.6-1.3-3.3-3.2-3.3L170.9-24.4z"
                id="svg_22_9_" style="stroke:#000000;"/>
			</g>
        <g id="svg_20_10_">
				<path d="M191.2-25c1.4,0,2.5-1.1,2.5-2.5c0-1.4-1.1-2.5-2.5-2.5
					c-1.4,0-2.5,1.1-2.5,2.5C188.7-26.1,189.9-25,191.2-25z" id="svg_21_10_" style="stroke:#000000;"/>
          <path d="M188.7-24.4c-1.8,0-3.2,1.4-3.2,3.2v7.6c0,1.5,2.2,1.5,2.2,0v-6.9h0.5v19
					c0,2,2.9,1.9,2.9,0v-11h0.5v11c0,1.9,2.9,2,2.9,0v-19h0.5v6.9c0,1.5,2.2,1.5,2.1,0v-7.6c0-1.6-1.3-3.3-3.2-3.3L188.7-24.4z"
                id="svg_22_10_" style="stroke:#000000;"/>
			</g>
        <g id="svg_20_11_">
				<path d="M209-25c1.4,0,2.5-1.1,2.5-2.5c0-1.4-1.1-2.5-2.5-2.5c-1.4,0-2.5,1.1-2.5,2.5
					C206.6-26.1,207.7-25,209-25z" id="svg_21_11_" style="stroke:#000000;"/>
          <path d="M206.5-24.4c-1.8,0-3.2,1.4-3.2,3.2v7.6c0,1.5,2.2,1.5,2.2,0v-6.9h0.5v19
					c0,2,2.9,1.9,2.9,0v-11h0.5v11c0,1.9,2.9,2,2.9,0v-19h0.5v6.9c0,1.5,2.2,1.5,2.1,0v-7.6c0-1.6-1.3-3.3-3.2-3.3L206.5-24.4z"
                id="svg_22_11_" style="stroke:#000000;"/>
			</g>
        <g id="svg_20_12_">
				<path d="M128.9,1.3c1.4,0,2.5-1.1,2.5-2.5c0-1.4-1.1-2.5-2.5-2.5
					c-1.4,0-2.5,1.1-2.5,2.5C126.5,0.2,127.6,1.3,128.9,1.3z" id="svg_21_12_" style="stroke:#000000;"/>
          <path d="M126.4,1.9c-1.8,0-3.2,1.4-3.2,3.2v7.6c0,1.5,2.2,1.5,2.2,0V5.8h0.5v19
					c0,2,2.9,1.9,2.9,0v-11h0.5v11c0,1.9,2.9,2,2.9,0v-19h0.5v6.9c0,1.5,2.2,1.5,2.1,0V5.1c0-1.6-1.3-3.3-3.2-3.3L126.4,1.9z"
                id="svg_22_12_" style="stroke:#000000;"/>
			</g>
        <g id="svg_20_13_">
				<path d="M146.7,1.3c1.4,0,2.5-1.1,2.5-2.5c0-1.4-1.1-2.5-2.5-2.5
					c-1.4,0-2.5,1.1-2.5,2.5C144.2,0.2,145.4,1.3,146.7,1.3z" id="svg_21_13_" style="stroke:#000000;"/>
          <path d="M144.2,1.9c-1.8,0-3.2,1.4-3.2,3.2v7.6c0,1.5,2.2,1.5,2.2,0V5.8h0.5v19
					c0,2,2.9,1.9,2.9,0v-11h0.5v11c0,1.9,2.9,2,2.9,0v-19h0.5v6.9c0,1.5,2.2,1.5,2.1,0V5.1c0-1.6-1.3-3.3-3.2-3.3L144.2,1.9z"
                id="svg_22_13_" style="stroke:#000000;"/>
			</g>
        <g id="svg_20_14_">
				<path d="M164.4,1.3c1.4,0,2.5-1.1,2.5-2.5c0-1.4-1.1-2.5-2.5-2.5
					c-1.4,0-2.5,1.1-2.5,2.5C161.9,0.2,163,1.3,164.4,1.3z" id="svg_21_14_" style="stroke:#000000;"/>
          <path d="M161.9,1.9c-1.8,0-3.2,1.4-3.2,3.2v7.6c0,1.5,2.2,1.5,2.2,0V5.8h0.5v19
					c0,2,2.9,1.9,2.9,0v-11h0.5v11c0,1.9,2.9,2,2.9,0v-19h0.5v6.9c0,1.5,2.2,1.5,2.1,0V5.1c0-1.6-1.3-3.3-3.2-3.3L161.9,1.9z"
                id="svg_22_14_" style="stroke:#000000;"/>
			</g>
        <g id="svg_20_15_">
				<path d="M182.3,1.3c1.4,0,2.5-1.1,2.5-2.5c0-1.4-1.1-2.5-2.5-2.5
					c-1.4,0-2.5,1.1-2.5,2.5C179.8,0.2,180.9,1.3,182.3,1.3z" id="svg_21_15_" style="stroke:#000000;"/>
          <path d="M179.8,1.9c-1.8,0-3.2,1.4-3.2,3.2v7.6c0,1.5,2.2,1.5,2.2,0V5.8h0.5v19
					c0,2,2.9,1.9,2.9,0v-11h0.5v11c0,1.9,2.9,2,2.9,0v-19h0.5v6.9c0,1.5,2.2,1.5,2.1,0V5.1c0-1.6-1.3-3.3-3.2-3.3L179.8,1.9z"
                id="svg_22_15_" style="stroke:#000000;"/>
			</g>
        <g id="svg_20_16_">
				<path d="M200,1.3c1.4,0,2.5-1.1,2.5-2.5c0-1.4-1.1-2.5-2.5-2.5c-1.4,0-2.5,1.1-2.5,2.5
					C197.5,0.2,198.6,1.3,200,1.3z" id="svg_21_16_" style="stroke:#000000;"/>
          <path d="M197.5,1.9c-1.8,0-3.2,1.4-3.2,3.2v7.6c0,1.5,2.2,1.5,2.2,0V5.8h0.5v19
					c0,2,2.9,1.9,2.9,0v-11h0.5v11c0,1.9,2.9,2,2.9,0v-19h0.5v6.9c0,1.5,2.2,1.5,2.1,0V5.1c0-1.6-1.3-3.3-3.2-3.3L197.5,1.9z"
                id="svg_22_16_" style="stroke:#000000;"/>
			</g>
        <g id="svg_20_17_">
				<path d="M217.9,1.3c1.4,0,2.5-1.1,2.5-2.5c0-1.4-1.1-2.5-2.5-2.5
					c-1.4,0-2.5,1.1-2.5,2.5C215.4,0.2,216.5,1.3,217.9,1.3z" id="svg_21_17_" style="stroke:#000000;"/>
          <path d="M215.4,1.9c-1.8,0-3.2,1.4-3.2,3.2v7.6c0,1.5,2.2,1.5,2.2,0V5.8h0.5v19
					c0,2,2.9,1.9,2.9,0v-11h0.5v11c0,1.9,2.9,2,2.9,0v-19h0.5v6.9c0,1.5,2.2,1.5,2.1,0V5.1c0-1.6-1.3-3.3-3.2-3.3L215.4,1.9z"
                id="svg_22_17_" style="stroke:#000000;"/>
			</g>
		</g>
      <g id="comedian">
			<g>
				<g id="svg_20_18_">
					<path d="M295.6-9.5c1.5,0,2.8-1.3,2.8-2.8c0-1.5-1.3-2.8-2.8-2.8c-1.5,0-2.8,1.3-2.8,2.8
						C292.8-10.7,294.1-9.5,295.6-9.5z" id="svg_21_18_"/>
          <path d="M292.8-8.3c-2,0-3.6,1.5-3.6,3.4v8.1c0,1.6,2.4,1.6,2.4,0v-7.4h0.6v20.4c0,2.1,3.3,2.1,3.3,0V4.4h0.6
						v11.8c0,2.1,3.3,2.1,3.3,0V-4.2h0.6v7.4c0,1.6,2.4,1.6,2.4,0v-8.1c0-1.8-1.4-3.5-3.6-3.5L292.8-8.3z"
                id="svg_22_18_"/>
				</g>
        <polygon points="284.6,-11.1 286.9,-11.1 286.9,-12.5 281.8,-12.5 281.8,-11.1 283.6,-11.1 276.7,-0.2 277.4,0.3 279.1,-2.4
					279.1,17.2 277.6,17.2 277.6,17.8 282.1,17.8 282.1,17.2 280.5,17.2 280.5,-4.5 				"/>
			</g>
		</g>
      <g id="curtain">
			<g>
				<path d="M324.2-41.2h-10h-10h-10h-10h-10.4h0h-10h-10v61.5c0,0,4.1,0,6.3,1.2c0.6,0.3,3.7-1.2,3.7-1.2
					s4.1,0,6.3,1.2c0.6,0.3,3.7-1.2,3.7-1.2s4.2,0.2,6.5,1.4c0.6,0.3,3.9-1.4,3.9-1.4s4.1,0,6.3,1.2c0.6,0.3,3.7-1.2,3.7-1.2
					s4.1,0,6.3,1.2c0.6,0.3,3.7-1.2,3.7-1.2s4.1,0,6.3,1.2c0.6,0.3,3.7-1.2,3.7-1.2s4.1,0,6.3,1.2c0.6,0.3,3.7-1.2,3.7-1.2
					s4.1,0,6.3,1.2c0.6,0.3,3.7-1.2,3.7-1.2v-61.5H324.2z" style="fill:#EB1C24;"/>
        <path d="M327.2,16.6v-57.8h-2.6v57.8c0,0.7-0.5,3,1,3.5C326.5,20.5,327.4,17.4,327.2,16.6L327.2,16.6z"
              style="fill:#CC1C23;"/>
        <path d="M317.2,16.6v-57.8h-2.6v57.8c0,0.7-0.5,3,1,3.5C316.4,20.5,317.3,17.4,317.2,16.6L317.2,16.6z"
              style="fill:#CC1C23;"/>
        <path d="M307.1,16.6v-57.8h-2.6v57.8c0,0.7-0.5,3,1,3.5C306.4,20.5,307.3,17.4,307.1,16.6L307.1,16.6z"
              style="fill:#CC1C23;"/>
        <path d="M297.1,16.6v-57.8h-2.6v57.8c0,0.7-0.5,3,1,3.5C296.4,20.5,297.2,17.4,297.1,16.6L297.1,16.6z"
              style="fill:#CC1C23;"/>
        <path d="M286.7,16.6v-57.8h-2.6v57.8c0,0.7-0.5,3,1,3.5C286,20.5,286.9,17.4,286.7,16.6L286.7,16.6z"
              style="fill:#CC1C23;"/>
        <path d="M276.7,16.6v-57.8h-2.6v57.8c0,0.7-0.5,3,1,3.5C276,20.5,276.9,17.4,276.7,16.6L276.7,16.6z"
              style="fill:#CC1C23;"/>
        <path d="M266.6,16.6v-57.8H264v57.8c0,0.7-0.5,3,1,3.5C265.9,20.5,266.8,17.4,266.6,16.6L266.6,16.6z"
              style="fill:#CC1C23;"/>
        <path d="M256.6,16.6v-57.8H254v57.8c0,0.7-0.5,3,1,3.5C255.9,20.5,256.8,17.4,256.6,16.6L256.6,16.6z"
              style="fill:#CC1C23;"/>
			</g>
		</g>
	</g>
</g>
</svg>
