<?xml version="1.0" encoding="utf-8"?>
<svg id="Calque_1" style="enable-background:new 0 0 240 195;" version="1.1" viewBox="0 0 240 195" x="0px"
     xml:space="preserve" xmlns="http://www.w3.org/2000/svg" y="0px">
<path d="M240.1,23.1c-9,3.8-18,6.7-28.5,7.5c10.5-6,18-15.8,21.8-27c-9.7,6-20.3,9.7-31.5,12c-9-9.8-21.8-15.8-35.3-15.8
	c-27,0-49.5,21.7-49.5,49.5c0,3.8,0.8,7.5,1.5,11.3C77.3,58.4,41.3,38.9,17.3,8.9c-4.5,7.5-6.7,15.8-6.7,24.7
	c0,17.2,9,32.2,21.7,41.3c-8.3,0-15.8-2.2-22.5-6v0.8c0,24,17.2,43.5,39.8,48c-4.5,0.7-8.3,1.5-12.8,1.5c-3,0-6,0-9-0.7
	c6,19.5,24.7,33.8,45.8,34.5c-16.5,13.5-38.3,21-61.5,21c-3.8,0-8.3,0-12-0.7c21.7,14.3,48,21.8,75.8,21.8
	c90.8,0,140.3-75,140.3-140.3c0-2.2,0-4.5,0-6C225.1,41.1,233.3,32.9,240.1,23.1z"/>
</svg>
