<?xml version="1.0" encoding="utf-8"?>
<!-- Generator: Adobe Illustrator 22.1.0, SVG Export Plug-In . SVG Version: 6.00 Build 0)  -->
<svg id="Calque_1" style="enable-background:new 0 0 370 370;" version="1.1" viewBox="0 0 370 370"
     x="0px"
     xml:space="preserve" xmlns="http://www.w3.org/2000/svg" y="0px">
<style type="text/css">
	.st0 {
    fill: none;
  }

  .st1 {
    fill: #EE5283;
  }

  .st2 {
    fill: #EE749C;
  }

  .st3 {
    fill: #EFB8CF;
  }
</style>
  <g>
	<path d="M0,62.4V59c0-3.3,0.3-6.5,0.8-9.6"/>
    <line class="st0" x1="0" x2="0" y1="87.1" y2="62.4"/>
    <line class="st0" x1="0" x2="0" y1="134.1" y2="87.1"/>
    <path class="st1" d="M0,310.4C0,343.1,27,370,59.6,370h44.1L0,134.1V310.4z"/>
    <path class="st1" d="M369.7,59c0-32.7-26-58.7-58.7-58.7H59.6C30.2,0.4,5.5,21.4,0.9,49.4l368.8,18.8V59z"/>
    <path class="st2" d="M0.9,49.4C0.3,52.6,0,55.8,0,59v3.3l189.3,73.8c4.3-9.7,9.2-19,15.3-27.6c5.6-7.6,12.1-14.7,20.2-19.7
		c-0.3,2.5-1.6,4.7-2.8,6.8c6-4.6,12.9-8.1,20.5-8.9c-1.1,4.5-5.3,6.9-9.1,9c5.7-1.7,11.1-4.1,17-4.5c1.6-0.1,3.9,0,4.4,1.9
		c0.9,2.3-1.4,4-3.2,5c-6.5,3.3-14,3.9-20.5,6.9c13.5-1.3,27.1,3.9,37.3,12.7c12.3,10.1,20.4,24.7,23.3,40.3
		c10.9,2.9,22.5,0.8,32.7-3.5c-5.1,11.6-18.1,16.9-30.1,17.9c9.9,3.8,20.7,4.4,31.2,3.2c-3.6,3.9-8.1,6.9-12.9,8.9l56.8,22.2V68.2
		L0.9,49.4z"/>
    <path class="st3" d="M292.6,188c-5,20.5-17,38.8-32.4,53c-21.5,19.5-49,31.7-77.6,36.2l89.3,92.9H311c32.7,0,58.7-26.9,58.7-59.6
		V206.6l-56.8-22.2C306.5,187.1,299.4,188.1,292.6,188z"/>
    <path class="st2" d="M148.2,278.7c-38.7-2.3-76.8-21.4-99.7-53.1c2,1.2,3.7,2.8,5.6,4c17.7,12.8,41.3,16.9,62.4,11.1
		c7.8-2,15.1-5.5,21.8-10L0,87v47l103.7,235.9h168.1l-89.3-92.8C171.2,278.9,159.7,279.4,148.2,278.7z"/>
    <path class="st3" d="M138.2,230.9c4.3-2.9,8.3-6.2,11.8-9.9c-5.9,0.4-12.5-0.6-16.8-5.1c-2.7-2.5-3.8-6.7-2.2-10.1
		c2-4.3,6.3-6.7,10.4-8.7c-13.5,1.9-28.1-4.3-34.3-16.8c4.6-5.4,11.8-7.2,18.5-7.7c-7.8-2.2-15.9-5.1-21.8-10.9
		c-4.8-4.4-7.8-10.6-8.7-17c5.6-1.1,11.1-2.3,16.8-2.1c-12.9-6.7-24.7-19.5-23.7-35c24.5,8.9,48.5,19.1,71.5,31.4
		c8.1,4.4,14.7,10.8,21.3,17.1c2.6-6.7,5.2-13.5,8.2-20L0,62.4v24.8L138.2,230.9z"/>
</g>
</svg>
