<?xml version="1.0" encoding="utf-8"?>
<!-- Generator: Adobe Illustrator 22.1.0, SVG Export Plug-In . SVG Version: 6.00 Build 0)  -->
<svg id="Calque_1" style="enable-background:new 0 0 370 370;" version="1.1" viewBox="0 0 370 370"
     x="0px"
     xml:space="preserve" xmlns="http://www.w3.org/2000/svg" y="0px">
<style type="text/css">
	.st0 {
    fill: #FCAB94;
  }

  .st1 {
    fill: #FEDCCD;
  }
</style>
  <g>
	<path class="st0" d="M88.2,268.9L88.2,268.9c0-0.7,0-1.7,0-2.5C88.2,267.1,88.2,268.1,88.2,268.9z"/>
    <path class="st0" d="M340.8,370.3c7.1,0,13.5-2.7,18.7-6.9l0,0C354.3,367.6,347.6,370.3,340.8,370.3L340.8,370.3z"/>
    <path class="st0" d="M13.1,365.4c4.7,3.2,10.3,4.9,16.2,4.9h0.2C23.4,370.3,17.7,368.3,13.1,365.4L13.1,365.4z"/>
    <path class="st0" d="M262.4,281.6L262.4,281.6c-52.1-0.2-103.7-0.2-155.7-0.2v0.2l-10.6,88.7h176.6L262.4,281.6z"/>
    <path class="st0" d="M262.4,281.4L262.4,281.4h0.2H262.4z"/>
    <path class="st0" d="M29.5,0.4L29.5,0.4c-16.2,0-29.5,13-29.5,29.2v0.2C0.1,13.6,13.3,0.4,29.5,0.4z"/>
    <path class="st0" d="M370,29.8L370,29.8c0-16.5-13.3-29.5-29.2-29.5h-0.2C356.7,0.4,370,13.6,370,29.8z"/>
    <path class="st0" d="M370,29.8c0-16.2-13.3-29.5-29.5-29.5h-48.9l0.5,2.5l67.3,360.6c6.4-5.4,10.6-13.5,10.6-22.6L370,29.8
		L370,29.8z"/>
    <path class="st1" d="M291.9,2.8l-0.5-2.5h-62.1l0.2,2.5L239.6,89c8.6,0,16.9,0,25.5,0c7.4,0,12.3,3.2,14.5,8.8c0.7,2,1,3.9,1,6.4
		v0.2c0,0.7,0,1.5,0,2.2c0,53.1,0,106.4,0,159.4v0.2c0,9.3-5.6,15-15.5,15c-1,0-1.7,0-2.7,0l-0.2,0.2l10.3,88.7h67.8
		c7.1,0,13.8-2.7,18.9-6.9L291.9,2.8z"/>
    <path class="st0" d="M29.5,0.4C13.3,0.4,0.1,13.6,0.1,29.8v2.2v308.8c0,10.1,5.2,19.2,13,24.6L77.7,2.8l0.5-2.5L29.5,0.4L29.5,0.4z
		"/>
    <path class="st0" d="M229.7,2.8l-0.2-2.5h-89.4l-0.2,2.5L129.8,89c36.8,0,73.4,0,110.3,0L229.7,2.8z"/>
    <path class="st0"
          d="M88.5,106.7C88.5,106.7,88.5,106.5,88.5,106.7c0-0.7,0-1.5,0-2C88.5,105.5,88.5,106.2,88.5,106.7z"/>
    <path class="st0" d="M265.4,89c-8.6,0-16.9,0-25.5,0l0,0C248.4,89,256.8,89,265.4,89z"/>
    <path class="st0" d="M129.5,89c-8.4,0-16.9,0-25.3,0C112.6,89,121.2,89,129.5,89L129.5,89z"/>
    <path class="st0"
          d="M88.2,266.2C88.2,266.2,88.2,266.4,88.2,266.2c0,1,0,2,0,2.7l0,0C88.2,268.1,88.2,267.1,88.2,266.2z"/>
    <path class="st1" d="M78.2,0.4l-0.5,2.5L13.1,365.4c4.7,3.2,10.3,4.9,16.5,4.9h66.8l10.6-88.7v-0.2c-0.2,0-0.2,0-0.5,0
		c-1,0-2,0-2.9,0c-7.6,0-13-3.9-14.7-10.3c-0.2-0.7-0.2-1.5-0.5-2.2l0,0l0,0c0-0.7,0-1.7,0-2.5v-0.2c0.2-26.8,0.2-53.8,0.2-80.8
		c0-26.3,0.2-52.3,0-78.9v0.2c0-0.5,0-1.2,0-2C88.2,94.4,95.9,89,104.2,89s16.9,0,25.3,0l10.1-86.2l0.2-2.5H78.2z"/>
    <path class="st0" d="M198.8,186.8c-0.5,0.2-1,0.7-1.2,1l0,0C198,187.5,198.5,187.1,198.8,186.8c3.4-2.2,6.9-3.2,10.3-2.9
		C205.7,183.6,202,184.6,198.8,186.8z"/>
    <path class="st0" d="M221.4,195.9c0.5,2.7,1,5.6,1,8.4C222.4,201.5,222.1,198.6,221.4,195.9z"/>
    <path class="st0" d="M147.9,141.4c0.5-1.2,0.7-2.5,0.7-3.4l0,0C148.4,138.9,148.2,140.1,147.9,141.4z"/>
    <path class="st0" d="M117.2,130.6c-1,2.5-1.5,4.7-1.2,7.1l0,0c0.2,4.4,2.7,8.4,6.4,11.1l2.7-23.3l0.2-2.5
		C121.7,124.2,118.7,126.9,117.2,130.6z"/>
    <path class="st0" d="M148.7,135.2c0-0.2,0-0.5,0-0.7c-0.7-5.4-4.4-10.1-10.1-12l0,0c-0.5-0.2-1.2-0.2-1.7-0.5h-0.2
		c-0.5,0-1-0.2-1.5-0.2c-0.2,0-0.2,0-0.5,0c-0.7,0-1.2,0-2,0c-2.5,0-4.9,0.5-6.9,1.2l-0.2,2.5l-2.7,23.3c2,1.2,4.4,2.2,7.1,2.5
		c8.6,1,15.5-2.5,18.2-9.1c0-0.2,0.2-0.5,0.2-0.7c0.2-1.2,0.5-2.5,0.7-3.7l0,0c0-0.7,0-1.2,0-2C148.7,135.7,148.7,135.5,148.7,135.2
		z"/>
    <path class="st0" d="M146.5,163.5L146.5,163.5c-4.7,0-9.3,0-14.2,0C137.1,163.5,141.8,163.5,146.5,163.5z"/>
    <path class="st0"
          d="M117.7,163.5c0,0.7,0,1.7,0,2.5c0,7.6,0,15.2,0,22.8l2.9-25.3C119.7,163.5,118.7,163.5,117.7,163.5z"/>
    <path class="st0" d="M120.7,163.5l-2.9,25.3c0,20.4,0,41,0,61.4h0.2c9.6,0,18.9,0,28.5,0v-0.2c0-28,0-56,0-84c0-0.7,0-1.7,0-2.5
		c-4.7,0-9.3,0-14.2,0C128.5,163.5,124.6,163.5,120.7,163.5z"/>
    <path class="st0" d="M222.4,204.7v-0.2V204.7C222.4,205,222.4,204.7,222.4,204.7z"/>
    <path class="st0" d="M221.4,195.9c0-0.5-0.2-1-0.2-1.2c-0.5-1.7-1.2-3.2-2-4.4c1,1.5,1.5,2.9,2,4.7
		C221.1,195.2,221.4,195.7,221.4,195.9z"/>
    <path class="st0" d="M218.4,189.3c-2-2.7-4.9-4.4-7.9-5.2C213.8,184.8,216.5,186.6,218.4,189.3z"/>
    <g>
		<path class="st0" d="M148.7,134.5c-0.7-5.4-4.4-10.1-10.1-12l0,0c-0.5-0.2-1.2-0.2-1.7-0.5h-0.2c-0.5,0-1-0.2-1.5-0.2
			c-0.2,0-0.2,0-0.5,0c-0.7,0-1.2,0-2,0c-2.5,0-4.9,0.5-6.9,1.2c-3.9,1.5-6.9,4.2-8.4,7.9c-1,2.5-1.5,4.9-1.2,7.4v-0.2
			c0.2,4.4,2.7,8.4,6.4,11.1c2,1.2,4.4,2.2,7.1,2.5c8.6,1,15.5-2.5,18.2-9.1c0-0.2,0.2-0.5,0.2-0.7c0.5-1.2,0.7-2.5,0.7-3.4
			c0-0.7,0-1.2,0-2c0-0.2,0-0.5,0-0.5C148.7,135,148.7,134.7,148.7,134.5z"/>
      <path class="st0" d="M120.7,163.5c-1,0-2,0-2.9,0c0,0.7,0,1.7,0,2.5c0,7.6,0,15.2,0,22.8c0,20.4,0,41,0,61.4h0.2
			c9.6,0,18.9,0,28.5,0v-0.2c0-28,0-56,0-84c0-0.7,0-1.7,0-2.5l0,0c-4.7,0-9.3,0-14.2,0C128.5,163.5,124.6,163.5,120.7,163.5z"/>
      <g>
			<path class="st0" d="M148.7,134.5c-0.7-5.4-4.4-10.1-10.1-12l0,0c-0.5-0.2-1.2-0.2-1.7-0.5h-0.2c-0.5,0-1-0.2-1.5-0.2
				c-0.2,0-0.2,0-0.5,0c-0.7,0-1.2,0-2,0c-2.5,0-4.9,0.5-6.9,1.2c-3.9,1.5-6.9,4.2-8.4,7.9c-1,2.5-1.5,4.9-1.2,7.4v-0.2
				c0.2,4.4,2.7,8.4,6.4,11.1c2,1.2,4.4,2.2,7.1,2.5c8.6,1,15.5-2.5,18.2-9.1c0-0.2,0.2-0.5,0.2-0.7c0.5-1.2,0.7-2.5,0.7-3.4
				c0-0.7,0-1.2,0-2c0-0.2,0-0.5,0-0.5C148.7,135,148.7,134.7,148.7,134.5z"/>
        <path class="st0" d="M120.7,163.5c-1,0-2,0-2.9,0c0,0.7,0,1.7,0,2.5c0,7.6,0,15.2,0,22.8c0,20.4,0,41,0,61.4h0.2
				c9.6,0,18.9,0,28.5,0v-0.2c0-28,0-56,0-84c0-0.7,0-1.7,0-2.5l0,0c-4.7,0-9.3,0-14.2,0C128.5,163.5,124.6,163.5,120.7,163.5z"/>
		</g>
	</g>
    <path class="st0" d="M229.5,162.7c-4.7-1.5-9.6-2-14.5-1.5c-8.4,0.5-15.2,3.9-20.4,10.3c-0.7,1-1.5,2-2.2,2.9c-0.2,0-0.2,0-0.5,0
		c0-2.7,0-5.6,0-8.6c0-0.7,0-1.7,0-2.5v-0.2c-9.8,0-19.4,0-29,0v0.2c0,0.7,0,1.7,0,2.5c0,28,0,56,0,84c9.6,0,19.2,0,29,0
		c0-1,0-1.7,0-2.7c0-15.2,0-30.2,0-45.4c0-0.7,0-1.7,0-2.5c0-4.9,2.2-8.4,5.6-11.5c0.5-0.2,0.7-0.7,1.2-1c3.2-2.2,6.9-3.2,10.3-2.9
		c0.5,0,1,0.2,1.5,0.2c0,0,0,0,0.2,0c3.2,0.7,5.9,2.5,7.9,5.2c0,0.2,0.2,0.2,0.2,0.5c0,0.2,0.2,0.2,0.2,0.5c1,1.2,1.5,2.7,2,4.4
		c0,0.5,0.2,1,0.2,1.2c0.7,2.7,1,5.6,1,8.4v0.2v0.2c0,0.2,0,0.2,0,0.5c0,0.5,0,1,0,1.7c0,3.9,0,10.8,0,17.9c0,1,0,2,0,2.9
		c0,8.4,0,16.2,0,19.2v0.2c0,0.7,0,1.5,0,2.5h0.2c9.8,0,19.2,0,28.7,0c0-0.7,0-1.2,0-1.7c0-7.4,0-15,0-22.4c0-7.9,0-15.7,0-23.8
		c0-0.7,0-1.7,0-2.5v-0.2c0-3.9-0.5-8.1-1.2-12C247.7,175.5,241.3,166.7,229.5,162.7z"/>
    <path class="st0" d="M251.4,225.9c0.2-8.6,0.2-17.4,0-26.3c0,0.7,0,1.7,0,2.5C251.4,210.1,251.4,218,251.4,225.9z"/>
</g>
</svg>
