<?xml version="1.0" encoding="utf-8"?>
<!-- Generator: Adobe Illustrator 22.1.0, SVG Export Plug-In . SVG Version: 6.00 Build 0)  -->
<svg id="Calque_1" style="enable-background:new 0 0 137 137;" version="1.1" viewBox="0 0 137 137"
     x="0px"
     xml:space="preserve" xmlns="http://www.w3.org/2000/svg" y="0px">
<style type="text/css">
	.st0 {
    fill: #3F91FF;
  }

  .st1 {
    fill: #1A5BB2;
  }
</style>
  <g>
	<path class="st0" d="M68.3,0C30.4,0-0.3,30.7-0.3,68.6c0,31.4,21.2,57.9,50,66.1L73.2,0.4C71.5,0.2,70,0,68.3,0z M51.4,83.6
		l-8.1,8.3L18.7,67.3l24.6-24.6l8.1,8.3L35.1,67.3L51.4,83.6z"/>
    <path class="st1" d="M86.9,2.5L63.4,136.8c1.7,0.2,3.2,0.2,4.9,0.2c37.8,0,68.6-30.8,68.6-68.6C136.9,37.2,115.7,10.7,86.9,2.5z
		 M93.3,91.7l-8.1-8.1l16.2-16.2L85.2,51.1l8.1-8.1l24.6,24.4L93.3,91.7z"/>
</g>
</svg>
