<?xml version="1.0" encoding="utf-8"?>
<svg style="enable-background:new 32 -104 1024 768;" version="1.1" viewBox="32 -104 1024 768" x="0px"
     xml:space="preserve" xmlns="http://www.w3.org/2000/svg" y="0px">
<g id="background">
	<g id="Calque_1_1_">
		<rect height="14784" style="fill:#F5ECD9;" width="16291.8" x="-6056.4" y="-5878.9"/>
	</g>
</g>
  <g id="Calque_2">

		<text style="fill:#D24537; font-family:'Montserrat-Medium'; font-size:30.0371px;"
          transform="matrix(1 0 0 1 112.0401 -22.5449)">Thank you for you curiosity !</text>
</g>
  <g id="Calque_3">
</g>
  <g id="Calque_4">
</g>
  <g id="Calque_5">
	<g>
		<path d="M488.8,547.5H128c-5.5,0-10-4.5-10-10V26.4c0-5.5,4.5-10,10-10h360.8c5.5,0,10,4.5,10,10v511.1
			C498.8,543,494.3,547.5,488.8,547.5z" style="fill:#CEB098;"/>
    <rect height="462.4" style="fill:#F9F7F4;" width="340.9" x="134" y="75.4"/>
    <path d="M375.5,62.9c-7.3-3.5-17-6-28.1-7.6V49h-6c0-0.6,0-1.2,0-1.7c0-18.3-14.8-33.1-33.1-33.1
			c-18.3,0-33.1,14.8-33.1,33.1c0,0.6,0,1.2,0,1.7h-6v6.9c-10.9,1.7-20.7,4.1-28.1,7c-11.3,4.5-35,33.7-35,33.7h204.2
			C410.5,96.6,386.4,68.2,375.5,62.9z M287.1,47.3c0-11.8,9.6-21.4,21.4-21.4c11.8,0,21.4,9.6,21.4,21.4c0,0.6,0,1.2-0.1,1.7h-42.5
			C287.1,48.5,287.1,47.9,287.1,47.3z" style="fill:#3F3C36;"/>
    <g>
			<g>
				<g>
					<line style="fill:none;stroke:#B7B7B7;stroke-miterlimit:10;" x1="194.9" x2="196.9" y1="266.2" y2="266.2"/>

          <line style="fill:none;stroke:#B7B7B7;stroke-miterlimit:10;stroke-dasharray:3.9606,3.9606;" x1="200.9"
                x2="436.5" y1="266.2" y2="266.2"/>
          <line style="fill:none;stroke:#B7B7B7;stroke-miterlimit:10;" x1="438.5" x2="440.5" y1="266.2" y2="266.2"/>
				</g>
			</g>
      <rect height="23" style="fill:none;stroke:#70706F;stroke-miterlimit:10;" width="23" x="163.3" y="238.3"/>
		</g>
    <g>
			<g>
				<g>
					<line style="fill:none;stroke:#B7B7B7;stroke-miterlimit:10;" x1="194.9" x2="196.9" y1="316.6" y2="316.6"/>

          <line style="fill:none;stroke:#B7B7B7;stroke-miterlimit:10;stroke-dasharray:3.9606,3.9606;" x1="200.9"
                x2="436.5" y1="316.6" y2="316.6"/>
          <line style="fill:none;stroke:#B7B7B7;stroke-miterlimit:10;" x1="438.5" x2="440.5" y1="316.6" y2="316.6"/>
				</g>
			</g>
      <rect height="23" style="fill:none;stroke:#70706F;stroke-miterlimit:10;" width="23" x="163.3" y="288.8"/>
		</g>
    <g>
			<g>
				<g>
					<line style="fill:none;stroke:#B7B7B7;stroke-miterlimit:10;" x1="194.9" x2="196.9" y1="367.1" y2="367.1"/>

          <line style="fill:none;stroke:#B7B7B7;stroke-miterlimit:10;stroke-dasharray:3.9606,3.9606;" x1="200.9"
                x2="436.5" y1="367.1" y2="367.1"/>
          <line style="fill:none;stroke:#B7B7B7;stroke-miterlimit:10;" x1="438.5" x2="440.5" y1="367.1" y2="367.1"/>
				</g>
			</g>
      <rect height="23" style="fill:none;stroke:#70706F;stroke-miterlimit:10;" width="23" x="163.3" y="339.2"/>
		</g>
    <g>
			<g>
				<g>
					<line style="fill:none;stroke:#B7B7B7;stroke-miterlimit:10;" x1="194.9" x2="196.9" y1="417.6" y2="417.6"/>

          <line style="fill:none;stroke:#B7B7B7;stroke-miterlimit:10;stroke-dasharray:3.9606,3.9606;" x1="200.9"
                x2="436.5" y1="417.6" y2="417.6"/>
          <line style="fill:none;stroke:#B7B7B7;stroke-miterlimit:10;" x1="438.5" x2="440.5" y1="417.6" y2="417.6"/>
				</g>
			</g>
      <rect height="23" style="fill:none;stroke:#70706F;stroke-miterlimit:10;" width="23" x="163.3" y="389.7"/>
		</g>
    <g>
			<g>
				<g>
					<line style="fill:none;stroke:#B7B7B7;stroke-miterlimit:10;" x1="194.9" x2="196.9" y1="468.1" y2="468.1"/>

          <line style="fill:none;stroke:#B7B7B7;stroke-miterlimit:10;stroke-dasharray:3.9606,3.9606;" x1="200.9"
                x2="436.5" y1="468.1" y2="468.1"/>
          <line style="fill:none;stroke:#B7B7B7;stroke-miterlimit:10;" x1="438.5" x2="440.5" y1="468.1" y2="468.1"/>
				</g>
			</g>
      <rect height="23" style="fill:none;stroke:#70706F;stroke-miterlimit:10;" width="23" x="163.3" y="440.2"/>
		</g>
    <g>
			<path d="M199.4,399.2c0-0.5-0.1-1-0.1-1.5c0.7,7.8,3.9,15.4,9.1,21.3
				c1.8-4.5,1.8-9.6,0-14.1c2,4.9,5.4,9.1,9.8,12c0.5,0.4,1.2,0.7,1.8,0.5c0.8-0.3,1.1-1.3,1.2-2.1c0.9-8.7-1.3-17.6-6.2-24.9"
            style="fill:none;stroke:#606060;stroke-miterlimit:10;"/>
      <g>
				<path d="M228.8,409.9c-2.1-1.4-5.4,0-5.9,2.4c-0.6,2.4,1.6,5.1,4.1,5.2
					c2,0.1,4.1-1.4,4.4-3.4c0.2-2-1.7-4.1-3.7-3.8" style="fill:none;stroke:#606060;stroke-miterlimit:10;"/>
        <path d="M233.5,409.5c-0.1,2.6,0.2,5.3,0.9,7.8c-0.9-3,1.1-6.5,4-7.3"
              style="fill:none;stroke:#606060;stroke-miterlimit:10;"
        />
        <path d="M238.9,398.8c1.1,6.2,2.2,12.3,3.4,18.5c0-2.3-0.8-4.6-0.6-6.9
					c0.2-2.3,2.2-4.8,4.5-4.2c1.1,2.8-1.8,6.2-4.7,5.6c2.2,3.5,6.3,5.7,10.5,5.6"
              style="fill:none;stroke:#606060;stroke-miterlimit:10;"/>
        <path d="M259.1,412.8c0.6,0.9,2.1,0.8,2.8,0s1.1-1.9,1.2-2.9
					c0.9-5.3,0.2-10.9-2-15.8c0.8,10.6,1.6,21.1,2.3,31.7c0.1,0.8,0.5,1.9,1.2,1.7c0.4-0.1,0.6-0.5,0.7-0.8c1.4-3.4-0.7-7.9-4.3-8.9
					" style="fill:none;stroke:#606060;stroke-miterlimit:10;"/>
        <path d="M268.1,412.8c0-0.5-0.1-1-0.1-1.5c-0.7-0.7-2-0.5-2.7,0.3
					c-0.7,0.8-0.8,1.9-0.7,2.9c0.2,1.3,1.1,2.7,2.4,2.4c2-0.5,0.9-3.9,2.3-5.4c1.4,1.4,2.5,3.2,2.9,5.1c-0.4-2.1-0.3-4.4,1-6.1
					s4.3-2.1,5.5-0.4" style="fill:none;stroke:#606060;stroke-miterlimit:10;"/>
        <path d="M290.8,411.3c0.6-0.5-0.1-1.4-0.8-1.6
					c-1.9-0.6-4.2,0.6-4.7,2.5s1,4.2,3,4.2c2,0.1,3.7-2.2,2.9-4c-0.2,2.6,2.3,5.1,4.9,4.9"
              style="fill:none;stroke:#606060;stroke-miterlimit:10;"/>
        <g>
					<path d="M306.4,410.4c0.6-0.8-0.8-1.6-1.7-1.4c-1.7,0.4-3,2.4-2.6,4.1
						c0.4,1.8,2.5,2.9,4.2,2.3c1.7-0.7,0.9-5.3,1.2-4.5c2.4,5.4,3.6,11.4,3.6,17.3c0,0.5,0,1.1-0.4,1.5c-0.7,0.8-2.1,0.2-2.9-0.5
						c-1.4-1.1-2.7-2.5-2.8-4.3c-0.1-1.8,1.9-3.6,3.4-2.7" style="fill:none;stroke:#606060;stroke-miterlimit:10;"/>
          <path d="M309.3,415.9c1.1,1.6,3.9,0.9,4.6-1s-0.3-3.9-1.7-5.2
						c1.4,1.4,3.8,1.4,5.3,0.2c-1.4,1.7-2,4.4-0.8,6.3c1.2,1.9,3.5,1,5.6,0.1c1.6-0.7,5.1-3.3,5.9-4.9c0.8-1.6-0.9-3.9-2.5-3.1
						c-0.6,0.3-1,0.9-1.3,1.5c-0.6,1-1.1,2-1.2,3.1c-0.1,2.4,2.5,4.3,4.9,4.3s1.2-0.2,3.6-0.7"
                style="fill:none;stroke:#606060;stroke-miterlimit:10;"/>
          <path d="M336.5,410.4c-2.6-1.8-6.6,0.4-6.7,3.6c0,0.6,0.1,1.2,0.4,1.7
						c1,1.6,3.5,1.2,4.7-0.1S336.3,412.2,336.5,410.4c0.2-0.4,0,2.8,0.1,4.2s1.2,3,2.5,2.7c1.1-0.3,1.5-1.7,1.6-2.8
						c0.6-4.7,0.8-9.4,0.6-14.1c-0.4,4.5-0.1,9.1,0.9,13.5c0.2,1,0.5,2.1,1.2,2.9s2.1,1,2.8,0.3"
                style="fill:none;stroke:#606060;stroke-miterlimit:10;"/>
          <path d="M335.8,402.6c3.6,0.3,7.2,0.2,10.8-0.3" style="fill:none;stroke:#606060;stroke-miterlimit:10;"/>
				</g>
        <g>
					<path d="M379.8,413.7c1.1,1.5,1.2,8.2,0.9,12.8c0-4.4,0-8.8,0.1-13.2
						c0-1,0-2.1,0.5-3c0.5-0.9,1.6-1.6,2.6-1.2c0.9,1,1.9,2.1,2.3,3.4c0.4,1.3,0,3-1.2,3.6c-1.3,0.7-3.2,0.8-4.2,0.8
						c-2.2,0.3-3.3,1.1-3.8-1.7c-0.3-1.9,0.2-5.5-1.1-5.4c-2.6,1.1-2.9,7.4-3.3,7c-0.3-1.1,0-2.2-0.1-3.3c-0.2-1.1-1.4-2.2-2.3-1.5
						c-0.3,0.2-0.5,0.7-0.6,1.1c-0.4,1.3-0.6,2.7-0.5,4.1c0.2,0.4,0.2-3-0.4-4.4c-0.6-1.4-1.9-2.5-3.4-2.3c-0.1,1.6-0.1,3.3-0.2,4.9
						c0,0.9-1.1,1.1-1.9,1.2c-0.4,0-0.8,0.3-1.7,0c-1.8-0.6-1.9-2-1.8-3.5c0.2-1.6,1.9-2.9,3.5-3c2-0.1,3.4,2.5,2.6,4.4
						c-0.8,1.9-2.9,2.9-4.9,3.1c-2,0.2-4.1-0.3-5.6-1.6c-1.5-1.3-2.1-3.7-1.3-5.5c0.9-1.8,4.1-2.3,4.7-0.3"
                style="fill:none;stroke:#606060;stroke-miterlimit:10;"/>
          <path d="M392.2,411.8c0-0.6-0.1-1.1-0.2-1.7c-1.4-0.4-2.7,0.1-3.5,1.2
						c-0.9,1.2-1,2.9-0.2,4.1c1,1,2.7,0.3,3.4-0.8c0.7-1.2,0.6-2.6,0.4-3.9c0.2,2.2,1.2,5.7,3.1,5.8c1.1-0.6,0.1-6.9,0.7-7
						c1.6-0.4,3.2,0.8,3.9,2.3c0.7,1.5,0.1,4.7,0.6,4.8c0.2,0.5,0-7.9,1.7-6.7c1.2,0.7,1.1,2.4,1.2,3.8c0.1,1.4,1.1,3.1,2.4,2.6
						c0.5-0.2,0.9-0.7,1.2-1.2c0.9-1.6,1.1-6.1,1.5-5.3c0,2,0,4,0,6c-0.1,0.6,2.8-0.1,3.5-1.3c0.7-1.2,0.7-4.8,0.8-4
						c0.3,4.9,0.7,9.9,1,14.8c0.1,1.6-0.6,3.9-2.1,3.4c-0.7-0.2-1-1-1.3-1.6c-0.6-1.4-1.2-2.9-1.1-4.5c0-1.6,0.8-3.2,2.3-3.8
						c1.5-0.5,1-0.1,1.9,0.3" style="fill:none;stroke:#606060;stroke-miterlimit:10;"/>
				</g>
			</g>
		</g>
    <g>
			<path d="M202.2,307.2c4.3-1.2,8.2-4.2,10.3-8.2c2-4,2-9.1-0.4-13
				c-0.4-0.7-0.9-1.4-1.5-2c-0.2-0.3-0.5-0.6-0.9-0.7c-0.4,0-0.7,0.2-1,0.4c-3.2,2.5-4.7,6.5-5.4,10.5c-0.9,4.9-0.6,10.1,0.9,14.9
				c0.5,1.7,1.2,3.5,2.6,4.6c1.4,1.1,3.7,1.3,4.9,0.1" style="fill:none;stroke:#606060;stroke-miterlimit:10;"/>
      <path d="M212.9,310.1c0.6,0.9,2.2,0.9,2.7-0.1c0.5-1-0.4-2.3-1.5-2.2
				c-1,0.1-1.6,1.2-1.6,2.3c-0.1,1.6,0.8,3.1,2.2,3.9c1.4,0.8,3.1,0.7,4.4-0.2"
            style="fill:none;stroke:#606060;stroke-miterlimit:10;"/>
      <path d="M224.3,309.9c0-0.6-1.7-1-2.3-0.8c-0.6,0.2-1,0.7-1.3,1.1
				c-0.5,0.8-1,1.7-1.1,2.6c-0.1,1,0.3,2,1.2,2.4c1.2,0.6,2.6-0.3,3.2-1.5C224.5,312.5,224.4,309.1,224.3,309.9
				c-0.3,1.1,0,2.4,0.7,3.3c0.5,0.8,1.5,1.5,2.4,1.3c1.1-0.2,1.7-1.4,1.5-2.5c-0.1-1.1-0.8-2-1.5-2.8c-0.5-0.7,2.4,0.5,3.2-0.4
				c0.5-0.5-0.9,2.2-0.6,3.3s1.2,2.1,2.4,2.2c1.1,0.1,2.3-0.9,2.2-2c-0.1-1-0.9-2-0.3-2.8c0.6-0.7,1.8-0.2,2.4,0.5
				c0.9,1,1.4,2.3,1.5,3.7c-0.3-1.7-0.4-4,1.2-4.8c0.2-0.1,0.4-0.2,0.6-0.1c0.2,0.1,0.2,0.4,0.3,0.6c0.2,1.4,0.4,2.9,0.6,4.3"
            style="fill:none;stroke:#606060;stroke-miterlimit:10;"/>
      <path d="M264,297.1c-1,4.1-1.3,8.4-1,12.7c0,0.5,0.2,2.7,0.5,3.2
				c0.5,0.7,2.5,0.4,3.2-0.1c0.8-0.5,0.6-1.1,1.4-1.4" style="fill:none;stroke:#606060;stroke-miterlimit:10;"/>
      <path d="M260.5,305.4c2.3-0.5,4.7-1,7-1.6" style="fill:none;stroke:#606060;stroke-miterlimit:10;"/>
      <path d="M271.5,308.1c-1.3-1.1-3.6-0.5-4.3,1.1c-0.6,1.5,0.4,3.3,2,3.7
				c1.5,0.4,3.3-0.8,3.5-2.4s-0.9-3.2-2.4-3.6" style="fill:none;stroke:#606060;stroke-miterlimit:10;"/>
      <path d="M289.6,308.9c-1.6-0.8-3.7-0.2-4.7,1.2
				c-0.3,0.4-0.5,0.9-0.5,1.4c0,0.9,0.5,1.7,1.2,2.2c1.6,1.3,4,1.6,5.8,0.7"
            style="fill:none;stroke:#606060;stroke-miterlimit:10;"/>
      <path d="M296.8,310c-1-0.8-2.6-0.8-3.5,0.1c-0.9,0.9-1.1,2.5-0.4,3.5
				s2.3,1.4,3.4,0.8c0.4-0.2,0.8-0.6,1-1c0.6-0.9,0.4-2.2-0.3-3.1s-2-1.1-3-0.7"
            style="fill:none;stroke:#606060;stroke-miterlimit:10;"/>
      <path d="M304.5,310c-0.6-0.7-1.6-1.2-2.5-1.2c-1.4,0-2.8,1.1-2.8,2.6
				c0,1.4,1.5,2.7,2.9,2.2c1.2-0.4,1.7-1.9,1.9-3.2c0.8-3.8,1.1-7.7,0.9-11.6c0.2,2,0,4.1,0,6.2s0.3,4.2,1.3,5.9c1,1.8,3,3.1,5,3
				c1.7-0.1,3.2-1.2,4-2.6c0.4-0.6,0.6-1.4,0.5-2.1s-0.7-1.4-1.4-1.5c-1.1-0.2-2,0.9-2.6,1.8c-0.3,0.4-0.6,0.9-0.6,1.4
				c0,1.2,1.4,1.9,2.6,2.1c2.4,0.4,4.9,0.3,7.3-0.4" style="fill:none;stroke:#606060;stroke-miterlimit:10;"/>
		</g>
    <g>
			<path d="M211,265.8c-0.4-3.5-0.5-6.1-0.6-9.9c-0.1-4,0.4-8,1.9-11.7
				c0.6-1.4,1.5-2.9,3-3c1.9-0.2,3.3,2,3.4,4c0.2,3.7-5.5,8.9-5,7.8c0.2-0.6,6.2-2.1,8.3-0.6c2.1,1.5,3,4.2,3.1,6.8
				c0,1.1-0.1,2.2-0.6,3.2c-0.8,1.5-2.6,2.2-4.2,2.7c-3.3,0.9-7.3,1.1-9.5-1.4"
            style="fill:none;stroke:#606060;stroke-miterlimit:10;"/>
      <path d="M228.7,259.4c0,0.4,2,1.3,2.4,1.4c1.7,0.4,3.8,0.2,4.6-1.4
				c0.8-1.5-0.4-3.5-2.1-3.9c-1.7-0.4-3.2,0.8-4.2,2.2c-1,1.3-1,3.2-0.4,5c0.4,1.2,0.8,2.3,1.7,3.2c1.2,1.2,3.1,1.7,4.8,1.4
				c1.7-0.2,3.3-1.1,4.7-2.1" style="fill:none;stroke:#606060;stroke-miterlimit:10;"/>
      <path d="M254.8,260.8c0.6-1.2-1.8-2.5-3-1.9s-1.8,2.1-1.9,3.4
				c-0.2,1.6,0.1,3.6,1.6,4.3c1.3,0.6,2.8-0.2,3.6-1.4c0.7-1.2,0.9-2.6,0.9-4c0-0.8-0.2-2-1-2.1c-0.6,2.2,0,4.7,1.5,6.4
				c0.5,0.6,1.5,1.1,2,0.4c0.2-0.2,0.2-0.5,0.2-0.7c0.1-1.2,0-2.3-0.3-3.4c-0.2-0.8-0.2-1.8,0.6-2c0.6-0.1,1.1,0.6,1.3,1.2
				c0.6,1.8,1,3.7,1.1,5.6c0-1.5-0.6-2.9-0.4-4.3c0.1-1.4,1.5-3,2.9-2.4c0.9,0.4,1.3,1.5,1.4,2.5c0.1,1,0.1,2.1,0.6,2.9
				c0.6,0.8,2,1.1,2.5,0.3" style="fill:none;stroke:#606060;stroke-miterlimit:10;"/>
      <path d="M285.6,261.2c1,1.2,4.2,1,4.6-0.5c0.4-1.5-1.2-3.1-2.7-2.7
				c-1.4,0.4-2.1,2.1-2,3.6c0.1,3,2.2,5.7,5,6.6c0.5,0.2,1,0.3,1.5,0.1c1.2-0.3,1.7-1.8,1.7-3c0-1.3-0.4-2.5-0.1-3.7
				c0.1-0.4,0.3-0.9,0.7-1c0.9-0.4,1.6,0.7,1.9,1.6c0.5,1.4,1.6,5.3,1,4.4c-0.6-1.3-0.8-2.8-0.7-4.2c0.1-0.7,0.3-1.6,1-1.8
				c1.2-0.5,2.2,0.9,2.7,2.1c0.6,1.6,1.1,3.2,1.5,4.9" style="fill:none;stroke:#606060;stroke-miterlimit:10;"/>
      <path d="M307.1,260.5c-0.5-1.1-2.3-1.1-3.2-0.3c-0.9,0.9-1.1,2.2-1,3.5
				c0.1,1.1,0.4,2.3,1.4,2.7c1.1,0.5,2.6-0.4,3-1.5c0.5-1.2,0.2-2.5,0-3.8c-0.1-2.7,2.5,5.3,2.5,8.2c0,2.9-1.8,6-4.6,6.5
				c-0.3,0.1-0.7,0.1-1,0c-0.5-0.2-0.9-0.7-1.1-1.1c-1.5-3.1,0.8-7.3,4.1-7.8c2.2-0.3,4.8,0.6,6.4-0.9c1.3-1.2,1.1-3.3,0.8-5.1
				c-0.7,1.9-0.5,4.2,1,5.5c1.5,1.3,4.4,0.8,4.9-1.1" style="fill:none;stroke:#606060;stroke-miterlimit:10;"/>
      <path d="M314.5,254.7c0.5,0.1,0.4,0.3,0.6-0.2" style="fill:none;stroke:#606060;stroke-miterlimit:10;"/>
      <path d="M320.4,265.4c0.5-1.2,0.2-3,0.6-4.2c0.2-0.7,0.8-1.5,1.5-1.4
				c0.3,0,0.6,0.2,0.9,0.5c1.8,1.6,2.8,4.1,2.6,6.5c-0.4,0.8-0.9-3.1-0.4-4.6c0.5-1.5,2.5-2.5,3.7-1.4c0.9,0.8,0.8,2.3,0.7,3.5
				c-0.1,1.2,0.4,2.8,1.6,3c0.7,0.1,1.4-0.3,1.9-0.8c1.5-1.4,2.3-3.5,2.2-5.5c0-0.4-0.1-0.7-0.3-1c-0.5-0.6-1.6-0.3-2,0.4
				c-0.4,0.7-0.4,1.5-0.4,2.3c0,1,0.2,2.2,1.1,2.7c0.4,0.2,1,0.2,1.5,0.2c1.8-0.1,3.8-0.4,5.1-1.7c1.3-1.3,1.1-4.1-0.7-4.5
				c-1.2-0.3-2.5,0.7-2.8,2c-0.2,1.2,0.4,2.5,1.3,3.4c1.6,1.6,4.2,2,6.2,1c2-1,3.3-3.3,3-5.6c-0.1-0.9-0.6-1.9-1.5-1.8
				c-0.2,1.2,1,2.4,2.3,2.4s4.3-2,3.2-1.7c-1.4,1.2-2.8,2.6-2.8,4.3c0.1,2,2.2,3.4,4.1,3.4c2,0.1,3.8-0.8,5.6-1.7"
            style="fill:none;stroke:#606060;stroke-miterlimit:10;"/>
		</g>
    <path d="M214.1,367.6c1.3-1.3,1.7-3.7,1.8-5.7c0.2-0.9,0.6,5.6,2.3,5.7
			s3.2-6.2,2.6-5.3c-0.5,2.3,1,5.5,3.3,5.3c0.6,0.4,0.7-6.9,0.9-5.4c0.1,0.2,2.4,2.7,2.3,4.6c-0.1,1.2,0.4-4.1,1.9-5
			c0.8-0.2,1.5,3.8,1.2,5.7" style="fill:none;stroke:#606060;stroke-miterlimit:10;"/>
    <path d="M203.4,361.9c3.2,0.9,5.9-2.5,6.8-5.7c2-7.1-3.2-24.4-5-20.5
			c-2.2,3.8-1.9,8.6-1.3,13c0.6,4.5,0.8,9.1,1.7,13.5c0.3,1.5,0.4,4.2,1.3,5.5c0.4,0.6,1.2,0.3,1.6,0.1"
          style="fill:none;stroke:#606060;stroke-miterlimit:10;"/>
    <path d="M234.6,361.9c0.5-0.4-0.4-1.2-0.8-0.8c-1.6,1.1-1.9,3.7-0.5,5.1
			c1.4,1.4,4,1.2,5.1-0.4" style="fill:none;stroke:#606060;stroke-miterlimit:10;"/>
    <path d="M236.2,361c2.4,0.5,4.8-1.5,5.7-3.8s0.6-4.9,0.3-7.3
			c-0.2-1.5-0.8-3.3-2.3-3.4c-1.4,0-2.2,1.6-2.5,2.9c-1.4,5.8-1,12.1,1.2,17.7c0.2,1.3,0.2-5.8,3.5-5.9c1.3,0.3,0,4.9,0.7,6"
          style="fill:none;stroke:#606060;stroke-miterlimit:10;"/>
    <path d="M261,362.6c-0.3-0.7-0.7-1.7-1.7-1.9c-1-0.2-2.5,0.7-2.8,1.7
			s-0.1,2,0.1,3c0.1,0.6,0.3,1.2,0.7,1.6c0.9,0.9,2.6,0.4,3.2-0.7C261.1,365.2,261.1,363.8,261,362.6c0.5,3.4,4.8,5.6,7.9,4"
          style="fill:none;stroke:#606060;stroke-miterlimit:10;"/>
    <path d="M293.8,358.9c-1.8-0.2-4.4,0.2-4.3,2c0,1.4,1.7,2,3,2.5
			s2.5,1.5,2.3,2.9c-0.1,0.9-1.7,0.6-2.6,0.7c-3,0.1-2.8-1.1-2.1-1.2"
          style="fill:none;stroke:#606060;stroke-miterlimit:10;"/>
    <path d="M295.3,348.2c-0.3,4.3-0.2,8.5,0.2,12.4c0.3,2.3,1.5,4.6,3.8,5.1
			c1.1,0.2,2.3,0.1,3.3-0.1c2.2-0.4,2.8-2.7,3.1-4.4s-1.5-3.6-3.1-3c-1.5,0.6-1.6,2.6-1.5,4.2c0.1,0.9,0.2,1.9,0.9,2.5
			c1,0.8,2.6,0.1,3.2-1c0.6-1.1,0.5-2.5,0.4-3.8c0.2,2.2,1.5,4.2,3.4,5.2c1,0.9,2.6-8.1,2.5-7.4c0.1-0.8,2,6.7,4.4,9.1
			c0.6,0.6-0.1-19.3-0.1-18.8c-0.3-5.9,2.6,18.5,3.1,17.4c2-0.2,2.9-6.4,3.2-4.4c-0.1-0.5,0.7,2.5,1,3.7c0.2,0.6,0.4,1.4,1,1.6
			c1,0.4,1.9-0.7,2.1-1.7c0.2-1,0.5-4,0.5-3.8c0.2-1.7,0,4.4,1,5.8"
          style="fill:none;stroke:#606060;stroke-miterlimit:10;"/>
    <path d="M329,363.5c0.9,5,0.8,8.9,2.2,13c-2.4-1.5-2.2-4.6-2.5-7.5
			c-0.2-1.9,0.3-3.8,0.8-5.6s1.9-3.5,3.8-3.7c0.4,0,0.9,0,1.2,0.2c0.3,0.2,0.5,0.5,0.6,0.8c0.9,1.8,1,4.1-0.4,5.5
			c-1.4,1.4-4.5,0.5-4.3-1.5" style="fill:none;stroke:#606060;stroke-miterlimit:10;"/>
    <path d="M311.9,354.2c4.1,0.6,8.5-0.3,11.9-2.6" style="fill:none;stroke:#606060;stroke-miterlimit:10;"/>
    <path d="M291.6,353.3c1.7-0.8,3.2-1.6,7.9-1.8" style="fill:none;stroke:#606060;stroke-miterlimit:10;"/>
    <path d="M211.9,362.3c-1.6-0.3-3.5,0.5-4.1,2c-0.6,1.5,0.5,3.6,2.2,3.7
			c1.1,0,2.2-0.8,2.6-1.9C212.9,365,211.8,360.5,211.9,362.3c0.2,0.9,0.4,2.3,0.6,3.3c0.2,0.9,1.3,2.6,1.8,1.8"
          style="fill:none;stroke:#606060;stroke-miterlimit:10;"/>
	</g>
</g>
  <g id="Calque_6">
	<g id="hire">

			<text style="fill:#D24537; font-family:'Montserrat-Regular'; font-size:30.0371px;"
            transform="matrix(1 0 0 1 607.999 226.5913)">Do you want to hire me ?</text>
	</g>
    <g id="click-here-text">
		<path d="M830.7,398c-8.2,3.9,13.6-10.2,27.8-12.7c31.4-5.6,46.2,9.9,46.2,9.9l3-3l1.3,11.6l-13.1-4.2
			l4.8-1.5C900.6,398.1,871.1,378.8,830.7,398z" style="fill:#D24537;"/>
      <g>

				<text style="fill:#D24537; font-family:'Montserrat-Regular'; font-size:30.0371px;"
              transform="matrix(1 0 0 1 669.999 430.235)">click here!</text>
		</g>
      <circle cx="916.7" cy="422.8" id="click-here" r="17.3" style="fill:#D24537;"/>
	</g>
</g>
  <g id="Calque_7">
	<path d="M405.9,400.3
		c-59.6-19.3-125.5-20.6-188.9-13.9c-11,1.2-22.1,2.6-32,6.9c-2.7,1.2-5.3,2.6-7.1,4.7c-3.6,4.4-2.2,10.8,1.7,15s9.7,6.9,15.5,9.3
		c12.8,5.4,26,10.2,39.8,13.6c24.6,5.9,50.4,6.9,75.9,6.8c51.4-0.1,103.4-4.2,151.6-19.2c4.3-1.4,9.4-3.8,9.2-7.7
		c-0.1-1.8-1.5-3.4-2.9-4.8c-8.3-7.9-20.5-11.9-32.5-14.9c-22.1-5.5-44.9-8.7-67.8-10.7c-45.9-4-92.5-3.2-137.8,4.4
		c-11.9,2-23.7,4.5-34.9,8.4c-8.3,2.9-17.2,7.8-18.3,15.3c-0.5,3.8,1.2,7.7,3.8,10.8c7.6,9.2,21.5,12.8,34.6,14.6
		c37.8,5.3,76.5,1.1,114.7-2.5c40.1-3.8,80.3-6.8,120.5-9.9" id="circle-work"
        style="fill:none;stroke:#B2B2B2;stroke-width:2;stroke-miterlimit:10;"/>
    <g id="arrow-work">
		<path d="M498.8,409.3c24.5,6.3,51-0.8,72.5-14
			c21.5-13.3,38.9-32.2,55.3-51.5c8.4-9.8,16.8-20,22.1-31.7"
          style="fill:none;stroke:#B2B2B2;stroke-width:2;stroke-miterlimit:10;"/>
      <path d="M630.9,316.1c7.4-3.9,14.6-8.3,21.4-13.2
			c0.6-0.4,1.3-0.9,2.1-0.8c1.5,0.2,1.7,2.2,1.6,3.7c-0.4,4.3-0.8,8.6-1.2,12.9"
            style="fill:none;stroke:#B2B2B2;stroke-width:2;stroke-miterlimit:10;"/>
	</g>
</g>
  <g id="Calque_9">
	<g id="success-7">
		<path d="M167.3,247.5l0.7,0.6l0.8,0.7c0.5,0.4,1,0.9,1.5,1.4c1,0.9,1.9,1.9,2.8,2.9c1.8,2,3.4,4.2,4.7,6.6
			l-3.5,0.4c0.5-1.1,1-2.3,1.6-3.3c0.3-0.5,0.6-1.1,0.9-1.6c0.3-0.5,0.6-1.1,1-1.6c0.7-1,1.3-2,2.1-3c0.7-1,1.5-1.9,2.3-2.8
			c0.8-0.9,1.6-1.8,2.5-2.6c0.4-0.4,0.8-0.8,1.3-1.2c0.4-0.4,0.9-0.8,1.3-1.2c0.9-0.8,1.8-1.5,2.7-2.3c0.9-0.7,1.9-1.4,2.8-2.1
			c-0.9,0.8-1.7,1.6-2.5,2.5c-0.8,0.8-1.6,1.7-2.4,2.6c-0.4,0.4-0.7,0.9-1.1,1.3c-0.4,0.4-0.7,0.9-1.1,1.4c-0.7,0.9-1.4,1.9-2,2.8
			c-0.6,1-1.2,2-1.8,3c-0.6,1-1.1,2-1.5,3.1c-0.3,0.5-0.5,1-0.7,1.6c-0.2,0.5-0.4,1.1-0.6,1.6c-0.4,1.1-0.7,2.1-1,3.2l-1,3.7
			l-2.5-3.3c-1.4-1.9-3.1-3.6-4.9-5.2c-0.9-0.8-1.8-1.5-2.8-2.2c-0.5-0.3-1-0.7-1.5-1l-1.5-1L167.3,247.5z"
          style="fill:#44C650;"/>
	</g>
    <g id="success-8">
		<path d="M167.3,301.8l0.7,0.6l0.8,0.7c0.5,0.4,1,0.9,1.5,1.4c1,0.9,1.9,1.9,2.8,2.9c1.8,2,3.4,4.2,4.7,6.6
			l-3.5,0.4c0.5-1.1,1-2.3,1.6-3.3c0.3-0.5,0.6-1.1,0.9-1.6c0.3-0.5,0.6-1.1,1-1.6c0.7-1,1.3-2,2.1-3c0.7-1,1.5-1.9,2.3-2.8
			c0.8-0.9,1.6-1.8,2.5-2.6c0.4-0.4,0.8-0.8,1.3-1.2c0.4-0.4,0.9-0.8,1.3-1.2c0.9-0.8,1.8-1.5,2.7-2.3c0.9-0.7,1.9-1.4,2.8-2.1
			c-0.9,0.8-1.7,1.6-2.5,2.5c-0.8,0.8-1.6,1.7-2.4,2.6c-0.4,0.4-0.7,0.9-1.1,1.3c-0.4,0.4-0.7,0.9-1.1,1.4c-0.7,0.9-1.4,1.9-2,2.8
			c-0.6,1-1.2,2-1.8,3c-0.6,1-1.1,2-1.5,3.1c-0.3,0.5-0.5,1-0.7,1.6c-0.2,0.5-0.4,1.1-0.6,1.6c-0.4,1.1-0.7,2.1-1,3.2l-1,3.7
			l-2.5-3.3c-1.4-1.9-3.1-3.6-4.9-5.2c-0.9-0.8-1.8-1.5-2.8-2.2c-0.5-0.3-1-0.7-1.5-1l-1.5-1L167.3,301.8z"
          style="fill:#44C650;"/>
	</g>
    <g id="success-9">
		<path d="M167.3,351.3l0.7,0.6l0.8,0.7c0.5,0.4,1,0.9,1.5,1.4c1,0.9,1.9,1.9,2.8,2.9c1.8,2,3.4,4.2,4.7,6.6
			l-3.5,0.4c0.5-1.1,1-2.3,1.6-3.3c0.3-0.5,0.6-1.1,0.9-1.6c0.3-0.5,0.6-1.1,1-1.6c0.7-1,1.3-2,2.1-3c0.7-1,1.5-1.9,2.3-2.8
			c0.8-0.9,1.6-1.8,2.5-2.6c0.4-0.4,0.8-0.8,1.3-1.2c0.4-0.4,0.9-0.8,1.3-1.2c0.9-0.8,1.8-1.5,2.7-2.3c0.9-0.7,1.9-1.4,2.8-2.1
			c-0.9,0.8-1.7,1.6-2.5,2.5c-0.8,0.8-1.6,1.7-2.4,2.6c-0.4,0.4-0.7,0.9-1.1,1.3c-0.4,0.4-0.7,0.9-1.1,1.4c-0.7,0.9-1.4,1.9-2,2.8
			c-0.6,1-1.2,2-1.8,3c-0.6,1-1.1,2-1.5,3.1c-0.3,0.5-0.5,1-0.7,1.6c-0.2,0.5-0.4,1.1-0.6,1.6c-0.4,1.1-0.7,2.1-1,3.2l-1,3.7
			l-2.5-3.3c-1.4-1.9-3.1-3.6-4.9-5.2c-0.9-0.8-1.8-1.5-2.8-2.2c-0.5-0.3-1-0.7-1.5-1l-1.5-1L167.3,351.3z"
          style="fill:#44C650;"/>
	</g>
</g>
  <g id="tesst">
</g>
</svg>
